<?xml version="1.0" encoding="utf-8"?>
<!-- Generator: Adobe Illustrator 18.1.1, SVG Export Plug-In . SVG Version: 6.00 Build 0)  -->
<svg version="1.1" xmlns="http://www.w3.org/2000/svg" xmlns:xlink="http://www.w3.org/1999/xlink" x="0px" y="0px"
	 viewBox="0 0 200 350" enable-background="new 0 0 200 350" xml:space="preserve">
<g id="Kizze">
</g>
<g id="Squallo">
</g>
<g id="Crunch">
	<polygon id="Shadow" opacity="0.3" fill="#231F20" points="149,319.8 56,318.8 28,329.2 66.7,343 106.6,347 168.2,335 	"/>
	<polygon fill="#594A42" points="156.5,299 143.5,304 114,296.9 98.1,301.8 66.7,296.9 50,304.3 50,230.4 57,184.5 57,112.2 
		102.1,125.8 141.7,107 144.5,201.7 156.5,262 	"/>
	<polygon opacity="0.3" fill="#231F20" points="156.5,299 143.5,304 114,296.9 98.1,301.8 66.7,296.9 50,304.3 50,230.4 57,184.5 
		57,112.2 102.1,125.8 141.7,107 144.5,201.7 156.5,262 	"/>
	<g id="Tail_2_">
		<g id="Tail">
			<path fill="#006838" d="M114.8,220.3c0,0,15.8,67.5-53.6,67.5c-71,0-35-79.8-35-79.8s-3,56.8,26.5,56.8
				c37.2,0,38.4-44.7,38.4-44.7L114.8,220.3z"/>
		</g>
		<g id="Tail_1_" opacity="0.5">
			<path fill="#231F20" d="M114.8,220.3c0,0,15.8,67.5-53.6,67.5c-71,0-35-79.8-35-79.8s-3,56.8,26.5,56.8
				c37.2,0,38.4-44.7,38.4-44.7L114.8,220.3z"/>
		</g>
	</g>
	<g id="Fire">
		<polygon fill="#EF4136" points="42.8,96.9 52.1,88.8 59.3,70.3 72.8,59.6 79,44 70.7,34 63.4,39.3 70.7,29.7 79,33.7 87.7,42 
			90,54.3 85,64.5 102,51.7 103.5,36.3 106.6,51.3 104.3,61 123.5,43.3 126.7,31 140,25 144,14 136.7,7 147.7,11 148,19.3 
			141.7,31.3 156.5,24.5 165,16.5 161,29 148,36.9 141.7,48 132.8,59.6 141.7,54.3 157,39.5 156.6,49.3 168.2,41 177.3,25 177.3,37 
			170,49.3 183.7,42.3 193,25.7 190,20 195.7,23.3 195.7,31.7 193,46.3 187.7,57.3 193,53.3 185.3,68.6 191,65.9 178,85.5 
			168.2,86.6 158,93.2 144.5,93.3 132.8,100 111.7,100 100.9,110.8 72.8,109.6 		"/>
		<polygon fill="#F15A29" points="48.7,96.5 59,87.8 67,71.5 76.1,62.2 81.2,54 78,67 80,72.5 89.6,65.9 98.6,60 95.8,71.5 
			104.3,66.9 119.2,60.5 123.5,51 131.5,43.5 132,38.8 138.5,36.8 135.2,40.8 134.8,47.5 128.4,55 127.2,67 140.8,62.2 149,55.2 
			149,62.2 159.5,52 164.2,50 162,58.9 171.2,60.8 177,57.2 177.1,52.5 183.2,50.5 180.2,54 184.2,62.2 182.2,71.5 176.5,80.9 
			168.2,84.8 157,90.1 144.5,91 131.8,95.8 111.3,97 100.9,107 73,106.8 		"/>
		<polygon fill="#EF4136" points="121,11 114.8,15.3 111.7,22 121,16.5 		"/>
		<polygon fill="#EF4136" points="171.2,20 174.5,11.2 185.5,8 188.2,2 188.2,12.3 175.9,15.8 		"/>
		<polygon fill="#EF4136" points="48.7,70.3 52.1,59.6 62.5,54 54.7,61.5 		"/>
	</g>
	<g id="Body">
		<polygon fill="#006838" points="122.2,115.5 117.2,101.8 87.5,101.8 82.5,115.5 43,117.2 36.6,165.1 42,192.7 62.5,168 77.3,190 
			77.3,195 68.3,202.1 62.5,221.2 59.5,240.5 70.2,265.2 68.2,269.5 71.8,274.5 79.7,314.8 73.7,319.4 80.6,326 87.3,326 
			94.1,321.3 87.3,314.8 88.8,276.8 92.5,270.5 87.2,265 94.5,245.8 92.2,233.5 112.5,233.5 111,244.5 118.1,263.5 114.7,269.5 
			118.1,277.8 118.1,315.7 111,321.6 118.1,326 124.8,326 131.8,320.1 125.7,316 133.5,276.3 136.4,271.1 135.2,265.2 146,242 
			143.2,222.8 136,204.3 126.7,195 126.7,188.1 141.7,167.3 150.7,186.7 148,202.1 164.3,231.7 160.2,235.9 166,249.4 175,254.3 
			177,247.2 184.3,248.7 186,242 193,239.7 189.5,226.4 180.6,225.8 175.3,196.7 168.7,185.4 171,172 168.2,148.3 170.3,136.1 
			163.8,119.2 		"/>
		<polygon opacity="0.1" fill="#231F20" points="102.3,195 126.7,195 126.7,188.1 141.7,167.3 141.7,152 141.7,135.8 123.5,152 
			102.4,150.5 102.4,161.3 87.2,164 102.4,165.4 102.4,174.2 87.2,176.2 102.3,180 		"/>
	</g>
	<g id="Left_Foot_Claws_1_">
		<polygon fill="#C2B59B" points="77.3,320.5 71.5,318.8 66.7,333 73.7,326 		"/>
		<polygon fill="#C2B59B" points="91.8,326.1 98.3,334 96.5,320.2 91.9,322.4 		"/>
		<polygon opacity="0.1" fill="#231F20" points="77.3,320.5 71.5,318.8 66.7,333 73.7,326 		"/>
		<polygon opacity="0.1" fill="#231F20" points="91.8,326.1 98.3,334 96.5,320.2 91.9,322.4 		"/>
		<polygon fill="#C2B59B" points="78.9,319.8 73.7,322.8 75.2,331 78.5,335 80.6,326 		"/>
		<polygon fill="#C2B59B" points="89.2,320.2 87.3,326 88.5,329.3 91.8,334.5 94.1,324.5 		"/>
		<polygon fill="#C2B59B" points="82.5,320.2 80.6,326 81.8,329.3 85.1,334.5 87.3,326 		"/>
	</g>
	<g id="Left_Foot_Claws">
		<polygon fill="#C2B59B" points="128.1,320.5 134.3,319.8 138,333 131.8,326 		"/>
		<polygon fill="#C2B59B" points="113.7,326.1 106.7,333 108.9,321 113.6,322.4 		"/>
		<polygon opacity="0.1" fill="#231F20" points="128.1,320.5 134.3,319.8 138,333 131.8,326 		"/>
		<polygon opacity="0.1" fill="#231F20" points="113.7,326.1 106.7,333 108.9,321 113.6,322.4 		"/>
		<polygon fill="#C2B59B" points="126.8,320.2 131.8,321.5 130.5,329.7 127.8,334 124.3,325.9 		"/>
		<polygon fill="#C2B59B" points="116.4,321 118.1,326 117.5,329.3 113.7,334.5 112.3,323.1 		"/>
		<polygon fill="#C2B59B" points="122.9,320.2 124.3,325.9 123.7,329.3 120.7,334 118.1,326 		"/>
	</g>
	<g id="Left_Hand_Claws">
		<polygon fill="#C2B59B" points="173.9,251.2 167.9,248.5 165,242.6 166.5,235.2 173.9,242 		"/>
		<polygon fill="#C2B59B" points="188.9,238.9 184.5,240.3 181.1,232.9 181.8,227.1 188.2,233.5 		"/>
		<polygon fill="#C2B59B" points="183.2,245.8 173.9,242 173.2,235.2 174.8,230.4 184.5,240.3 		"/>
		<polygon opacity="0.1" fill="#231F20" points="173.9,251.2 167.9,248.5 165,242.6 166.5,235.2 173.9,242 		"/>
		<polygon opacity="0.1" fill="#231F20" points="188.9,238.9 184.5,240.3 181.1,232.9 181.8,227.1 188.2,233.5 		"/>
		<polygon opacity="0.1" fill="#231F20" points="183.2,245.8 173.9,242 173.2,235.2 174.8,230.4 184.5,240.3 		"/>
		<polygon fill="#C2B59B" points="186,235.2 178.2,238.4 171.4,237.4 178.9,229.2 188,228.2 		"/>
	</g>
	<g id="Harness">
		<polygon fill="#3C2415" points="64,145.7 62.5,168 102.7,142.1 115.2,135.8 141.7,152 141.7,146.4 122,132.3 134,126.3 
			141.7,112.2 121,112.2 102.4,120.5 74.8,138.6 67.2,130.9 62.5,133.4 67.6,143.3 		"/>
		<polygon opacity="0.3" fill="#231F20" points="102.7,142.1 115.2,135.8 141.7,152 141.7,146.4 122,132.3 134,126.3 141.7,112.2 
			121,112.2 102.4,120.5 83.9,132.6 82.7,143.7 91.5,149.3 		"/>
		<polygon fill="#A7A9AC" points="98.9,122.8 89.6,127.7 98.9,145.5 106.6,140.1 98.1,150.8 85,125.8 		"/>
	</g>
	<g id="Left_Pauldron">
		<polygon fill="#939598" points="172,134 151.8,132.1 129,121.6 130.2,113.6 128.4,107 150,104.2 171.7,107.8 173.2,114.7 		"/>
		<polygon fill="#BCBEC0" points="172.1,138.9 149,137 124.8,124 126.5,115.7 124.8,107 128,105.6 130.2,113.6 129,121.6 
			151.8,132.1 173.2,134 		"/>
	</g>
	<g id="Right_Pauldron">
		<polygon fill="#939598" points="34.2,133.8 54.5,132.1 74.8,121.6 74.8,115.5 76.1,107.2 54.8,104.2 33.1,107.8 31.6,114.7 		"/>
		<polygon fill="#BCBEC0" points="33.1,139 55.8,137 80,124 78.3,115.7 80,105.6 76.3,105.6 74.8,115.5 74.8,121.6 54.5,132.1 
			32.8,134 		"/>
	</g>
	<g id="Right_Arm_1_">
		<polygon opacity="0.1" fill="#231F20" points="44.1,153.6 41.3,178.5 52.1,155 46.5,105.6 33.5,108.6 		"/>
		<polygon id="Right_Arm" fill="#006838" points="13,174.2 22.7,196.7 42,192.7 46.3,153.6 38,121.6 41,118 39.8,105.4 28.2,100 
			25.3,104.2 21,101.8 17,106.6 11.2,105.6 13,119.3 19,121.6 		"/>
	</g>
	<g id="Sword">
		<polygon fill="#D1D3D4" points="45,105.8 47.6,115.5 168.3,83.1 180.2,69.6 		"/>
		<polygon fill="#E6E7E8" points="42.4,96.1 45,105.8 180.2,69.6 163.2,63.8 		"/>
		<path fill="#414042" d="M34.7,87.2l4.9-1.3L50,124.5l-4.9,1.3l-4.3-16.2l-29.1,7.5c-0.5,1-1.4,1.9-2.6,2.2
			c-2.1,0.6-4.3-0.7-4.9-2.8c-0.6-2.1,0.7-4.3,2.8-4.9c1.2-0.3,2.4,0,3.3,0.6l29.1-7.5L34.7,87.2z"/>
	</g>
	<g id="Right_Hand_Claws">
		<polygon fill="#C2B59B" points="13,107 14,112.8 15.8,117.4 22,120.2 20.4,112.2 18.2,108.6 		"/>
		<polygon opacity="0.1" fill="#231F20" points="13,107 14,112.8 15.8,117.4 22,120.2 20.4,112.2 18.2,108.6 		"/>
		<polygon fill="#C2B59B" points="28.7,102.6 26.5,107 28.2,112.6 33.5,116.3 34.2,106 		"/>
		<polygon fill="#C2B59B" points="21.5,104.2 20.4,112.2 22,115.3 26.5,117.4 26.5,107 		"/>
		<polygon opacity="0.1" fill="#231F20" points="28.7,102.6 26.5,107 28.2,112.6 33.5,116.3 34.2,106 		"/>
		<polygon opacity="0.1" fill="#231F20" points="21.5,104.2 20.4,112.2 22,115.3 26.5,117.4 26.5,107 		"/>
		<polygon fill="#C2B59B" points="31.4,107.9 23.4,113.1 21.5,117.9 32.2,117.4 38.6,112.2 		"/>
	</g>
	<g id="Right_Bracer">
		<polygon fill="#BCBEC0" points="17.8,124.3 38.6,121.6 40.1,126.5 16.1,142.1 		"/>
		<polygon fill="#939598" points="16.7,141.3 13.9,166.3 45.5,161.4 46.3,153.6 39.4,127 		"/>
		<polygon fill="#BCBEC0" points="12.4,174.2 45.3,166.9 46,161.3 13.4,166.3 		"/>
	</g>
	<g id="Left_Bracer">
		<polygon fill="#BCBEC0" points="149,190.5 171.3,188.1 173.9,192.3 148,195 		"/>
		<polygon fill="#BCBEC0" points="181.1,222.7 163.7,232.3 161.5,228.2 178,205.1 		"/>
		<polygon fill="#939598" points="149.3,194.9 148,202.1 162,227.5 177.1,206.3 175.3,196.7 172.7,192.3 		"/>
	</g>
	<g id="Head">
		<polygon opacity="0.1" fill="#231F20" points="119.8,108.6 111.7,107.3 102.5,112.2 93.2,107.3 85,108.6 87.5,101.8 117.2,101.8 
					"/>
		<path fill="#006838" d="M107.7,68.9l-5.2-3l-5.2,3c0,0-22.5-3-22.5,10.6l12.5,13.2l5,0.6l5.5-7.2l4.7,2.5l4.7-2.5l5.5,7.2l5-0.6
			l12.5-13.2C130.2,65.9,107.7,68.9,107.7,68.9z"/>
		<path opacity="0.1" fill="#231F20" d="M107.7,68.9l3.3,8.4l-6.7,5.3l-1.8,5.9L97.8,86l4.7,2.5l4.7-2.5l5.5,7.2l5-0.6l12.5-13.2
			C130.2,65.9,107.7,68.9,107.7,68.9z"/>
		<path fill="#2BB673" d="M144.5,71.5l-14.3,7.9l-12.5,13.2l-5,0.6l-5.5-7.2l-4.7,2.5L97.8,86l-5.5,7.2l-5-0.6L74.8,79.5l-12.3-7.9
			c8.1,7.9,10.2,13.9,10.2,13.9s-4.3,2.6-6.2,7.7c7.9-0.7,14.1,5.2,14.1,5.2l6.3,7.6l6.3-2.3l9.2,4.9l9-5.1l6.6,2.5l6.3-7.6
			c0,0,6.3-8,14.2-7.3c-1.9-5.1-6.3-5.7-6.3-5.7S136.4,79.4,144.5,71.5z"/>
		<path opacity="0.1" fill="#231F20" d="M144.5,71.5l-14.3,7.9l-12.5,13.2l-5,0.6l-5.5-7.2l-4.7,2.5l4.8,11.5l-4.8,8.6l9-5.1
			l6.6,2.5l6.3-7.6c0,0,6.3-8,14.2-7.3c-1.9-5.1-6.3-5.7-6.3-5.7S136.4,79.4,144.5,71.5z"/>
		<polygon opacity="0.3" fill="#231F20" points="96.3,90.1 98.3,87.5 100.9,89.7 98.5,88.8 		"/>
		<polygon opacity="0.3" fill="#231F20" points="108.8,90.1 106.8,87.5 104.3,89.7 106.7,88.8 		"/>
		<polygon fill="#F9ED32" points="82.8,78.3 90,81.6 90.8,90.1 82.8,85.6 		"/>
		<polygon fill="#3C2415" points="86.8,80.1 87.7,84.2 86.8,87.8 86,84.2 		"/>
		<polygon fill="#F9ED32" points="121,78.3 113.7,81.6 113,90.1 121,85.6 		"/>
		<polygon fill="#3C2415" points="117,80.1 116.1,84.2 117,87.8 117.7,84.2 		"/>
		<polygon fill="#C2B59B" points="89.6,98 94.8,98 92.6,105.8 		"/>
	</g>
	<g id="Pants">
		<polygon opacity="0.1" fill="#231F20" points="138.2,258.9 144.5,226.2 136,209.3 128.4,201.7 106,202 104.2,208.6 106.5,222.6 
			115.8,247.8 132.1,262.2 136.1,263.3 		"/>
		<polygon opacity="0.1" fill="#231F20" points="73.7,202.9 68.3,207.1 60,226.2 67.4,258.7 69.3,263.1 73.7,261.8 88.1,249.6 
			97.2,224.4 97.2,209.4 95.2,202.4 		"/>
		<polygon opacity="0.3" fill="#231F20" points="85.1,202.6 79,250.8 88.8,252.9 92.1,252.1 94.2,246.7 101.2,227.4 112,247.3 
			114.1,252.9 114.8,252.9 124.8,250.8 117.5,201.7 		"/>
		<polygon fill="#3C2415" points="97.6,241.9 105.4,241.9 100.9,233.1 		"/>
		<polygon opacity="0.3" fill="#231F20" points="97.6,241.9 105.4,241.9 100.9,233.1 		"/>
		<polygon fill="#3C2415" points="85.1,197.6 79,245.8 88.8,247.9 97.8,245.8 101,237 105,245.8 114.8,247.9 124.8,245.8 
			117.5,196.7 		"/>
		<polygon fill="#594A42" points="73.7,197.9 68.3,202.1 60,221.2 57,262 73.7,256.8 88.1,244.6 97.2,219.4 97.2,204.4 95.2,197.4 
					"/>
		<polygon fill="#594A42" points="149.8,262 144.5,221.2 136,204.3 128.4,196.7 106,197 104.2,203.6 106.5,217.6 115.8,242.8 
			132.1,257.2 		"/>
		<polygon fill="#594A42" points="57,262 68.6,261.4 67.4,258.7 		"/>
		<polygon opacity="0.1" fill="#231F20" points="57,262 68.6,261.4 67.4,258.7 		"/>
		<polygon fill="#594A42" points="149.8,262 138.2,258.9 137.2,261 		"/>
		<polygon opacity="0.1" fill="#231F20" points="149.8,262 138.2,258.9 137.2,261 		"/>
	</g>
	<g id="Belt">
		<polygon fill="#3C2415" points="75,189.8 128.4,188.1 128.4,196.7 73.7,197.9 		"/>
		<polygon opacity="0.3" fill="#231F20" points="95.8,189.1 128.4,188.1 128.4,196.7 93.9,197.4 90.8,192.3 		"/>
		<polygon fill="#A7A9AC" points="104.5,188.8 98.5,188.6 98.4,197.4 104.5,197.1 97.2,198.9 97.2,187.2 		"/>
	</g>
	<g id="Left_Greaves">
		<polygon fill="#939598" points="125.5,279 116.2,284 117,310.8 121.2,314.8 127,311.5 133.1,285.1 		"/>
		<polygon fill="#BCBEC0" points="125.6,276 134.8,284.1 134.1,286 131.1,283.6 124.8,286.5 119,282.5 115.2,284.5 114.8,282 		"/>
		<polygon fill="#BCBEC0" points="116.5,310.4 121.2,314.8 127.5,311.2 127.5,312.8 121.2,316.2 116.1,311.9 		"/>
	</g>
	<g id="Right_Greaves">
		<polygon fill="#BCBEC0" points="80.6,276.5 71.4,282.5 71.8,285.2 73.6,283.8 75.8,282 80.6,284.8 85.8,281.2 89.7,284 
			90.2,281.7 		"/>
		<polygon fill="#BCBEC0" points="77,310.8 84,312.6 89.2,310.2 89.2,307.9 84,311.2 77,309.5 		"/>
		<polygon fill="#939598" points="72.8,284.4 75.8,282 80.6,284.8 85.8,281.2 88.9,283.5 88.4,308.5 84,311.2 77.7,309.7 		"/>
	</g>
</g>
<g id="Monk">
</g>
<g id="DM">
</g>
</svg>
