<?xml version="1.0" encoding="utf-8"?>
<!-- Generator: Adobe Illustrator 19.0.0, SVG Export Plug-In . SVG Version: 6.00 Build 0)  -->
<svg version="1.1" xmlns="http://www.w3.org/2000/svg" xmlns:xlink="http://www.w3.org/1999/xlink" x="0px" y="0px"
	 viewBox="0 0 200 350" enable-background="new 0 0 200 350" xml:space="preserve">
<g id="Kizze">
	<g id="Bustle_Front">
		<polygon fill="#D1D3D4" points="-330.2,167.3 -340.5,175.6 -349.6,189.8 -352.8,209.5 -356.7,192.9 -359.3,191.2 -343.7,171.2 		
			"/>
		<polygon fill="#D7DF23" points="-359.3,191.2 -356.7,192.9 -352.8,209.5 -359.3,193.1 		"/>
		<polygon fill="#D7DF23" points="-276.7,200.7 -279.2,201.4 -286.1,214.3 -277.5,203.5 		"/>
		<polygon fill="#BCBEC0" points="-305.8,165.2 -295.7,176.6 -286.5,197.7 -286.1,214.3 -279.2,201.4 -276.7,200.7 -291.2,174.1 		
			"/>
	</g>
	<polygon id="Grown_Back" fill="#D7DF23" points="-338.5,254.5 -325.3,250.3 -312.7,255.5 -300.2,254.5 -294.8,217.2 -296.5,194.7 
		-308,165.2 -327.9,165.2 -338.8,191.5 -343.4,217.7 	"/>
	<polygon fill="#C49A6C" points="-325.2,126.2 -325.2,130.2 -338.2,133.7 -355.7,150.1 -386.5,151.2 -387.5,155.6 -354.2,156.2 
		-335.2,145.9 -330.2,167.3 -336,175 -337.2,182.8 -324.5,183.4 -314,188 -313.8,217.2 -314.8,221 -313.2,227.2 -315.5,258.2 
		-322,277.5 -315.2,282.8 -301.5,276.5 -306.5,257.5 -308,228.8 -306,222.3 -307,217 -302,197.7 -300.2,178.9 -305.8,165.2 
		-301.8,145.8 -296.5,140.9 -275.8,136.9 -259.7,112.6 -263.8,112.6 -278.5,131.3 -305.8,133.9 -316.5,130.2 -317.8,124.9 	"/>
	<g>
		<path fill="#E6E7E8" d="M-330.2,167.3c0,0-11,7.7-11,7.7c0,0-9.5,14.1-9.5,14.1l-6,39.8l2.2-1.1l12,4.6l-4.8-15.8l4.9-24.6l7-16.6
			L-330.2,167.3z"/>
		<polygon fill="#D7DF23" points="-356.7,229 -354.5,227.9 -342.5,232.5 -354.6,230.2 		"/>
		<polygon fill="#D7DF23" points="-296.4,234.1 -287.9,228.7 -285.5,229.5 -287.4,231.4 		"/>
		<polygon fill="#D1D3D4" points="-305.8,165.2 -300.2,178 -293.2,197.7 -293,220.2 -296.4,234.1 -287.9,228.7 -285.5,229.5 
			-285.5,197.1 -295,175.9 		"/>
	</g>
	<polygon fill="#594A42" points="-315.5,234 -309.8,236 -306,232.5 -306.5,257.5 -301.5,276.5 -315.2,282.8 -322,277.5 
		-315.5,258.2 	"/>
	<polygon fill="#3C2415" points="-333.5,132.5 -333.5,150.9 -335.2,145.9 -332.9,155.7 -319.3,151.2 -303.7,154.9 -301.8,145.8 
		-303.7,150.8 -307.4,133.4 -311.5,132 -319.8,148.1 -329.1,131.3 	"/>
	<polygon fill="#3C2415" points="-331.1,163.4 -319.1,164.3 -305.3,162.7 -305.8,165.2 -300.2,178.9 -300.7,190.4 -307.3,188.9 
		-314.7,190.4 -314.7,187.7 -324.5,183.4 -326,175 -330.8,175.3 -336,175 -330.2,167.3 	"/>
	<g id="Gown_Front">
		<polygon fill="#E6E7E8" points="-304.5,244.8 -300.2,254.5 -292.2,220.5 -292.2,197.7 -299,177.9 -305.8,165.2 -301.8,145.8 
			-295.2,131.3 -310.3,132.4 -312.7,131.6 -331,139.2 -325.4,142.7 -313.7,162.1 -304.4,179.9 -300.2,194.8 -298.8,219.1 		"/>
		<polygon fill="#F1F2F2" points="-332.1,132.1 -345,133.4 -335.2,145.9 -330.2,167.3 -336,175 -343.3,191.8 -348.8,216.5 
			-338.5,254.5 -334.5,246.2 -340.6,216.9 -336.4,194.8 -328.9,175.2 -325.2,167 -314.8,142.3 -309.8,138 -329.1,131.3 		"/>
	</g>
	<polygon fill="#C49A6C" points="-325.3,175 -320.9,176.2 -320.1,184.7 -324.4,222 -321,234.9 -321.7,242.6 -331.3,249 
		-335.4,236.9 -329.6,222.1 -332.7,182.9 -330.8,175.3 	"/>
	<polygon fill="#594A42" points="-327.4,196.9 -320.3,195.3 -324.4,222 -321,234.9 -321.7,242.6 -331.3,249 -335.4,236.9 
		-329.6,222.1 -333.6,193.1 	"/>
	<polygon opacity="0.1" fill="#231F20" points="-317,128.2 -321.1,131.3 -325.2,128.7 -325.2,126.7 -317.3,127 	"/>
	<path fill="#C49A6C" d="M-321.7,97.2c10,0,11.8,11.4,11.8,11.4l-0.5,12.1l-10.8,8.3l-10.4-7.7l-1.6-12.5
		C-333.1,108.9-331.7,97.2-321.7,97.2z"/>
	<path opacity="0.1" fill="#231F20" d="M-321.7,97.2c10,0,11.8,11.4,11.8,11.4l-0.5,12.1l-10.8,8.3l5.3-12.1l-4.4-5.3l4.3-3.7
		L-321.7,97.2z"/>
	<polygon opacity="0.3" fill="#231F20" points="-292.2,327 -343.4,327 -364,337 -314,343 -269,335 	"/>
	<circle fill="#58595B" cx="-315.8" cy="137.9" r="0.7"/>
	<circle fill="#58595B" cx="-313.4" cy="138.6" r="0.7"/>
</g>
<g id="Squallo">
	<polygon id="Shadow_1_" opacity="0.3" fill="#231F20" points="-61,319.8 -154,318.8 -182,329.2 -143.3,343 -103.4,347 -41.8,335 	
		"/>
	<g id="Body_1_">
		<polygon fill="#603913" points="-71.9,213.8 -69.4,214.6 -66.7,213.8 -64.5,214.5 -61.3,213.8 -58.3,214.5 -54.8,213.8 
			-54.3,204.3 -58.7,198 -60.5,174.4 -66.7,169.5 -63.6,146 -69.1,136.6 -68.3,128.7 -80.8,116.7 -95.7,114.8 -101.1,102.2 
			-121.9,102.2 -127.3,114.8 -142.2,116.7 -154.7,128.7 -158.9,134.5 -181.3,141 -185.8,156.3 -172.6,166.8 -162.9,160 -147,156.3 
			-141.3,145.3 -136.4,156.3 -134.6,177 -135.5,195.5 -146.4,213.9 -149.1,228.3 -148.1,238.8 -151.8,248.8 -151.2,259.2 
			-159.1,268.5 -153.7,298.9 -160,309.5 -157.5,328.2 -140.1,334.3 -130.1,328.8 -133.7,299 -132.5,284.5 -125.6,274.8 
			-125.8,264.8 -120,255 -119.3,244.1 -113.3,230.8 -112.6,216.3 -111.5,216.1 -109,216.3 -106.6,234 -101.4,246.2 -101.6,257 
			-95.4,267.7 -96.1,276.3 -89.1,284.5 -84.5,298.8 -89,328.5 -79,334 -61.6,327.8 -59.1,309.2 -64.4,298.3 -62.3,266.7 -69,258.5 
			-69.8,248.8 -73.6,240.3 -72.5,228.3 -74.5,215.1 -85.1,194 -88.4,177 -85.4,156.3 -80.9,175.8 -80.8,185.7 -72.3,200.3 
			-74.5,204.3 		"/>
		<path opacity="0.1" fill="#231F20" d="M-142.2,116.7l-4.4,13.5l0.5,12.9l-6.4,8.9l-10.3,8l15.8-3.7l5.8-11l4.8,11l0.7,7.5
			l16.5-8.6c-1.9-10.5-4.8-20.8-7.5-31.2L-142.2,116.7z"/>
		<polygon opacity="0.1" fill="#231F20" points="-58.7,198 -60.5,174.4 -66.7,169.5 -63.6,146 -69.1,136.6 -68.3,128.7 -80.8,116.7 
			-95.7,114.8 -101.1,102.2 -111.2,115.4 -112.3,131 -83.2,136.5 -72.1,149.4 -73.6,174.1 -66,200.3 -59.1,205.4 -58.3,211.9 
			-60.3,210.5 -63.8,212.5 -66.2,211.5 -69,213.2 -71.9,213.8 -69.4,214.6 -66.7,213.8 -64.5,214.5 -61.3,213.8 -58.3,214.5 
			-54.8,213.8 -54.3,204.3 		"/>
	</g>
	<g id="Head_1_">
		<polygon opacity="0.3" fill="#231F20" points="-123,104 -119.2,110.5 -104.2,110.3 -100.5,103.8 -99.6,107.1 -104.2,115.3 
			-119.2,115.5 -123.8,107.8 		"/>
		<path fill="#603913" d="M-127,84c0,0,0.7-13,15.3-13s14.3,13.7,14.3,13.7l-0.2,3.1l2,1.9l-0.4,5.5l-2.1,1.9l-0.2,2.8l-5.8,10.5
			l-15,0.2l-6.6-11l-0.2-2.8l-2.5-2.1l2-3.8L-127,84z"/>
		<path opacity="0.1" fill="#231F20" d="M-111.8,71c14.6,0,14.3,13.7,14.3,13.7l-0.8,15.2l-5.8,10.5l-8.1,0.1l3-5.9l-2.3-4.4l6.7-2
			l-6.8-9.5L-111.8,71z"/>
		<polygon opacity="0.3" fill="#231F20" points="-95.6,89.6 -96.1,95.1 -98.2,97 -97.7,87.7 		"/>
		<polygon opacity="0.1" fill="#231F20" points="-126.5,90.7 -126,96.6 -128.5,94.5 		"/>
		<polygon fill="#FBB040" points="-126.8,94.2 -127.7,95.2 -126.8,97.6 		"/>
		<polygon fill="#FBB040" points="-97.5,94.2 -96.6,95.2 -97.5,97.6 		"/>
		<polygon fill="#3C2415" points="-109.4,86.1 -108.6,87.7 -99.6,86.9 -104.1,85.4 		"/>
		<polygon fill="#3C2415" points="-114,86.1 -114.8,87.7 -123.8,86.9 -119.3,85.4 		"/>
		<path fill="#3C2415" d="M-100.4,99.4l-6.4,3.4l-4.8-2.7l-5.1,2.4l-6.6-3.2l-2.7-5.2l0.2,5.3l5.4,11l8.7,10.2l8.6-10.2l4.8-10.7
			l0.2-5.1L-100.4,99.4z M-116.2,108.2l4.6-3.8l4.3,3.8l-4.3-0.8L-116.2,108.2z"/>
		<polygon fill="#C2B59B" points="-114.6,92.4 -118.6,89.1 -123.5,90.7 -118.7,91.9 		"/>
		<polygon fill="#231F20" points="-117.3,91.5 -116.2,91 -118.6,89.1 -121,89.9 -120.6,91 		"/>
		<polygon fill="#C2B59B" points="-108.5,92.4 -104.5,89.1 -99.6,90.7 -104.4,91.9 		"/>
		<polygon fill="#231F20" points="-105.8,91.5 -106.8,91 -104.5,89.1 -102.1,89.9 -102.5,91 		"/>
	</g>
	<g id="Greaves">
		<polygon fill="#414042" points="-135.5,195.5 -146.4,213.9 -149.1,228.3 -148.1,238.8 -151.8,248.8 -151.2,259.2 -159.1,268.5 
			-153.7,298.9 -160,309.5 -157.5,328.2 -140.1,334.3 -130.1,328.8 -133.7,299 -132.5,284.5 -125.6,274.8 -125.8,264.8 -120,255 
			-118.8,243.1 -113.3,230.8 -112.6,216.3 -109,216.3 -106.6,234 -101.4,246.2 -101.6,257 -95.4,267.7 -96.1,276.3 -89.1,284.5 
			-84.5,298.8 -89,328.5 -79,334 -61.6,327.8 -59.1,309.2 -64.4,298.3 -62.3,266.7 -69,258.5 -69.8,248.8 -73.4,237.9 -72.5,228.3 
			-74.5,215.1 -85.1,194 		"/>
		<polygon opacity="0.1" fill="#231F20" points="-123.6,195.8 -134.5,230 -136,239 -137.5,249.2 -140.5,267.5 -145.2,281.5 
			-144.3,297.2 -144.3,318.5 -140.1,334.3 -130.1,328.8 -133.7,299 -132.5,284.5 -125.6,274.8 -125.8,264.8 -120,255 -118.8,243.1 
			-113.3,230.8 -112.6,216.3 -99.3,202.8 -94.8,228.5 -92.7,237.9 -91.5,251.2 -84.6,269.9 -75.4,282.2 -75.4,298 -75.4,318.5 
			-79,334 -61.6,327.8 -59.1,309.2 -64.4,298.3 -62.3,266.7 -69,258.5 -69.8,248.8 -73.4,237.9 -72.5,228.3 -74.5,215.1 -85.1,194 
					"/>
		<polygon opacity="0.3" fill="#231F20" points="-88.1,322.6 -78.5,326.8 -64.1,322.6 -59.4,311.4 -61.6,327.8 -79,334 -89,328.5 		
			"/>
		<polygon opacity="0.3" fill="#231F20" points="-160,309.5 -155,321.4 -141.8,327 -130.8,322.7 -130.1,328.8 -140.1,334.3 
			-157.5,328.2 		"/>
		<polygon fill="#FBB040" points="-148,212.8 -146,209.8 -133.3,227.5 -111.8,224.2 -111.8,227.5 -134.8,231.2 		"/>
		<polygon fill="#FBB040" points="-150.2,239.5 -136,237.9 -117.8,244.5 -117.8,247.8 -136.5,240.5 -151.2,242.8 		"/>
		<path fill="#FBB040" d="M-110,224.8c0,0,0,4,0,3.8s16,1.5,16,1.5l18.7-19l-2.1-2.9l-17.9,18.4L-110,224.8z"/>
		<polygon fill="#FBB040" points="-104.3,244.5 -92.7,235.8 -71.9,237.9 -71.9,240.1 -92.7,239.2 -103,247.8 		"/>
		<polygon fill="#FBB040" points="-102.3,259.2 -90.6,252.5 -68.4,249 -69.6,247.8 -91.6,250 -104.3,257.5 		"/>
		<polygon fill="#FBB040" points="-98.3,266.2 -83.6,267.5 -68.4,255 -68.4,257.2 -83.4,270 -97.1,268.8 		"/>
		<polygon fill="#FBB040" points="-96.8,276.4 -76.6,279 -61.5,266.7 -61.5,272.8 -75.4,288.5 -94.3,280.2 		"/>
		<polygon fill="#FBB040" points="-153.2,249.8 -137,247.8 -118.8,255 -120.1,258 -137.3,250.5 -153.2,251.8 		"/>
		<polygon fill="#FBB040" points="-153.2,258 -139.8,264.5 -123.6,264.5 -123.6,267.5 -140.5,267.5 -153.2,260.5 		"/>
		<polygon fill="#FBB040" points="-160.2,266.7 -144.7,277.8 -123.6,274.2 -125.3,277.6 -145.5,286 -160.2,270 		"/>
		<polygon fill="#FBB040" points="-86.9,305.6 -76,295.8 -58.3,305.6 -58.3,310.3 -76,299.8 -86.9,310.3 		"/>
		<polygon fill="#FBB040" points="-157.1,303.4 -157.1,299.4 -144.9,295.2 -131.5,303.4 -131.5,307.4 -144.9,298.4 		"/>
		<polygon fill="#FBB040" points="-88.7,315.9 -76,316.8 -58.3,316.4 -58.3,321.1 -76,321.1 -88.7,318.5 		"/>
		<polygon fill="#FBB040" points="-160,314.9 -144.3,316.2 -131.5,314.9 -130.5,318.8 -144.3,319.9 -160,317.4 		"/>
	</g>
	<g id="Shirt">
		<polygon fill="#262262" points="-137.9,119.9 -141.5,136.5 -141.3,145.3 -136.5,156.3 -134.6,177 -136,187.6 -137,195.5 
			-143.4,203.8 -125,213.8 -96.8,213 -79.1,203.2 -85,194 -86.4,186.7 -88.3,177 -85.3,156.3 -83.2,145 -83.2,136.5 -88.9,120.8 
			-111.6,132.1 		"/>
		<polygon opacity="0.3" fill="#231F20" points="-111.2,213.8 -96.8,213 -79.1,203.2 -85,194 -86.4,186.7 -88.3,177 -85.3,156.3 
			-97.1,158.2 -111.7,156.3 -111.6,168.4 -120.1,170 -111.5,172.5 		"/>
		<polygon fill="#FBB040" points="-138.8,123.8 -113.2,134.5 -87.2,127.5 -90.2,115.5 -112.3,129 -137,115.5 		"/>
		<polygon opacity="0.1" fill="#231F20" points="-138.8,123.8 -113.2,134.5 -87.2,127.5 -90.2,115.5 -112.3,129 -137,115.5 		"/>
	</g>
	<g id="Belt_1_">
		<polygon fill="#262262" points="-135.4,183.2 -136,187.6 -126.8,194.9 -122.5,208.8 -121.5,271.2 -99.8,277.6 -100,208.1 
			-92.6,194.9 -86.4,186.7 -87.2,183.5 -112.1,188.3 		"/>
		<polygon opacity="0.5" fill="#231F20" points="-135.4,183.2 -136,187.6 -126.8,194.9 -122.5,208.8 -121.5,271.2 -99.8,277.6 
			-100,208.1 -92.6,194.9 -86.4,186.7 -87.2,183.5 -112.1,188.3 		"/>
		<polygon opacity="0.3" fill="#231F20" points="-111.8,274 -99.8,277.6 -100,208.1 -92.6,194.9 -86.4,186.7 -87.2,183.5 
			-112.1,188.3 		"/>
		<polygon fill="#414042" points="-87.2,179 -98.2,184.5 -123.8,183.5 -136,179 -137.5,187.6 -122.5,191 -98.2,191 -85.7,186.7 		
			"/>
		<polygon opacity="0.1" fill="#231F20" points="-87.2,179 -98.2,184.5 -115,183.8 -120.1,186.9 -114.2,191 -98.2,191 -85.7,186.7 
					"/>
		<polygon fill="#414042" points="-105.4,209.8 -102.9,183.2 -110,183 -111.6,209.1 -109,216.3 		"/>
		<polygon opacity="0.3" fill="#231F20" points="-105.4,209.8 -102.9,183.2 -110,183 -111.6,209.1 -108.2,206 		"/>
		<polygon fill="#414042" points="-100.9,189.9 -112,184 -117.8,186.7 -103.5,195.8 		"/>
		<polygon fill="#FBB040" points="-113.2,181.8 -122.5,186.7 -112.4,194.9 -109.4,192.1 -117.8,186.7 -110,183 		"/>
	</g>
	<g id="Left_Pauldron_1_">
		<polygon fill="#414042" points="-88,112.3 -80.2,112.3 -68.2,120.5 -65.5,131 -88,129 		"/>
		<polygon fill="#FBB040" points="-92.6,109.6 -90,130.5 -64,135.5 -60.8,128 -87.2,127.5 -86,109 		"/>
	</g>
	<g id="Right_Pauldron_1_">
		<polygon fill="#414042" points="-137.2,111.6 -144.2,111.6 -156.8,118.2 -157.9,128.2 -140.2,128.2 		"/>
		<polygon fill="#FBB040" points="-134.2,109 -138.2,129 -160,132.1 -160,123.8 -141,126 -140.2,109.6 		"/>
	</g>
	<g id="Left_Bracer_1_">
		<polygon fill="#414042" points="-80.8,174.9 -80.6,185.7 -72.9,199 -58.7,195 -60.3,174.4 -66.5,169.5 -73.6,174.1 		"/>
		<polygon opacity="0.1" fill="#231F20" points="-70.7,181.2 -66,197.6 -58.7,195 -60.3,174.4 -66.5,169.5 -73.6,174.1 		"/>
		<polygon fill="#FBB040" points="-65.2,166.8 -73.9,173.2 -82.9,172.3 -82.2,175.8 -73.3,175.4 -64.9,169.5 		"/>
		<polygon fill="#FBB040" points="-81.8,179 -71.8,179 -61.8,171.6 -60.3,173.3 -69.5,184.5 -82,181.8 		"/>
		<polygon fill="#FBB040" points="-73.6,199.2 -58.3,194.9 -58.3,197.6 -72.7,200.3 		"/>
	</g>
	<g id="Bident">
		<polygon fill="#414042" points="-161.8,328 -166.8,328 -166.8,80.8 -174.5,74.5 -173.3,39 -169.8,73 -164.3,75.2 -161.8,80.8 		
			"/>
		<polygon fill="#FBB040" points="-168.2,82.8 -164.3,75.2 -157.9,73 -154.8,39 -154,75.8 -161.8,80.8 -168.2,90.8 		"/>
		<polygon fill="#FBB040" points="-161.1,89.1 -161.1,95.9 -168.2,99 		"/>
	</g>
	<g id="Right_Arm_2_">
		<polygon fill="#603913" points="-164.9,115 -164.9,107.8 -160.8,104.8 -158.7,109.9 -161,115.7 		"/>
		<polygon opacity="0.3" fill="#231F20" points="-164.9,115 -164.9,107.8 -160.8,104.8 -158.7,109.9 -161,115.7 		"/>
		<polygon opacity="0.3" fill="#231F20" points="-161.7,159.7 -160,159.3 -154.8,148.3 -161.1,135.1 -161.8,135.2 -161.8,126.5 
			-164.8,128 -164.8,133.8 -165.5,155.5 		"/>
		<polygon fill="#603913" points="-172.8,166.8 -163,160 -156.8,148.2 -164.8,133.8 -164.8,128 -158.7,124 -158.7,119.9 
			-157.9,119.2 -157.9,115.5 -157.1,114.4 -156.8,112.3 -170,106.3 -179,111.6 -182.6,125 -180.1,132.1 -186,156.3 		"/>
		<polygon opacity="0.1" fill="#231F20" points="-172.8,166.8 -163,160 -156.8,148.2 -164.8,133.8 -164.8,128 -158.7,124 
			-158.7,119.9 -157.9,119.2 -157.9,115.5 -157.1,114.4 -156.8,112.3 -160,113.2 -160.2,116.7 -162.9,118.5 -162.9,123 
			-168.8,128.2 -173.3,129.4 -168.6,130.8 -166.8,150.5 		"/>
	</g>
	<g id="Right_Bracer_1_">
		<polygon fill="#414042" points="-180.1,132.1 -186,156.3 -171.4,151.6 -162.1,158.2 -156.8,148.2 -164.8,133.8 		"/>
		<polygon opacity="0.1" fill="#231F20" points="-170.9,133.1 -170.9,141.5 -171.4,151.6 -162.1,158.2 -156.8,148.2 -164.8,133.8 		
			"/>
		<polygon fill="#FBB040" points="-183.9,144.1 -171.1,139.8 -156.8,146.6 -156.8,150.5 -171.1,142.6 -185.1,146.9 		"/>
		<polygon fill="#FBB040" points="-186,153.1 -171.5,149.2 -160,156 -162.2,160.9 -171.8,153.6 -186.6,156.6 		"/>
		<polygon fill="#FBB040" points="-181.2,131.5 -164.1,132.7 -164.1,134.3 -182.4,133.9 		"/>
	</g>
</g>
<g id="Squallo_Headshot">
	<circle opacity="0.1" fill="#231F20" cx="-105.6" cy="485" r="75"/>
	<g>
		<defs>
			<path id="SVGID_1_" d="M-105.6,410c-15.6,0-30.1,4.8-42.1,12.9l-0.2-7.9l-0.8,8.6c-5.8,4.1-11,8.9-15.4,14.4l-2.4-23.1l-0.9,27.4
				c-8.3,12.1-13.2,26.7-13.2,42.6c0,41.4,33.6,75,75,75c41.4,0,75-33.6,75-75C-30.6,443.6-64.2,410-105.6,410z"/>
		</defs>
		<clipPath id="SVGID_2_">
			<use xlink:href="#SVGID_1_"  overflow="visible"/>
		</clipPath>
		<g clip-path="url(#SVGID_2_)">
			<g id="Body_2_">
				<polygon fill="#603913" points="-65,589.8 -62.5,590.6 -59.9,589.8 -57.6,590.5 -54.5,589.8 -51.5,590.5 -47.9,589.8 
					-47.5,580.3 -51.8,574 -53.6,550.4 -59.8,545.5 -56.7,522 -62.3,512.6 -61.5,504.7 -73.9,492.7 -88.8,490.8 -94.2,478.2 
					-115.1,478.2 -120.4,490.8 -135.4,492.7 -147.8,504.7 -152,510.5 -174.5,517 -178.9,532.3 -165.7,542.8 -156,536 -140.2,532.3 
					-134.4,521.3 -129.6,532.3 -127.7,553 -128.7,571.5 -139.5,589.9 -142.2,604.3 -141.2,614.8 -144.9,624.8 -144.4,635.2 
					-152.3,644.5 -146.8,674.9 -153.1,685.5 -150.7,704.2 -133.2,710.3 -123.2,704.8 -126.9,675 -125.6,660.5 -118.8,650.8 
					-118.9,640.8 -113.2,631 -112.4,620.1 -106.5,606.8 -105.7,592.3 -104.6,592.1 -102.1,592.3 -99.8,610 -94.5,622.2 -94.7,633 
					-88.5,643.7 -89.2,652.3 -82.2,660.5 -77.7,674.8 -82.1,704.5 -72.2,710 -54.7,703.8 -52.2,685.2 -57.5,674.3 -55.5,642.7 
					-62.1,634.5 -63,624.8 -66.8,616.3 -65.6,604.3 -67.6,591.1 -78.2,570 -81.6,553 -78.6,532.3 -74.1,551.8 -73.9,561.7 
					-65.4,576.3 -67.6,580.3 				"/>
				<path opacity="0.1" fill="#231F20" d="M-135.4,492.7l-4.4,13.5l0.5,12.9l-6.4,8.9l-10.3,8l15.8-3.7l5.8-11l4.8,11l0.7,7.5
					l16.5-8.6c-1.9-10.5-4.8-20.8-7.5-31.2L-135.4,492.7z"/>
				<polygon opacity="0.1" fill="#231F20" points="-51.8,574 -53.6,550.4 -59.8,545.5 -56.7,522 -62.3,512.6 -61.5,504.7 
					-73.9,492.7 -88.8,490.8 -94.2,478.2 -104.4,491.4 -105.4,507 -76.4,512.5 -65.3,525.4 -66.8,550.1 -59.1,576.3 -52.2,581.4 
					-51.5,587.9 -53.5,586.5 -56.9,588.5 -59.3,587.5 -62.2,589.2 -65,589.8 -62.5,590.6 -59.9,589.8 -57.6,590.5 -54.5,589.8 
					-51.5,590.5 -47.9,589.8 -47.5,580.3 				"/>
			</g>
			<g id="Head_2_">
				<polygon opacity="0.3" fill="#231F20" points="-116.2,480 -112.3,486.5 -97.3,486.3 -93.7,479.8 -92.7,483.1 -97.3,491.3 
					-112.3,491.5 -116.9,483.8 				"/>
				<path fill="#603913" d="M-120.2,460c0,0,0.7-13,15.3-13s14.3,13.7,14.3,13.7l-0.2,3.1l2,1.9l-0.4,5.5l-2.1,1.9l-0.2,2.8
					l-5.8,10.5l-15,0.2l-6.6-11l-0.2-2.8l-2.5-2.1l2-3.8L-120.2,460z"/>
				<path opacity="0.1" fill="#231F20" d="M-104.9,447c14.6,0,14.3,13.7,14.3,13.7l-0.8,15.2l-5.8,10.5l-8.1,0.1l3-5.9l-2.3-4.4
					l6.7-2l-6.8-9.5L-104.9,447z"/>
				<polygon opacity="0.3" fill="#231F20" points="-88.8,465.6 -89.2,471.1 -91.3,473 -90.8,463.7 				"/>
				<polygon opacity="0.1" fill="#231F20" points="-119.6,466.7 -119.1,472.6 -121.6,470.5 				"/>
				<polygon fill="#FBB040" points="-120,470.2 -120.8,471.2 -120,473.6 				"/>
				<polygon fill="#FBB040" points="-90.6,470.2 -89.8,471.2 -90.6,473.6 				"/>
				<polygon fill="#3C2415" points="-102.6,462.1 -101.8,463.7 -92.7,462.9 -97.3,461.4 				"/>
				<polygon fill="#3C2415" points="-107.1,462.1 -107.9,463.7 -116.9,462.9 -112.4,461.4 				"/>
				<path fill="#3C2415" d="M-93.5,475.4l-6.4,3.4l-4.8-2.7l-5.1,2.4l-6.6-3.2l-2.7-5.2l0.2,5.3l5.4,11l8.7,10.2l8.6-10.2l4.8-10.7
					l0.2-5.1L-93.5,475.4z M-109.4,484.2l4.6-3.8l4.3,3.8l-4.3-0.8L-109.4,484.2z"/>
				<polygon fill="#C2B59B" points="-107.7,468.4 -111.7,465.1 -116.6,466.7 -111.9,467.9 				"/>
				<polygon fill="#231F20" points="-110.4,467.5 -109.4,467 -111.7,465.1 -114.1,465.9 -113.8,467 				"/>
				<polygon fill="#C2B59B" points="-101.6,468.4 -97.7,465.1 -92.7,466.7 -97.5,467.9 				"/>
				<polygon fill="#231F20" points="-99,467.5 -100,467 -97.7,465.1 -95.3,465.9 -95.6,467 				"/>
			</g>
			<g id="Greaves_1_">
				<polygon fill="#414042" points="-128.7,571.5 -139.5,589.9 -142.2,604.3 -141.2,614.8 -144.9,624.8 -144.4,635.2 -152.3,644.5 
					-146.8,674.9 -153.1,685.5 -150.7,704.2 -133.2,710.3 -123.2,704.8 -126.9,675 -125.6,660.5 -118.8,650.8 -118.9,640.8 
					-113.2,631 -112,619.1 -106.5,606.8 -105.7,592.3 -102.1,592.3 -99.8,610 -94.5,622.2 -94.7,633 -88.5,643.7 -89.2,652.3 
					-82.2,660.5 -77.7,674.8 -82.1,704.5 -72.2,710 -54.7,703.8 -52.2,685.2 -57.5,674.3 -55.5,642.7 -62.1,634.5 -63,624.8 
					-66.5,613.9 -65.6,604.3 -67.6,591.1 -78.2,570 				"/>
				<polygon opacity="0.1" fill="#231F20" points="-116.7,571.8 -127.7,606 -129.2,615 -130.6,625.2 -133.7,643.5 -138.4,657.5 
					-137.5,673.2 -137.5,694.5 -133.2,710.3 -123.2,704.8 -126.9,675 -125.6,660.5 -118.8,650.8 -118.9,640.8 -113.2,631 
					-112,619.1 -106.5,606.8 -105.7,592.3 -92.4,578.8 -87.9,604.5 -85.8,613.9 -84.6,627.2 -77.7,645.9 -68.5,658.2 -68.5,674 
					-68.5,694.5 -72.2,710 -54.7,703.8 -52.2,685.2 -57.5,674.3 -55.5,642.7 -62.1,634.5 -63,624.8 -66.5,613.9 -65.6,604.3 
					-67.6,591.1 -78.2,570 				"/>
				<polygon opacity="0.3" fill="#231F20" points="-81.3,698.6 -71.7,702.8 -57.2,698.6 -52.5,687.4 -54.7,703.8 -72.2,710 
					-82.1,704.5 				"/>
				<polygon opacity="0.3" fill="#231F20" points="-153.1,685.5 -148.2,697.4 -134.9,703 -124,698.7 -123.2,704.8 -133.2,710.3 
					-150.7,704.2 				"/>
				<polygon fill="#FBB040" points="-141.1,588.8 -139.1,585.8 -126.4,603.5 -105,600.2 -105,603.5 -127.9,607.2 				"/>
				<polygon fill="#FBB040" points="-143.4,615.5 -129.2,613.9 -111,620.5 -111,623.8 -129.7,616.5 -144.4,618.8 				"/>
				<path fill="#FBB040" d="M-103.2,600.8c0,0,0,4,0,3.8s16,1.5,16,1.5l18.7-19l-2.1-2.9l-17.9,18.4L-103.2,600.8z"/>
				<polygon fill="#FBB040" points="-97.4,620.5 -85.8,611.8 -65,613.9 -65,616.1 -85.8,615.2 -96.2,623.8 				"/>
				<polygon fill="#FBB040" points="-95.4,635.2 -83.7,628.5 -61.5,625 -62.8,623.8 -84.7,626 -97.4,633.5 				"/>
				<polygon fill="#FBB040" points="-91.5,642.2 -76.7,643.5 -61.5,631 -61.5,633.2 -76.5,646 -90.2,644.8 				"/>
				<polygon fill="#FBB040" points="-90,652.4 -69.8,655 -54.7,642.7 -54.7,648.8 -68.5,664.5 -87.5,656.2 				"/>
				<polygon fill="#FBB040" points="-146.4,625.8 -130.2,623.8 -112,631 -113.2,634 -130.4,626.5 -146.4,627.8 				"/>
				<polygon fill="#FBB040" points="-146.4,634 -132.9,640.5 -116.7,640.5 -116.7,643.5 -133.7,643.5 -146.4,636.5 				"/>
				<polygon fill="#FBB040" points="-153.3,642.7 -137.9,653.8 -116.7,650.2 -118.4,653.6 -138.6,662 -153.3,646 				"/>
				<polygon fill="#FBB040" points="-80.1,681.6 -69.1,671.8 -51.4,681.6 -51.4,686.3 -69.1,675.8 -80.1,686.3 				"/>
				<polygon fill="#FBB040" points="-150.3,679.4 -150.3,675.4 -138.1,671.2 -124.6,679.4 -124.6,683.4 -138.1,674.4 				"/>
				<polygon fill="#FBB040" points="-81.8,691.9 -69.1,692.8 -51.4,692.4 -51.4,697.1 -69.1,697.1 -81.8,694.5 				"/>
				<polygon fill="#FBB040" points="-153.1,690.9 -137.5,692.2 -124.6,690.9 -123.6,694.8 -137.5,695.9 -153.1,693.4 				"/>
			</g>
			<g id="Shirt_1_">
				<polygon fill="#262262" points="-131.1,495.9 -134.6,512.5 -134.5,521.3 -129.6,532.3 -127.8,553 -129.1,563.6 -130.1,571.5 
					-136.5,579.8 -118.1,589.8 -89.9,589 -72.2,579.2 -78.1,570 -79.6,562.7 -81.5,553 -78.5,532.3 -76.4,521 -76.4,512.5 
					-82,496.8 -104.8,508.1 				"/>
				<polygon opacity="0.3" fill="#231F20" points="-104.4,589.8 -89.9,589 -72.2,579.2 -78.1,570 -79.6,562.7 -81.5,553 
					-78.5,532.3 -90.2,534.2 -104.8,532.3 -104.7,544.4 -113.3,546 -104.7,548.5 				"/>
				<polygon fill="#FBB040" points="-131.9,499.8 -106.4,510.5 -80.4,503.5 -83.3,491.5 -105.4,505 -130.1,491.5 				"/>
				<polygon opacity="0.1" fill="#231F20" points="-131.9,499.8 -106.4,510.5 -80.4,503.5 -83.3,491.5 -105.4,505 -130.1,491.5 				
					"/>
			</g>
			<g id="Belt_2_">
				<polygon fill="#262262" points="-128.6,559.2 -129.1,563.6 -119.9,570.9 -115.6,584.8 -114.6,647.2 -92.9,653.6 -93.1,584.1 
					-85.8,570.9 -79.6,562.7 -80.4,559.5 -105.2,564.3 				"/>
				<polygon opacity="0.5" fill="#231F20" points="-128.6,559.2 -129.1,563.6 -119.9,570.9 -115.6,584.8 -114.6,647.2 -92.9,653.6 
					-93.1,584.1 -85.8,570.9 -79.6,562.7 -80.4,559.5 -105.2,564.3 				"/>
				<polygon opacity="0.3" fill="#231F20" points="-105,650 -92.9,653.6 -93.1,584.1 -85.8,570.9 -79.6,562.7 -80.4,559.5 
					-105.2,564.3 				"/>
				<polygon fill="#414042" points="-80.4,555 -91.4,560.5 -116.9,559.5 -129.1,555 -130.6,563.6 -115.6,567 -91.3,567 -78.8,562.7 
									"/>
				<polygon opacity="0.1" fill="#231F20" points="-80.4,555 -91.4,560.5 -108.1,559.8 -113.3,562.9 -107.4,567 -91.3,567 
					-78.8,562.7 				"/>
				<polygon fill="#414042" points="-98.5,585.8 -96,559.2 -103.1,559 -104.7,585.1 -102.1,592.3 				"/>
				<polygon opacity="0.3" fill="#231F20" points="-98.5,585.8 -96,559.2 -103.1,559 -104.7,585.1 -101.4,582 				"/>
				<polygon fill="#414042" points="-94,565.9 -105.2,560 -110.9,562.7 -96.6,571.8 				"/>
				<polygon fill="#FBB040" points="-106.4,557.8 -115.6,562.7 -105.5,570.9 -102.5,568.1 -110.9,562.7 -103.1,559 				"/>
			</g>
			<g id="Left_Pauldron_2_">
				<polygon fill="#414042" points="-81.1,488.3 -73.4,488.3 -61.4,496.5 -58.6,507 -81.1,505 				"/>
				<polygon fill="#FBB040" points="-85.8,485.6 -83.1,506.5 -57.1,511.5 -53.9,504 -80.4,503.5 -79.1,485 				"/>
			</g>
			<g id="Right_Pauldron_2_">
				<polygon fill="#414042" points="-130.4,487.6 -137.4,487.6 -149.9,494.2 -151,504.2 -133.4,504.2 				"/>
				<polygon fill="#FBB040" points="-127.4,485 -131.4,505 -153.1,508.1 -153.1,499.8 -134.1,502 -133.4,485.6 				"/>
			</g>
			<g id="Left_Bracer_2_">
				<polygon fill="#414042" points="-74,550.9 -73.8,561.7 -66.1,575 -51.9,571 -53.4,550.4 -59.6,545.5 -66.8,550.1 				"/>
				<polygon opacity="0.1" fill="#231F20" points="-63.8,557.2 -59.1,573.6 -51.9,571 -53.4,550.4 -59.6,545.5 -66.8,550.1 				"/>
				<polygon fill="#FBB040" points="-58.3,542.8 -67,549.2 -76.1,548.3 -75.4,551.8 -66.4,551.4 -58,545.5 				"/>
				<polygon fill="#FBB040" points="-74.9,555 -64.9,555 -55,547.6 -53.5,549.3 -62.6,560.5 -75.1,557.8 				"/>
				<polygon fill="#FBB040" points="-66.8,575.2 -51.5,570.9 -51.5,573.6 -65.8,576.3 				"/>
			</g>
			<g id="Bident_1_">
				<polygon fill="#414042" points="-154.9,704 -159.9,704 -159.9,456.8 -167.6,450.5 -166.5,415 -163,449 -157.4,451.2 
					-154.9,456.8 				"/>
				<polygon fill="#FBB040" points="-161.3,458.8 -157.4,451.2 -151,449 -147.9,415 -147.1,451.8 -154.9,456.8 -161.3,466.8 				"/>
				<polygon fill="#FBB040" points="-154.2,465.1 -154.2,471.9 -161.3,475 				"/>
			</g>
			<g id="Right_Arm_3_">
				<polygon fill="#603913" points="-158.1,491 -158.1,483.8 -153.9,480.8 -151.8,485.9 -154.1,491.7 				"/>
				<polygon opacity="0.3" fill="#231F20" points="-158.1,491 -158.1,483.8 -153.9,480.8 -151.8,485.9 -154.1,491.7 				"/>
				<polygon opacity="0.3" fill="#231F20" points="-154.9,535.7 -153.1,535.3 -148,524.3 -154.2,511.1 -155,511.2 -154.9,502.5 
					-157.9,504 -157.9,509.8 -158.6,531.5 				"/>
				<polygon fill="#603913" points="-165.9,542.8 -156.1,536 -149.9,524.2 -157.9,509.8 -157.9,504 -151.8,500 -151.8,495.9 
					-151,495.2 -151,491.5 -150.2,490.4 -149.9,488.3 -163.1,482.3 -172.1,487.6 -175.8,501 -173.3,508.1 -179.1,532.3 				"/>
				<polygon opacity="0.1" fill="#231F20" points="-165.9,542.8 -156.1,536 -149.9,524.2 -157.9,509.8 -157.9,504 -151.8,500 
					-151.8,495.9 -151,495.2 -151,491.5 -150.2,490.4 -149.9,488.3 -153.1,489.2 -153.3,492.7 -156,494.5 -156,499 -162,504.2 
					-166.5,505.4 -161.7,506.8 -159.9,526.5 				"/>
			</g>
			<g id="Right_Bracer_2_">
				<polygon fill="#414042" points="-173.3,508.1 -179.1,532.3 -164.5,527.6 -155.3,534.2 -149.9,524.2 -157.9,509.8 				"/>
				<polygon opacity="0.1" fill="#231F20" points="-164.1,509.1 -164.1,517.5 -164.5,527.6 -155.3,534.2 -149.9,524.2 -157.9,509.8 
									"/>
				<polygon fill="#FBB040" points="-177,520.1 -164.3,515.8 -149.9,522.6 -149.9,526.5 -164.2,518.6 -178.3,522.9 				"/>
				<polygon fill="#FBB040" points="-179.1,529.1 -164.7,525.2 -153.1,532 -155.4,536.9 -164.9,529.6 -179.8,532.6 				"/>
				<polygon fill="#FBB040" points="-174.4,507.5 -157.3,508.7 -157.3,510.3 -175.5,509.9 				"/>
			</g>
		</g>
	</g>
</g>
<g id="Crunch">
	<polygon id="Shadow" opacity="0.3" fill="#231F20" points="143.5,314.8 56.4,314.9 13,328 71.4,347 141.7,343 171.4,334 	"/>
	<g id="Cloak">
		<polygon fill="#594A42" points="156.5,299 143.5,304 114,296.9 98.1,301.8 66.7,296.9 50,304.3 50,230.4 57,184.5 57,112.2 
			102.1,125.8 141.7,107 144.5,201.7 156.5,262 		"/>
		<polygon opacity="0.3" fill="#231F20" points="156.5,299 143.5,304 114,296.9 98.1,301.8 66.7,296.9 50,304.3 50,230.4 57,184.5 
			57,112.2 102.1,125.8 141.7,107 144.5,201.7 156.5,262 		"/>
	</g>
	<g id="Tail_2_">
		<g id="Tail">
			<path fill="#006838" d="M114.8,220.3c0,0,15.8,67.5-53.6,67.5c-71,0-35-79.8-35-79.8s-3,56.8,26.5,56.8
				c37.2,0,38.4-44.7,38.4-44.7L114.8,220.3z"/>
		</g>
		<g id="Tail_1_" opacity="0.5">
			<path fill="#231F20" d="M114.8,220.3c0,0,15.8,67.5-53.6,67.5c-71,0-35-79.8-35-79.8s-3,56.8,26.5,56.8
				c37.2,0,38.4-44.7,38.4-44.7L114.8,220.3z"/>
		</g>
		<path opacity="0.5" fill="#231F20" d="M114.8,220.3l-24.1-1.6c0,0,16.3,59.3-43.2,59.3c-9.5,0-16.2-0.7-21-1.9
			c6.7,7,17.6,11.6,34.6,11.6C130.6,287.8,114.8,220.3,114.8,220.3z"/>
	</g>
	<g id="Fire">
		<polygon fill="#EF4136" points="42.8,96.9 52.1,88.8 59.3,70.3 72.8,59.6 79,44 70.7,34 63.4,39.3 70.7,29.7 79,33.7 87.7,42 
			90,54.3 85,64.5 102,51.7 103.5,36.3 106.6,51.3 104.3,61 123.5,43.3 126.7,31 140,25 144,14 136.7,7 147.7,11 148,19.3 
			141.7,31.3 156.5,24.5 165,16.5 161,29 148,36.9 141.7,48 132.8,59.6 141.7,54.3 157,39.5 156.6,49.3 168.2,41 177.3,25 177.3,37 
			170,49.3 183.7,42.3 193,25.7 190,20 195.7,23.3 195.7,31.7 193,46.3 187.7,57.3 193,53.3 185.3,68.6 191,65.9 178,85.5 
			168.2,86.6 158,93.2 144.5,93.3 132.8,100 111.7,100 100.9,110.8 72.8,109.6 		"/>
		<polygon fill="#F15A29" points="48.7,96.5 59,87.8 67,71.5 76.1,62.2 81.2,54 78,67 80,72.5 89.6,65.9 98.6,60 95.8,71.5 
			104.3,66.9 119.2,60.5 123.5,51 131.5,43.5 132,38.8 138.5,36.8 135.2,40.8 134.8,47.5 128.4,55 127.2,67 140.8,62.2 149,55.2 
			149,62.2 159.5,52 164.2,50 162,58.9 171.2,60.8 177,57.2 177.1,52.5 183.2,50.5 180.2,54 184.2,62.2 182.2,71.5 176.5,80.9 
			168.2,84.8 157,90.1 144.5,91 131.8,95.8 111.3,97 100.9,107 73,106.8 		"/>
		<polygon fill="#EF4136" points="121,11 114.8,15.3 111.7,22 121,16.5 		"/>
		<polygon fill="#EF4136" points="171.2,20 174.5,11.2 185.5,8 188.2,2 188.2,12.3 175.9,15.8 		"/>
		<polygon fill="#EF4136" points="48.7,70.3 52.1,59.6 62.5,54 54.7,61.5 		"/>
	</g>
	<g id="Body">
		<polygon fill="#006838" points="122.2,115.5 117.2,101.8 87.5,101.8 82.5,115.5 43,117.2 36.6,165.1 42,192.7 62.5,168 77.3,190 
			77.3,195 68.3,202.1 62.5,221.2 59.5,240.5 70.2,265.2 68.2,269.5 71.8,274.5 79.7,314.8 73.7,319.4 80.6,326 87.3,326 
			94.1,321.3 87.3,314.8 88.8,276.8 92.5,270.5 87.2,265 94.5,245.8 92.2,233.5 112.5,233.5 111,244.5 118.1,263.5 114.7,269.5 
			118.1,277.8 118.1,315.7 111,321.6 118.1,326 124.8,326 131.8,320.1 125.7,316 133.5,276.3 136.4,271.1 135.2,265.2 146,242 
			143.2,222.8 136,204.3 126.7,195 126.7,188.1 141.7,167.3 150.7,186.7 148,202.1 164.3,231.7 160.2,235.9 166,249.4 175,254.3 
			177,247.2 184.3,248.7 186,242 193,239.7 189.5,226.4 180.6,225.8 175.3,196.7 168.7,185.4 171,172 168.2,148.3 170.3,136.1 
			163.8,119.2 		"/>
		<polygon opacity="0.1" fill="#231F20" points="101.5,129.9 132.6,116.4 122.2,115.5 117.2,101.8 102.7,101.8 		"/>
		<polygon opacity="0.1" fill="#231F20" points="146,242 88.9,222.3 85,245.8 79,263.3 85,271.3 80.9,279 84,316.2 78.6,321 
			80.6,326 87.3,326 94.1,321.3 87.3,314.8 88.8,276.8 92.5,270.5 87.2,265 94.5,245.8 92.2,233.5 134.8,247.9 130,262 130,270.3 
			124.6,276 121.8,318.8 115.2,324.2 118.1,326 124.8,326 131.8,320.1 125.7,316 133.5,276.3 136.4,271.1 135.2,265.2 		"/>
		<polygon opacity="0.1" fill="#231F20" points="189.5,226.4 180.6,225.8 175.3,196.7 168.7,185.4 171,172 168.2,148.3 170.3,136.1 
			163.8,119.2 158,145.7 167.3,171.2 159.8,187.2 175.8,229.7 173.7,242.3 166,249.4 175,254.3 177,247.2 184.3,248.7 186,242 
			193,239.7 		"/>
		<polygon opacity="0.1" fill="#231F20" points="102.3,195 126.7,195 126.7,188.1 141.7,167.3 141.7,152 141.7,135.8 123.5,152 
			102.4,150.5 102.4,161.3 87.2,164 102.4,165.4 102.4,174.2 87.2,176.2 102.3,180 		"/>
		<polygon opacity="0.1" fill="#231F20" points="64.3,145.7 56.4,166.3 40.1,187.2 22.7,196.7 42,192.7 62.5,168 		"/>
	</g>
	<g id="Left_Foot_Claws_1_">
		<polygon fill="#C2B59B" points="77.3,320.5 71.5,318.8 66.7,333 73.7,326 		"/>
		<polygon fill="#C2B59B" points="91.8,326.1 98.3,334 96.5,320.2 91.9,322.4 		"/>
		<polygon opacity="0.1" fill="#231F20" points="77.3,320.5 71.5,318.8 66.7,333 73.7,326 		"/>
		<polygon opacity="0.1" fill="#231F20" points="91.8,326.1 98.3,334 96.5,320.2 91.9,322.4 		"/>
		<polygon fill="#C2B59B" points="78.9,319.8 73.7,322.8 75.2,331 78.5,335 80.6,326 		"/>
		<polygon fill="#C2B59B" points="89.2,320.2 87.3,326 88.5,329.3 91.8,334.5 94.1,324.5 		"/>
		<polygon fill="#C2B59B" points="82.5,320.2 80.6,326 81.8,329.3 85.1,334.5 87.3,326 		"/>
	</g>
	<g id="Left_Foot_Claws">
		<polygon fill="#C2B59B" points="128.1,320.5 134.3,319.8 138,333 131.8,326 		"/>
		<polygon fill="#C2B59B" points="113.7,326.1 106.7,333 108.9,321 113.6,322.4 		"/>
		<polygon opacity="0.1" fill="#231F20" points="128.1,320.5 134.3,319.8 138,333 131.8,326 		"/>
		<polygon opacity="0.1" fill="#231F20" points="113.7,326.1 106.7,333 108.9,321 113.6,322.4 		"/>
		<polygon fill="#C2B59B" points="126.8,320.2 131.8,321.5 130.5,329.7 127.8,334 124.3,325.9 		"/>
		<polygon fill="#C2B59B" points="116.4,321 118.1,326 117.5,329.3 113.7,334.5 112.3,323.1 		"/>
		<polygon fill="#C2B59B" points="122.9,320.2 124.3,325.9 123.7,329.3 120.7,334 118.1,326 		"/>
	</g>
	<g id="Left_Hand_Claws">
		<polygon fill="#C2B59B" points="173.9,251.2 167.9,248.5 165,242.6 166.5,235.2 173.9,242 		"/>
		<polygon fill="#C2B59B" points="188.9,238.9 184.5,240.3 181.1,232.9 181.8,227.1 188.2,233.5 		"/>
		<polygon fill="#C2B59B" points="183.2,245.8 173.9,242 173.2,235.2 174.8,230.4 184.5,240.3 		"/>
		<polygon opacity="0.1" fill="#231F20" points="173.9,251.2 167.9,248.5 165,242.6 166.5,235.2 173.9,242 		"/>
		<polygon opacity="0.1" fill="#231F20" points="188.9,238.9 184.5,240.3 181.1,232.9 181.8,227.1 188.2,233.5 		"/>
		<polygon opacity="0.1" fill="#231F20" points="183.2,245.8 173.9,242 173.2,235.2 174.8,230.4 184.5,240.3 		"/>
		<polygon fill="#C2B59B" points="186,235.2 178.2,238.4 171.4,237.4 178.9,229.2 188,228.2 		"/>
	</g>
	<g id="Harness">
		<polygon fill="#3C2415" points="64,145.7 62.5,168 102.7,142.1 115.2,135.8 141.7,152 141.7,146.4 122,132.3 134,126.3 
			141.7,112.2 121,112.2 102.4,120.5 74.8,138.6 67.2,130.9 62.5,133.4 67.6,143.3 		"/>
		<polygon opacity="0.3" fill="#231F20" points="102.7,142.1 115.2,135.8 141.7,152 141.7,146.4 122,132.3 134,126.3 141.7,112.2 
			121,112.2 102.4,120.5 83.9,132.6 82.7,143.7 91.5,149.3 		"/>
		<polygon fill="#A7A9AC" points="98.9,122.8 89.6,127.7 98.9,145.5 106.6,140.1 98.1,150.8 85,125.8 		"/>
	</g>
	<g id="Left_Pauldron">
		<polygon fill="#939598" points="172,134 151.8,132.1 129,121.6 130.2,113.6 128.4,107 150,104.2 171.7,107.8 173.2,114.7 		"/>
		<polygon fill="#BCBEC0" points="172.1,138.9 149,137 124.8,124 126.5,115.7 124.8,107 128,105.6 130.2,113.6 129,121.6 
			151.8,132.1 173.2,134 		"/>
	</g>
	<g id="Right_Pauldron">
		<polygon fill="#939598" points="34.2,133.8 54.5,132.1 74.8,121.6 74.8,115.5 76.1,107.2 54.8,104.2 33.1,107.8 31.6,114.7 		"/>
		<polygon fill="#BCBEC0" points="33.1,139 55.8,137 80,124 78.3,115.7 80,105.6 76.3,105.6 74.8,115.5 74.8,121.6 54.5,132.1 
			32.8,134 		"/>
	</g>
	<g id="Right_Arm_1_">
		<polygon opacity="0.1" fill="#231F20" points="44.1,153.6 41.3,178.5 52.1,155 46.5,105.6 33.5,108.6 		"/>
		<polygon id="Right_Arm" fill="#006838" points="13,174.2 22.7,196.7 42,192.7 46.3,153.6 38,121.6 41,118 39.8,105.4 28.2,100 
			25.3,104.2 21,101.8 17,106.6 11.2,105.6 13,119.3 19,121.6 		"/>
	</g>
	<g id="Sword">
		<polygon fill="#D1D3D4" points="45,105.8 47.4,114.9 166.4,82.6 175.8,70.3 		"/>
		<polygon fill="#E6E7E8" points="42.4,96.1 45,105.8 175.8,70.4 158.7,64.7 		"/>
		<path fill="#414042" d="M34.7,87.2l4.9-1.3L50,124.5l-4.9,1.3l-4.3-16.2l-29.1,7.5c-0.5,1-1.4,1.9-2.6,2.2
			c-2.1,0.6-4.3-0.7-4.9-2.8c-0.6-2.1,0.7-4.3,2.8-4.9c1.2-0.3,2.4,0,3.3,0.6l29.1-7.5L34.7,87.2z"/>
	</g>
	<g id="Right_Hand_Claws">
		<polygon fill="#C2B59B" points="13,107 14,112.8 15.8,117.4 22,120.2 20.4,112.2 18.2,108.6 		"/>
		<polygon opacity="0.1" fill="#231F20" points="13,107 14,112.8 15.8,117.4 22,120.2 20.4,112.2 18.2,108.6 		"/>
		<polygon fill="#C2B59B" points="28.7,102.6 26.5,107 28.2,112.6 33.5,116.3 34.2,106 		"/>
		<polygon fill="#C2B59B" points="21.5,104.2 20.4,112.2 22,115.3 26.5,117.4 26.5,107 		"/>
		<polygon opacity="0.1" fill="#231F20" points="28.7,102.6 26.5,107 28.2,112.6 33.5,116.3 34.2,106 		"/>
		<polygon opacity="0.1" fill="#231F20" points="21.5,104.2 20.4,112.2 22,115.3 26.5,117.4 26.5,107 		"/>
		<polygon fill="#C2B59B" points="31.4,107.9 23.4,113.1 21.5,117.9 32.2,117.4 38.6,112.2 		"/>
	</g>
	<g id="Right_Bracer">
		<polygon fill="#BCBEC0" points="17.8,124.3 38.6,121.6 40.1,126.5 16.1,142.1 		"/>
		<polygon fill="#939598" points="16.7,141.3 13.9,166.3 45.5,161.4 46.3,153.6 39.4,127 		"/>
		<polygon opacity="0.1" fill="#231F20" points="27,134.8 34.2,152.7 34.2,163.1 45.5,161.4 46.3,153.6 39.4,127 		"/>
		<polygon fill="#BCBEC0" points="12.4,174.2 45.3,166.9 46,161.3 13.4,166.3 		"/>
	</g>
	<g id="Left_Bracer">
		<polygon fill="#BCBEC0" points="149,190.5 171.3,188.1 173.9,192.3 148,195 		"/>
		<polygon fill="#BCBEC0" points="181.1,222.7 163.7,232.3 161.5,228.2 178,205.1 		"/>
		<polygon fill="#939598" points="149.3,194.9 148,202.1 162,227.5 177.1,206.3 175.3,196.7 172.7,192.3 		"/>
		<polygon opacity="0.1" fill="#231F20" points="162.5,193.5 169,202.5 166.7,221 177.1,206.3 175.3,196.7 172.7,192.3 		"/>
	</g>
	<g id="Head">
		<polygon opacity="0.1" fill="#231F20" points="119.8,108.6 111.7,107.3 102.5,112.2 93.2,107.3 85,108.6 87.5,101.8 117.2,101.8 
					"/>
		<path fill="#006838" d="M107.7,68.9l-5.2-3l-5.2,3c0,0-22.5-3-22.5,10.6l12.5,13.2l5,0.6l5.5-7.2l4.7,2.5l4.7-2.5l5.5,7.2l5-0.6
			l12.5-13.2C130.2,65.9,107.7,68.9,107.7,68.9z"/>
		<path opacity="0.1" fill="#231F20" d="M107.7,68.9l3.3,8.4l-6.7,5.3l-1.8,5.9L97.8,86l4.7,2.5l4.7-2.5l5.5,7.2l5-0.6l12.5-13.2
			C130.2,65.9,107.7,68.9,107.7,68.9z"/>
		<polygon fill="#2BB673" points="144.5,71.5 130.2,79.5 117.7,92.6 112.7,93.2 107.2,86 102.5,88.5 97.8,86 92.3,93.2 87.3,92.6 
			74.8,79.5 62.5,71.5 72.7,85.5 66.5,93.2 80.6,98.4 86.9,106 93.2,103.8 102.5,108.6 111.5,103.5 118.1,106 124.4,98.4 
			138.6,91.1 132.3,85.5 		"/>
		<polygon opacity="0.1" fill="#231F20" points="144.5,71.5 130.2,79.5 117.7,92.6 112.7,93.2 107.2,86 102.5,88.5 107.3,100 
			102.5,108.6 111.5,103.5 118.1,106 124.4,98.4 138.6,91.1 132.3,85.5 		"/>
		<polygon opacity="0.3" fill="#231F20" points="96.3,90.1 98.3,87.5 100.9,89.7 98.5,88.8 		"/>
		<polygon opacity="0.3" fill="#231F20" points="108.8,90.1 106.8,87.5 104.3,89.7 106.7,88.8 		"/>
		<polygon fill="#F9ED32" points="82.8,78.3 90,81.6 90.8,90.1 82.8,85.6 		"/>
		<polygon fill="#3C2415" points="86.8,80.1 87.7,84.2 86.8,87.8 86,84.2 		"/>
		<polygon fill="#F9ED32" points="121,78.3 113.7,81.6 113,90.1 121,85.6 		"/>
		<polygon fill="#3C2415" points="117,80.1 116.1,84.2 117,87.8 117.7,84.2 		"/>
		<polygon fill="#C2B59B" points="89.6,98 94.8,98 92.6,105.8 		"/>
	</g>
	<g id="Pants">
		<polygon opacity="0.1" fill="#231F20" points="138.2,258.9 144.5,226.2 136,209.3 128.4,201.7 106,202 104.2,208.6 106.5,222.6 
			115.8,247.8 132.1,262.2 136.1,263.3 		"/>
		<polygon opacity="0.1" fill="#231F20" points="73.7,202.9 68.3,207.1 60,226.2 67.4,258.7 69.3,263.1 73.7,261.8 88.1,249.6 
			97.2,224.4 97.2,209.4 95.2,202.4 		"/>
		<polygon opacity="0.3" fill="#231F20" points="85.1,202.6 79,250.8 88.8,252.9 92.1,252.1 94.2,246.7 101.2,227.4 112,247.3 
			114.1,252.9 114.8,252.9 124.8,250.8 117.5,201.7 		"/>
		<polygon fill="#3C2415" points="97.6,241.9 105.4,241.9 100.9,233.1 		"/>
		<polygon opacity="0.3" fill="#231F20" points="97.6,241.9 105.4,241.9 100.9,233.1 		"/>
		<polygon fill="#3C2415" points="85.1,197.6 79,245.8 88.8,247.9 97.8,245.8 101,237 105,245.8 114.8,247.9 124.8,245.8 
			117.5,196.7 		"/>
		<polygon opacity="0.1" fill="#231F20" points="101,237 105,245.8 114.8,247.9 124.8,245.8 117.5,196.7 101.5,197.2 		"/>
		<polygon fill="#594A42" points="73.7,197.9 68.3,202.1 60,221.2 57,262 73.7,256.8 88.1,244.6 97.2,219.4 97.2,204.4 95.2,197.4 
					"/>
		<polygon fill="#594A42" points="149.8,262 144.5,221.2 136,204.3 128.4,196.7 106,197 104.2,203.6 106.5,217.6 115.8,242.8 
			132.1,257.2 		"/>
		<polygon opacity="0.1" fill="#231F20" points="149.8,262 144.5,221.2 136,204.3 128.4,196.7 106,197 104.2,203.6 106.5,217.6 
			115.8,242.8 132.1,257.2 		"/>
		<polygon fill="#594A42" points="57,262 68.6,261.4 67.4,258.7 		"/>
		<polygon opacity="0.1" fill="#231F20" points="57,262 68.6,261.4 67.4,258.7 		"/>
		<polygon fill="#594A42" points="149.8,262 138.2,258.9 137.2,261 		"/>
		<polygon opacity="0.1" fill="#231F20" points="149.8,262 138.2,258.9 137.2,261 		"/>
	</g>
	<g id="Belt">
		<polygon fill="#3C2415" points="75,189.8 128.4,188.1 128.4,196.7 73.7,197.9 		"/>
		<polygon opacity="0.3" fill="#231F20" points="95.8,189.1 128.4,188.1 128.4,196.7 93.9,197.4 90.8,192.3 		"/>
		<polygon fill="#A7A9AC" points="104.5,188.8 98.5,188.6 98.4,197.4 104.5,197.1 97.2,198.9 97.2,187.2 		"/>
	</g>
	<g id="Left_Greaves">
		<polygon fill="#939598" points="125.5,279 116.2,284 117,310.8 121.2,314.8 127,311.5 133.1,285.1 		"/>
		<polygon opacity="0.1" fill="#231F20" points="125.5,279 121.2,314.8 127,311.5 133.1,285.1 		"/>
		<polygon fill="#BCBEC0" points="125.6,276 134.8,284.1 134.1,286 131.1,283.6 124.8,286.5 119,282.5 115.2,284.5 114.8,282 		"/>
		<polygon fill="#BCBEC0" points="116.5,310.4 121.2,314.8 127.5,311.2 127.5,312.8 121.2,316.2 116.1,311.9 		"/>
	</g>
	<g id="Right_Greaves">
		<polygon fill="#BCBEC0" points="80.6,276.5 71.4,282.5 71.8,285.2 73.6,283.8 75.8,282 80.6,284.8 85.8,281.2 89.7,284 
			90.2,281.7 		"/>
		<polygon fill="#BCBEC0" points="77,310.8 84,312.6 89.2,310.2 89.2,307.9 84,311.2 77,309.5 		"/>
		<polygon fill="#939598" points="72.8,284.4 75.8,282 80.6,284.8 85.8,281.2 88.9,283.5 88.4,308.5 84,311.2 77.7,309.7 		"/>
		<polygon opacity="0.1" fill="#231F20" points="80.6,284.8 85.8,281.2 88.9,283.5 88.4,308.5 84,311.2 		"/>
	</g>
</g>
<g id="Crunch_Headshot">
	<circle opacity="0.1" fill="#231F20" cx="100" cy="485" r="75"/>
	<g>
		<defs>
			<path id="SVGID_3_" d="M169.3,456.2l3.6-4.8l-7.1-2.4c-12.7-23.3-37.4-39-65.8-39c-41.4,0-75,33.6-75,75c0,41.4,33.6,75,75,75
				s75-33.6,75-75C175,474.8,173,465.1,169.3,456.2z"/>
		</defs>
		<clipPath id="SVGID_4_">
			<use xlink:href="#SVGID_3_"  overflow="visible"/>
		</clipPath>
		<g clip-path="url(#SVGID_4_)">
			<polygon id="Shadow_2_" opacity="0.3" fill="#231F20" points="140.6,695.8 53.5,695.9 10.1,709 68.5,728 138.8,724 168.5,715 			
				"/>
			<g id="Cloak_1_">
				<polygon fill="#594A42" points="153.6,680 140.6,685 111.1,677.9 95.2,682.8 63.8,677.9 47.1,685.3 47.1,611.4 54.1,565.5 
					54.1,493.2 99.2,506.8 138.8,488 141.6,582.7 153.6,643 				"/>
				<polygon opacity="0.3" fill="#231F20" points="153.6,680 140.6,685 111.1,677.9 95.2,682.8 63.8,677.9 47.1,685.3 47.1,611.4 
					54.1,565.5 54.1,493.2 99.2,506.8 138.8,488 141.6,582.7 153.6,643 				"/>
			</g>
			<g id="Tail_3_">
				<g id="Tail_5_">
					<path fill="#006838" d="M111.9,601.3c0,0,15.8,67.5-53.6,67.5c-71,0-35-79.8-35-79.8s-3,56.8,26.5,56.8
						c37.2,0,38.4-44.7,38.4-44.7L111.9,601.3z"/>
				</g>
				<g id="Tail_4_" opacity="0.5">
					<path fill="#231F20" d="M111.9,601.3c0,0,15.8,67.5-53.6,67.5c-71,0-35-79.8-35-79.8s-3,56.8,26.5,56.8
						c37.2,0,38.4-44.7,38.4-44.7L111.9,601.3z"/>
				</g>
				<path opacity="0.5" fill="#231F20" d="M111.9,601.3l-24.1-1.6c0,0,16.3,59.3-43.2,59.3c-9.5,0-16.2-0.7-21-1.9
					c6.7,7,17.6,11.6,34.6,11.6C127.7,668.8,111.9,601.3,111.9,601.3z"/>
			</g>
			<g id="Fire_1_">
				<polygon fill="#EF4136" points="39.9,477.9 49.2,469.8 56.5,451.3 69.9,440.6 76.1,425 67.8,415 60.5,420.3 67.8,410.7 
					76.1,414.7 84.8,423 87.1,435.3 82.1,445.5 99.1,432.7 100.6,417.3 103.7,432.3 101.4,442 120.6,424.3 123.8,412 137.1,406 
					141.1,395 133.8,388 144.8,392 145.1,400.3 138.8,412.3 153.6,405.5 162.1,397.5 158.1,410 145.1,417.9 138.8,429 129.9,440.6 
					138.8,435.3 154.1,420.5 153.7,430.3 165.3,422 174.5,406 174.5,418 167.1,430.3 180.8,423.3 190.1,406.7 187.1,401 
					192.8,404.3 192.8,412.7 190.1,427.3 184.8,438.3 190.1,434.3 182.5,449.6 188.1,446.9 175.1,466.5 165.3,467.6 155.1,474.2 
					141.6,474.3 129.9,481 108.8,481 98.1,491.8 69.9,490.6 				"/>
				<polygon fill="#F15A29" points="45.8,477.5 56.1,468.8 64.1,452.5 73.2,443.2 78.4,435 75.1,448 77.1,453.5 86.7,446.9 
					95.8,441 93,452.5 101.4,447.9 116.4,441.5 120.6,432 128.6,424.5 129.1,419.8 135.6,417.8 132.4,421.8 131.9,428.5 125.5,436 
					124.4,448 137.9,443.2 146.1,436.2 146.1,443.2 156.6,433 161.4,431 159.1,439.9 168.3,441.8 174.1,438.2 174.2,433.5 
					180.4,431.5 177.4,435 181.4,443.2 179.4,452.5 173.6,461.9 165.4,465.8 154.1,471.1 141.6,472 128.9,476.8 108.5,478 98.1,488 
					70.1,487.8 				"/>
				<polygon fill="#EF4136" points="118.1,392 111.9,396.3 108.8,403 118.1,397.5 				"/>
				<polygon fill="#EF4136" points="168.3,401 171.6,392.2 182.7,389 185.3,383 185.3,393.3 173,396.8 				"/>
				<polygon fill="#EF4136" points="45.8,451.3 49.2,440.6 59.6,435 51.9,442.5 				"/>
			</g>
			<g id="Body_3_">
				<polygon fill="#006838" points="119.4,496.5 114.4,482.8 84.6,482.8 79.6,496.5 40.1,498.2 33.7,546.1 39.1,573.7 59.6,549 
					74.5,571 74.5,576 65.5,583.1 59.6,602.2 56.6,621.5 67.4,646.2 65.4,650.5 68.9,655.5 76.8,695.8 70.8,700.4 77.7,707 
					84.5,707 91.2,702.3 84.5,695.8 85.9,657.8 89.6,651.5 84.4,646 91.6,626.8 89.4,614.5 109.6,614.5 108.1,625.5 115.2,644.5 
					111.9,650.5 115.2,658.8 115.2,696.7 108.1,702.6 115.2,707 122,707 128.9,701.1 122.8,697 130.6,657.3 133.5,652.1 
					132.3,646.2 143.1,623 140.3,603.8 133.1,585.3 123.8,576 123.8,569.1 138.8,548.3 147.8,567.7 145.1,583.1 161.5,612.7 
					157.4,616.9 163.1,630.4 172.1,635.3 174.1,628.2 181.5,629.7 183.1,623 190.1,620.7 186.6,607.4 177.7,606.8 172.5,577.7 
					165.8,566.4 168.1,553 165.3,529.3 167.5,517.1 160.9,500.2 				"/>
				<polygon opacity="0.1" fill="#231F20" points="98.6,510.9 129.8,497.4 119.4,496.5 114.4,482.8 99.9,482.8 				"/>
				<polygon opacity="0.1" fill="#231F20" points="143.1,623 86.1,603.3 82.1,626.8 76.1,644.3 82.1,652.3 78,660 81.1,697.2 
					75.8,702 77.7,707 84.5,707 91.2,702.3 84.5,695.8 85.9,657.8 89.6,651.5 84.4,646 91.6,626.8 89.4,614.5 131.9,628.9 
					127.1,643 127.1,651.3 121.8,657 118.9,699.8 112.4,705.2 115.2,707 122,707 128.9,701.1 122.8,697 130.6,657.3 133.5,652.1 
					132.3,646.2 				"/>
				<polygon opacity="0.1" fill="#231F20" points="186.6,607.4 177.7,606.8 172.5,577.7 165.8,566.4 168.1,553 165.3,529.3 
					167.5,517.1 160.9,500.2 155.1,526.7 164.5,552.2 157,568.2 172.9,610.7 170.8,623.3 163.1,630.4 172.1,635.3 174.1,628.2 
					181.5,629.7 183.1,623 190.1,620.7 				"/>
				<polygon opacity="0.1" fill="#231F20" points="99.5,576 123.8,576 123.8,569.1 138.8,548.3 138.8,533 138.8,516.8 120.6,533 
					99.5,531.5 99.5,542.3 84.4,545 99.5,546.4 99.5,555.2 84.4,557.2 99.5,561 				"/>
				<polygon opacity="0.1" fill="#231F20" points="61.5,526.7 53.5,547.3 37.2,568.2 19.8,577.7 39.1,573.7 59.6,549 				"/>
			</g>
			<g id="Left_Foot_Claws_3_">
				<polygon fill="#C2B59B" points="74.5,701.5 68.6,699.8 63.8,714 70.8,707 				"/>
				<polygon fill="#C2B59B" points="88.9,707.1 95.5,715 93.6,701.2 89,703.4 				"/>
				<polygon opacity="0.1" fill="#231F20" points="74.5,701.5 68.6,699.8 63.8,714 70.8,707 				"/>
				<polygon opacity="0.1" fill="#231F20" points="88.9,707.1 95.5,715 93.6,701.2 89,703.4 				"/>
				<polygon fill="#C2B59B" points="76,700.8 70.8,703.8 72.3,712 75.6,716 77.7,707 				"/>
				<polygon fill="#C2B59B" points="86.4,701.2 84.5,707 85.6,710.3 88.9,715.5 91.2,705.5 				"/>
				<polygon fill="#C2B59B" points="79.6,701.2 77.7,707 78.9,710.3 82.2,715.5 84.5,707 				"/>
			</g>
			<g id="Left_Foot_Claws_2_">
				<polygon fill="#C2B59B" points="125.3,701.5 131.4,700.8 135.1,714 128.9,707 				"/>
				<polygon fill="#C2B59B" points="110.8,707.1 103.8,714 106,702 110.7,703.4 				"/>
				<polygon opacity="0.1" fill="#231F20" points="125.3,701.5 131.4,700.8 135.1,714 128.9,707 				"/>
				<polygon opacity="0.1" fill="#231F20" points="110.8,707.1 103.8,714 106,702 110.7,703.4 				"/>
				<polygon fill="#C2B59B" points="124,701.2 128.9,702.5 127.6,710.7 124.9,715 121.5,706.9 				"/>
				<polygon fill="#C2B59B" points="113.6,702 115.2,707 114.6,710.3 110.8,715.5 109.5,704.1 				"/>
				<polygon fill="#C2B59B" points="120.1,701.2 121.5,706.9 120.8,710.3 117.9,715 115.2,707 				"/>
			</g>
			<g id="Left_Hand_Claws_1_">
				<polygon fill="#C2B59B" points="171.1,632.2 165,629.5 162.1,623.6 163.6,616.2 171.1,623 				"/>
				<polygon fill="#C2B59B" points="186,619.9 181.6,621.3 178.2,613.9 179,608.1 185.4,614.5 				"/>
				<polygon fill="#C2B59B" points="180.4,626.8 171.1,623 170.4,616.2 171.9,611.4 181.6,621.3 				"/>
				<polygon opacity="0.1" fill="#231F20" points="171.1,632.2 165,629.5 162.1,623.6 163.6,616.2 171.1,623 				"/>
				<polygon opacity="0.1" fill="#231F20" points="186,619.9 181.6,621.3 178.2,613.9 179,608.1 185.4,614.5 				"/>
				<polygon opacity="0.1" fill="#231F20" points="180.4,626.8 171.1,623 170.4,616.2 171.9,611.4 181.6,621.3 				"/>
				<polygon fill="#C2B59B" points="183.1,616.2 175.3,619.4 168.5,618.4 176,610.2 185.2,609.2 				"/>
			</g>
			<g id="Harness_1_">
				<polygon fill="#3C2415" points="61.1,526.7 59.6,549 99.9,523.1 112.4,516.8 138.8,533 138.8,527.4 119.2,513.3 131.1,507.3 
					138.8,493.2 118.2,493.2 99.5,501.5 71.9,519.6 64.3,511.9 59.6,514.4 64.7,524.3 				"/>
				<polygon opacity="0.3" fill="#231F20" points="99.9,523.1 112.4,516.8 138.8,533 138.8,527.4 119.2,513.3 131.1,507.3 
					138.8,493.2 118.2,493.2 99.5,501.5 81,513.6 79.8,524.7 88.7,530.3 				"/>
				<polygon fill="#A7A9AC" points="96,503.8 86.7,508.7 96,526.5 103.8,521.1 95.2,531.8 82.1,506.8 				"/>
			</g>
			<g id="Left_Pauldron_3_">
				<polygon fill="#939598" points="169.1,515 148.9,513.1 126.1,502.6 127.3,494.6 125.5,488 147.1,485.2 168.8,488.8 170.3,495.7 
									"/>
				<polygon fill="#BCBEC0" points="169.3,519.9 146.1,518 121.9,505 123.6,496.7 121.9,488 125.1,486.6 127.3,494.6 126.1,502.6 
					148.9,513.1 170.3,515 				"/>
			</g>
			<g id="Right_Pauldron_3_">
				<polygon fill="#939598" points="31.3,514.8 51.6,513.1 71.9,502.6 71.9,496.5 73.2,488.2 52,485.2 30.2,488.8 28.7,495.7 				
					"/>
				<polygon fill="#BCBEC0" points="30.2,520 52.9,518 77.1,505 75.5,496.7 77.1,486.6 73.5,486.6 71.9,496.5 71.9,502.6 
					51.6,513.1 29.9,515 				"/>
			</g>
			<g id="Right_Arm_4_">
				<polygon opacity="0.1" fill="#231F20" points="41.2,534.6 38.5,559.5 49.2,536 43.7,486.6 30.6,489.6 				"/>
				<polygon id="Right_Arm_5_" fill="#006838" points="10.1,555.2 19.8,577.7 39.1,573.7 43.5,534.6 35.1,502.6 38.1,499 
					36.9,486.4 25.3,481 22.5,485.2 18.1,482.8 14.1,487.6 8.4,486.6 10.1,500.3 16.1,502.6 				"/>
			</g>
			<g id="Sword_1_">
				<polygon fill="#D1D3D4" points="42.1,486.8 44.6,495.9 163.6,463.6 172.9,451.3 				"/>
				<polygon fill="#E6E7E8" points="39.5,477.1 42.1,486.8 172.9,451.4 155.8,445.7 				"/>
				<path fill="#414042" d="M31.9,468.2l4.9-1.3l10.4,38.6l-4.9,1.3l-4.3-16.2l-29.1,7.5c-0.5,1-1.4,1.9-2.6,2.2
					c-2.1,0.6-4.3-0.7-4.9-2.8c-0.6-2.1,0.7-4.3,2.8-4.9c1.2-0.3,2.4,0,3.3,0.6l29.1-7.5L31.9,468.2z"/>
			</g>
			<g id="Right_Hand_Claws_1_">
				<polygon fill="#C2B59B" points="10.1,488 11.1,493.8 12.9,498.4 19.1,501.2 17.5,493.2 15.3,489.6 				"/>
				<polygon opacity="0.1" fill="#231F20" points="10.1,488 11.1,493.8 12.9,498.4 19.1,501.2 17.5,493.2 15.3,489.6 				"/>
				<polygon fill="#C2B59B" points="25.9,483.6 23.6,488 25.3,493.6 30.6,497.3 31.3,487 				"/>
				<polygon fill="#C2B59B" points="18.6,485.2 17.5,493.2 19.1,496.3 23.6,498.4 23.6,488 				"/>
				<polygon opacity="0.1" fill="#231F20" points="25.9,483.6 23.6,488 25.3,493.6 30.6,497.3 31.3,487 				"/>
				<polygon opacity="0.1" fill="#231F20" points="18.6,485.2 17.5,493.2 19.1,496.3 23.6,498.4 23.6,488 				"/>
				<polygon fill="#C2B59B" points="28.5,488.9 20.6,494.1 18.7,498.9 29.4,498.4 35.8,493.2 				"/>
			</g>
			<g id="Right_Bracer_3_">
				<polygon fill="#BCBEC0" points="14.9,505.3 35.7,502.6 37.2,507.5 13.3,523.1 				"/>
				<polygon fill="#939598" points="13.9,522.3 11,547.3 42.6,542.4 43.5,534.6 36.5,508 				"/>
				<polygon opacity="0.1" fill="#231F20" points="24.2,515.8 31.3,533.7 31.3,544.1 42.6,542.4 43.5,534.6 36.5,508 				"/>
				<polygon fill="#BCBEC0" points="9.6,555.2 42.5,547.9 43.1,542.3 10.6,547.3 				"/>
			</g>
			<g id="Left_Bracer_3_">
				<polygon fill="#BCBEC0" points="146.1,571.5 168.4,569.1 171.1,573.3 145.1,576 				"/>
				<polygon fill="#BCBEC0" points="178.2,603.7 160.8,613.3 158.6,609.2 175.1,586.1 				"/>
				<polygon fill="#939598" points="146.4,575.9 145.1,583.1 159.1,608.5 174.2,587.3 172.5,577.7 169.9,573.3 				"/>
				<polygon opacity="0.1" fill="#231F20" points="159.7,574.5 166.1,583.5 163.8,602 174.2,587.3 172.5,577.7 169.9,573.3 				"/>
			</g>
			<g id="Head_3_">
				<polygon opacity="0.1" fill="#231F20" points="116.9,489.6 108.8,488.3 99.6,493.2 90.3,488.3 82.1,489.6 84.6,482.8 
					114.4,482.8 				"/>
				<path fill="#006838" d="M104.9,449.9l-5.2-3l-5.2,3c0,0-22.5-3-22.5,10.6l12.5,13.2l5,0.6l5.5-7.2l4.7,2.5l4.7-2.5l5.5,7.2
					l5-0.6l12.5-13.2C127.3,446.9,104.9,449.9,104.9,449.9z"/>
				<path opacity="0.1" fill="#231F20" d="M104.9,449.9l3.3,8.4l-6.7,5.3l-1.8,5.9l-4.7-2.5l4.7,2.5l4.7-2.5l5.5,7.2l5-0.6
					l12.5-13.2C127.3,446.9,104.9,449.9,104.9,449.9z"/>
				<polygon fill="#2BB673" points="141.6,452.5 127.3,460.5 114.8,473.6 109.8,474.2 104.3,467 99.6,469.5 94.9,467 89.4,474.2 
					84.5,473.6 71.9,460.5 59.6,452.5 69.8,466.5 63.6,474.2 77.7,479.4 84,487 90.4,484.8 99.6,489.6 108.6,484.5 115.2,487 
					121.6,479.4 135.8,472.1 129.4,466.5 				"/>
				<polygon opacity="0.1" fill="#231F20" points="141.6,452.5 127.3,460.5 114.8,473.6 109.8,474.2 104.3,467 99.6,469.5 
					104.5,481 99.6,489.6 108.6,484.5 115.2,487 121.6,479.4 135.8,472.1 129.4,466.5 				"/>
				<polygon opacity="0.3" fill="#231F20" points="93.5,471.1 95.5,468.5 98.1,470.7 95.6,469.8 				"/>
				<polygon opacity="0.3" fill="#231F20" points="106,471.1 104,468.5 101.4,470.7 103.9,469.8 				"/>
				<polygon fill="#F9ED32" points="79.9,459.3 87.1,462.6 87.9,471.1 79.9,466.6 				"/>
				<polygon fill="#3C2415" points="83.9,461.1 84.8,465.2 83.9,468.8 83.1,465.2 				"/>
				<polygon fill="#F9ED32" points="118.1,459.3 110.9,462.6 110.1,471.1 118.1,466.6 				"/>
				<polygon fill="#3C2415" points="114.1,461.1 113.2,465.2 114.1,468.8 114.9,465.2 				"/>
				<polygon fill="#C2B59B" points="86.7,479 91.9,479 89.8,486.8 				"/>
			</g>
			<g id="Pants_1_">
				<polygon opacity="0.1" fill="#231F20" points="135.3,639.9 141.6,607.2 133.1,590.3 125.5,582.7 103.1,583 101.3,589.6 
					103.6,603.6 112.9,628.8 129.3,643.2 133.2,644.3 				"/>
				<polygon opacity="0.1" fill="#231F20" points="70.8,583.9 65.5,588.1 57.1,607.2 64.6,639.7 66.5,644.1 70.8,642.8 85.3,630.6 
					94.4,605.4 94.4,590.4 92.4,583.4 				"/>
				<polygon opacity="0.3" fill="#231F20" points="82.3,583.6 76.1,631.8 85.9,633.9 89.2,633.1 91.3,627.7 98.4,608.4 109.1,628.3 
					111.2,633.9 111.9,633.9 121.9,631.8 114.6,582.7 				"/>
				<polygon fill="#3C2415" points="94.7,622.9 102.6,622.9 98.1,614.1 				"/>
				<polygon opacity="0.3" fill="#231F20" points="94.7,622.9 102.6,622.9 98.1,614.1 				"/>
				<polygon fill="#3C2415" points="82.3,578.6 76.1,626.8 85.9,628.9 94.9,626.8 98.2,618 102.1,626.8 111.9,628.9 121.9,626.8 
					114.6,577.7 				"/>
				<polygon opacity="0.1" fill="#231F20" points="98.2,618 102.1,626.8 111.9,628.9 121.9,626.8 114.6,577.7 98.6,578.2 				"/>
				<polygon fill="#594A42" points="70.8,578.9 65.5,583.1 57.1,602.2 54.1,643 70.8,637.8 85.3,625.6 94.4,600.4 94.4,585.4 
					92.4,578.4 				"/>
				<polygon fill="#594A42" points="146.9,643 141.6,602.2 133.1,585.3 125.5,577.7 103.1,578 101.3,584.6 103.6,598.6 112.9,623.8 
					129.3,638.2 				"/>
				<polygon opacity="0.1" fill="#231F20" points="146.9,643 141.6,602.2 133.1,585.3 125.5,577.7 103.1,578 101.3,584.6 
					103.6,598.6 112.9,623.8 129.3,638.2 				"/>
				<polygon fill="#594A42" points="54.1,643 65.7,642.4 64.6,639.7 				"/>
				<polygon opacity="0.1" fill="#231F20" points="54.1,643 65.7,642.4 64.6,639.7 				"/>
				<polygon fill="#594A42" points="146.9,643 135.3,639.9 134.3,642 				"/>
				<polygon opacity="0.1" fill="#231F20" points="146.9,643 135.3,639.9 134.3,642 				"/>
			</g>
			<g id="Belt_3_">
				<polygon fill="#3C2415" points="72.1,570.8 125.5,569.1 125.5,577.7 70.8,578.9 				"/>
				<polygon opacity="0.3" fill="#231F20" points="93,570.1 125.5,569.1 125.5,577.7 91,578.4 87.9,573.3 				"/>
				<polygon fill="#A7A9AC" points="101.6,569.8 95.7,569.6 95.6,578.4 101.6,578.1 94.4,579.9 94.4,568.2 				"/>
			</g>
			<g id="Left_Greaves_1_">
				<polygon fill="#939598" points="122.6,660 113.3,665 114.2,691.8 118.4,695.8 124.2,692.5 130.2,666.1 				"/>
				<polygon opacity="0.1" fill="#231F20" points="122.6,660 118.4,695.8 124.2,692.5 130.2,666.1 				"/>
				<polygon fill="#BCBEC0" points="122.8,657 131.9,665.1 131.3,667 128.2,664.6 121.9,667.5 116.1,663.5 112.4,665.5 111.9,663 
									"/>
				<polygon fill="#BCBEC0" points="113.7,691.4 118.4,695.8 124.6,692.2 124.6,693.8 118.4,697.2 113.2,692.9 				"/>
			</g>
			<g id="Right_Greaves_1_">
				<polygon fill="#BCBEC0" points="77.7,657.5 68.5,663.5 68.9,666.2 70.7,664.8 72.9,663 77.7,665.8 82.9,662.2 86.8,665 
					87.4,662.7 				"/>
				<polygon fill="#BCBEC0" points="74.1,691.8 81.1,693.6 86.4,691.2 86.4,688.9 81.1,692.2 74.1,690.5 				"/>
				<polygon fill="#939598" points="69.9,665.4 72.9,663 77.7,665.8 82.9,662.2 86.1,664.5 85.5,689.5 81.1,692.2 74.9,690.7 				
					"/>
				<polygon opacity="0.1" fill="#231F20" points="77.7,665.8 82.9,662.2 86.1,664.5 85.5,689.5 81.1,692.2 				"/>
			</g>
		</g>
	</g>
</g>
<g id="Monk">
</g>
<g id="DM">
</g>
</svg>
