<?xml version="1.0" encoding="utf-8"?>
<!-- Generator: Adobe Illustrator 19.0.0, SVG Export Plug-In . SVG Version: 6.00 Build 0)  -->
<svg version="1.1" xmlns="http://www.w3.org/2000/svg" xmlns:xlink="http://www.w3.org/1999/xlink" x="0px" y="0px"
	 viewBox="0 0 150 150" enable-background="new 0 0 150 150" xml:space="preserve">
<g id="Kizze">
	<g id="Bustle_Front">
		<polygon fill="#D1D3D4" points="-355.2,-242.7 -365.5,-234.4 -374.6,-220.2 -377.8,-200.5 -381.7,-217.1 -384.3,-218.8 
			-368.7,-238.8 		"/>
		<polygon fill="#D7DF23" points="-384.3,-218.8 -381.7,-217.1 -377.8,-200.5 -384.3,-216.9 		"/>
		<polygon fill="#D7DF23" points="-301.7,-209.3 -304.2,-208.6 -311.1,-195.7 -302.5,-206.5 		"/>
		<polygon fill="#BCBEC0" points="-330.8,-244.8 -320.7,-233.4 -311.5,-212.3 -311.1,-195.7 -304.2,-208.6 -301.7,-209.3 
			-316.2,-235.9 		"/>
	</g>
	<polygon id="Grown_Back" fill="#D7DF23" points="-363.5,-155.5 -350.3,-159.7 -337.7,-154.5 -325.2,-155.5 -319.8,-192.8 
		-321.5,-215.3 -333,-244.8 -352.9,-244.8 -363.8,-218.5 -368.4,-192.3 	"/>
	<polygon fill="#C49A6C" points="-350.2,-283.8 -350.2,-279.8 -363.2,-276.3 -380.7,-259.9 -411.5,-258.8 -412.5,-254.4 
		-379.2,-253.8 -360.2,-264.1 -355.2,-242.7 -361,-235 -362.2,-227.2 -349.5,-226.6 -339,-222 -338.8,-192.8 -339.8,-189 
		-338.2,-182.8 -340.5,-151.8 -347,-132.5 -340.2,-127.2 -326.5,-133.5 -331.5,-152.5 -333,-181.2 -331,-187.7 -332,-193 
		-327,-212.3 -325.2,-231.1 -330.8,-244.8 -326.8,-264.2 -321.5,-269.1 -300.8,-273.1 -284.7,-297.4 -288.8,-297.4 -303.5,-278.7 
		-330.8,-276.1 -341.5,-279.8 -342.8,-285.1 	"/>
	<g>
		<path fill="#E6E7E8" d="M-355.2-242.7c0,0-11,7.7-11,7.7c0,0-9.5,14.1-9.5,14.1l-6,39.8l2.2-1.1l12,4.6l-4.8-15.8l4.9-24.6l7-16.6
			L-355.2-242.7z"/>
		<polygon fill="#D7DF23" points="-381.7,-181 -379.5,-182.1 -367.5,-177.5 -379.6,-179.8 		"/>
		<polygon fill="#D7DF23" points="-321.4,-175.9 -312.9,-181.3 -310.5,-180.5 -312.4,-178.6 		"/>
		<polygon fill="#D1D3D4" points="-330.8,-244.8 -325.2,-232 -318.2,-212.3 -318,-189.8 -321.4,-175.9 -312.9,-181.3 -310.5,-180.5 
			-310.5,-212.9 -320,-234.1 		"/>
	</g>
	<polygon fill="#594A42" points="-340.5,-176 -334.8,-174 -331,-177.5 -331.5,-152.5 -326.5,-133.5 -340.2,-127.2 -347,-132.5 
		-340.5,-151.8 	"/>
	<polygon fill="#3C2415" points="-358.5,-277.5 -358.5,-259.1 -360.2,-264.1 -357.9,-254.3 -344.3,-258.8 -328.7,-255.1 
		-326.8,-264.2 -328.7,-259.2 -332.4,-276.6 -336.5,-278 -344.8,-261.9 -354.1,-278.7 	"/>
	<polygon fill="#3C2415" points="-356.1,-246.6 -344.1,-245.7 -330.3,-247.3 -330.8,-244.8 -325.2,-231.1 -325.7,-219.6 
		-332.3,-221.1 -339.7,-219.6 -339.7,-222.3 -349.5,-226.6 -351,-235 -355.8,-234.7 -361,-235 -355.2,-242.7 	"/>
	<g id="Gown_Front">
		<polygon fill="#E6E7E8" points="-329.5,-165.2 -325.2,-155.5 -317.2,-189.5 -317.2,-212.3 -324,-232.1 -330.8,-244.8 
			-326.8,-264.2 -320.2,-278.7 -335.3,-277.6 -337.7,-278.4 -356,-270.8 -350.4,-267.3 -338.7,-247.9 -329.4,-230.1 -325.2,-215.2 
			-323.8,-190.9 		"/>
		<polygon fill="#F1F2F2" points="-357.1,-277.9 -370,-276.6 -360.2,-264.1 -355.2,-242.7 -361,-235 -368.3,-218.2 -373.8,-193.5 
			-363.5,-155.5 -359.5,-163.8 -365.6,-193.1 -361.4,-215.2 -353.9,-234.8 -350.2,-243 -339.8,-267.7 -334.8,-272 -354.1,-278.7 		
			"/>
	</g>
	<polygon fill="#C49A6C" points="-350.3,-235 -345.9,-233.8 -345.1,-225.3 -349.4,-188 -346,-175.1 -346.7,-167.4 -356.3,-161 
		-360.4,-173.1 -354.6,-187.9 -357.7,-227.1 -355.8,-234.7 	"/>
	<polygon fill="#594A42" points="-352.4,-213.1 -345.3,-214.7 -349.4,-188 -346,-175.1 -346.7,-167.4 -356.3,-161 -360.4,-173.1 
		-354.6,-187.9 -358.6,-216.9 	"/>
	<polygon opacity="0.1" fill="#231F20" points="-342,-281.8 -346.1,-278.7 -350.2,-281.3 -350.2,-283.3 -342.3,-283 	"/>
	<path fill="#C49A6C" d="M-346.7-312.8c10,0,11.8,11.4,11.8,11.4l-0.5,12.1l-10.8,8.3l-10.4-7.7l-1.6-12.5
		C-358.1-301.1-356.7-312.8-346.7-312.8z"/>
	<path opacity="0.1" fill="#231F20" d="M-346.7-312.8c10,0,11.8,11.4,11.8,11.4l-0.5,12.1l-10.8,8.3l5.3-12.1l-4.4-5.3l4.3-3.7
		L-346.7-312.8z"/>
	<polygon opacity="0.3" fill="#231F20" points="-317.2,-83 -368.4,-83 -389,-73 -339,-67 -294,-75 	"/>
	<circle fill="#58595B" cx="-340.8" cy="-272.1" r="0.7"/>
	<circle fill="#58595B" cx="-338.4" cy="-271.4" r="0.7"/>
</g>
<g id="Squallo">
	<polygon id="Shadow_1_" opacity="0.3" fill="#231F20" points="-86,-90.2 -179,-91.2 -207,-80.8 -168.3,-67 -128.4,-63 -66.8,-75 	
		"/>
	<g id="Body_1_">
		<polygon fill="#603913" points="-96.9,-196.2 -94.4,-195.4 -91.7,-196.2 -89.5,-195.5 -86.3,-196.2 -83.3,-195.5 -79.8,-196.2 
			-79.3,-205.7 -83.7,-212 -85.5,-235.6 -91.7,-240.5 -88.6,-264 -94.1,-273.4 -93.3,-281.3 -105.8,-293.3 -120.7,-295.2 
			-126.1,-307.8 -146.9,-307.8 -152.3,-295.2 -167.2,-293.3 -179.7,-281.3 -183.9,-275.5 -206.3,-269 -210.8,-253.7 -197.6,-243.2 
			-187.9,-250 -172,-253.7 -166.3,-264.7 -161.4,-253.7 -159.6,-233 -160.5,-214.5 -171.4,-196.1 -174.1,-181.7 -173.1,-171.2 
			-176.8,-161.2 -176.2,-150.8 -184.1,-141.5 -178.7,-111.1 -185,-100.5 -182.5,-81.8 -165.1,-75.7 -155.1,-81.2 -158.7,-111 
			-157.5,-125.5 -150.6,-135.2 -150.8,-145.2 -145,-155 -144.3,-165.9 -138.3,-179.2 -137.6,-193.7 -136.5,-193.9 -134,-193.7 
			-131.6,-176 -126.4,-163.8 -126.6,-153 -120.4,-142.3 -121.1,-133.7 -114.1,-125.5 -109.5,-111.2 -114,-81.5 -104,-76 
			-86.6,-82.2 -84.1,-100.8 -89.4,-111.7 -87.3,-143.3 -94,-151.5 -94.8,-161.2 -98.6,-169.7 -97.5,-181.7 -99.5,-194.9 
			-110.1,-216 -113.4,-233 -110.4,-253.7 -105.9,-234.2 -105.8,-224.3 -97.3,-209.7 -99.5,-205.7 		"/>
		<path opacity="0.1" fill="#231F20" d="M-167.2-293.3l-4.4,13.5l0.5,12.9l-6.4,8.9l-10.3,8l15.8-3.7l5.8-11l4.8,11l0.7,7.5
			l16.5-8.6c-1.9-10.5-4.8-20.8-7.5-31.2L-167.2-293.3z"/>
		<polygon opacity="0.1" fill="#231F20" points="-83.7,-212 -85.5,-235.6 -91.7,-240.5 -88.6,-264 -94.1,-273.4 -93.3,-281.3 
			-105.8,-293.3 -120.7,-295.2 -126.1,-307.8 -136.2,-294.6 -137.3,-279 -108.2,-273.5 -97.1,-260.6 -98.6,-235.9 -91,-209.7 
			-84.1,-204.6 -83.3,-198.1 -85.3,-199.5 -88.8,-197.5 -91.2,-198.5 -94,-196.8 -96.9,-196.2 -94.4,-195.4 -91.7,-196.2 
			-89.5,-195.5 -86.3,-196.2 -83.3,-195.5 -79.8,-196.2 -79.3,-205.7 		"/>
	</g>
	<g id="Head_1_">
		<polygon opacity="0.3" fill="#231F20" points="-148,-306 -144.2,-299.5 -129.2,-299.7 -125.5,-306.2 -124.6,-302.9 -129.2,-294.7 
			-144.2,-294.5 -148.8,-302.2 		"/>
		<path fill="#603913" d="M-152-326c0,0,0.7-13,15.3-13s14.3,13.7,14.3,13.7l-0.2,3.1l2,1.9l-0.4,5.5l-2.1,1.9l-0.2,2.8l-5.8,10.5
			l-15,0.2l-6.6-11l-0.2-2.8l-2.5-2.1l2-3.8L-152-326z"/>
		<path opacity="0.1" fill="#231F20" d="M-136.8-339c14.6,0,14.3,13.7,14.3,13.7l-0.8,15.2l-5.8,10.5l-8.1,0.1l3-5.9l-2.3-4.4l6.7-2
			l-6.8-9.5L-136.8-339z"/>
		<polygon opacity="0.3" fill="#231F20" points="-120.6,-320.4 -121.1,-314.9 -123.2,-313 -122.7,-322.3 		"/>
		<polygon opacity="0.1" fill="#231F20" points="-151.5,-319.3 -151,-313.4 -153.5,-315.5 		"/>
		<polygon fill="#FBB040" points="-151.8,-315.8 -152.7,-314.8 -151.8,-312.4 		"/>
		<polygon fill="#FBB040" points="-122.5,-315.8 -121.6,-314.8 -122.5,-312.4 		"/>
		<polygon fill="#3C2415" points="-134.4,-323.9 -133.6,-322.3 -124.6,-323.1 -129.1,-324.6 		"/>
		<polygon fill="#3C2415" points="-139,-323.9 -139.8,-322.3 -148.8,-323.1 -144.3,-324.6 		"/>
		<path fill="#3C2415" d="M-125.4-310.6l-6.4,3.4l-4.8-2.7l-5.1,2.4l-6.6-3.2l-2.7-5.2l0.2,5.3l5.4,11l8.7,10.2l8.6-10.2l4.8-10.7
			l0.2-5.1L-125.4-310.6z M-141.2-301.8l4.6-3.8l4.3,3.8l-4.3-0.8L-141.2-301.8z"/>
		<polygon fill="#C2B59B" points="-139.6,-317.6 -143.6,-320.9 -148.5,-319.3 -143.7,-318.1 		"/>
		<polygon fill="#231F20" points="-142.3,-318.5 -141.2,-319 -143.6,-320.9 -146,-320.1 -145.6,-319 		"/>
		<polygon fill="#C2B59B" points="-133.5,-317.6 -129.5,-320.9 -124.6,-319.3 -129.4,-318.1 		"/>
		<polygon fill="#231F20" points="-130.8,-318.5 -131.8,-319 -129.5,-320.9 -127.1,-320.1 -127.5,-319 		"/>
	</g>
	<g id="Greaves">
		<polygon fill="#414042" points="-160.5,-214.5 -171.4,-196.1 -174.1,-181.7 -173.1,-171.2 -176.8,-161.2 -176.2,-150.8 
			-184.1,-141.5 -178.7,-111.1 -185,-100.5 -182.5,-81.8 -165.1,-75.7 -155.1,-81.2 -158.7,-111 -157.5,-125.5 -150.6,-135.2 
			-150.8,-145.2 -145,-155 -143.8,-166.9 -138.3,-179.2 -137.6,-193.7 -134,-193.7 -131.6,-176 -126.4,-163.8 -126.6,-153 
			-120.4,-142.3 -121.1,-133.7 -114.1,-125.5 -109.5,-111.2 -114,-81.5 -104,-76 -86.6,-82.2 -84.1,-100.8 -89.4,-111.7 
			-87.3,-143.3 -94,-151.5 -94.8,-161.2 -98.4,-172.1 -97.5,-181.7 -99.5,-194.9 -110.1,-216 		"/>
		<polygon opacity="0.1" fill="#231F20" points="-148.6,-214.2 -159.5,-180 -161,-171 -162.5,-160.8 -165.5,-142.5 -170.2,-128.5 
			-169.3,-112.8 -169.3,-91.5 -165.1,-75.7 -155.1,-81.2 -158.7,-111 -157.5,-125.5 -150.6,-135.2 -150.8,-145.2 -145,-155 
			-143.8,-166.9 -138.3,-179.2 -137.6,-193.7 -124.3,-207.2 -119.8,-181.5 -117.7,-172.1 -116.5,-158.8 -109.6,-140.1 
			-100.4,-127.8 -100.4,-112 -100.4,-91.5 -104,-76 -86.6,-82.2 -84.1,-100.8 -89.4,-111.7 -87.3,-143.3 -94,-151.5 -94.8,-161.2 
			-98.4,-172.1 -97.5,-181.7 -99.5,-194.9 -110.1,-216 		"/>
		<polygon opacity="0.3" fill="#231F20" points="-113.1,-87.4 -103.5,-83.2 -89.1,-87.4 -84.4,-98.6 -86.6,-82.2 -104,-76 
			-114,-81.5 		"/>
		<polygon opacity="0.3" fill="#231F20" points="-185,-100.5 -180,-88.6 -166.8,-83 -155.8,-87.3 -155.1,-81.2 -165.1,-75.7 
			-182.5,-81.8 		"/>
		<polygon fill="#FBB040" points="-173,-197.2 -171,-200.2 -158.3,-182.5 -136.8,-185.8 -136.8,-182.5 -159.8,-178.8 		"/>
		<polygon fill="#FBB040" points="-175.2,-170.5 -161,-172.1 -142.8,-165.5 -142.8,-162.2 -161.5,-169.5 -176.2,-167.2 		"/>
		<path fill="#FBB040" d="M-135-185.2c0,0,0,4,0,3.8s16,1.5,16,1.5l18.7-19l-2.1-2.9l-17.9,18.4L-135-185.2z"/>
		<polygon fill="#FBB040" points="-129.3,-165.5 -117.7,-174.2 -96.9,-172.1 -96.9,-169.9 -117.7,-170.8 -128,-162.2 		"/>
		<polygon fill="#FBB040" points="-127.3,-150.8 -115.6,-157.5 -93.4,-161 -94.6,-162.2 -116.6,-160 -129.3,-152.5 		"/>
		<polygon fill="#FBB040" points="-123.3,-143.8 -108.6,-142.5 -93.4,-155 -93.4,-152.8 -108.4,-140 -122.1,-141.2 		"/>
		<polygon fill="#FBB040" points="-121.8,-133.6 -101.6,-131 -86.5,-143.3 -86.5,-137.2 -100.4,-121.5 -119.3,-129.8 		"/>
		<polygon fill="#FBB040" points="-178.2,-160.2 -162,-162.2 -143.8,-155 -145.1,-152 -162.3,-159.5 -178.2,-158.2 		"/>
		<polygon fill="#FBB040" points="-178.2,-152 -164.8,-145.5 -148.6,-145.5 -148.6,-142.5 -165.5,-142.5 -178.2,-149.5 		"/>
		<polygon fill="#FBB040" points="-185.2,-143.3 -169.7,-132.2 -148.6,-135.8 -150.3,-132.4 -170.5,-124 -185.2,-140 		"/>
		<polygon fill="#FBB040" points="-111.9,-104.4 -101,-114.2 -83.3,-104.4 -83.3,-99.7 -101,-110.2 -111.9,-99.7 		"/>
		<polygon fill="#FBB040" points="-182.1,-106.6 -182.1,-110.6 -169.9,-114.8 -156.5,-106.6 -156.5,-102.6 -169.9,-111.6 		"/>
		<polygon fill="#FBB040" points="-113.7,-94.1 -101,-93.2 -83.3,-93.6 -83.3,-88.9 -101,-88.9 -113.7,-91.5 		"/>
		<polygon fill="#FBB040" points="-185,-95.1 -169.3,-93.8 -156.5,-95.1 -155.5,-91.2 -169.3,-90.1 -185,-92.6 		"/>
	</g>
	<g id="Shirt">
		<polygon fill="#262262" points="-162.9,-290.1 -166.5,-273.5 -166.3,-264.7 -161.5,-253.7 -159.6,-233 -161,-222.4 -162,-214.5 
			-168.4,-206.2 -150,-196.2 -121.8,-197 -104.1,-206.8 -110,-216 -111.4,-223.3 -113.3,-233 -110.3,-253.7 -108.2,-265 
			-108.2,-273.5 -113.9,-289.2 -136.6,-277.9 		"/>
		<polygon opacity="0.3" fill="#231F20" points="-136.2,-196.2 -121.8,-197 -104.1,-206.8 -110,-216 -111.4,-223.3 -113.3,-233 
			-110.3,-253.7 -122.1,-251.8 -136.7,-253.7 -136.6,-241.6 -145.1,-240 -136.5,-237.5 		"/>
		<polygon fill="#FBB040" points="-163.8,-286.2 -138.2,-275.5 -112.2,-282.5 -115.2,-294.5 -137.3,-281 -162,-294.5 		"/>
		<polygon opacity="0.1" fill="#231F20" points="-163.8,-286.2 -138.2,-275.5 -112.2,-282.5 -115.2,-294.5 -137.3,-281 -162,-294.5 
					"/>
	</g>
	<g id="Belt_1_">
		<polygon fill="#262262" points="-160.4,-226.8 -161,-222.4 -151.8,-215.1 -147.5,-201.2 -146.5,-138.8 -124.8,-132.4 -125,-201.9 
			-117.6,-215.1 -111.4,-223.3 -112.2,-226.5 -137.1,-221.7 		"/>
		<polygon opacity="0.5" fill="#231F20" points="-160.4,-226.8 -161,-222.4 -151.8,-215.1 -147.5,-201.2 -146.5,-138.8 
			-124.8,-132.4 -125,-201.9 -117.6,-215.1 -111.4,-223.3 -112.2,-226.5 -137.1,-221.7 		"/>
		<polygon opacity="0.3" fill="#231F20" points="-136.8,-136 -124.8,-132.4 -125,-201.9 -117.6,-215.1 -111.4,-223.3 -112.2,-226.5 
			-137.1,-221.7 		"/>
		<polygon fill="#414042" points="-112.2,-231 -123.2,-225.5 -148.8,-226.5 -161,-231 -162.5,-222.4 -147.5,-219 -123.2,-219 
			-110.7,-223.3 		"/>
		<polygon opacity="0.1" fill="#231F20" points="-112.2,-231 -123.2,-225.5 -140,-226.2 -145.1,-223.1 -139.2,-219 -123.2,-219 
			-110.7,-223.3 		"/>
		<polygon fill="#414042" points="-130.4,-200.2 -127.9,-226.8 -135,-227 -136.6,-200.9 -134,-193.7 		"/>
		<polygon opacity="0.3" fill="#231F20" points="-130.4,-200.2 -127.9,-226.8 -135,-227 -136.6,-200.9 -133.2,-204 		"/>
		<polygon fill="#414042" points="-125.9,-220.1 -137,-226 -142.8,-223.3 -128.5,-214.2 		"/>
		<polygon fill="#FBB040" points="-138.2,-228.2 -147.5,-223.3 -137.4,-215.1 -134.4,-217.9 -142.8,-223.3 -135,-227 		"/>
	</g>
	<g id="Left_Pauldron_1_">
		<polygon fill="#414042" points="-113,-297.7 -105.2,-297.7 -93.2,-289.5 -90.5,-279 -113,-281 		"/>
		<polygon fill="#FBB040" points="-117.6,-300.4 -115,-279.5 -89,-274.5 -85.8,-282 -112.2,-282.5 -111,-301 		"/>
	</g>
	<g id="Right_Pauldron_1_">
		<polygon fill="#414042" points="-162.2,-298.4 -169.2,-298.4 -181.8,-291.8 -182.9,-281.8 -165.2,-281.8 		"/>
		<polygon fill="#FBB040" points="-159.2,-301 -163.2,-281 -185,-277.9 -185,-286.2 -166,-284 -165.2,-300.4 		"/>
	</g>
	<g id="Left_Bracer_1_">
		<polygon fill="#414042" points="-105.8,-235.1 -105.6,-224.3 -97.9,-211 -83.7,-215 -85.3,-235.6 -91.5,-240.5 -98.6,-235.9 		"/>
		<polygon opacity="0.1" fill="#231F20" points="-95.7,-228.8 -91,-212.4 -83.7,-215 -85.3,-235.6 -91.5,-240.5 -98.6,-235.9 		"/>
		<polygon fill="#FBB040" points="-90.2,-243.2 -98.9,-236.8 -107.9,-237.7 -107.2,-234.2 -98.3,-234.6 -89.9,-240.5 		"/>
		<polygon fill="#FBB040" points="-106.8,-231 -96.8,-231 -86.8,-238.4 -85.3,-236.7 -94.5,-225.5 -107,-228.2 		"/>
		<polygon fill="#FBB040" points="-98.6,-210.8 -83.3,-215.1 -83.3,-212.4 -97.7,-209.7 		"/>
	</g>
	<g id="Bident">
		<polygon fill="#414042" points="-186.8,-82 -191.8,-82 -191.8,-329.2 -199.5,-335.5 -198.3,-371 -194.8,-337 -189.3,-334.8 
			-186.8,-329.2 		"/>
		<polygon fill="#FBB040" points="-193.2,-327.2 -189.3,-334.8 -182.9,-337 -179.8,-371 -179,-334.2 -186.8,-329.2 -193.2,-319.2 		
			"/>
		<polygon fill="#FBB040" points="-186.1,-320.9 -186.1,-314.1 -193.2,-311 		"/>
	</g>
	<g id="Right_Arm_2_">
		<polygon fill="#603913" points="-189.9,-295 -189.9,-302.2 -185.8,-305.2 -183.7,-300.1 -186,-294.3 		"/>
		<polygon opacity="0.3" fill="#231F20" points="-189.9,-295 -189.9,-302.2 -185.8,-305.2 -183.7,-300.1 -186,-294.3 		"/>
		<polygon opacity="0.3" fill="#231F20" points="-186.7,-250.3 -185,-250.7 -179.8,-261.7 -186.1,-274.9 -186.8,-274.8 
			-186.8,-283.5 -189.8,-282 -189.8,-276.2 -190.5,-254.5 		"/>
		<polygon fill="#603913" points="-197.8,-243.2 -188,-250 -181.8,-261.8 -189.8,-276.2 -189.8,-282 -183.7,-286 -183.7,-290.1 
			-182.9,-290.8 -182.9,-294.5 -182.1,-295.6 -181.8,-297.7 -195,-303.7 -204,-298.4 -207.6,-285 -205.1,-277.9 -211,-253.7 		"/>
		<polygon opacity="0.1" fill="#231F20" points="-197.8,-243.2 -188,-250 -181.8,-261.8 -189.8,-276.2 -189.8,-282 -183.7,-286 
			-183.7,-290.1 -182.9,-290.8 -182.9,-294.5 -182.1,-295.6 -181.8,-297.7 -185,-296.8 -185.2,-293.3 -187.9,-291.5 -187.9,-287 
			-193.8,-281.8 -198.3,-280.6 -193.6,-279.2 -191.8,-259.5 		"/>
	</g>
	<g id="Right_Bracer_1_">
		<polygon fill="#414042" points="-205.1,-277.9 -211,-253.7 -196.4,-258.4 -187.1,-251.8 -181.8,-261.8 -189.8,-276.2 		"/>
		<polygon opacity="0.1" fill="#231F20" points="-195.9,-276.9 -195.9,-268.5 -196.4,-258.4 -187.1,-251.8 -181.8,-261.8 
			-189.8,-276.2 		"/>
		<polygon fill="#FBB040" points="-208.9,-265.9 -196.1,-270.2 -181.8,-263.4 -181.8,-259.5 -196.1,-267.4 -210.1,-263.1 		"/>
		<polygon fill="#FBB040" points="-211,-256.9 -196.5,-260.8 -185,-254 -187.2,-249.1 -196.8,-256.4 -211.6,-253.4 		"/>
		<polygon fill="#FBB040" points="-206.2,-278.5 -189.1,-277.3 -189.1,-275.7 -207.4,-276.1 		"/>
	</g>
</g>
<g id="Squallo_Headshot">
	<circle opacity="0.1" fill="#231F20" cx="-130.6" cy="75" r="75"/>
	<g>
		<defs>
			<path id="SVGID_1_" d="M-130.6,0c-15.6,0-30.1,4.8-42.1,12.9l-0.2-7.9l-0.8,8.6c-5.8,4.1-11,8.9-15.4,14.4L-191.5,5l-0.9,27.4
				c-8.3,12.1-13.2,26.7-13.2,42.6c0,41.4,33.6,75,75,75c41.4,0,75-33.6,75-75C-55.6,33.6-89.2,0-130.6,0z"/>
		</defs>
		<clipPath id="SVGID_2_">
			<use xlink:href="#SVGID_1_"  overflow="visible"/>
		</clipPath>
		<g clip-path="url(#SVGID_2_)">
			<g id="Body_2_">
				<polygon fill="#603913" points="-90,179.8 -87.5,180.6 -84.9,179.8 -82.6,180.5 -79.5,179.8 -76.5,180.5 -72.9,179.8 
					-72.5,170.3 -76.8,164 -78.6,140.4 -84.8,135.5 -81.7,112 -87.3,102.6 -86.5,94.7 -98.9,82.7 -113.8,80.8 -119.2,68.2 
					-140.1,68.2 -145.4,80.8 -160.4,82.7 -172.8,94.7 -177,100.5 -199.5,107 -203.9,122.3 -190.7,132.8 -181,126 -165.2,122.3 
					-159.4,111.3 -154.6,122.3 -152.7,143 -153.7,161.5 -164.5,179.9 -167.2,194.3 -166.2,204.8 -169.9,214.8 -169.4,225.2 
					-177.3,234.5 -171.8,264.9 -178.1,275.5 -175.7,294.2 -158.2,300.3 -148.2,294.8 -151.9,265 -150.6,250.5 -143.8,240.8 
					-143.9,230.8 -138.2,221 -137.4,210.1 -131.5,196.8 -130.7,182.3 -129.6,182.1 -127.1,182.3 -124.8,200 -119.5,212.2 
					-119.7,223 -113.5,233.7 -114.2,242.3 -107.2,250.5 -102.7,264.8 -107.1,294.5 -97.2,300 -79.7,293.8 -77.2,275.2 -82.5,264.3 
					-80.5,232.7 -87.1,224.5 -88,214.8 -91.8,206.3 -90.6,194.3 -92.6,181.1 -103.2,160 -106.6,143 -103.6,122.3 -99.1,141.8 
					-98.9,151.7 -90.4,166.3 -92.6,170.3 				"/>
				<path opacity="0.1" fill="#231F20" d="M-160.4,82.7l-4.4,13.5l0.5,12.9l-6.4,8.9l-10.3,8l15.8-3.7l5.8-11l4.8,11l0.7,7.5
					l16.5-8.6c-1.9-10.5-4.8-20.8-7.5-31.2L-160.4,82.7z"/>
				<polygon opacity="0.1" fill="#231F20" points="-76.8,164 -78.6,140.4 -84.8,135.5 -81.7,112 -87.3,102.6 -86.5,94.7 -98.9,82.7 
					-113.8,80.8 -119.2,68.2 -129.4,81.4 -130.4,97 -101.4,102.5 -90.3,115.4 -91.8,140.1 -84.1,166.3 -77.2,171.4 -76.5,177.9 
					-78.5,176.5 -81.9,178.5 -84.3,177.5 -87.2,179.2 -90,179.8 -87.5,180.6 -84.9,179.8 -82.6,180.5 -79.5,179.8 -76.5,180.5 
					-72.9,179.8 -72.5,170.3 				"/>
			</g>
			<g id="Head_2_">
				<polygon opacity="0.3" fill="#231F20" points="-141.2,70 -137.3,76.5 -122.3,76.3 -118.7,69.8 -117.7,73.1 -122.3,81.3 
					-137.3,81.5 -141.9,73.8 				"/>
				<path fill="#603913" d="M-145.2,50c0,0,0.7-13,15.3-13s14.3,13.7,14.3,13.7l-0.2,3.1l2,1.9l-0.4,5.5l-2.1,1.9l-0.2,2.8
					l-5.8,10.5l-15,0.2l-6.6-11l-0.2-2.8l-2.5-2.1l2-3.8L-145.2,50z"/>
				<path opacity="0.1" fill="#231F20" d="M-129.9,37c14.6,0,14.3,13.7,14.3,13.7l-0.8,15.2l-5.8,10.5l-8.1,0.1l3-5.9l-2.3-4.4
					l6.7-2l-6.8-9.5L-129.9,37z"/>
				<polygon opacity="0.3" fill="#231F20" points="-113.8,55.6 -114.2,61.1 -116.3,63 -115.8,53.7 				"/>
				<polygon opacity="0.1" fill="#231F20" points="-144.6,56.7 -144.1,62.6 -146.6,60.5 				"/>
				<polygon fill="#FBB040" points="-145,60.2 -145.8,61.2 -145,63.6 				"/>
				<polygon fill="#FBB040" points="-115.6,60.2 -114.8,61.2 -115.6,63.6 				"/>
				<polygon fill="#3C2415" points="-127.6,52.1 -126.8,53.7 -117.7,52.9 -122.3,51.4 				"/>
				<polygon fill="#3C2415" points="-132.1,52.1 -132.9,53.7 -141.9,52.9 -137.4,51.4 				"/>
				<path fill="#3C2415" d="M-118.5,65.4l-6.4,3.4l-4.8-2.7l-5.1,2.4l-6.6-3.2l-2.7-5.2l0.2,5.3l5.4,11l8.7,10.2l8.6-10.2l4.8-10.7
					l0.2-5.1L-118.5,65.4z M-134.4,74.2l4.6-3.8l4.3,3.8l-4.3-0.8L-134.4,74.2z"/>
				<polygon fill="#C2B59B" points="-132.7,58.4 -136.7,55.1 -141.6,56.7 -136.9,57.9 				"/>
				<polygon fill="#231F20" points="-135.4,57.5 -134.4,57 -136.7,55.1 -139.1,55.9 -138.8,57 				"/>
				<polygon fill="#C2B59B" points="-126.6,58.4 -122.7,55.1 -117.7,56.7 -122.5,57.9 				"/>
				<polygon fill="#231F20" points="-124,57.5 -125,57 -122.7,55.1 -120.3,55.9 -120.6,57 				"/>
			</g>
			<g id="Greaves_1_">
				<polygon fill="#414042" points="-153.7,161.5 -164.5,179.9 -167.2,194.3 -166.2,204.8 -169.9,214.8 -169.4,225.2 -177.3,234.5 
					-171.8,264.9 -178.1,275.5 -175.7,294.2 -158.2,300.3 -148.2,294.8 -151.9,265 -150.6,250.5 -143.8,240.8 -143.9,230.8 
					-138.2,221 -137,209.1 -131.5,196.8 -130.7,182.3 -127.1,182.3 -124.8,200 -119.5,212.2 -119.7,223 -113.5,233.7 -114.2,242.3 
					-107.2,250.5 -102.7,264.8 -107.1,294.5 -97.2,300 -79.7,293.8 -77.2,275.2 -82.5,264.3 -80.5,232.7 -87.1,224.5 -88,214.8 
					-91.5,203.9 -90.6,194.3 -92.6,181.1 -103.2,160 				"/>
				<polygon opacity="0.1" fill="#231F20" points="-141.7,161.8 -152.7,196 -154.2,205 -155.6,215.2 -158.7,233.5 -163.4,247.5 
					-162.5,263.2 -162.5,284.5 -158.2,300.3 -148.2,294.8 -151.9,265 -150.6,250.5 -143.8,240.8 -143.9,230.8 -138.2,221 
					-137,209.1 -131.5,196.8 -130.7,182.3 -117.4,168.8 -112.9,194.5 -110.8,203.9 -109.6,217.2 -102.7,235.9 -93.5,248.2 
					-93.5,264 -93.5,284.5 -97.2,300 -79.7,293.8 -77.2,275.2 -82.5,264.3 -80.5,232.7 -87.1,224.5 -88,214.8 -91.5,203.9 
					-90.6,194.3 -92.6,181.1 -103.2,160 				"/>
				<polygon opacity="0.3" fill="#231F20" points="-106.3,288.6 -96.7,292.8 -82.2,288.6 -77.5,277.4 -79.7,293.8 -97.2,300 
					-107.1,294.5 				"/>
				<polygon opacity="0.3" fill="#231F20" points="-178.1,275.5 -173.2,287.4 -159.9,293 -149,288.7 -148.2,294.8 -158.2,300.3 
					-175.7,294.2 				"/>
				<polygon fill="#FBB040" points="-166.1,178.8 -164.1,175.8 -151.4,193.5 -130,190.2 -130,193.5 -152.9,197.2 				"/>
				<polygon fill="#FBB040" points="-168.4,205.5 -154.2,203.9 -136,210.5 -136,213.8 -154.7,206.5 -169.4,208.8 				"/>
				<path fill="#FBB040" d="M-128.2,190.8c0,0,0,4,0,3.8s16,1.5,16,1.5l18.7-19l-2.1-2.9l-17.9,18.4L-128.2,190.8z"/>
				<polygon fill="#FBB040" points="-122.4,210.5 -110.8,201.8 -90,203.9 -90,206.1 -110.8,205.2 -121.2,213.8 				"/>
				<polygon fill="#FBB040" points="-120.4,225.2 -108.7,218.5 -86.5,215 -87.8,213.8 -109.7,216 -122.4,223.5 				"/>
				<polygon fill="#FBB040" points="-116.5,232.2 -101.7,233.5 -86.5,221 -86.5,223.2 -101.5,236 -115.2,234.8 				"/>
				<polygon fill="#FBB040" points="-115,242.4 -94.8,245 -79.7,232.7 -79.7,238.8 -93.5,254.5 -112.5,246.2 				"/>
				<polygon fill="#FBB040" points="-171.4,215.8 -155.2,213.8 -137,221 -138.2,224 -155.4,216.5 -171.4,217.8 				"/>
				<polygon fill="#FBB040" points="-171.4,224 -157.9,230.5 -141.7,230.5 -141.7,233.5 -158.7,233.5 -171.4,226.5 				"/>
				<polygon fill="#FBB040" points="-178.3,232.7 -162.9,243.8 -141.7,240.2 -143.4,243.6 -163.6,252 -178.3,236 				"/>
				<polygon fill="#FBB040" points="-105.1,271.6 -94.1,261.8 -76.4,271.6 -76.4,276.3 -94.1,265.8 -105.1,276.3 				"/>
				<polygon fill="#FBB040" points="-175.3,269.4 -175.3,265.4 -163.1,261.2 -149.6,269.4 -149.6,273.4 -163.1,264.4 				"/>
				<polygon fill="#FBB040" points="-106.8,281.9 -94.1,282.8 -76.4,282.4 -76.4,287.1 -94.1,287.1 -106.8,284.5 				"/>
				<polygon fill="#FBB040" points="-178.1,280.9 -162.5,282.2 -149.6,280.9 -148.6,284.8 -162.5,285.9 -178.1,283.4 				"/>
			</g>
			<g id="Shirt_1_">
				<polygon fill="#262262" points="-156.1,85.9 -159.6,102.5 -159.5,111.3 -154.6,122.3 -152.8,143 -154.1,153.6 -155.1,161.5 
					-161.5,169.8 -143.1,179.8 -114.9,179 -97.2,169.2 -103.1,160 -104.6,152.7 -106.5,143 -103.5,122.3 -101.4,111 -101.4,102.5 
					-107,86.8 -129.8,98.1 				"/>
				<polygon opacity="0.3" fill="#231F20" points="-129.4,179.8 -114.9,179 -97.2,169.2 -103.1,160 -104.6,152.7 -106.5,143 
					-103.5,122.3 -115.2,124.2 -129.8,122.3 -129.7,134.4 -138.3,136 -129.7,138.5 				"/>
				<polygon fill="#FBB040" points="-156.9,89.8 -131.4,100.5 -105.4,93.5 -108.3,81.5 -130.4,95 -155.1,81.5 				"/>
				<polygon opacity="0.1" fill="#231F20" points="-156.9,89.8 -131.4,100.5 -105.4,93.5 -108.3,81.5 -130.4,95 -155.1,81.5 				"/>
			</g>
			<g id="Belt_2_">
				<polygon fill="#262262" points="-153.6,149.2 -154.1,153.6 -144.9,160.9 -140.6,174.8 -139.6,237.2 -117.9,243.6 -118.1,174.1 
					-110.8,160.9 -104.6,152.7 -105.4,149.5 -130.2,154.3 				"/>
				<polygon opacity="0.5" fill="#231F20" points="-153.6,149.2 -154.1,153.6 -144.9,160.9 -140.6,174.8 -139.6,237.2 -117.9,243.6 
					-118.1,174.1 -110.8,160.9 -104.6,152.7 -105.4,149.5 -130.2,154.3 				"/>
				<polygon opacity="0.3" fill="#231F20" points="-130,240 -117.9,243.6 -118.1,174.1 -110.8,160.9 -104.6,152.7 -105.4,149.5 
					-130.2,154.3 				"/>
				<polygon fill="#414042" points="-105.4,145 -116.4,150.5 -141.9,149.5 -154.1,145 -155.6,153.6 -140.6,157 -116.3,157 
					-103.8,152.7 				"/>
				<polygon opacity="0.1" fill="#231F20" points="-105.4,145 -116.4,150.5 -133.1,149.8 -138.3,152.9 -132.4,157 -116.3,157 
					-103.8,152.7 				"/>
				<polygon fill="#414042" points="-123.5,175.8 -121,149.2 -128.1,149 -129.7,175.1 -127.1,182.3 				"/>
				<polygon opacity="0.3" fill="#231F20" points="-123.5,175.8 -121,149.2 -128.1,149 -129.7,175.1 -126.4,172 				"/>
				<polygon fill="#414042" points="-119,155.9 -130.2,150 -135.9,152.7 -121.6,161.8 				"/>
				<polygon fill="#FBB040" points="-131.4,147.8 -140.6,152.7 -130.5,160.9 -127.5,158.1 -135.9,152.7 -128.1,149 				"/>
			</g>
			<g id="Left_Pauldron_2_">
				<polygon fill="#414042" points="-106.1,78.3 -98.4,78.3 -86.4,86.5 -83.6,97 -106.1,95 				"/>
				<polygon fill="#FBB040" points="-110.8,75.6 -108.1,96.5 -82.1,101.5 -78.9,94 -105.4,93.5 -104.1,75 				"/>
			</g>
			<g id="Right_Pauldron_2_">
				<polygon fill="#414042" points="-155.4,77.6 -162.4,77.6 -174.9,84.2 -176,94.2 -158.4,94.2 				"/>
				<polygon fill="#FBB040" points="-152.4,75 -156.4,95 -178.1,98.1 -178.1,89.8 -159.1,92 -158.4,75.6 				"/>
			</g>
			<g id="Left_Bracer_2_">
				<polygon fill="#414042" points="-99,140.9 -98.8,151.7 -91.1,165 -76.9,161 -78.4,140.4 -84.6,135.5 -91.8,140.1 				"/>
				<polygon opacity="0.1" fill="#231F20" points="-88.8,147.2 -84.1,163.6 -76.9,161 -78.4,140.4 -84.6,135.5 -91.8,140.1 				"/>
				<polygon fill="#FBB040" points="-83.3,132.8 -92,139.2 -101.1,138.3 -100.4,141.8 -91.4,141.4 -83,135.5 				"/>
				<polygon fill="#FBB040" points="-99.9,145 -89.9,145 -80,137.6 -78.5,139.3 -87.6,150.5 -100.1,147.8 				"/>
				<polygon fill="#FBB040" points="-91.8,165.2 -76.5,160.9 -76.5,163.6 -90.8,166.3 				"/>
			</g>
			<g id="Bident_1_">
				<polygon fill="#414042" points="-179.9,294 -184.9,294 -184.9,46.8 -192.6,40.5 -191.5,5 -188,39 -182.4,41.2 -179.9,46.8 				
					"/>
				<polygon fill="#FBB040" points="-186.3,48.8 -182.4,41.2 -176,39 -172.9,5 -172.1,41.8 -179.9,46.8 -186.3,56.8 				"/>
				<polygon fill="#FBB040" points="-179.2,55.1 -179.2,61.9 -186.3,65 				"/>
			</g>
			<g id="Right_Arm_3_">
				<polygon fill="#603913" points="-183.1,81 -183.1,73.8 -178.9,70.8 -176.8,75.9 -179.1,81.7 				"/>
				<polygon opacity="0.3" fill="#231F20" points="-183.1,81 -183.1,73.8 -178.9,70.8 -176.8,75.9 -179.1,81.7 				"/>
				<polygon opacity="0.3" fill="#231F20" points="-179.9,125.7 -178.1,125.3 -173,114.3 -179.2,101.1 -180,101.2 -179.9,92.5 
					-182.9,94 -182.9,99.8 -183.6,121.5 				"/>
				<polygon fill="#603913" points="-190.9,132.8 -181.1,126 -174.9,114.2 -182.9,99.8 -182.9,94 -176.8,90 -176.8,85.9 -176,85.2 
					-176,81.5 -175.2,80.4 -174.9,78.3 -188.1,72.3 -197.1,77.6 -200.8,91 -198.3,98.1 -204.1,122.3 				"/>
				<polygon opacity="0.1" fill="#231F20" points="-190.9,132.8 -181.1,126 -174.9,114.2 -182.9,99.8 -182.9,94 -176.8,90 
					-176.8,85.9 -176,85.2 -176,81.5 -175.2,80.4 -174.9,78.3 -178.1,79.2 -178.3,82.7 -181,84.5 -181,89 -187,94.2 -191.5,95.4 
					-186.7,96.8 -184.9,116.5 				"/>
			</g>
			<g id="Right_Bracer_2_">
				<polygon fill="#414042" points="-198.3,98.1 -204.1,122.3 -189.5,117.6 -180.3,124.2 -174.9,114.2 -182.9,99.8 				"/>
				<polygon opacity="0.1" fill="#231F20" points="-189.1,99.1 -189.1,107.5 -189.5,117.6 -180.3,124.2 -174.9,114.2 -182.9,99.8 
									"/>
				<polygon fill="#FBB040" points="-202,110.1 -189.3,105.8 -174.9,112.6 -174.9,116.5 -189.2,108.6 -203.3,112.9 				"/>
				<polygon fill="#FBB040" points="-204.1,119.1 -189.7,115.2 -178.1,122 -180.4,126.9 -189.9,119.6 -204.8,122.6 				"/>
				<polygon fill="#FBB040" points="-199.4,97.5 -182.3,98.7 -182.3,100.3 -200.5,99.9 				"/>
			</g>
		</g>
	</g>
</g>
<g id="Crunch">
	<polygon id="Shadow" opacity="0.3" fill="#231F20" points="118.5,-95.2 31.4,-95.1 -12,-82 46.4,-63 116.7,-67 146.4,-76 	"/>
	<g id="Cloak">
		<polygon fill="#594A42" points="131.5,-111 118.5,-106 89,-113.1 73.1,-108.2 41.7,-113.1 25,-105.7 25,-179.6 32,-225.5 
			32,-297.8 77.1,-284.2 116.7,-303 119.5,-208.3 131.5,-148 		"/>
		<polygon opacity="0.3" fill="#231F20" points="131.5,-111 118.5,-106 89,-113.1 73.1,-108.2 41.7,-113.1 25,-105.7 25,-179.6 
			32,-225.5 32,-297.8 77.1,-284.2 116.7,-303 119.5,-208.3 131.5,-148 		"/>
	</g>
	<g id="Tail_2_">
		<g id="Tail">
			<path fill="#006838" d="M89.8-189.7c0,0,15.8,67.5-53.6,67.5c-71,0-35-79.8-35-79.8s-3,56.8,26.5,56.8
				c37.2,0,38.4-44.7,38.4-44.7L89.8-189.7z"/>
		</g>
		<g id="Tail_1_" opacity="0.5">
			<path fill="#231F20" d="M89.8-189.7c0,0,15.8,67.5-53.6,67.5c-71,0-35-79.8-35-79.8s-3,56.8,26.5,56.8
				c37.2,0,38.4-44.7,38.4-44.7L89.8-189.7z"/>
		</g>
		<path opacity="0.5" fill="#231F20" d="M89.8-189.7l-24.1-1.6c0,0,16.3,59.3-43.2,59.3c-9.5,0-16.2-0.7-21-1.9
			c6.7,7,17.6,11.6,34.6,11.6C105.6-122.2,89.8-189.7,89.8-189.7z"/>
	</g>
	<g id="Fire">
		<polygon fill="#EF4136" points="17.8,-313.1 27.1,-321.2 34.3,-339.7 47.8,-350.4 54,-366 45.7,-376 38.4,-370.7 45.7,-380.3 
			54,-376.3 62.7,-368 65,-355.7 60,-345.5 77,-358.3 78.5,-373.7 81.6,-358.7 79.3,-349 98.5,-366.7 101.7,-379 115,-385 119,-396 
			111.7,-403 122.7,-399 123,-390.7 116.7,-378.7 131.5,-385.5 140,-393.5 136,-381 123,-373.1 116.7,-362 107.8,-350.4 
			116.7,-355.7 132,-370.5 131.6,-360.7 143.2,-369 152.3,-385 152.3,-373 145,-360.7 158.7,-367.7 168,-384.3 165,-390 
			170.7,-386.7 170.7,-378.3 168,-363.7 162.7,-352.7 168,-356.7 160.3,-341.4 166,-344.1 153,-324.5 143.2,-323.4 133,-316.8 
			119.5,-316.7 107.8,-310 86.7,-310 75.9,-299.2 47.8,-300.4 		"/>
		<polygon fill="#F15A29" points="23.7,-313.5 34,-322.2 42,-338.5 51.1,-347.8 56.2,-356 53,-343 55,-337.5 64.6,-344.1 73.6,-350 
			70.8,-338.5 79.3,-343.1 94.2,-349.5 98.5,-359 106.5,-366.5 107,-371.2 113.5,-373.2 110.2,-369.2 109.8,-362.5 103.4,-355 
			102.2,-343 115.8,-347.8 124,-354.8 124,-347.8 134.5,-358 139.2,-360 137,-351.1 146.2,-349.2 152,-352.8 152.1,-357.5 
			158.2,-359.5 155.2,-356 159.2,-347.8 157.2,-338.5 151.5,-329.1 143.2,-325.2 132,-319.9 119.5,-319 106.8,-314.2 86.3,-313 
			75.9,-303 48,-303.2 		"/>
		<polygon fill="#EF4136" points="96,-399 89.8,-394.7 86.7,-388 96,-393.5 		"/>
		<polygon fill="#EF4136" points="146.2,-390 149.5,-398.8 160.5,-402 163.2,-408 163.2,-397.7 150.9,-394.2 		"/>
		<polygon fill="#EF4136" points="23.7,-339.7 27.1,-350.4 37.5,-356 29.7,-348.5 		"/>
	</g>
	<g id="Body">
		<polygon fill="#006838" points="97.2,-294.5 92.2,-308.2 62.5,-308.2 57.5,-294.5 18,-292.8 11.6,-244.9 17,-217.3 37.5,-242 
			52.3,-220 52.3,-215 43.3,-207.9 37.5,-188.8 34.5,-169.5 45.2,-144.8 43.2,-140.5 46.8,-135.5 54.7,-95.2 48.7,-90.6 55.6,-84 
			62.3,-84 69.1,-88.7 62.3,-95.2 63.8,-133.2 67.5,-139.5 62.2,-145 69.5,-164.2 67.2,-176.5 87.5,-176.5 86,-165.5 93.1,-146.5 
			89.7,-140.5 93.1,-132.2 93.1,-94.3 86,-88.4 93.1,-84 99.8,-84 106.8,-89.9 100.7,-94 108.5,-133.7 111.4,-138.9 110.2,-144.8 
			121,-168 118.2,-187.2 111,-205.7 101.7,-215 101.7,-221.9 116.7,-242.7 125.7,-223.3 123,-207.9 139.3,-178.3 135.2,-174.1 
			141,-160.6 150,-155.7 152,-162.8 159.3,-161.3 161,-168 168,-170.3 164.5,-183.6 155.6,-184.2 150.3,-213.3 143.7,-224.6 
			146,-238 143.2,-261.7 145.3,-273.9 138.8,-290.8 		"/>
		<polygon opacity="0.1" fill="#231F20" points="76.5,-280.1 107.6,-293.6 97.2,-294.5 92.2,-308.2 77.7,-308.2 		"/>
		<polygon opacity="0.1" fill="#231F20" points="121,-168 63.9,-187.7 60,-164.2 54,-146.7 60,-138.7 55.9,-131 59,-93.8 53.6,-89 
			55.6,-84 62.3,-84 69.1,-88.7 62.3,-95.2 63.8,-133.2 67.5,-139.5 62.2,-145 69.5,-164.2 67.2,-176.5 109.8,-162.1 105,-148 
			105,-139.7 99.6,-134 96.8,-91.2 90.2,-85.8 93.1,-84 99.8,-84 106.8,-89.9 100.7,-94 108.5,-133.7 111.4,-138.9 110.2,-144.8 		
			"/>
		<polygon opacity="0.1" fill="#231F20" points="164.5,-183.6 155.6,-184.2 150.3,-213.3 143.7,-224.6 146,-238 143.2,-261.7 
			145.3,-273.9 138.8,-290.8 133,-264.3 142.3,-238.8 134.8,-222.8 150.8,-180.3 148.7,-167.7 141,-160.6 150,-155.7 152,-162.8 
			159.3,-161.3 161,-168 168,-170.3 		"/>
		<polygon opacity="0.1" fill="#231F20" points="77.3,-215 101.7,-215 101.7,-221.9 116.7,-242.7 116.7,-258 116.7,-274.2 
			98.5,-258 77.4,-259.5 77.4,-248.7 62.2,-246 77.4,-244.6 77.4,-235.8 62.2,-233.8 77.3,-230 		"/>
		<polygon opacity="0.1" fill="#231F20" points="39.3,-264.3 31.4,-243.7 15.1,-222.8 -2.3,-213.3 17,-217.3 37.5,-242 		"/>
	</g>
	<g id="Left_Foot_Claws_1_">
		<polygon fill="#C2B59B" points="52.3,-89.5 46.5,-91.2 41.7,-77 48.7,-84 		"/>
		<polygon fill="#C2B59B" points="66.8,-83.9 73.3,-76 71.5,-89.8 66.9,-87.6 		"/>
		<polygon opacity="0.1" fill="#231F20" points="52.3,-89.5 46.5,-91.2 41.7,-77 48.7,-84 		"/>
		<polygon opacity="0.1" fill="#231F20" points="66.8,-83.9 73.3,-76 71.5,-89.8 66.9,-87.6 		"/>
		<polygon fill="#C2B59B" points="53.9,-90.2 48.7,-87.2 50.2,-79 53.5,-75 55.6,-84 		"/>
		<polygon fill="#C2B59B" points="64.2,-89.8 62.3,-84 63.5,-80.7 66.8,-75.5 69.1,-85.5 		"/>
		<polygon fill="#C2B59B" points="57.5,-89.8 55.6,-84 56.8,-80.7 60.1,-75.5 62.3,-84 		"/>
	</g>
	<g id="Left_Foot_Claws">
		<polygon fill="#C2B59B" points="103.1,-89.5 109.3,-90.2 113,-77 106.8,-84 		"/>
		<polygon fill="#C2B59B" points="88.7,-83.9 81.7,-77 83.9,-89 88.6,-87.6 		"/>
		<polygon opacity="0.1" fill="#231F20" points="103.1,-89.5 109.3,-90.2 113,-77 106.8,-84 		"/>
		<polygon opacity="0.1" fill="#231F20" points="88.7,-83.9 81.7,-77 83.9,-89 88.6,-87.6 		"/>
		<polygon fill="#C2B59B" points="101.8,-89.8 106.8,-88.5 105.5,-80.3 102.8,-76 99.3,-84.1 		"/>
		<polygon fill="#C2B59B" points="91.4,-89 93.1,-84 92.5,-80.7 88.7,-75.5 87.3,-86.9 		"/>
		<polygon fill="#C2B59B" points="97.9,-89.8 99.3,-84.1 98.7,-80.7 95.7,-76 93.1,-84 		"/>
	</g>
	<g id="Left_Hand_Claws">
		<polygon fill="#C2B59B" points="148.9,-158.8 142.9,-161.5 140,-167.4 141.5,-174.8 148.9,-168 		"/>
		<polygon fill="#C2B59B" points="163.9,-171.1 159.5,-169.7 156.1,-177.1 156.8,-182.9 163.2,-176.5 		"/>
		<polygon fill="#C2B59B" points="158.2,-164.2 148.9,-168 148.2,-174.8 149.8,-179.6 159.5,-169.7 		"/>
		<polygon opacity="0.1" fill="#231F20" points="148.9,-158.8 142.9,-161.5 140,-167.4 141.5,-174.8 148.9,-168 		"/>
		<polygon opacity="0.1" fill="#231F20" points="163.9,-171.1 159.5,-169.7 156.1,-177.1 156.8,-182.9 163.2,-176.5 		"/>
		<polygon opacity="0.1" fill="#231F20" points="158.2,-164.2 148.9,-168 148.2,-174.8 149.8,-179.6 159.5,-169.7 		"/>
		<polygon fill="#C2B59B" points="161,-174.8 153.2,-171.6 146.4,-172.6 153.9,-180.8 163,-181.8 		"/>
	</g>
	<g id="Harness">
		<polygon fill="#3C2415" points="39,-264.3 37.5,-242 77.7,-267.9 90.2,-274.2 116.7,-258 116.7,-263.6 97,-277.7 109,-283.7 
			116.7,-297.8 96,-297.8 77.4,-289.5 49.8,-271.4 42.2,-279.1 37.5,-276.6 42.6,-266.7 		"/>
		<polygon opacity="0.3" fill="#231F20" points="77.7,-267.9 90.2,-274.2 116.7,-258 116.7,-263.6 97,-277.7 109,-283.7 
			116.7,-297.8 96,-297.8 77.4,-289.5 58.9,-277.4 57.7,-266.3 66.5,-260.7 		"/>
		<polygon fill="#A7A9AC" points="73.9,-287.2 64.6,-282.3 73.9,-264.5 81.6,-269.9 73.1,-259.2 60,-284.2 		"/>
	</g>
	<g id="Left_Pauldron">
		<polygon fill="#939598" points="147,-276 126.8,-277.9 104,-288.4 105.2,-296.4 103.4,-303 125,-305.8 146.7,-302.2 148.2,-295.3 
					"/>
		<polygon fill="#BCBEC0" points="147.1,-271.1 124,-273 99.8,-286 101.5,-294.3 99.8,-303 103,-304.4 105.2,-296.4 104,-288.4 
			126.8,-277.9 148.2,-276 		"/>
	</g>
	<g id="Right_Pauldron">
		<polygon fill="#939598" points="9.2,-276.2 29.5,-277.9 49.8,-288.4 49.8,-294.5 51.1,-302.8 29.8,-305.8 8.1,-302.2 6.6,-295.3 
					"/>
		<polygon fill="#BCBEC0" points="8.1,-271 30.8,-273 55,-286 53.3,-294.3 55,-304.4 51.3,-304.4 49.8,-294.5 49.8,-288.4 
			29.5,-277.9 7.8,-276 		"/>
	</g>
	<g id="Right_Arm_1_">
		<polygon opacity="0.1" fill="#231F20" points="19.1,-256.4 16.3,-231.5 27.1,-255 21.5,-304.4 8.5,-301.4 		"/>
		<polygon id="Right_Arm" fill="#006838" points="-12,-235.8 -2.3,-213.3 17,-217.3 21.3,-256.4 13,-288.4 16,-292 14.8,-304.6 
			3.2,-310 0.3,-305.8 -4,-308.2 -8,-303.4 -13.8,-304.4 -12,-290.7 -6,-288.4 		"/>
	</g>
	<g id="Sword">
		<polygon fill="#D1D3D4" points="20,-304.2 22.4,-295.1 141.4,-327.4 150.8,-339.7 		"/>
		<polygon fill="#E6E7E8" points="17.4,-313.9 20,-304.2 150.8,-339.6 133.7,-345.3 		"/>
		<path fill="#414042" d="M9.7-322.8l4.9-1.3L25-285.5l-4.9,1.3l-4.3-16.2l-29.1,7.5c-0.5,1-1.4,1.9-2.6,2.2
			c-2.1,0.6-4.3-0.7-4.9-2.8c-0.6-2.1,0.7-4.3,2.8-4.9c1.2-0.3,2.4,0,3.3,0.6l29.1-7.5L9.7-322.8z"/>
	</g>
	<g id="Right_Hand_Claws">
		<polygon fill="#C2B59B" points="-12,-303 -11,-297.2 -9.2,-292.6 -3,-289.8 -4.6,-297.8 -6.8,-301.4 		"/>
		<polygon opacity="0.1" fill="#231F20" points="-12,-303 -11,-297.2 -9.2,-292.6 -3,-289.8 -4.6,-297.8 -6.8,-301.4 		"/>
		<polygon fill="#C2B59B" points="3.7,-307.4 1.5,-303 3.2,-297.4 8.5,-293.7 9.2,-304 		"/>
		<polygon fill="#C2B59B" points="-3.5,-305.8 -4.6,-297.8 -3,-294.7 1.5,-292.6 1.5,-303 		"/>
		<polygon opacity="0.1" fill="#231F20" points="3.7,-307.4 1.5,-303 3.2,-297.4 8.5,-293.7 9.2,-304 		"/>
		<polygon opacity="0.1" fill="#231F20" points="-3.5,-305.8 -4.6,-297.8 -3,-294.7 1.5,-292.6 1.5,-303 		"/>
		<polygon fill="#C2B59B" points="6.4,-302.1 -1.6,-296.9 -3.5,-292.1 7.2,-292.6 13.6,-297.8 		"/>
	</g>
	<g id="Right_Bracer">
		<polygon fill="#BCBEC0" points="-7.2,-285.7 13.6,-288.4 15.1,-283.5 -8.9,-267.9 		"/>
		<polygon fill="#939598" points="-8.3,-268.7 -11.1,-243.7 20.5,-248.6 21.3,-256.4 14.4,-283 		"/>
		<polygon opacity="0.1" fill="#231F20" points="2,-275.2 9.2,-257.3 9.2,-246.9 20.5,-248.6 21.3,-256.4 14.4,-283 		"/>
		<polygon fill="#BCBEC0" points="-12.6,-235.8 20.3,-243.1 21,-248.7 -11.6,-243.7 		"/>
	</g>
	<g id="Left_Bracer">
		<polygon fill="#BCBEC0" points="124,-219.5 146.3,-221.9 148.9,-217.7 123,-215 		"/>
		<polygon fill="#BCBEC0" points="156.1,-187.3 138.7,-177.7 136.5,-181.8 153,-204.9 		"/>
		<polygon fill="#939598" points="124.3,-215.1 123,-207.9 137,-182.5 152.1,-203.7 150.3,-213.3 147.7,-217.7 		"/>
		<polygon opacity="0.1" fill="#231F20" points="137.5,-216.5 144,-207.5 141.7,-189 152.1,-203.7 150.3,-213.3 147.7,-217.7 		"/>
	</g>
	<g id="Head">
		<polygon opacity="0.1" fill="#231F20" points="94.8,-301.4 86.7,-302.7 77.5,-297.8 68.2,-302.7 60,-301.4 62.5,-308.2 
			92.2,-308.2 		"/>
		<path fill="#006838" d="M82.7-341.1l-5.2-3l-5.2,3c0,0-22.5-3-22.5,10.6l12.5,13.2l5,0.6l5.5-7.2l4.7,2.5l4.7-2.5l5.5,7.2l5-0.6
			l12.5-13.2C105.2-344.1,82.7-341.1,82.7-341.1z"/>
		<path opacity="0.1" fill="#231F20" d="M82.7-341.1l3.3,8.4l-6.7,5.3l-1.8,5.9l-4.7-2.5l4.7,2.5l4.7-2.5l5.5,7.2l5-0.6l12.5-13.2
			C105.2-344.1,82.7-341.1,82.7-341.1z"/>
		<polygon fill="#2BB673" points="119.5,-338.5 105.2,-330.5 92.7,-317.4 87.7,-316.8 82.2,-324 77.5,-321.5 72.8,-324 67.3,-316.8 
			62.3,-317.4 49.8,-330.5 37.5,-338.5 47.7,-324.5 41.5,-316.8 55.6,-311.6 61.9,-304 68.2,-306.2 77.5,-301.4 86.5,-306.5 
			93.1,-304 99.4,-311.6 113.6,-318.9 107.3,-324.5 		"/>
		<polygon opacity="0.1" fill="#231F20" points="119.5,-338.5 105.2,-330.5 92.7,-317.4 87.7,-316.8 82.2,-324 77.5,-321.5 
			82.3,-310 77.5,-301.4 86.5,-306.5 93.1,-304 99.4,-311.6 113.6,-318.9 107.3,-324.5 		"/>
		<polygon opacity="0.3" fill="#231F20" points="71.3,-319.9 73.3,-322.5 75.9,-320.3 73.5,-321.2 		"/>
		<polygon opacity="0.3" fill="#231F20" points="83.8,-319.9 81.8,-322.5 79.3,-320.3 81.7,-321.2 		"/>
		<polygon fill="#F9ED32" points="57.8,-331.7 65,-328.4 65.8,-319.9 57.8,-324.4 		"/>
		<polygon fill="#3C2415" points="61.8,-329.9 62.7,-325.8 61.8,-322.2 61,-325.8 		"/>
		<polygon fill="#F9ED32" points="96,-331.7 88.7,-328.4 88,-319.9 96,-324.4 		"/>
		<polygon fill="#3C2415" points="92,-329.9 91.1,-325.8 92,-322.2 92.7,-325.8 		"/>
		<polygon fill="#C2B59B" points="64.6,-312 69.8,-312 67.6,-304.2 		"/>
	</g>
	<g id="Pants">
		<polygon opacity="0.1" fill="#231F20" points="113.2,-151.1 119.5,-183.8 111,-200.7 103.4,-208.3 81,-208 79.2,-201.4 
			81.5,-187.4 90.8,-162.2 107.1,-147.8 111.1,-146.7 		"/>
		<polygon opacity="0.1" fill="#231F20" points="48.7,-207.1 43.3,-202.9 35,-183.8 42.4,-151.3 44.3,-146.9 48.7,-148.2 
			63.1,-160.4 72.2,-185.6 72.2,-200.6 70.2,-207.6 		"/>
		<polygon opacity="0.3" fill="#231F20" points="60.1,-207.4 54,-159.2 63.8,-157.1 67.1,-157.9 69.2,-163.3 76.2,-182.6 87,-162.7 
			89.1,-157.1 89.8,-157.1 99.8,-159.2 92.5,-208.3 		"/>
		<polygon fill="#3C2415" points="72.6,-168.1 80.4,-168.1 75.9,-176.9 		"/>
		<polygon opacity="0.3" fill="#231F20" points="72.6,-168.1 80.4,-168.1 75.9,-176.9 		"/>
		<polygon fill="#3C2415" points="60.1,-212.4 54,-164.2 63.8,-162.1 72.8,-164.2 76,-173 80,-164.2 89.8,-162.1 99.8,-164.2 
			92.5,-213.3 		"/>
		<polygon opacity="0.1" fill="#231F20" points="76,-173 80,-164.2 89.8,-162.1 99.8,-164.2 92.5,-213.3 76.5,-212.8 		"/>
		<polygon fill="#594A42" points="48.7,-212.1 43.3,-207.9 35,-188.8 32,-148 48.7,-153.2 63.1,-165.4 72.2,-190.6 72.2,-205.6 
			70.2,-212.6 		"/>
		<polygon fill="#594A42" points="124.8,-148 119.5,-188.8 111,-205.7 103.4,-213.3 81,-213 79.2,-206.4 81.5,-192.4 90.8,-167.2 
			107.1,-152.8 		"/>
		<polygon opacity="0.1" fill="#231F20" points="124.8,-148 119.5,-188.8 111,-205.7 103.4,-213.3 81,-213 79.2,-206.4 81.5,-192.4 
			90.8,-167.2 107.1,-152.8 		"/>
		<polygon fill="#594A42" points="32,-148 43.6,-148.6 42.4,-151.3 		"/>
		<polygon opacity="0.1" fill="#231F20" points="32,-148 43.6,-148.6 42.4,-151.3 		"/>
		<polygon fill="#594A42" points="124.8,-148 113.2,-151.1 112.2,-149 		"/>
		<polygon opacity="0.1" fill="#231F20" points="124.8,-148 113.2,-151.1 112.2,-149 		"/>
	</g>
	<g id="Belt">
		<polygon fill="#3C2415" points="50,-220.2 103.4,-221.9 103.4,-213.3 48.7,-212.1 		"/>
		<polygon opacity="0.3" fill="#231F20" points="70.8,-220.9 103.4,-221.9 103.4,-213.3 68.9,-212.6 65.8,-217.7 		"/>
		<polygon fill="#A7A9AC" points="79.5,-221.2 73.5,-221.4 73.4,-212.6 79.5,-212.9 72.2,-211.1 72.2,-222.8 		"/>
	</g>
	<g id="Left_Greaves">
		<polygon fill="#939598" points="100.5,-131 91.2,-126 92,-99.2 96.2,-95.2 102,-98.5 108.1,-124.9 		"/>
		<polygon opacity="0.1" fill="#231F20" points="100.5,-131 96.2,-95.2 102,-98.5 108.1,-124.9 		"/>
		<polygon fill="#BCBEC0" points="100.6,-134 109.8,-125.9 109.1,-124 106.1,-126.4 99.8,-123.5 94,-127.5 90.2,-125.5 89.8,-128 		
			"/>
		<polygon fill="#BCBEC0" points="91.5,-99.6 96.2,-95.2 102.5,-98.8 102.5,-97.2 96.2,-93.8 91.1,-98.1 		"/>
	</g>
	<g id="Right_Greaves">
		<polygon fill="#BCBEC0" points="55.6,-133.5 46.4,-127.5 46.8,-124.8 48.6,-126.2 50.8,-128 55.6,-125.2 60.8,-128.8 64.7,-126 
			65.2,-128.3 		"/>
		<polygon fill="#BCBEC0" points="52,-99.2 59,-97.4 64.2,-99.8 64.2,-102.1 59,-98.8 52,-100.5 		"/>
		<polygon fill="#939598" points="47.8,-125.6 50.8,-128 55.6,-125.2 60.8,-128.8 63.9,-126.5 63.4,-101.5 59,-98.8 52.7,-100.3 		
			"/>
		<polygon opacity="0.1" fill="#231F20" points="55.6,-125.2 60.8,-128.8 63.9,-126.5 63.4,-101.5 59,-98.8 		"/>
	</g>
</g>
<g id="Crunch_Headshot">
	<circle opacity="0.1" fill="#231F20" cx="75" cy="75" r="75"/>
	<g>
		<defs>
			<path id="SVGID_3_" d="M144.3,46.2l3.6-4.8l-7.1-2.4C128.1,15.8,103.4,0,75,0C33.6,0,0,33.6,0,75c0,41.4,33.6,75,75,75
				s75-33.6,75-75C150,64.8,148,55.1,144.3,46.2z"/>
		</defs>
		<clipPath id="SVGID_4_">
			<use xlink:href="#SVGID_3_"  overflow="visible"/>
		</clipPath>
		<g clip-path="url(#SVGID_4_)">
			<polygon id="Shadow_2_" opacity="0.3" fill="#231F20" points="115.6,285.8 28.5,285.9 -14.9,299 43.5,318 113.8,314 143.5,305 
							"/>
			<g id="Cloak_1_">
				<polygon fill="#594A42" points="128.6,270 115.6,275 86.1,267.9 70.2,272.8 38.8,267.9 22.1,275.3 22.1,201.4 29.1,155.5 
					29.1,83.2 74.2,96.8 113.8,78 116.6,172.7 128.6,233 				"/>
				<polygon opacity="0.3" fill="#231F20" points="128.6,270 115.6,275 86.1,267.9 70.2,272.8 38.8,267.9 22.1,275.3 22.1,201.4 
					29.1,155.5 29.1,83.2 74.2,96.8 113.8,78 116.6,172.7 128.6,233 				"/>
			</g>
			<g id="Tail_3_">
				<g id="Tail_5_">
					<path fill="#006838" d="M86.9,191.3c0,0,15.8,67.5-53.6,67.5c-71,0-35-79.8-35-79.8s-3,56.8,26.5,56.8
						c37.2,0,38.4-44.7,38.4-44.7L86.9,191.3z"/>
				</g>
				<g id="Tail_4_" opacity="0.5">
					<path fill="#231F20" d="M86.9,191.3c0,0,15.8,67.5-53.6,67.5c-71,0-35-79.8-35-79.8s-3,56.8,26.5,56.8
						c37.2,0,38.4-44.7,38.4-44.7L86.9,191.3z"/>
				</g>
				<path opacity="0.5" fill="#231F20" d="M86.9,191.3l-24.1-1.6c0,0,16.3,59.3-43.2,59.3c-9.5,0-16.2-0.7-21-1.9
					c6.7,7,17.6,11.6,34.6,11.6C102.7,258.8,86.9,191.3,86.9,191.3z"/>
			</g>
			<g id="Fire_1_">
				<polygon fill="#EF4136" points="14.9,67.9 24.2,59.8 31.5,41.3 44.9,30.6 51.1,15 42.8,5 35.5,10.3 42.8,0.7 51.1,4.7 59.8,13 
					62.1,25.3 57.1,35.5 74.1,22.7 75.6,7.3 78.7,22.3 76.4,32 95.6,14.3 98.8,2 112.1,-4 116.1,-15 108.8,-22 119.8,-18 
					120.1,-9.7 113.8,2.3 128.6,-4.5 137.1,-12.5 133.1,0 120.1,7.9 113.8,19 104.9,30.6 113.8,25.3 129.1,10.5 128.7,20.3 
					140.3,12 149.5,-4 149.5,8 142.1,20.3 155.8,13.3 165.1,-3.3 162.1,-9 167.8,-5.7 167.8,2.7 165.1,17.3 159.8,28.3 165.1,24.3 
					157.5,39.6 163.1,36.9 150.1,56.5 140.3,57.6 130.1,64.2 116.6,64.3 104.9,71 83.8,71 73.1,81.8 44.9,80.6 				"/>
				<polygon fill="#F15A29" points="20.8,67.5 31.1,58.8 39.1,42.5 48.2,33.2 53.4,25 50.1,38 52.1,43.5 61.7,36.9 70.8,31 68,42.5 
					76.4,37.9 91.4,31.5 95.6,22 103.6,14.5 104.1,9.8 110.6,7.8 107.4,11.8 106.9,18.5 100.5,26 99.4,38 112.9,33.2 121.1,26.2 
					121.1,33.2 131.6,23 136.4,21 134.1,29.9 143.3,31.8 149.1,28.2 149.2,23.5 155.4,21.5 152.4,25 156.4,33.2 154.4,42.5 
					148.6,51.9 140.4,55.8 129.1,61.1 116.6,62 103.9,66.8 83.5,68 73.1,78 45.1,77.8 				"/>
				<polygon fill="#EF4136" points="93.1,-18 86.9,-13.7 83.8,-7 93.1,-12.5 				"/>
				<polygon fill="#EF4136" points="143.3,-9 146.6,-17.8 157.7,-21 160.3,-27 160.3,-16.7 148,-13.2 				"/>
				<polygon fill="#EF4136" points="20.8,41.3 24.2,30.6 34.6,25 26.9,32.5 				"/>
			</g>
			<g id="Body_3_">
				<polygon fill="#006838" points="94.4,86.5 89.4,72.8 59.6,72.8 54.6,86.5 15.1,88.2 8.7,136.1 14.1,163.7 34.6,139 49.5,161 
					49.5,166 40.5,173.1 34.6,192.2 31.6,211.5 42.4,236.2 40.4,240.5 43.9,245.5 51.8,285.8 45.8,290.4 52.7,297 59.5,297 
					66.2,292.3 59.5,285.8 60.9,247.8 64.6,241.5 59.4,236 66.6,216.8 64.4,204.5 84.6,204.5 83.1,215.5 90.2,234.5 86.9,240.5 
					90.2,248.8 90.2,286.7 83.1,292.6 90.2,297 97,297 103.9,291.1 97.8,287 105.6,247.3 108.5,242.1 107.3,236.2 118.1,213 
					115.3,193.8 108.1,175.3 98.8,166 98.8,159.1 113.8,138.3 122.8,157.7 120.1,173.1 136.5,202.7 132.4,206.9 138.1,220.4 
					147.1,225.3 149.1,218.2 156.5,219.7 158.1,213 165.1,210.7 161.6,197.4 152.7,196.8 147.5,167.7 140.8,156.4 143.1,143 
					140.3,119.3 142.5,107.1 135.9,90.2 				"/>
				<polygon opacity="0.1" fill="#231F20" points="73.6,100.9 104.8,87.4 94.4,86.5 89.4,72.8 74.9,72.8 				"/>
				<polygon opacity="0.1" fill="#231F20" points="118.1,213 61.1,193.3 57.1,216.8 51.1,234.3 57.1,242.3 53,250 56.1,287.2 
					50.8,292 52.7,297 59.5,297 66.2,292.3 59.5,285.8 60.9,247.8 64.6,241.5 59.4,236 66.6,216.8 64.4,204.5 106.9,218.9 
					102.1,233 102.1,241.3 96.8,247 93.9,289.8 87.4,295.2 90.2,297 97,297 103.9,291.1 97.8,287 105.6,247.3 108.5,242.1 
					107.3,236.2 				"/>
				<polygon opacity="0.1" fill="#231F20" points="161.6,197.4 152.7,196.8 147.5,167.7 140.8,156.4 143.1,143 140.3,119.3 
					142.5,107.1 135.9,90.2 130.1,116.7 139.5,142.2 132,158.2 147.9,200.7 145.8,213.3 138.1,220.4 147.1,225.3 149.1,218.2 
					156.5,219.7 158.1,213 165.1,210.7 				"/>
				<polygon opacity="0.1" fill="#231F20" points="74.5,166 98.8,166 98.8,159.1 113.8,138.3 113.8,123 113.8,106.8 95.6,123 
					74.5,121.5 74.5,132.3 59.4,135 74.5,136.4 74.5,145.2 59.4,147.2 74.5,151 				"/>
				<polygon opacity="0.1" fill="#231F20" points="36.5,116.7 28.5,137.3 12.2,158.2 -5.2,167.7 14.1,163.7 34.6,139 				"/>
			</g>
			<g id="Left_Foot_Claws_3_">
				<polygon fill="#C2B59B" points="49.5,291.5 43.6,289.8 38.8,304 45.8,297 				"/>
				<polygon fill="#C2B59B" points="63.9,297.1 70.5,305 68.6,291.2 64,293.4 				"/>
				<polygon opacity="0.1" fill="#231F20" points="49.5,291.5 43.6,289.8 38.8,304 45.8,297 				"/>
				<polygon opacity="0.1" fill="#231F20" points="63.9,297.1 70.5,305 68.6,291.2 64,293.4 				"/>
				<polygon fill="#C2B59B" points="51,290.8 45.8,293.8 47.3,302 50.6,306 52.7,297 				"/>
				<polygon fill="#C2B59B" points="61.4,291.2 59.5,297 60.6,300.3 63.9,305.5 66.2,295.5 				"/>
				<polygon fill="#C2B59B" points="54.6,291.2 52.7,297 53.9,300.3 57.2,305.5 59.5,297 				"/>
			</g>
			<g id="Left_Foot_Claws_2_">
				<polygon fill="#C2B59B" points="100.3,291.5 106.4,290.8 110.1,304 103.9,297 				"/>
				<polygon fill="#C2B59B" points="85.8,297.1 78.8,304 81,292 85.7,293.4 				"/>
				<polygon opacity="0.1" fill="#231F20" points="100.3,291.5 106.4,290.8 110.1,304 103.9,297 				"/>
				<polygon opacity="0.1" fill="#231F20" points="85.8,297.1 78.8,304 81,292 85.7,293.4 				"/>
				<polygon fill="#C2B59B" points="99,291.2 103.9,292.5 102.6,300.7 99.9,305 96.5,296.9 				"/>
				<polygon fill="#C2B59B" points="88.6,292 90.2,297 89.6,300.3 85.8,305.5 84.5,294.1 				"/>
				<polygon fill="#C2B59B" points="95.1,291.2 96.5,296.9 95.8,300.3 92.9,305 90.2,297 				"/>
			</g>
			<g id="Left_Hand_Claws_1_">
				<polygon fill="#C2B59B" points="146.1,222.2 140,219.5 137.1,213.6 138.6,206.2 146.1,213 				"/>
				<polygon fill="#C2B59B" points="161,209.9 156.6,211.3 153.2,203.9 154,198.1 160.4,204.5 				"/>
				<polygon fill="#C2B59B" points="155.4,216.8 146.1,213 145.4,206.2 146.9,201.4 156.6,211.3 				"/>
				<polygon opacity="0.1" fill="#231F20" points="146.1,222.2 140,219.5 137.1,213.6 138.6,206.2 146.1,213 				"/>
				<polygon opacity="0.1" fill="#231F20" points="161,209.9 156.6,211.3 153.2,203.9 154,198.1 160.4,204.5 				"/>
				<polygon opacity="0.1" fill="#231F20" points="155.4,216.8 146.1,213 145.4,206.2 146.9,201.4 156.6,211.3 				"/>
				<polygon fill="#C2B59B" points="158.1,206.2 150.3,209.4 143.5,208.4 151,200.2 160.2,199.2 				"/>
			</g>
			<g id="Harness_1_">
				<polygon fill="#3C2415" points="36.1,116.7 34.6,139 74.9,113.1 87.4,106.8 113.8,123 113.8,117.4 94.2,103.3 106.1,97.3 
					113.8,83.2 93.2,83.2 74.5,91.5 46.9,109.6 39.3,101.9 34.6,104.4 39.7,114.3 				"/>
				<polygon opacity="0.3" fill="#231F20" points="74.9,113.1 87.4,106.8 113.8,123 113.8,117.4 94.2,103.3 106.1,97.3 113.8,83.2 
					93.2,83.2 74.5,91.5 56,103.6 54.8,114.7 63.7,120.3 				"/>
				<polygon fill="#A7A9AC" points="71,93.8 61.7,98.7 71,116.5 78.8,111.1 70.2,121.8 57.1,96.8 				"/>
			</g>
			<g id="Left_Pauldron_3_">
				<polygon fill="#939598" points="144.1,105 123.9,103.1 101.1,92.6 102.3,84.6 100.5,78 122.1,75.2 143.8,78.8 145.3,85.7 				
					"/>
				<polygon fill="#BCBEC0" points="144.3,109.9 121.1,108 96.9,95 98.6,86.7 96.9,78 100.1,76.6 102.3,84.6 101.1,92.6 
					123.9,103.1 145.3,105 				"/>
			</g>
			<g id="Right_Pauldron_3_">
				<polygon fill="#939598" points="6.3,104.8 26.6,103.1 46.9,92.6 46.9,86.5 48.2,78.2 27,75.2 5.2,78.8 3.7,85.7 				"/>
				<polygon fill="#BCBEC0" points="5.2,110 27.9,108 52.1,95 50.5,86.7 52.1,76.6 48.5,76.6 46.9,86.5 46.9,92.6 26.6,103.1 
					4.9,105 				"/>
			</g>
			<g id="Right_Arm_4_">
				<polygon opacity="0.1" fill="#231F20" points="16.2,124.6 13.5,149.5 24.2,126 18.7,76.6 5.6,79.6 				"/>
				<polygon id="Right_Arm_5_" fill="#006838" points="-14.9,145.2 -5.2,167.7 14.1,163.7 18.5,124.6 10.1,92.6 13.1,89 11.9,76.4 
					0.3,71 -2.5,75.2 -6.9,72.8 -10.9,77.6 -16.6,76.6 -14.9,90.3 -8.9,92.6 				"/>
			</g>
			<g id="Sword_1_">
				<polygon fill="#D1D3D4" points="17.1,76.8 19.6,85.9 138.6,53.6 147.9,41.3 				"/>
				<polygon fill="#E6E7E8" points="14.5,67.1 17.1,76.8 147.9,41.4 130.8,35.7 				"/>
				<path fill="#414042" d="M6.9,58.2l4.9-1.3l10.4,38.6l-4.9,1.3l-4.3-16.2l-29.1,7.5c-0.5,1-1.4,1.9-2.6,2.2
					c-2.1,0.6-4.3-0.7-4.9-2.8c-0.6-2.1,0.7-4.3,2.8-4.9c1.2-0.3,2.4,0,3.3,0.6l29.1-7.5L6.9,58.2z"/>
			</g>
			<g id="Right_Hand_Claws_1_">
				<polygon fill="#C2B59B" points="-14.9,78 -13.9,83.8 -12.1,88.4 -5.9,91.2 -7.5,83.2 -9.7,79.6 				"/>
				<polygon opacity="0.1" fill="#231F20" points="-14.9,78 -13.9,83.8 -12.1,88.4 -5.9,91.2 -7.5,83.2 -9.7,79.6 				"/>
				<polygon fill="#C2B59B" points="0.9,73.6 -1.4,78 0.3,83.6 5.6,87.3 6.3,77 				"/>
				<polygon fill="#C2B59B" points="-6.4,75.2 -7.5,83.2 -5.9,86.3 -1.4,88.4 -1.4,78 				"/>
				<polygon opacity="0.1" fill="#231F20" points="0.9,73.6 -1.4,78 0.3,83.6 5.6,87.3 6.3,77 				"/>
				<polygon opacity="0.1" fill="#231F20" points="-6.4,75.2 -7.5,83.2 -5.9,86.3 -1.4,88.4 -1.4,78 				"/>
				<polygon fill="#C2B59B" points="3.5,78.9 -4.4,84.1 -6.3,88.9 4.4,88.4 10.8,83.2 				"/>
			</g>
			<g id="Right_Bracer_3_">
				<polygon fill="#BCBEC0" points="-10.1,95.3 10.7,92.6 12.2,97.5 -11.7,113.1 				"/>
				<polygon fill="#939598" points="-11.1,112.3 -14,137.3 17.6,132.4 18.5,124.6 11.5,98 				"/>
				<polygon opacity="0.1" fill="#231F20" points="-0.8,105.8 6.3,123.7 6.3,134.1 17.6,132.4 18.5,124.6 11.5,98 				"/>
				<polygon fill="#BCBEC0" points="-15.4,145.2 17.5,137.9 18.1,132.3 -14.4,137.3 				"/>
			</g>
			<g id="Left_Bracer_3_">
				<polygon fill="#BCBEC0" points="121.1,161.5 143.4,159.1 146.1,163.3 120.1,166 				"/>
				<polygon fill="#BCBEC0" points="153.2,193.7 135.8,203.3 133.6,199.2 150.1,176.1 				"/>
				<polygon fill="#939598" points="121.4,165.9 120.1,173.1 134.1,198.5 149.2,177.3 147.5,167.7 144.9,163.3 				"/>
				<polygon opacity="0.1" fill="#231F20" points="134.7,164.5 141.1,173.5 138.8,192 149.2,177.3 147.5,167.7 144.9,163.3 				"/>
			</g>
			<g id="Head_3_">
				<polygon opacity="0.1" fill="#231F20" points="91.9,79.6 83.8,78.3 74.6,83.2 65.3,78.3 57.1,79.6 59.6,72.8 89.4,72.8 				"/>
				<path fill="#006838" d="M79.9,39.9l-5.2-3l-5.2,3c0,0-22.5-3-22.5,10.6l12.5,13.2l5,0.6l5.5-7.2l4.7,2.5l4.7-2.5l5.5,7.2l5-0.6
					l12.5-13.2C102.3,36.9,79.9,39.9,79.9,39.9z"/>
				<path opacity="0.1" fill="#231F20" d="M79.9,39.9l3.3,8.4l-6.7,5.3l-1.8,5.9L69.9,57l4.7,2.5l4.7-2.5l5.5,7.2l5-0.6l12.5-13.2
					C102.3,36.9,79.9,39.9,79.9,39.9z"/>
				<polygon fill="#2BB673" points="116.6,42.5 102.3,50.5 89.8,63.6 84.8,64.2 79.3,57 74.6,59.5 69.9,57 64.4,64.2 59.5,63.6 
					46.9,50.5 34.6,42.5 44.8,56.5 38.6,64.2 52.7,69.4 59,77 65.4,74.8 74.6,79.6 83.6,74.5 90.2,77 96.6,69.4 110.8,62.1 
					104.4,56.5 				"/>
				<polygon opacity="0.1" fill="#231F20" points="116.6,42.5 102.3,50.5 89.8,63.6 84.8,64.2 79.3,57 74.6,59.5 79.5,71 74.6,79.6 
					83.6,74.5 90.2,77 96.6,69.4 110.8,62.1 104.4,56.5 				"/>
				<polygon opacity="0.3" fill="#231F20" points="68.5,61.1 70.5,58.5 73.1,60.7 70.6,59.8 				"/>
				<polygon opacity="0.3" fill="#231F20" points="81,61.1 79,58.5 76.4,60.7 78.9,59.8 				"/>
				<polygon fill="#F9ED32" points="54.9,49.3 62.1,52.6 62.9,61.1 54.9,56.6 				"/>
				<polygon fill="#3C2415" points="58.9,51.1 59.8,55.2 58.9,58.8 58.1,55.2 				"/>
				<polygon fill="#F9ED32" points="93.1,49.3 85.9,52.6 85.1,61.1 93.1,56.6 				"/>
				<polygon fill="#3C2415" points="89.1,51.1 88.2,55.2 89.1,58.8 89.9,55.2 				"/>
				<polygon fill="#C2B59B" points="61.7,69 66.9,69 64.8,76.8 				"/>
			</g>
			<g id="Pants_1_">
				<polygon opacity="0.1" fill="#231F20" points="110.3,229.9 116.6,197.2 108.1,180.3 100.5,172.7 78.1,173 76.3,179.6 
					78.6,193.6 87.9,218.8 104.3,233.2 108.2,234.3 				"/>
				<polygon opacity="0.1" fill="#231F20" points="45.8,173.9 40.5,178.1 32.1,197.2 39.6,229.7 41.5,234.1 45.8,232.8 60.3,220.6 
					69.4,195.4 69.4,180.4 67.4,173.4 				"/>
				<polygon opacity="0.3" fill="#231F20" points="57.3,173.6 51.1,221.8 60.9,223.9 64.2,223.1 66.3,217.7 73.4,198.4 84.1,218.3 
					86.2,223.9 86.9,223.9 96.9,221.8 89.6,172.7 				"/>
				<polygon fill="#3C2415" points="69.7,212.9 77.6,212.9 73.1,204.1 				"/>
				<polygon opacity="0.3" fill="#231F20" points="69.7,212.9 77.6,212.9 73.1,204.1 				"/>
				<polygon fill="#3C2415" points="57.3,168.6 51.1,216.8 60.9,218.9 69.9,216.8 73.2,208 77.1,216.8 86.9,218.9 96.9,216.8 
					89.6,167.7 				"/>
				<polygon opacity="0.1" fill="#231F20" points="73.2,208 77.1,216.8 86.9,218.9 96.9,216.8 89.6,167.7 73.6,168.2 				"/>
				<polygon fill="#594A42" points="45.8,168.9 40.5,173.1 32.1,192.2 29.1,233 45.8,227.8 60.3,215.6 69.4,190.4 69.4,175.4 
					67.4,168.4 				"/>
				<polygon fill="#594A42" points="121.9,233 116.6,192.2 108.1,175.3 100.5,167.7 78.1,168 76.3,174.6 78.6,188.6 87.9,213.8 
					104.3,228.2 				"/>
				<polygon opacity="0.1" fill="#231F20" points="121.9,233 116.6,192.2 108.1,175.3 100.5,167.7 78.1,168 76.3,174.6 78.6,188.6 
					87.9,213.8 104.3,228.2 				"/>
				<polygon fill="#594A42" points="29.1,233 40.7,232.4 39.6,229.7 				"/>
				<polygon opacity="0.1" fill="#231F20" points="29.1,233 40.7,232.4 39.6,229.7 				"/>
				<polygon fill="#594A42" points="121.9,233 110.3,229.9 109.3,232 				"/>
				<polygon opacity="0.1" fill="#231F20" points="121.9,233 110.3,229.9 109.3,232 				"/>
			</g>
			<g id="Belt_3_">
				<polygon fill="#3C2415" points="47.1,160.8 100.5,159.1 100.5,167.7 45.8,168.9 				"/>
				<polygon opacity="0.3" fill="#231F20" points="68,160.1 100.5,159.1 100.5,167.7 66,168.4 62.9,163.3 				"/>
				<polygon fill="#A7A9AC" points="76.6,159.8 70.7,159.6 70.6,168.4 76.6,168.1 69.4,169.9 69.4,158.2 				"/>
			</g>
			<g id="Left_Greaves_1_">
				<polygon fill="#939598" points="97.6,250 88.3,255 89.2,281.8 93.4,285.8 99.2,282.5 105.2,256.1 				"/>
				<polygon opacity="0.1" fill="#231F20" points="97.6,250 93.4,285.8 99.2,282.5 105.2,256.1 				"/>
				<polygon fill="#BCBEC0" points="97.8,247 106.9,255.1 106.3,257 103.2,254.6 96.9,257.5 91.1,253.5 87.4,255.5 86.9,253 				"/>
				<polygon fill="#BCBEC0" points="88.7,281.4 93.4,285.8 99.6,282.2 99.6,283.8 93.4,287.2 88.2,282.9 				"/>
			</g>
			<g id="Right_Greaves_1_">
				<polygon fill="#BCBEC0" points="52.7,247.5 43.5,253.5 43.9,256.2 45.7,254.8 47.9,253 52.7,255.8 57.9,252.2 61.8,255 
					62.4,252.7 				"/>
				<polygon fill="#BCBEC0" points="49.1,281.8 56.1,283.6 61.4,281.2 61.4,278.9 56.1,282.2 49.1,280.5 				"/>
				<polygon fill="#939598" points="44.9,255.4 47.9,253 52.7,255.8 57.9,252.2 61.1,254.5 60.5,279.5 56.1,282.2 49.9,280.7 				
					"/>
				<polygon opacity="0.1" fill="#231F20" points="52.7,255.8 57.9,252.2 61.1,254.5 60.5,279.5 56.1,282.2 				"/>
			</g>
		</g>
	</g>
</g>
<g id="Monk">
</g>
<g id="DM">
</g>
</svg>
