<?xml version="1.0" encoding="utf-8"?>
<!-- Generator: Adobe Illustrator 18.1.1, SVG Export Plug-In . SVG Version: 6.00 Build 0)  -->
<svg version="1.1" xmlns="http://www.w3.org/2000/svg" xmlns:xlink="http://www.w3.org/1999/xlink" x="0px" y="0px"
	 viewBox="0 0 150 150" enable-background="new 0 0 150 150" xml:space="preserve">
<g id="Kizze">
</g>
<g id="Squallo">
</g>
<g id="Crunch">
	<circle opacity="0.3" fill="#231F20" cx="75" cy="75" r="75"/>
	<g>
		<defs>
			<circle id="SVGID_1_" cx="75" cy="75" r="75"/>
		</defs>
		<clipPath id="SVGID_2_">
			<use xlink:href="#SVGID_1_"  overflow="visible"/>
		</clipPath>
		<g clip-path="url(#SVGID_2_)">
			<polygon fill="#594A42" points="128.9,270.2 115.9,275.1 86.4,268.1 70.5,272.9 39.1,268.1 22.4,275.5 22.4,201.5 29.4,155.7 
				29.4,83.3 74.5,97 114.1,78.1 116.9,172.9 128.9,233.2 			"/>
			<polygon opacity="0.3" fill="#231F20" points="128.9,270.2 115.9,275.1 86.4,268.1 70.5,272.9 39.1,268.1 22.4,275.5 22.4,201.5 
				29.4,155.7 29.4,83.3 74.5,97 114.1,78.1 116.9,172.9 128.9,233.2 			"/>
			<g id="Fire_1_">
				<polygon fill="#EF4136" points="15.2,68.1 24.5,59.9 31.8,41.5 45.2,30.8 51.4,15.2 43.1,5.2 35.8,10.5 43.1,0.8 51.4,4.8 
					60.1,13.2 62.4,25.5 57.4,35.7 74.4,22.8 75.9,7.5 79,22.5 76.7,32.2 95.9,14.5 99.1,2.2 112.4,-3.8 116.4,-14.8 109.1,-21.8 
					120.1,-17.8 120.4,-9.5 114.1,2.5 128.9,-4.3 137.4,-12.3 133.4,0.2 120.4,8 114.1,19.2 105.2,30.8 114.1,25.5 129.4,10.7 
					129,20.4 140.6,12.2 149.8,-3.8 149.8,8.2 142.4,20.5 156.1,13.5 165.4,-3.2 162.4,-8.8 168.1,-5.5 168.1,2.8 165.4,17.5 
					160.1,28.5 165.4,24.4 157.8,39.8 163.4,37 150.4,56.7 140.6,57.8 130.4,64.3 116.9,64.4 105.2,71.2 84.1,71.2 73.4,81.9 
					45.2,80.7 				"/>
				<polygon fill="#F15A29" points="21.1,67.7 31.4,59 39.4,42.7 48.5,33.3 53.7,25.2 50.4,38.2 52.4,43.7 62,37 71.1,31.2 
					68.3,42.7 76.7,38.1 91.7,31.7 95.9,22.2 103.9,14.7 104.4,9.9 110.9,7.9 107.7,11.9 107.2,18.7 100.8,26.2 99.7,38.2 
					113.2,33.3 121.4,26.4 121.4,33.3 131.9,23.2 136.7,21.2 134.4,30.1 143.6,31.9 149.4,28.4 149.5,23.7 155.7,21.7 152.7,25.2 
					156.7,33.3 154.7,42.7 148.9,52.1 140.7,56 129.4,61.2 116.9,62.2 104.2,66.9 83.8,68.2 73.4,78.1 45.4,77.9 				"/>
				<polygon fill="#EF4136" points="21.1,41.5 24.5,30.8 34.9,25.2 27.2,32.7 				"/>
			</g>
			<g id="Body_1_">
				<polygon fill="#006838" points="94.7,86.7 89.7,72.9 59.9,72.9 54.9,86.7 15.4,88.4 9,136.3 14.4,163.8 34.9,139.2 49.8,161.2 
					49.8,166.2 40.8,173.3 34.9,192.4 31.9,211.7 42.7,236.4 40.7,240.7 44.2,245.7 52.1,286 46.1,290.6 53,297.2 59.8,297.2 
					66.5,292.5 59.8,286 61.2,247.9 64.9,241.7 59.7,236.2 66.9,216.9 64.7,204.7 84.9,204.7 83.4,215.7 90.5,234.7 87.2,240.7 
					90.5,248.9 90.5,286.8 83.4,292.7 90.5,297.2 97.3,297.2 104.2,291.2 98.1,287.2 105.9,247.5 108.8,242.2 107.6,236.4 
					118.4,213.2 115.6,194 108.4,175.5 99.1,166.2 99.1,159.3 114.1,138.5 123.1,157.8 120.4,173.3 136.8,202.8 132.7,207 
					138.4,220.5 147.4,225.5 149.4,218.4 156.8,219.8 158.4,213.2 165.4,210.8 161.9,197.5 153,196.9 147.8,167.8 141.1,156.6 
					143.4,143.2 140.6,119.5 142.8,107.3 136.2,90.4 				"/>
				<polygon opacity="0.1" fill="#231F20" points="74.8,166.2 99.1,166.2 99.1,159.3 114.1,138.5 114.1,123.2 114.1,106.9 
					95.9,123.2 74.8,121.7 74.8,132.5 59.7,135.2 74.8,136.5 74.8,145.4 59.7,147.4 74.8,151.2 				"/>
			</g>
			<g id="Harness_1_">
				<polygon fill="#3C2415" points="36.4,116.8 34.9,139.2 75.2,113.2 87.7,106.9 114.1,123.2 114.1,117.6 94.5,103.5 106.4,97.5 
					114.1,83.3 93.5,83.3 74.8,91.7 47.2,109.8 39.6,102.1 34.9,104.6 40,114.5 				"/>
				<polygon opacity="0.3" fill="#231F20" points="75.2,113.2 87.7,106.9 114.1,123.2 114.1,117.6 94.5,103.5 106.4,97.5 
					114.1,83.3 93.5,83.3 74.8,91.7 56.3,103.8 55.1,114.8 64,120.5 				"/>
				<polygon fill="#A7A9AC" points="71.3,94 62,98.8 71.3,116.7 79.1,111.2 70.5,122 57.4,97 				"/>
			</g>
			<g id="Left_Pauldron_1_">
				<polygon fill="#939598" points="144.5,105.2 124.2,103.3 101.4,92.8 102.6,84.8 100.8,78.1 122.4,75.3 144.1,79 145.6,85.8 				
					"/>
				<polygon fill="#BCBEC0" points="144.6,110.1 121.4,108.2 97.2,95.2 98.9,86.8 97.2,78.1 100.4,76.8 102.6,84.8 101.4,92.8 
					124.2,103.3 145.6,105.2 				"/>
			</g>
			<g id="Right_Pauldron_1_">
				<polygon fill="#939598" points="6.6,105 26.9,103.3 47.2,92.8 47.2,86.6 48.5,78.4 27.3,75.3 5.5,79 4,85.8 				"/>
				<polygon fill="#BCBEC0" points="5.5,110.2 28.2,108.2 52.4,95.2 50.8,86.8 52.4,76.8 48.8,76.8 47.2,86.6 47.2,92.8 26.9,103.3 
					5.2,105.1 				"/>
			</g>
			<g id="Right_Arm_2_">
				<polygon opacity="0.1" fill="#231F20" points="16.5,124.8 13.8,149.6 24.5,126.1 19,76.8 5.9,79.8 				"/>
				<polygon id="Right_Arm_3_" fill="#006838" points="-14.6,145.4 -4.9,167.8 14.4,163.8 18.8,124.8 10.4,92.8 13.4,89.2 
					12.2,76.6 0.6,71.2 -2.2,75.3 -6.6,72.9 -10.6,77.7 -16.3,76.8 -14.6,90.5 -8.6,92.8 				"/>
			</g>
			<g id="Sword_1_">
				<polygon fill="#D1D3D4" points="17.4,77 19.9,86.1 138.9,53.8 148.2,41.5 				"/>
				<polygon fill="#E6E7E8" points="14.9,67.3 17.4,77 148.2,41.6 131.1,35.8 				"/>
				<path fill="#414042" d="M7.2,58.3l4.9-1.3l10.4,38.6L17.5,97l-4.3-16.2l-29.1,7.5c-0.5,1-1.4,1.9-2.6,2.2
					c-2.1,0.6-4.3-0.7-4.9-2.8c-0.6-2.1,0.7-4.3,2.8-4.9c1.2-0.3,2.4,0,3.3,0.6l29.1-7.5L7.2,58.3z"/>
			</g>
			<g id="Right_Hand_Claws_1_">
				<polygon fill="#C2B59B" points="1.2,73.8 -1.1,78.1 0.6,83.8 5.9,87.5 6.6,77.2 				"/>
				<polygon opacity="0.1" fill="#231F20" points="1.2,73.8 -1.1,78.1 0.6,83.8 5.9,87.5 6.6,77.2 				"/>
				<polygon fill="#C2B59B" points="3.8,79 -4.1,84.3 -6,89.1 4.7,88.6 11.1,83.3 				"/>
			</g>
			<g id="Right_Bracer_1_">
				<polygon fill="#BCBEC0" points="-9.8,95.5 11,92.8 12.5,97.7 -11.4,113.2 				"/>
				<polygon fill="#939598" points="-10.8,112.5 -13.7,137.5 17.9,132.5 18.8,124.8 11.8,98.2 				"/>
				<polygon fill="#BCBEC0" points="-15.1,145.4 17.8,138.1 18.4,132.5 -14.1,137.5 				"/>
			</g>
			<g id="Head_1_">
				<polygon opacity="0.1" fill="#231F20" points="92.2,79.8 84.1,78.5 74.9,83.3 65.6,78.5 57.4,79.8 59.9,72.9 89.7,72.9 				"/>
				<path fill="#006838" d="M80.2,40.1l-5.2-3l-5.2,3c0,0-22.5-3-22.5,10.6l12.5,13.2l5,0.6l5.5-7.2l4.7,2.5l4.7-2.5l5.5,7.2l5-0.6
					l12.5-13.2C102.6,37,80.2,40.1,80.2,40.1z"/>
				<path opacity="0.1" fill="#231F20" d="M80.2,40.1l3.3,8.4l-6.7,5.3l-1.8,5.9l-4.7-2.5l4.7,2.5l4.7-2.5l5.5,7.2l5-0.6l12.5-13.2
					C102.6,37,80.2,40.1,80.2,40.1z"/>
				<path fill="#2BB673" d="M116.9,42.7l-14.3,7.9L90.1,63.8l-5,0.6l-5.5-7.2l-4.7,2.5l-4.7-2.5l-5.5,7.2l-5-0.6L47.2,50.6
					l-12.3-7.9c8.1,7.9,10.2,13.9,10.2,13.9s-4.3,2.6-6.2,7.7c7.9-0.7,14.1,5.2,14.1,5.2l6.3,7.6l6.3-2.3l9.2,4.9l9-5.1l6.6,2.5
					l6.3-7.6c0,0,6.3-8,14.2-7.3c-1.9-5.1-6.3-5.7-6.3-5.7S108.8,50.6,116.9,42.7z"/>
				<path opacity="0.1" fill="#231F20" d="M116.9,42.7l-14.3,7.9L90.1,63.8l-5,0.6l-5.5-7.2l-4.7,2.5l4.8,11.5l-4.8,8.6l9-5.1
					l6.6,2.5l6.3-7.6c0,0,6.3-8,14.2-7.3c-1.9-5.1-6.3-5.7-6.3-5.7S108.8,50.6,116.9,42.7z"/>
				<polygon opacity="0.3" fill="#231F20" points="68.8,61.2 70.8,58.7 73.4,60.9 70.9,59.9 				"/>
				<polygon opacity="0.3" fill="#231F20" points="81.3,61.2 79.3,58.7 76.7,60.9 79.2,59.9 				"/>
				<polygon fill="#F9ED32" points="55.2,49.5 62.4,52.7 63.2,61.2 55.2,56.7 				"/>
				<polygon fill="#3C2415" points="59.2,51.3 60.1,55.4 59.2,59 58.4,55.4 				"/>
				<polygon fill="#F9ED32" points="93.4,49.5 86.2,52.7 85.4,61.2 93.4,56.7 				"/>
				<polygon fill="#3C2415" points="89.4,51.3 88.5,55.4 89.4,59 90.2,55.4 				"/>
				<polygon fill="#C2B59B" points="62,69.2 67.2,69.2 65.1,77 				"/>
			</g>
		</g>
	</g>
	<polygon fill="#D1D3D4" points="123.3,58.1 138.9,53.8 148.2,41.5 124.1,48.1 	"/>
	<polygon fill="#E6E7E8" points="122,48.7 148.2,41.6 131.1,35.8 119.4,39 	"/>
</g>
<g id="Monk">
</g>
<g id="DM">
</g>
</svg>
