<?xml version="1.0" encoding="utf-8"?>
<!-- Generator: Adobe Illustrator 18.1.1, SVG Export Plug-In . SVG Version: 6.00 Build 0)  -->
<svg version="1.1" xmlns="http://www.w3.org/2000/svg" xmlns:xlink="http://www.w3.org/1999/xlink" x="0px" y="0px"
	 viewBox="0 0 150 300" enable-background="new 0 0 150 300" xml:space="preserve">
<g id="Layer_3" display="none">
	<rect display="inline" fill="#C2B59B" width="150" height="300"/>
</g>
<g id="Layer_2">
	<polygon fill="#D7DF23" points="57.2,204.5 69.7,200.3 82.3,205.5 94.8,204.5 100.2,167.2 98.5,144.7 87,115.2 67.1,115.2 
		56.2,141.5 51.6,167.7 	"/>
	<path fill="#E6E7E8" d="M64.8,117.3c0,0-11,7.7-11,7.7c0,0-9.5,14.1-9.5,14.1l-6,39.8l12.2,3.5l-4.3-16l5.5-24.8L59,125L64.8,117.3
		z"/>
	<polygon fill="#C49A6C" points="69.8,76.2 69.8,80.2 56.8,83.7 39.3,100.1 8.5,101.2 7.5,105.6 40.8,106.2 59.8,95.9 64.8,117.3 
		59,125 57.8,132.8 70.5,133.4 81,138 81.2,167.2 80.2,171 81.8,177.2 79.5,208.2 73,227.5 79.8,232.8 93.5,226.5 88.5,207.5 
		87,178.8 89,172.3 88,167 93,147.7 94.8,128.9 89.2,115.2 93.2,95.8 98.5,90.9 119.2,86.9 135.3,62.6 131.2,62.6 116.5,81.3 
		89.2,83.9 78.5,80.2 77.2,74.9 	"/>
	<polygon fill="#594A42" points="79.5,184 85.2,186 89,182.5 88.5,207.5 93.5,226.5 79.8,232.8 73,227.5 79.5,208.2 	"/>
	<polygon fill="#3C2415" points="61.5,82.5 61.5,100.9 59.8,95.9 62.1,105.7 75.7,101.2 91.3,104.9 93.2,95.8 91.3,100.8 87.6,83.4 
		83.5,82 75.2,98.1 65.9,81.3 	"/>
	<polygon fill="#3C2415" points="63.9,113.4 75.9,114.3 89.7,112.7 89.2,115.2 94.8,128.9 94.3,140.4 87.7,138.9 80.3,140.4 
		80.3,137.7 70.5,133.4 69,125 64.2,125.3 59,125 64.8,117.3 	"/>
	<polygon fill="#E6E7E8" points="90.5,194.8 94.8,204.5 102.8,170.5 102.8,147.7 96,127.9 89.2,115.2 93.2,95.8 99.8,81.3 
		84.7,82.4 82.3,81.6 64,89.2 69.6,92.7 81.3,112.1 90.6,129.9 94.8,144.8 96.2,169.1 	"/>
	<polygon fill="#F1F2F2" points="62.9,82.1 50,83.4 59.8,95.9 64.8,117.3 59,125 51.7,141.8 46.2,166.5 56.5,204.5 60.5,196.2 
		54.4,166.9 58.6,144.8 66.1,125.2 69.8,117 80.2,92.3 85.2,88 65.9,81.3 	"/>
	<polygon fill="#C49A6C" points="69.7,125 74.1,126.2 74.9,134.7 70.6,172 74,184.9 73.3,192.6 63.7,199 59.6,186.9 65.4,172.1 
		62.3,132.9 64.2,125.3 	"/>
	<polygon fill="#594A42" points="67.6,146.9 74.7,145.3 70.6,172 74,184.9 73.3,192.6 63.7,199 59.6,186.9 65.4,172.1 61.4,143.1 	
		"/>
	<polygon opacity="0.1" fill="#231F20" points="78,78.2 74.6,82.8 69.8,78.7 69.8,76.7 77.7,77 	"/>
	<polygon fill="#C49A6C" points="70,47.2 76.5,47.2 85.2,54.5 84.7,70.8 74,80.2 63.5,71.4 61.5,55.2 	"/>
	<polygon fill="#D1D3D4" points="64.8,117.3 53.8,125 44.3,139.2 41.3,159.5 35.7,141.2 51.3,121.2 	"/>
	<polygon fill="#D1D3D4" points="89.2,115.2 96,127.9 102.8,147.7 102.8,170.5 99.6,184.1 109.5,179.5 109.5,147.1 100,125.9 	"/>
	<polygon fill="#BCBEC0" points="89.2,115.2 100,125.9 109.5,147.1 109.5,164.3 118.3,150.7 103.8,124.1 	"/>
	<polygon opacity="0.3" fill="#231F20" points="102.8,277 51.6,277 31,287 81,293 126,285 	"/>
</g>
</svg>
