<?xml version="1.0" encoding="utf-8"?>
<!-- Generator: Adobe Illustrator 19.0.0, SVG Export Plug-In . SVG Version: 6.00 Build 0)  -->
<svg version="1.1" xmlns="http://www.w3.org/2000/svg" xmlns:xlink="http://www.w3.org/1999/xlink" x="0px" y="0px"
	 viewBox="0 0 150 150" enable-background="new 0 0 150 150" xml:space="preserve">
<g id="Kizze">
	<g id="Bustle_Front">
		<polygon fill="#D1D3D4" points="-565.2,-242.7 -575.5,-234.4 -584.6,-220.2 -587.8,-200.5 -591.7,-217.1 -594.3,-218.8 
			-578.7,-238.8 		"/>
		<polygon fill="#D7DF23" points="-594.3,-218.8 -591.7,-217.1 -587.8,-200.5 -594.3,-216.9 		"/>
		<polygon fill="#D7DF23" points="-511.7,-209.3 -514.2,-208.6 -521.1,-195.7 -512.5,-206.5 		"/>
		<polygon fill="#BCBEC0" points="-540.8,-244.8 -530.7,-233.4 -521.5,-212.3 -521.1,-195.7 -514.2,-208.6 -511.7,-209.3 
			-526.2,-235.9 		"/>
	</g>
	<polygon id="Grown_Back" fill="#D7DF23" points="-573.5,-155.5 -560.3,-159.7 -547.7,-154.5 -535.2,-155.5 -529.8,-192.8 
		-531.5,-215.3 -543,-244.8 -562.9,-244.8 -573.8,-218.5 -578.4,-192.3 	"/>
	<polygon fill="#C49A6C" points="-560.2,-283.8 -560.2,-279.8 -573.2,-276.3 -590.7,-259.9 -621.5,-258.8 -622.5,-254.4 
		-589.2,-253.8 -570.2,-264.1 -565.2,-242.7 -571,-235 -572.2,-227.2 -559.5,-226.6 -549,-222 -548.8,-192.8 -549.8,-189 
		-548.2,-182.8 -550.5,-151.8 -557,-132.5 -550.2,-127.2 -536.5,-133.5 -541.5,-152.5 -543,-181.2 -541,-187.7 -542,-193 
		-537,-212.3 -535.2,-231.1 -540.8,-244.8 -536.8,-264.2 -531.5,-269.1 -510.8,-273.1 -494.7,-297.4 -498.8,-297.4 -513.5,-278.7 
		-540.8,-276.1 -551.5,-279.8 -552.8,-285.1 	"/>
	<g>
		<path fill="#E6E7E8" d="M-565.2-242.7c0,0-11,7.7-11,7.7c0,0-9.5,14.1-9.5,14.1l-6,39.8l2.2-1.1l12,4.6l-4.8-15.8l4.9-24.6l7-16.6
			L-565.2-242.7z"/>
		<polygon fill="#D7DF23" points="-591.7,-181 -589.5,-182.1 -577.5,-177.5 -589.6,-179.8 		"/>
		<polygon fill="#D7DF23" points="-531.4,-175.9 -522.9,-181.3 -520.5,-180.5 -522.4,-178.6 		"/>
		<polygon fill="#D1D3D4" points="-540.8,-244.8 -535.2,-232 -528.2,-212.3 -528,-189.8 -531.4,-175.9 -522.9,-181.3 -520.5,-180.5 
			-520.5,-212.9 -530,-234.1 		"/>
	</g>
	<polygon fill="#594A42" points="-550.5,-176 -544.8,-174 -541,-177.5 -541.5,-152.5 -536.5,-133.5 -550.2,-127.2 -557,-132.5 
		-550.5,-151.8 	"/>
	<polygon fill="#3C2415" points="-568.5,-277.5 -568.5,-259.1 -570.2,-264.1 -567.9,-254.3 -554.3,-258.8 -538.7,-255.1 
		-536.8,-264.2 -538.7,-259.2 -542.4,-276.6 -546.5,-278 -554.8,-261.9 -564.1,-278.7 	"/>
	<polygon fill="#3C2415" points="-566.1,-246.6 -554.1,-245.7 -540.3,-247.3 -540.8,-244.8 -535.2,-231.1 -535.7,-219.6 
		-542.3,-221.1 -549.7,-219.6 -549.7,-222.3 -559.5,-226.6 -561,-235 -565.8,-234.7 -571,-235 -565.2,-242.7 	"/>
	<g id="Gown_Front">
		<polygon fill="#E6E7E8" points="-539.5,-165.2 -535.2,-155.5 -527.2,-189.5 -527.2,-212.3 -534,-232.1 -540.8,-244.8 
			-536.8,-264.2 -530.2,-278.7 -545.3,-277.6 -547.7,-278.4 -566,-270.8 -560.4,-267.3 -548.7,-247.9 -539.4,-230.1 -535.2,-215.2 
			-533.8,-190.9 		"/>
		<polygon fill="#F1F2F2" points="-567.1,-277.9 -580,-276.6 -570.2,-264.1 -565.2,-242.7 -571,-235 -578.3,-218.2 -583.8,-193.5 
			-573.5,-155.5 -569.5,-163.8 -575.6,-193.1 -571.4,-215.2 -563.9,-234.8 -560.2,-243 -549.8,-267.7 -544.8,-272 -564.1,-278.7 		
			"/>
	</g>
	<polygon fill="#C49A6C" points="-560.3,-235 -555.9,-233.8 -555.1,-225.3 -559.4,-188 -556,-175.1 -556.7,-167.4 -566.3,-161 
		-570.4,-173.1 -564.6,-187.9 -567.7,-227.1 -565.8,-234.7 	"/>
	<polygon fill="#594A42" points="-562.4,-213.1 -555.3,-214.7 -559.4,-188 -556,-175.1 -556.7,-167.4 -566.3,-161 -570.4,-173.1 
		-564.6,-187.9 -568.6,-216.9 	"/>
	<polygon opacity="0.1" fill="#231F20" points="-552,-281.8 -556.1,-278.7 -560.2,-281.3 -560.2,-283.3 -552.3,-283 	"/>
	<path fill="#C49A6C" d="M-556.7-312.8c10,0,11.8,11.4,11.8,11.4l-0.5,12.1l-10.8,8.3l-10.4-7.7l-1.6-12.5
		C-568.1-301.1-566.7-312.8-556.7-312.8z"/>
	<path opacity="0.1" fill="#231F20" d="M-556.7-312.8c10,0,11.8,11.4,11.8,11.4l-0.5,12.1l-10.8,8.3l5.3-12.1l-4.4-5.3l4.3-3.7
		L-556.7-312.8z"/>
	<polygon opacity="0.3" fill="#231F20" points="-527.2,-83 -578.4,-83 -599,-73 -549,-67 -504,-75 	"/>
	<circle fill="#58595B" cx="-550.8" cy="-272.1" r="0.7"/>
	<circle fill="#58595B" cx="-548.4" cy="-271.4" r="0.7"/>
</g>
<g id="Squallo">
	<polygon id="Shadow_1_" opacity="0.3" fill="#231F20" points="-296,-90.2 -389,-91.2 -417,-80.8 -378.3,-67 -338.4,-63 -276.8,-75 
			"/>
	<g id="Body_1_">
		<polygon fill="#603913" points="-306.9,-196.2 -304.4,-195.4 -301.7,-196.2 -299.5,-195.5 -296.3,-196.2 -293.3,-195.5 
			-289.8,-196.2 -289.3,-205.7 -293.7,-212 -295.5,-235.6 -301.7,-240.5 -298.6,-264 -304.1,-273.4 -303.3,-281.3 -315.8,-293.3 
			-330.7,-295.2 -336.1,-307.8 -356.9,-307.8 -362.3,-295.2 -377.2,-293.3 -389.7,-281.3 -393.9,-275.5 -416.3,-269 -420.8,-253.7 
			-407.6,-243.2 -397.9,-250 -382,-253.7 -376.3,-264.7 -371.4,-253.7 -369.6,-233 -370.5,-214.5 -381.4,-196.1 -384.1,-181.7 
			-383.1,-171.2 -386.8,-161.2 -386.2,-150.8 -394.1,-141.5 -388.7,-111.1 -395,-100.5 -392.5,-81.8 -375.1,-75.7 -365.1,-81.2 
			-368.7,-111 -367.5,-125.5 -360.6,-135.2 -360.8,-145.2 -355,-155 -354.3,-165.9 -348.3,-179.2 -347.6,-193.7 -346.5,-193.9 
			-344,-193.7 -341.6,-176 -336.4,-163.8 -336.6,-153 -330.4,-142.3 -331.1,-133.7 -324.1,-125.5 -319.5,-111.2 -324,-81.5 
			-314,-76 -296.6,-82.2 -294.1,-100.8 -299.4,-111.7 -297.3,-143.3 -304,-151.5 -304.8,-161.2 -308.6,-169.7 -307.5,-181.7 
			-309.5,-194.9 -320.1,-216 -323.4,-233 -320.4,-253.7 -315.9,-234.2 -315.8,-224.3 -307.3,-209.7 -309.5,-205.7 		"/>
		<path opacity="0.1" fill="#231F20" d="M-377.2-293.3l-4.4,13.5l0.5,12.9l-6.4,8.9l-10.3,8l15.8-3.7l5.8-11l4.8,11l0.7,7.5
			l16.5-8.6c-1.9-10.5-4.8-20.8-7.5-31.2L-377.2-293.3z"/>
		<polygon opacity="0.1" fill="#231F20" points="-293.7,-212 -295.5,-235.6 -301.7,-240.5 -298.6,-264 -304.1,-273.4 -303.3,-281.3 
			-315.8,-293.3 -330.7,-295.2 -336.1,-307.8 -346.2,-294.6 -347.3,-279 -318.2,-273.5 -307.1,-260.6 -308.6,-235.9 -301,-209.7 
			-294.1,-204.6 -293.3,-198.1 -295.3,-199.5 -298.8,-197.5 -301.2,-198.5 -304,-196.8 -306.9,-196.2 -304.4,-195.4 -301.7,-196.2 
			-299.5,-195.5 -296.3,-196.2 -293.3,-195.5 -289.8,-196.2 -289.3,-205.7 		"/>
	</g>
	<g id="Head_1_">
		<polygon opacity="0.3" fill="#231F20" points="-358,-306 -354.2,-299.5 -339.2,-299.7 -335.5,-306.2 -334.6,-302.9 -339.2,-294.7 
			-354.2,-294.5 -358.8,-302.2 		"/>
		<path fill="#603913" d="M-362-326c0,0,0.7-13,15.3-13s14.3,13.7,14.3,13.7l-0.2,3.1l2,1.9l-0.4,5.5l-2.1,1.9l-0.2,2.8l-5.8,10.5
			l-15,0.2l-6.6-11l-0.2-2.8l-2.5-2.1l2-3.8L-362-326z"/>
		<path opacity="0.1" fill="#231F20" d="M-346.8-339c14.6,0,14.3,13.7,14.3,13.7l-0.8,15.2l-5.8,10.5l-8.1,0.1l3-5.9l-2.3-4.4l6.7-2
			l-6.8-9.5L-346.8-339z"/>
		<polygon opacity="0.3" fill="#231F20" points="-330.6,-320.4 -331.1,-314.9 -333.2,-313 -332.7,-322.3 		"/>
		<polygon opacity="0.1" fill="#231F20" points="-361.5,-319.3 -361,-313.4 -363.5,-315.5 		"/>
		<polygon fill="#FBB040" points="-361.8,-315.8 -362.7,-314.8 -361.8,-312.4 		"/>
		<polygon fill="#FBB040" points="-332.5,-315.8 -331.6,-314.8 -332.5,-312.4 		"/>
		<polygon fill="#3C2415" points="-344.4,-323.9 -343.6,-322.3 -334.6,-323.1 -339.1,-324.6 		"/>
		<polygon fill="#3C2415" points="-349,-323.9 -349.8,-322.3 -358.8,-323.1 -354.3,-324.6 		"/>
		<path fill="#3C2415" d="M-335.4-310.6l-6.4,3.4l-4.8-2.7l-5.1,2.4l-6.6-3.2l-2.7-5.2l0.2,5.3l5.4,11l8.7,10.2l8.6-10.2l4.8-10.7
			l0.2-5.1L-335.4-310.6z M-351.2-301.8l4.6-3.8l4.3,3.8l-4.3-0.8L-351.2-301.8z"/>
		<polygon fill="#C2B59B" points="-349.6,-317.6 -353.6,-320.9 -358.5,-319.3 -353.7,-318.1 		"/>
		<polygon fill="#231F20" points="-352.3,-318.5 -351.2,-319 -353.6,-320.9 -356,-320.1 -355.6,-319 		"/>
		<polygon fill="#C2B59B" points="-343.5,-317.6 -339.5,-320.9 -334.6,-319.3 -339.4,-318.1 		"/>
		<polygon fill="#231F20" points="-340.8,-318.5 -341.8,-319 -339.5,-320.9 -337.1,-320.1 -337.5,-319 		"/>
	</g>
	<g id="Greaves">
		<polygon fill="#414042" points="-370.5,-214.5 -381.4,-196.1 -384.1,-181.7 -383.1,-171.2 -386.8,-161.2 -386.2,-150.8 
			-394.1,-141.5 -388.7,-111.1 -395,-100.5 -392.5,-81.8 -375.1,-75.7 -365.1,-81.2 -368.7,-111 -367.5,-125.5 -360.6,-135.2 
			-360.8,-145.2 -355,-155 -353.8,-166.9 -348.3,-179.2 -347.6,-193.7 -344,-193.7 -341.6,-176 -336.4,-163.8 -336.6,-153 
			-330.4,-142.3 -331.1,-133.7 -324.1,-125.5 -319.5,-111.2 -324,-81.5 -314,-76 -296.6,-82.2 -294.1,-100.8 -299.4,-111.7 
			-297.3,-143.3 -304,-151.5 -304.8,-161.2 -308.4,-172.1 -307.5,-181.7 -309.5,-194.9 -320.1,-216 		"/>
		<polygon opacity="0.1" fill="#231F20" points="-358.6,-214.2 -369.5,-180 -371,-171 -372.5,-160.8 -375.5,-142.5 -380.2,-128.5 
			-379.3,-112.8 -379.3,-91.5 -375.1,-75.7 -365.1,-81.2 -368.7,-111 -367.5,-125.5 -360.6,-135.2 -360.8,-145.2 -355,-155 
			-353.8,-166.9 -348.3,-179.2 -347.6,-193.7 -334.3,-207.2 -329.8,-181.5 -327.7,-172.1 -326.5,-158.8 -319.6,-140.1 
			-310.4,-127.8 -310.4,-112 -310.4,-91.5 -314,-76 -296.6,-82.2 -294.1,-100.8 -299.4,-111.7 -297.3,-143.3 -304,-151.5 
			-304.8,-161.2 -308.4,-172.1 -307.5,-181.7 -309.5,-194.9 -320.1,-216 		"/>
		<polygon opacity="0.3" fill="#231F20" points="-323.1,-87.4 -313.5,-83.2 -299.1,-87.4 -294.4,-98.6 -296.6,-82.2 -314,-76 
			-324,-81.5 		"/>
		<polygon opacity="0.3" fill="#231F20" points="-395,-100.5 -390,-88.6 -376.8,-83 -365.8,-87.3 -365.1,-81.2 -375.1,-75.7 
			-392.5,-81.8 		"/>
		<polygon fill="#FBB040" points="-383,-197.2 -381,-200.2 -368.3,-182.5 -346.8,-185.8 -346.8,-182.5 -369.8,-178.8 		"/>
		<polygon fill="#FBB040" points="-385.2,-170.5 -371,-172.1 -352.8,-165.5 -352.8,-162.2 -371.5,-169.5 -386.2,-167.2 		"/>
		<path fill="#FBB040" d="M-345-185.2c0,0,0,4,0,3.8s16,1.5,16,1.5l18.7-19l-2.1-2.9l-17.9,18.4L-345-185.2z"/>
		<polygon fill="#FBB040" points="-339.3,-165.5 -327.7,-174.2 -306.9,-172.1 -306.9,-169.9 -327.7,-170.8 -338,-162.2 		"/>
		<polygon fill="#FBB040" points="-337.3,-150.8 -325.6,-157.5 -303.4,-161 -304.6,-162.2 -326.6,-160 -339.3,-152.5 		"/>
		<polygon fill="#FBB040" points="-333.3,-143.8 -318.6,-142.5 -303.4,-155 -303.4,-152.8 -318.4,-140 -332.1,-141.2 		"/>
		<polygon fill="#FBB040" points="-331.8,-133.6 -311.6,-131 -296.5,-143.3 -296.5,-137.2 -310.4,-121.5 -329.3,-129.8 		"/>
		<polygon fill="#FBB040" points="-388.2,-160.2 -372,-162.2 -353.8,-155 -355.1,-152 -372.3,-159.5 -388.2,-158.2 		"/>
		<polygon fill="#FBB040" points="-388.2,-152 -374.8,-145.5 -358.6,-145.5 -358.6,-142.5 -375.5,-142.5 -388.2,-149.5 		"/>
		<polygon fill="#FBB040" points="-395.2,-143.3 -379.7,-132.2 -358.6,-135.8 -360.3,-132.4 -380.5,-124 -395.2,-140 		"/>
		<polygon fill="#FBB040" points="-321.9,-104.4 -311,-114.2 -293.3,-104.4 -293.3,-99.7 -311,-110.2 -321.9,-99.7 		"/>
		<polygon fill="#FBB040" points="-392.1,-106.6 -392.1,-110.6 -379.9,-114.8 -366.5,-106.6 -366.5,-102.6 -379.9,-111.6 		"/>
		<polygon fill="#FBB040" points="-323.7,-94.1 -311,-93.2 -293.3,-93.6 -293.3,-88.9 -311,-88.9 -323.7,-91.5 		"/>
		<polygon fill="#FBB040" points="-395,-95.1 -379.3,-93.8 -366.5,-95.1 -365.5,-91.2 -379.3,-90.1 -395,-92.6 		"/>
	</g>
	<g id="Shirt">
		<polygon fill="#262262" points="-372.9,-290.1 -376.5,-273.5 -376.3,-264.7 -371.5,-253.7 -369.6,-233 -371,-222.4 -372,-214.5 
			-378.4,-206.2 -360,-196.2 -331.8,-197 -314.1,-206.8 -320,-216 -321.4,-223.3 -323.3,-233 -320.3,-253.7 -318.2,-265 
			-318.2,-273.5 -323.9,-289.2 -346.6,-277.9 		"/>
		<polygon opacity="0.3" fill="#231F20" points="-346.2,-196.2 -331.8,-197 -314.1,-206.8 -320,-216 -321.4,-223.3 -323.3,-233 
			-320.3,-253.7 -332.1,-251.8 -346.7,-253.7 -346.6,-241.6 -355.1,-240 -346.5,-237.5 		"/>
		<polygon fill="#FBB040" points="-373.8,-286.2 -348.2,-275.5 -322.2,-282.5 -325.2,-294.5 -347.3,-281 -372,-294.5 		"/>
		<polygon opacity="0.1" fill="#231F20" points="-373.8,-286.2 -348.2,-275.5 -322.2,-282.5 -325.2,-294.5 -347.3,-281 -372,-294.5 
					"/>
	</g>
	<g id="Belt_1_">
		<polygon fill="#262262" points="-370.4,-226.8 -371,-222.4 -361.8,-215.1 -357.5,-201.2 -356.5,-138.8 -334.8,-132.4 -335,-201.9 
			-327.6,-215.1 -321.4,-223.3 -322.2,-226.5 -347.1,-221.7 		"/>
		<polygon opacity="0.5" fill="#231F20" points="-370.4,-226.8 -371,-222.4 -361.8,-215.1 -357.5,-201.2 -356.5,-138.8 
			-334.8,-132.4 -335,-201.9 -327.6,-215.1 -321.4,-223.3 -322.2,-226.5 -347.1,-221.7 		"/>
		<polygon opacity="0.3" fill="#231F20" points="-346.8,-136 -334.8,-132.4 -335,-201.9 -327.6,-215.1 -321.4,-223.3 -322.2,-226.5 
			-347.1,-221.7 		"/>
		<polygon fill="#414042" points="-322.2,-231 -333.2,-225.5 -358.8,-226.5 -371,-231 -372.5,-222.4 -357.5,-219 -333.2,-219 
			-320.7,-223.3 		"/>
		<polygon opacity="0.1" fill="#231F20" points="-322.2,-231 -333.2,-225.5 -350,-226.2 -355.1,-223.1 -349.2,-219 -333.2,-219 
			-320.7,-223.3 		"/>
		<polygon fill="#414042" points="-340.4,-200.2 -337.9,-226.8 -345,-227 -346.6,-200.9 -344,-193.7 		"/>
		<polygon opacity="0.3" fill="#231F20" points="-340.4,-200.2 -337.9,-226.8 -345,-227 -346.6,-200.9 -343.2,-204 		"/>
		<polygon fill="#414042" points="-335.9,-220.1 -347,-226 -352.8,-223.3 -338.5,-214.2 		"/>
		<polygon fill="#FBB040" points="-348.2,-228.2 -357.5,-223.3 -347.4,-215.1 -344.4,-217.9 -352.8,-223.3 -345,-227 		"/>
	</g>
	<g id="Left_Pauldron_1_">
		<polygon fill="#414042" points="-323,-297.7 -315.2,-297.7 -303.2,-289.5 -300.5,-279 -323,-281 		"/>
		<polygon fill="#FBB040" points="-327.6,-300.4 -325,-279.5 -299,-274.5 -295.8,-282 -322.2,-282.5 -321,-301 		"/>
	</g>
	<g id="Right_Pauldron_1_">
		<polygon fill="#414042" points="-372.2,-298.4 -379.2,-298.4 -391.8,-291.8 -392.9,-281.8 -375.2,-281.8 		"/>
		<polygon fill="#FBB040" points="-369.2,-301 -373.2,-281 -395,-277.9 -395,-286.2 -376,-284 -375.2,-300.4 		"/>
	</g>
	<g id="Left_Bracer_1_">
		<polygon fill="#414042" points="-315.8,-235.1 -315.6,-224.3 -307.9,-211 -293.7,-215 -295.3,-235.6 -301.5,-240.5 -308.6,-235.9 
					"/>
		<polygon opacity="0.1" fill="#231F20" points="-305.7,-228.8 -301,-212.4 -293.7,-215 -295.3,-235.6 -301.5,-240.5 -308.6,-235.9 
					"/>
		<polygon fill="#FBB040" points="-300.2,-243.2 -308.9,-236.8 -317.9,-237.7 -317.2,-234.2 -308.3,-234.6 -299.9,-240.5 		"/>
		<polygon fill="#FBB040" points="-316.8,-231 -306.8,-231 -296.8,-238.4 -295.3,-236.7 -304.5,-225.5 -317,-228.2 		"/>
		<polygon fill="#FBB040" points="-308.6,-210.8 -293.3,-215.1 -293.3,-212.4 -307.7,-209.7 		"/>
	</g>
	<g id="Bident">
		<polygon fill="#414042" points="-396.8,-82 -401.8,-82 -401.8,-329.2 -409.5,-335.5 -408.3,-371 -404.8,-337 -399.3,-334.8 
			-396.8,-329.2 		"/>
		<polygon fill="#FBB040" points="-403.2,-327.2 -399.3,-334.8 -392.9,-337 -389.8,-371 -389,-334.2 -396.8,-329.2 -403.2,-319.2 		
			"/>
		<polygon fill="#FBB040" points="-396.1,-320.9 -396.1,-314.1 -403.2,-311 		"/>
	</g>
	<g id="Right_Arm_2_">
		<polygon fill="#603913" points="-399.9,-295 -399.9,-302.2 -395.8,-305.2 -393.7,-300.1 -396,-294.3 		"/>
		<polygon opacity="0.3" fill="#231F20" points="-399.9,-295 -399.9,-302.2 -395.8,-305.2 -393.7,-300.1 -396,-294.3 		"/>
		<polygon opacity="0.3" fill="#231F20" points="-396.7,-250.3 -395,-250.7 -389.8,-261.7 -396.1,-274.9 -396.8,-274.8 
			-396.8,-283.5 -399.8,-282 -399.8,-276.2 -400.5,-254.5 		"/>
		<polygon fill="#603913" points="-407.8,-243.2 -398,-250 -391.8,-261.8 -399.8,-276.2 -399.8,-282 -393.7,-286 -393.7,-290.1 
			-392.9,-290.8 -392.9,-294.5 -392.1,-295.6 -391.8,-297.7 -405,-303.7 -414,-298.4 -417.6,-285 -415.1,-277.9 -421,-253.7 		"/>
		<polygon opacity="0.1" fill="#231F20" points="-407.8,-243.2 -398,-250 -391.8,-261.8 -399.8,-276.2 -399.8,-282 -393.7,-286 
			-393.7,-290.1 -392.9,-290.8 -392.9,-294.5 -392.1,-295.6 -391.8,-297.7 -395,-296.8 -395.2,-293.3 -397.9,-291.5 -397.9,-287 
			-403.8,-281.8 -408.3,-280.6 -403.6,-279.2 -401.8,-259.5 		"/>
	</g>
	<g id="Right_Bracer_1_">
		<polygon fill="#414042" points="-415.1,-277.9 -421,-253.7 -406.4,-258.4 -397.1,-251.8 -391.8,-261.8 -399.8,-276.2 		"/>
		<polygon opacity="0.1" fill="#231F20" points="-405.9,-276.9 -405.9,-268.5 -406.4,-258.4 -397.1,-251.8 -391.8,-261.8 
			-399.8,-276.2 		"/>
		<polygon fill="#FBB040" points="-418.9,-265.9 -406.1,-270.2 -391.8,-263.4 -391.8,-259.5 -406.1,-267.4 -420.1,-263.1 		"/>
		<polygon fill="#FBB040" points="-421,-256.9 -406.5,-260.8 -395,-254 -397.2,-249.1 -406.8,-256.4 -421.6,-253.4 		"/>
		<polygon fill="#FBB040" points="-416.2,-278.5 -399.1,-277.3 -399.1,-275.7 -417.4,-276.1 		"/>
	</g>
</g>
<g id="Squallo_Headshot">
	<circle opacity="0.1" fill="#231F20" cx="-340.6" cy="75" r="75"/>
	<g>
		<defs>
			<path id="SVGID_1_" d="M-340.6,0c-15.6,0-30.1,4.8-42.1,12.9l-0.2-7.9l-0.8,8.6c-5.8,4.1-11,8.9-15.4,14.4L-401.5,5l-0.9,27.4
				c-8.3,12.1-13.2,26.7-13.2,42.6c0,41.4,33.6,75,75,75c41.4,0,75-33.6,75-75C-265.6,33.6-299.2,0-340.6,0z"/>
		</defs>
		<clipPath id="SVGID_2_">
			<use xlink:href="#SVGID_1_"  overflow="visible"/>
		</clipPath>
		<g clip-path="url(#SVGID_2_)">
			<g id="Body_2_">
				<polygon fill="#603913" points="-300,179.8 -297.5,180.6 -294.9,179.8 -292.6,180.5 -289.5,179.8 -286.5,180.5 -282.9,179.8 
					-282.5,170.3 -286.8,164 -288.6,140.4 -294.8,135.5 -291.7,112 -297.3,102.6 -296.5,94.7 -308.9,82.7 -323.8,80.8 -329.2,68.2 
					-350.1,68.2 -355.4,80.8 -370.4,82.7 -382.8,94.7 -387,100.5 -409.5,107 -413.9,122.3 -400.7,132.8 -391,126 -375.2,122.3 
					-369.4,111.3 -364.6,122.3 -362.7,143 -363.7,161.5 -374.5,179.9 -377.2,194.3 -376.2,204.8 -379.9,214.8 -379.4,225.2 
					-387.3,234.5 -381.8,264.9 -388.1,275.5 -385.7,294.2 -368.2,300.3 -358.2,294.8 -361.9,265 -360.6,250.5 -353.8,240.8 
					-353.9,230.8 -348.2,221 -347.4,210.1 -341.5,196.8 -340.7,182.3 -339.6,182.1 -337.1,182.3 -334.8,200 -329.5,212.2 
					-329.7,223 -323.5,233.7 -324.2,242.3 -317.2,250.5 -312.7,264.8 -317.1,294.5 -307.2,300 -289.7,293.8 -287.2,275.2 
					-292.5,264.3 -290.5,232.7 -297.1,224.5 -298,214.8 -301.8,206.3 -300.6,194.3 -302.6,181.1 -313.2,160 -316.6,143 
					-313.6,122.3 -309.1,141.8 -308.9,151.7 -300.4,166.3 -302.6,170.3 				"/>
				<path opacity="0.1" fill="#231F20" d="M-370.4,82.7l-4.4,13.5l0.5,12.9l-6.4,8.9l-10.3,8l15.8-3.7l5.8-11l4.8,11l0.7,7.5
					l16.5-8.6c-1.9-10.5-4.8-20.8-7.5-31.2L-370.4,82.7z"/>
				<polygon opacity="0.1" fill="#231F20" points="-286.8,164 -288.6,140.4 -294.8,135.5 -291.7,112 -297.3,102.6 -296.5,94.7 
					-308.9,82.7 -323.8,80.8 -329.2,68.2 -339.4,81.4 -340.4,97 -311.4,102.5 -300.3,115.4 -301.8,140.1 -294.1,166.3 -287.2,171.4 
					-286.5,177.9 -288.5,176.5 -291.9,178.5 -294.3,177.5 -297.2,179.2 -300,179.8 -297.5,180.6 -294.9,179.8 -292.6,180.5 
					-289.5,179.8 -286.5,180.5 -282.9,179.8 -282.5,170.3 				"/>
			</g>
			<g id="Head_2_">
				<polygon opacity="0.3" fill="#231F20" points="-351.2,70 -347.3,76.5 -332.3,76.3 -328.7,69.8 -327.7,73.1 -332.3,81.3 
					-347.3,81.5 -351.9,73.8 				"/>
				<path fill="#603913" d="M-355.2,50c0,0,0.7-13,15.3-13s14.3,13.7,14.3,13.7l-0.2,3.1l2,1.9l-0.4,5.5l-2.1,1.9l-0.2,2.8
					l-5.8,10.5l-15,0.2l-6.6-11l-0.2-2.8l-2.5-2.1l2-3.8L-355.2,50z"/>
				<path opacity="0.1" fill="#231F20" d="M-339.9,37c14.6,0,14.3,13.7,14.3,13.7l-0.8,15.2l-5.8,10.5l-8.1,0.1l3-5.9l-2.3-4.4
					l6.7-2l-6.8-9.5L-339.9,37z"/>
				<polygon opacity="0.3" fill="#231F20" points="-323.8,55.6 -324.2,61.1 -326.3,63 -325.8,53.7 				"/>
				<polygon opacity="0.1" fill="#231F20" points="-354.6,56.7 -354.1,62.6 -356.6,60.5 				"/>
				<polygon fill="#FBB040" points="-355,60.2 -355.8,61.2 -355,63.6 				"/>
				<polygon fill="#FBB040" points="-325.6,60.2 -324.8,61.2 -325.6,63.6 				"/>
				<polygon fill="#3C2415" points="-337.6,52.1 -336.8,53.7 -327.7,52.9 -332.3,51.4 				"/>
				<polygon fill="#3C2415" points="-342.1,52.1 -342.9,53.7 -351.9,52.9 -347.4,51.4 				"/>
				<path fill="#3C2415" d="M-328.5,65.4l-6.4,3.4l-4.8-2.7l-5.1,2.4l-6.6-3.2l-2.7-5.2l0.2,5.3l5.4,11l8.7,10.2l8.6-10.2l4.8-10.7
					l0.2-5.1L-328.5,65.4z M-344.4,74.2l4.6-3.8l4.3,3.8l-4.3-0.8L-344.4,74.2z"/>
				<polygon fill="#C2B59B" points="-342.7,58.4 -346.7,55.1 -351.6,56.7 -346.9,57.9 				"/>
				<polygon fill="#231F20" points="-345.4,57.5 -344.4,57 -346.7,55.1 -349.1,55.9 -348.8,57 				"/>
				<polygon fill="#C2B59B" points="-336.6,58.4 -332.7,55.1 -327.7,56.7 -332.5,57.9 				"/>
				<polygon fill="#231F20" points="-334,57.5 -335,57 -332.7,55.1 -330.3,55.9 -330.6,57 				"/>
			</g>
			<g id="Greaves_1_">
				<polygon fill="#414042" points="-363.7,161.5 -374.5,179.9 -377.2,194.3 -376.2,204.8 -379.9,214.8 -379.4,225.2 -387.3,234.5 
					-381.8,264.9 -388.1,275.5 -385.7,294.2 -368.2,300.3 -358.2,294.8 -361.9,265 -360.6,250.5 -353.8,240.8 -353.9,230.8 
					-348.2,221 -347,209.1 -341.5,196.8 -340.7,182.3 -337.1,182.3 -334.8,200 -329.5,212.2 -329.7,223 -323.5,233.7 -324.2,242.3 
					-317.2,250.5 -312.7,264.8 -317.1,294.5 -307.2,300 -289.7,293.8 -287.2,275.2 -292.5,264.3 -290.5,232.7 -297.1,224.5 
					-298,214.8 -301.5,203.9 -300.6,194.3 -302.6,181.1 -313.2,160 				"/>
				<polygon opacity="0.1" fill="#231F20" points="-351.7,161.8 -362.7,196 -364.2,205 -365.6,215.2 -368.7,233.5 -373.4,247.5 
					-372.5,263.2 -372.5,284.5 -368.2,300.3 -358.2,294.8 -361.9,265 -360.6,250.5 -353.8,240.8 -353.9,230.8 -348.2,221 
					-347,209.1 -341.5,196.8 -340.7,182.3 -327.4,168.8 -322.9,194.5 -320.8,203.9 -319.6,217.2 -312.7,235.9 -303.5,248.2 
					-303.5,264 -303.5,284.5 -307.2,300 -289.7,293.8 -287.2,275.2 -292.5,264.3 -290.5,232.7 -297.1,224.5 -298,214.8 
					-301.5,203.9 -300.6,194.3 -302.6,181.1 -313.2,160 				"/>
				<polygon opacity="0.3" fill="#231F20" points="-316.3,288.6 -306.7,292.8 -292.2,288.6 -287.5,277.4 -289.7,293.8 -307.2,300 
					-317.1,294.5 				"/>
				<polygon opacity="0.3" fill="#231F20" points="-388.1,275.5 -383.2,287.4 -369.9,293 -359,288.7 -358.2,294.8 -368.2,300.3 
					-385.7,294.2 				"/>
				<polygon fill="#FBB040" points="-376.1,178.8 -374.1,175.8 -361.4,193.5 -340,190.2 -340,193.5 -362.9,197.2 				"/>
				<polygon fill="#FBB040" points="-378.4,205.5 -364.2,203.9 -346,210.5 -346,213.8 -364.7,206.5 -379.4,208.8 				"/>
				<path fill="#FBB040" d="M-338.2,190.8c0,0,0,4,0,3.8s16,1.5,16,1.5l18.7-19l-2.1-2.9l-17.9,18.4L-338.2,190.8z"/>
				<polygon fill="#FBB040" points="-332.4,210.5 -320.8,201.8 -300,203.9 -300,206.1 -320.8,205.2 -331.2,213.8 				"/>
				<polygon fill="#FBB040" points="-330.4,225.2 -318.7,218.5 -296.5,215 -297.8,213.8 -319.7,216 -332.4,223.5 				"/>
				<polygon fill="#FBB040" points="-326.5,232.2 -311.7,233.5 -296.5,221 -296.5,223.2 -311.5,236 -325.2,234.8 				"/>
				<polygon fill="#FBB040" points="-325,242.4 -304.8,245 -289.7,232.7 -289.7,238.8 -303.5,254.5 -322.5,246.2 				"/>
				<polygon fill="#FBB040" points="-381.4,215.8 -365.2,213.8 -347,221 -348.2,224 -365.4,216.5 -381.4,217.8 				"/>
				<polygon fill="#FBB040" points="-381.4,224 -367.9,230.5 -351.7,230.5 -351.7,233.5 -368.7,233.5 -381.4,226.5 				"/>
				<polygon fill="#FBB040" points="-388.3,232.7 -372.9,243.8 -351.7,240.2 -353.4,243.6 -373.6,252 -388.3,236 				"/>
				<polygon fill="#FBB040" points="-315.1,271.6 -304.1,261.8 -286.4,271.6 -286.4,276.3 -304.1,265.8 -315.1,276.3 				"/>
				<polygon fill="#FBB040" points="-385.3,269.4 -385.3,265.4 -373.1,261.2 -359.6,269.4 -359.6,273.4 -373.1,264.4 				"/>
				<polygon fill="#FBB040" points="-316.8,281.9 -304.1,282.8 -286.4,282.4 -286.4,287.1 -304.1,287.1 -316.8,284.5 				"/>
				<polygon fill="#FBB040" points="-388.1,280.9 -372.5,282.2 -359.6,280.9 -358.6,284.8 -372.5,285.9 -388.1,283.4 				"/>
			</g>
			<g id="Shirt_1_">
				<polygon fill="#262262" points="-366.1,85.9 -369.6,102.5 -369.5,111.3 -364.6,122.3 -362.8,143 -364.1,153.6 -365.1,161.5 
					-371.5,169.8 -353.1,179.8 -324.9,179 -307.2,169.2 -313.1,160 -314.6,152.7 -316.5,143 -313.5,122.3 -311.4,111 -311.4,102.5 
					-317,86.8 -339.8,98.1 				"/>
				<polygon opacity="0.3" fill="#231F20" points="-339.4,179.8 -324.9,179 -307.2,169.2 -313.1,160 -314.6,152.7 -316.5,143 
					-313.5,122.3 -325.2,124.2 -339.8,122.3 -339.7,134.4 -348.3,136 -339.7,138.5 				"/>
				<polygon fill="#FBB040" points="-366.9,89.8 -341.4,100.5 -315.4,93.5 -318.3,81.5 -340.4,95 -365.1,81.5 				"/>
				<polygon opacity="0.1" fill="#231F20" points="-366.9,89.8 -341.4,100.5 -315.4,93.5 -318.3,81.5 -340.4,95 -365.1,81.5 				"/>
			</g>
			<g id="Belt_2_">
				<polygon fill="#262262" points="-363.6,149.2 -364.1,153.6 -354.9,160.9 -350.6,174.8 -349.6,237.2 -327.9,243.6 -328.1,174.1 
					-320.8,160.9 -314.6,152.7 -315.4,149.5 -340.2,154.3 				"/>
				<polygon opacity="0.5" fill="#231F20" points="-363.6,149.2 -364.1,153.6 -354.9,160.9 -350.6,174.8 -349.6,237.2 -327.9,243.6 
					-328.1,174.1 -320.8,160.9 -314.6,152.7 -315.4,149.5 -340.2,154.3 				"/>
				<polygon opacity="0.3" fill="#231F20" points="-340,240 -327.9,243.6 -328.1,174.1 -320.8,160.9 -314.6,152.7 -315.4,149.5 
					-340.2,154.3 				"/>
				<polygon fill="#414042" points="-315.4,145 -326.4,150.5 -351.9,149.5 -364.1,145 -365.6,153.6 -350.6,157 -326.3,157 
					-313.8,152.7 				"/>
				<polygon opacity="0.1" fill="#231F20" points="-315.4,145 -326.4,150.5 -343.1,149.8 -348.3,152.9 -342.4,157 -326.3,157 
					-313.8,152.7 				"/>
				<polygon fill="#414042" points="-333.5,175.8 -331,149.2 -338.1,149 -339.7,175.1 -337.1,182.3 				"/>
				<polygon opacity="0.3" fill="#231F20" points="-333.5,175.8 -331,149.2 -338.1,149 -339.7,175.1 -336.4,172 				"/>
				<polygon fill="#414042" points="-329,155.9 -340.2,150 -345.9,152.7 -331.6,161.8 				"/>
				<polygon fill="#FBB040" points="-341.4,147.8 -350.6,152.7 -340.5,160.9 -337.5,158.1 -345.9,152.7 -338.1,149 				"/>
			</g>
			<g id="Left_Pauldron_2_">
				<polygon fill="#414042" points="-316.1,78.3 -308.4,78.3 -296.4,86.5 -293.6,97 -316.1,95 				"/>
				<polygon fill="#FBB040" points="-320.8,75.6 -318.1,96.5 -292.1,101.5 -288.9,94 -315.4,93.5 -314.1,75 				"/>
			</g>
			<g id="Right_Pauldron_2_">
				<polygon fill="#414042" points="-365.4,77.6 -372.4,77.6 -384.9,84.2 -386,94.2 -368.4,94.2 				"/>
				<polygon fill="#FBB040" points="-362.4,75 -366.4,95 -388.1,98.1 -388.1,89.8 -369.1,92 -368.4,75.6 				"/>
			</g>
			<g id="Left_Bracer_2_">
				<polygon fill="#414042" points="-309,140.9 -308.8,151.7 -301.1,165 -286.9,161 -288.4,140.4 -294.6,135.5 -301.8,140.1 				"/>
				<polygon opacity="0.1" fill="#231F20" points="-298.8,147.2 -294.1,163.6 -286.9,161 -288.4,140.4 -294.6,135.5 -301.8,140.1 
									"/>
				<polygon fill="#FBB040" points="-293.3,132.8 -302,139.2 -311.1,138.3 -310.4,141.8 -301.4,141.4 -293,135.5 				"/>
				<polygon fill="#FBB040" points="-309.9,145 -299.9,145 -290,137.6 -288.5,139.3 -297.6,150.5 -310.1,147.8 				"/>
				<polygon fill="#FBB040" points="-301.8,165.2 -286.5,160.9 -286.5,163.6 -300.8,166.3 				"/>
			</g>
			<g id="Bident_1_">
				<polygon fill="#414042" points="-389.9,294 -394.9,294 -394.9,46.8 -402.6,40.5 -401.5,5 -398,39 -392.4,41.2 -389.9,46.8 				
					"/>
				<polygon fill="#FBB040" points="-396.3,48.8 -392.4,41.2 -386,39 -382.9,5 -382.1,41.8 -389.9,46.8 -396.3,56.8 				"/>
				<polygon fill="#FBB040" points="-389.2,55.1 -389.2,61.9 -396.3,65 				"/>
			</g>
			<g id="Right_Arm_3_">
				<polygon fill="#603913" points="-393.1,81 -393.1,73.8 -388.9,70.8 -386.8,75.9 -389.1,81.7 				"/>
				<polygon opacity="0.3" fill="#231F20" points="-393.1,81 -393.1,73.8 -388.9,70.8 -386.8,75.9 -389.1,81.7 				"/>
				<polygon opacity="0.3" fill="#231F20" points="-389.9,125.7 -388.1,125.3 -383,114.3 -389.2,101.1 -390,101.2 -389.9,92.5 
					-392.9,94 -392.9,99.8 -393.6,121.5 				"/>
				<polygon fill="#603913" points="-400.9,132.8 -391.1,126 -384.9,114.2 -392.9,99.8 -392.9,94 -386.8,90 -386.8,85.9 -386,85.2 
					-386,81.5 -385.2,80.4 -384.9,78.3 -398.1,72.3 -407.1,77.6 -410.8,91 -408.3,98.1 -414.1,122.3 				"/>
				<polygon opacity="0.1" fill="#231F20" points="-400.9,132.8 -391.1,126 -384.9,114.2 -392.9,99.8 -392.9,94 -386.8,90 
					-386.8,85.9 -386,85.2 -386,81.5 -385.2,80.4 -384.9,78.3 -388.1,79.2 -388.3,82.7 -391,84.5 -391,89 -397,94.2 -401.5,95.4 
					-396.7,96.8 -394.9,116.5 				"/>
			</g>
			<g id="Right_Bracer_2_">
				<polygon fill="#414042" points="-408.3,98.1 -414.1,122.3 -399.5,117.6 -390.3,124.2 -384.9,114.2 -392.9,99.8 				"/>
				<polygon opacity="0.1" fill="#231F20" points="-399.1,99.1 -399.1,107.5 -399.5,117.6 -390.3,124.2 -384.9,114.2 -392.9,99.8 
									"/>
				<polygon fill="#FBB040" points="-412,110.1 -399.3,105.8 -384.9,112.6 -384.9,116.5 -399.2,108.6 -413.3,112.9 				"/>
				<polygon fill="#FBB040" points="-414.1,119.1 -399.7,115.2 -388.1,122 -390.4,126.9 -399.9,119.6 -414.8,122.6 				"/>
				<polygon fill="#FBB040" points="-409.4,97.5 -392.3,98.7 -392.3,100.3 -410.5,99.9 				"/>
			</g>
		</g>
	</g>
</g>
<g id="Crunch">
	<polygon id="Shadow" opacity="0.3" fill="#231F20" points="-91.5,-95.2 -178.6,-95.1 -222,-82 -163.6,-63 -93.3,-67 -63.6,-76 	"/>
	<g id="Cloak">
		<polygon fill="#594A42" points="-78.5,-111 -91.5,-106 -121,-113.1 -136.9,-108.2 -168.3,-113.1 -185,-105.7 -185,-179.6 
			-178,-225.5 -178,-297.8 -132.9,-284.2 -93.3,-303 -90.5,-208.3 -78.5,-148 		"/>
		<polygon opacity="0.3" fill="#231F20" points="-78.5,-111 -91.5,-106 -121,-113.1 -136.9,-108.2 -168.3,-113.1 -185,-105.7 
			-185,-179.6 -178,-225.5 -178,-297.8 -132.9,-284.2 -93.3,-303 -90.5,-208.3 -78.5,-148 		"/>
	</g>
	<g id="Tail_2_">
		<g id="Tail">
			<path fill="#006838" d="M-120.2-189.7c0,0,15.8,67.5-53.6,67.5c-71,0-35-79.8-35-79.8s-3,56.8,26.5,56.8
				c37.2,0,38.4-44.7,38.4-44.7L-120.2-189.7z"/>
		</g>
		<g id="Tail_1_" opacity="0.5">
			<path fill="#231F20" d="M-120.2-189.7c0,0,15.8,67.5-53.6,67.5c-71,0-35-79.8-35-79.8s-3,56.8,26.5,56.8
				c37.2,0,38.4-44.7,38.4-44.7L-120.2-189.7z"/>
		</g>
		<path opacity="0.5" fill="#231F20" d="M-120.2-189.7l-24.1-1.6c0,0,16.3,59.3-43.2,59.3c-9.5,0-16.2-0.7-21-1.9
			c6.7,7,17.6,11.6,34.6,11.6C-104.4-122.2-120.2-189.7-120.2-189.7z"/>
	</g>
	<g id="Fire">
		<polygon fill="#EF4136" points="-192.2,-313.1 -182.9,-321.2 -175.7,-339.7 -162.2,-350.4 -156,-366 -164.3,-376 -171.6,-370.7 
			-164.3,-380.3 -156,-376.3 -147.3,-368 -145,-355.7 -150,-345.5 -133,-358.3 -131.5,-373.7 -128.4,-358.7 -130.7,-349 
			-111.5,-366.7 -108.3,-379 -95,-385 -91,-396 -98.3,-403 -87.3,-399 -87,-390.7 -93.3,-378.7 -78.5,-385.5 -70,-393.5 -74,-381 
			-87,-373.1 -93.3,-362 -102.2,-350.4 -93.3,-355.7 -78,-370.5 -78.4,-360.7 -66.8,-369 -57.7,-385 -57.7,-373 -65,-360.7 
			-51.3,-367.7 -42,-384.3 -45,-390 -39.3,-386.7 -39.3,-378.3 -42,-363.7 -47.3,-352.7 -42,-356.7 -49.7,-341.4 -44,-344.1 
			-57,-324.5 -66.8,-323.4 -77,-316.8 -90.5,-316.7 -102.2,-310 -123.3,-310 -134.1,-299.2 -162.2,-300.4 		"/>
		<polygon fill="#F15A29" points="-186.3,-313.5 -176,-322.2 -168,-338.5 -158.9,-347.8 -153.8,-356 -157,-343 -155,-337.5 
			-145.4,-344.1 -136.4,-350 -139.2,-338.5 -130.7,-343.1 -115.8,-349.5 -111.5,-359 -103.5,-366.5 -103,-371.2 -96.5,-373.2 
			-99.8,-369.2 -100.2,-362.5 -106.6,-355 -107.8,-343 -94.2,-347.8 -86,-354.8 -86,-347.8 -75.5,-358 -70.8,-360 -73,-351.1 
			-63.8,-349.2 -58,-352.8 -57.9,-357.5 -51.8,-359.5 -54.8,-356 -50.8,-347.8 -52.8,-338.5 -58.5,-329.1 -66.8,-325.2 -78,-319.9 
			-90.5,-319 -103.2,-314.2 -123.7,-313 -134.1,-303 -162,-303.2 		"/>
		<polygon fill="#EF4136" points="-114,-399 -120.2,-394.7 -123.3,-388 -114,-393.5 		"/>
		<polygon fill="#EF4136" points="-63.8,-390 -60.5,-398.8 -49.5,-402 -46.8,-408 -46.8,-397.7 -59.1,-394.2 		"/>
		<polygon fill="#EF4136" points="-186.3,-339.7 -182.9,-350.4 -172.5,-356 -180.3,-348.5 		"/>
	</g>
	<g id="Body">
		<polygon fill="#006838" points="-112.8,-294.5 -117.8,-308.2 -147.5,-308.2 -152.5,-294.5 -192,-292.8 -198.4,-244.9 -193,-217.3 
			-172.5,-242 -157.7,-220 -157.7,-215 -166.7,-207.9 -172.5,-188.8 -175.5,-169.5 -164.8,-144.8 -166.8,-140.5 -163.2,-135.5 
			-155.3,-95.2 -161.3,-90.6 -154.4,-84 -147.7,-84 -140.9,-88.7 -147.7,-95.2 -146.2,-133.2 -142.5,-139.5 -147.8,-145 
			-140.5,-164.2 -142.8,-176.5 -122.5,-176.5 -124,-165.5 -116.9,-146.5 -120.3,-140.5 -116.9,-132.2 -116.9,-94.3 -124,-88.4 
			-116.9,-84 -110.2,-84 -103.2,-89.9 -109.3,-94 -101.5,-133.7 -98.6,-138.9 -99.8,-144.8 -89,-168 -91.8,-187.2 -99,-205.7 
			-108.3,-215 -108.3,-221.9 -93.3,-242.7 -84.3,-223.3 -87,-207.9 -70.7,-178.3 -74.8,-174.1 -69,-160.6 -60,-155.7 -58,-162.8 
			-50.7,-161.3 -49,-168 -42,-170.3 -45.5,-183.6 -54.4,-184.2 -59.7,-213.3 -66.3,-224.6 -64,-238 -66.8,-261.7 -64.7,-273.9 
			-71.2,-290.8 		"/>
		<polygon opacity="0.1" fill="#231F20" points="-133.5,-280.1 -102.4,-293.6 -112.8,-294.5 -117.8,-308.2 -132.3,-308.2 		"/>
		<polygon opacity="0.1" fill="#231F20" points="-89,-168 -146.1,-187.7 -150,-164.2 -156,-146.7 -150,-138.7 -154.1,-131 
			-151,-93.8 -156.4,-89 -154.4,-84 -147.7,-84 -140.9,-88.7 -147.7,-95.2 -146.2,-133.2 -142.5,-139.5 -147.8,-145 -140.5,-164.2 
			-142.8,-176.5 -100.2,-162.1 -105,-148 -105,-139.7 -110.4,-134 -113.2,-91.2 -119.8,-85.8 -116.9,-84 -110.2,-84 -103.2,-89.9 
			-109.3,-94 -101.5,-133.7 -98.6,-138.9 -99.8,-144.8 		"/>
		<polygon opacity="0.1" fill="#231F20" points="-45.5,-183.6 -54.4,-184.2 -59.7,-213.3 -66.3,-224.6 -64,-238 -66.8,-261.7 
			-64.7,-273.9 -71.2,-290.8 -77,-264.3 -67.7,-238.8 -75.2,-222.8 -59.2,-180.3 -61.3,-167.7 -69,-160.6 -60,-155.7 -58,-162.8 
			-50.7,-161.3 -49,-168 -42,-170.3 		"/>
		<polygon opacity="0.1" fill="#231F20" points="-132.7,-215 -108.3,-215 -108.3,-221.9 -93.3,-242.7 -93.3,-258 -93.3,-274.2 
			-111.5,-258 -132.6,-259.5 -132.6,-248.7 -147.8,-246 -132.6,-244.6 -132.6,-235.8 -147.8,-233.8 -132.7,-230 		"/>
		<polygon opacity="0.1" fill="#231F20" points="-170.7,-264.3 -178.6,-243.7 -194.9,-222.8 -212.3,-213.3 -193,-217.3 -172.5,-242 
					"/>
	</g>
	<g id="Left_Foot_Claws_1_">
		<polygon fill="#C2B59B" points="-157.7,-89.5 -163.5,-91.2 -168.3,-77 -161.3,-84 		"/>
		<polygon fill="#C2B59B" points="-143.2,-83.9 -136.7,-76 -138.5,-89.8 -143.1,-87.6 		"/>
		<polygon opacity="0.1" fill="#231F20" points="-157.7,-89.5 -163.5,-91.2 -168.3,-77 -161.3,-84 		"/>
		<polygon opacity="0.1" fill="#231F20" points="-143.2,-83.9 -136.7,-76 -138.5,-89.8 -143.1,-87.6 		"/>
		<polygon fill="#C2B59B" points="-156.1,-90.2 -161.3,-87.2 -159.8,-79 -156.5,-75 -154.4,-84 		"/>
		<polygon fill="#C2B59B" points="-145.8,-89.8 -147.7,-84 -146.5,-80.7 -143.2,-75.5 -140.9,-85.5 		"/>
		<polygon fill="#C2B59B" points="-152.5,-89.8 -154.4,-84 -153.2,-80.7 -149.9,-75.5 -147.7,-84 		"/>
	</g>
	<g id="Left_Foot_Claws">
		<polygon fill="#C2B59B" points="-106.9,-89.5 -100.7,-90.2 -97,-77 -103.2,-84 		"/>
		<polygon fill="#C2B59B" points="-121.3,-83.9 -128.3,-77 -126.1,-89 -121.4,-87.6 		"/>
		<polygon opacity="0.1" fill="#231F20" points="-106.9,-89.5 -100.7,-90.2 -97,-77 -103.2,-84 		"/>
		<polygon opacity="0.1" fill="#231F20" points="-121.3,-83.9 -128.3,-77 -126.1,-89 -121.4,-87.6 		"/>
		<polygon fill="#C2B59B" points="-108.2,-89.8 -103.2,-88.5 -104.5,-80.3 -107.2,-76 -110.7,-84.1 		"/>
		<polygon fill="#C2B59B" points="-118.6,-89 -116.9,-84 -117.5,-80.7 -121.3,-75.5 -122.7,-86.9 		"/>
		<polygon fill="#C2B59B" points="-112.1,-89.8 -110.7,-84.1 -111.3,-80.7 -114.3,-76 -116.9,-84 		"/>
	</g>
	<g id="Left_Hand_Claws">
		<polygon fill="#C2B59B" points="-61.1,-158.8 -67.1,-161.5 -70,-167.4 -68.5,-174.8 -61.1,-168 		"/>
		<polygon fill="#C2B59B" points="-46.1,-171.1 -50.5,-169.7 -53.9,-177.1 -53.2,-182.9 -46.8,-176.5 		"/>
		<polygon fill="#C2B59B" points="-51.8,-164.2 -61.1,-168 -61.8,-174.8 -60.2,-179.6 -50.5,-169.7 		"/>
		<polygon opacity="0.1" fill="#231F20" points="-61.1,-158.8 -67.1,-161.5 -70,-167.4 -68.5,-174.8 -61.1,-168 		"/>
		<polygon opacity="0.1" fill="#231F20" points="-46.1,-171.1 -50.5,-169.7 -53.9,-177.1 -53.2,-182.9 -46.8,-176.5 		"/>
		<polygon opacity="0.1" fill="#231F20" points="-51.8,-164.2 -61.1,-168 -61.8,-174.8 -60.2,-179.6 -50.5,-169.7 		"/>
		<polygon fill="#C2B59B" points="-49,-174.8 -56.8,-171.6 -63.6,-172.6 -56.1,-180.8 -47,-181.8 		"/>
	</g>
	<g id="Harness">
		<polygon fill="#3C2415" points="-171,-264.3 -172.5,-242 -132.3,-267.9 -119.8,-274.2 -93.3,-258 -93.3,-263.6 -113,-277.7 
			-101,-283.7 -93.3,-297.8 -114,-297.8 -132.6,-289.5 -160.2,-271.4 -167.8,-279.1 -172.5,-276.6 -167.4,-266.7 		"/>
		<polygon opacity="0.3" fill="#231F20" points="-132.3,-267.9 -119.8,-274.2 -93.3,-258 -93.3,-263.6 -113,-277.7 -101,-283.7 
			-93.3,-297.8 -114,-297.8 -132.6,-289.5 -151.1,-277.4 -152.3,-266.3 -143.5,-260.7 		"/>
		<polygon fill="#A7A9AC" points="-136.1,-287.2 -145.4,-282.3 -136.1,-264.5 -128.4,-269.9 -136.9,-259.2 -150,-284.2 		"/>
	</g>
	<g id="Left_Pauldron">
		<polygon fill="#939598" points="-63,-276 -83.2,-277.9 -106,-288.4 -104.8,-296.4 -106.6,-303 -85,-305.8 -63.3,-302.2 
			-61.8,-295.3 		"/>
		<polygon fill="#BCBEC0" points="-62.9,-271.1 -86,-273 -110.2,-286 -108.5,-294.3 -110.2,-303 -107,-304.4 -104.8,-296.4 
			-106,-288.4 -83.2,-277.9 -61.8,-276 		"/>
	</g>
	<g id="Right_Pauldron">
		<polygon fill="#939598" points="-200.8,-276.2 -180.5,-277.9 -160.2,-288.4 -160.2,-294.5 -158.9,-302.8 -180.2,-305.8 
			-201.9,-302.2 -203.4,-295.3 		"/>
		<polygon fill="#BCBEC0" points="-201.9,-271 -179.2,-273 -155,-286 -156.7,-294.3 -155,-304.4 -158.7,-304.4 -160.2,-294.5 
			-160.2,-288.4 -180.5,-277.9 -202.2,-276 		"/>
	</g>
	<g id="Right_Arm_1_">
		<polygon opacity="0.1" fill="#231F20" points="-190.9,-256.4 -193.7,-231.5 -182.9,-255 -188.5,-304.4 -201.5,-301.4 		"/>
		<polygon id="Right_Arm" fill="#006838" points="-222,-235.8 -212.3,-213.3 -193,-217.3 -188.7,-256.4 -197,-288.4 -194,-292 
			-195.2,-304.6 -206.8,-310 -209.7,-305.8 -214,-308.2 -218,-303.4 -223.8,-304.4 -222,-290.7 -216,-288.4 		"/>
	</g>
	<g id="Sword">
		<polygon fill="#D1D3D4" points="-190,-304.2 -187.6,-295.1 -68.6,-327.4 -59.2,-339.7 		"/>
		<polygon fill="#E6E7E8" points="-192.6,-313.9 -190,-304.2 -59.2,-339.6 -76.3,-345.3 		"/>
		<path fill="#414042" d="M-200.3-322.8l4.9-1.3l10.4,38.6l-4.9,1.3l-4.3-16.2l-29.1,7.5c-0.5,1-1.4,1.9-2.6,2.2
			c-2.1,0.6-4.3-0.7-4.9-2.8c-0.6-2.1,0.7-4.3,2.8-4.9c1.2-0.3,2.4,0,3.3,0.6l29.1-7.5L-200.3-322.8z"/>
	</g>
	<g id="Right_Hand_Claws">
		<polygon fill="#C2B59B" points="-222,-303 -221,-297.2 -219.2,-292.6 -213,-289.8 -214.6,-297.8 -216.8,-301.4 		"/>
		<polygon opacity="0.1" fill="#231F20" points="-222,-303 -221,-297.2 -219.2,-292.6 -213,-289.8 -214.6,-297.8 -216.8,-301.4 		
			"/>
		<polygon fill="#C2B59B" points="-206.3,-307.4 -208.5,-303 -206.8,-297.4 -201.5,-293.7 -200.8,-304 		"/>
		<polygon fill="#C2B59B" points="-213.5,-305.8 -214.6,-297.8 -213,-294.7 -208.5,-292.6 -208.5,-303 		"/>
		<polygon opacity="0.1" fill="#231F20" points="-206.3,-307.4 -208.5,-303 -206.8,-297.4 -201.5,-293.7 -200.8,-304 		"/>
		<polygon opacity="0.1" fill="#231F20" points="-213.5,-305.8 -214.6,-297.8 -213,-294.7 -208.5,-292.6 -208.5,-303 		"/>
		<polygon fill="#C2B59B" points="-203.6,-302.1 -211.6,-296.9 -213.5,-292.1 -202.8,-292.6 -196.4,-297.8 		"/>
	</g>
	<g id="Right_Bracer">
		<polygon fill="#BCBEC0" points="-217.2,-285.7 -196.4,-288.4 -194.9,-283.5 -218.9,-267.9 		"/>
		<polygon fill="#939598" points="-218.3,-268.7 -221.1,-243.7 -189.5,-248.6 -188.7,-256.4 -195.6,-283 		"/>
		<polygon opacity="0.1" fill="#231F20" points="-208,-275.2 -200.8,-257.3 -200.8,-246.9 -189.5,-248.6 -188.7,-256.4 -195.6,-283 
					"/>
		<polygon fill="#BCBEC0" points="-222.6,-235.8 -189.7,-243.1 -189,-248.7 -221.6,-243.7 		"/>
	</g>
	<g id="Left_Bracer">
		<polygon fill="#BCBEC0" points="-86,-219.5 -63.7,-221.9 -61.1,-217.7 -87,-215 		"/>
		<polygon fill="#BCBEC0" points="-53.9,-187.3 -71.3,-177.7 -73.5,-181.8 -57,-204.9 		"/>
		<polygon fill="#939598" points="-85.7,-215.1 -87,-207.9 -73,-182.5 -57.9,-203.7 -59.7,-213.3 -62.3,-217.7 		"/>
		<polygon opacity="0.1" fill="#231F20" points="-72.5,-216.5 -66,-207.5 -68.3,-189 -57.9,-203.7 -59.7,-213.3 -62.3,-217.7 		"/>
	</g>
	<g id="Head">
		<polygon opacity="0.1" fill="#231F20" points="-115.2,-301.4 -123.3,-302.7 -132.5,-297.8 -141.8,-302.7 -150,-301.4 
			-147.5,-308.2 -117.8,-308.2 		"/>
		<path fill="#006838" d="M-127.3-341.1l-5.2-3l-5.2,3c0,0-22.5-3-22.5,10.6l12.5,13.2l5,0.6l5.5-7.2l4.7,2.5l4.7-2.5l5.5,7.2l5-0.6
			l12.5-13.2C-104.8-344.1-127.3-341.1-127.3-341.1z"/>
		<path opacity="0.1" fill="#231F20" d="M-127.3-341.1l3.3,8.4l-6.7,5.3l-1.8,5.9l-4.7-2.5l4.7,2.5l4.7-2.5l5.5,7.2l5-0.6l12.5-13.2
			C-104.8-344.1-127.3-341.1-127.3-341.1z"/>
		<polygon fill="#2BB673" points="-90.5,-338.5 -104.8,-330.5 -117.3,-317.4 -122.3,-316.8 -127.8,-324 -132.5,-321.5 -137.2,-324 
			-142.7,-316.8 -147.7,-317.4 -160.2,-330.5 -172.5,-338.5 -162.3,-324.5 -168.5,-316.8 -154.4,-311.6 -148.1,-304 -141.8,-306.2 
			-132.5,-301.4 -123.5,-306.5 -116.9,-304 -110.6,-311.6 -96.4,-318.9 -102.7,-324.5 		"/>
		<polygon opacity="0.1" fill="#231F20" points="-90.5,-338.5 -104.8,-330.5 -117.3,-317.4 -122.3,-316.8 -127.8,-324 
			-132.5,-321.5 -127.7,-310 -132.5,-301.4 -123.5,-306.5 -116.9,-304 -110.6,-311.6 -96.4,-318.9 -102.7,-324.5 		"/>
		<polygon opacity="0.3" fill="#231F20" points="-138.7,-319.9 -136.7,-322.5 -134.1,-320.3 -136.5,-321.2 		"/>
		<polygon opacity="0.3" fill="#231F20" points="-126.2,-319.9 -128.2,-322.5 -130.7,-320.3 -128.3,-321.2 		"/>
		<polygon fill="#F9ED32" points="-152.2,-331.7 -145,-328.4 -144.2,-319.9 -152.2,-324.4 		"/>
		<polygon fill="#3C2415" points="-148.2,-329.9 -147.3,-325.8 -148.2,-322.2 -149,-325.8 		"/>
		<polygon fill="#F9ED32" points="-114,-331.7 -121.3,-328.4 -122,-319.9 -114,-324.4 		"/>
		<polygon fill="#3C2415" points="-118,-329.9 -118.9,-325.8 -118,-322.2 -117.3,-325.8 		"/>
		<polygon fill="#C2B59B" points="-145.4,-312 -140.2,-312 -142.4,-304.2 		"/>
	</g>
	<g id="Pants">
		<polygon opacity="0.1" fill="#231F20" points="-96.8,-151.1 -90.5,-183.8 -99,-200.7 -106.6,-208.3 -129,-208 -130.8,-201.4 
			-128.5,-187.4 -119.2,-162.2 -102.9,-147.8 -98.9,-146.7 		"/>
		<polygon opacity="0.1" fill="#231F20" points="-161.3,-207.1 -166.7,-202.9 -175,-183.8 -167.6,-151.3 -165.7,-146.9 
			-161.3,-148.2 -146.9,-160.4 -137.8,-185.6 -137.8,-200.6 -139.8,-207.6 		"/>
		<polygon opacity="0.3" fill="#231F20" points="-149.9,-207.4 -156,-159.2 -146.2,-157.1 -142.9,-157.9 -140.8,-163.3 
			-133.8,-182.6 -123,-162.7 -120.9,-157.1 -120.2,-157.1 -110.2,-159.2 -117.5,-208.3 		"/>
		<polygon fill="#3C2415" points="-137.4,-168.1 -129.6,-168.1 -134.1,-176.9 		"/>
		<polygon opacity="0.3" fill="#231F20" points="-137.4,-168.1 -129.6,-168.1 -134.1,-176.9 		"/>
		<polygon fill="#3C2415" points="-149.9,-212.4 -156,-164.2 -146.2,-162.1 -137.2,-164.2 -134,-173 -130,-164.2 -120.2,-162.1 
			-110.2,-164.2 -117.5,-213.3 		"/>
		<polygon opacity="0.1" fill="#231F20" points="-134,-173 -130,-164.2 -120.2,-162.1 -110.2,-164.2 -117.5,-213.3 -133.5,-212.8 		
			"/>
		<polygon fill="#594A42" points="-161.3,-212.1 -166.7,-207.9 -175,-188.8 -178,-148 -161.3,-153.2 -146.9,-165.4 -137.8,-190.6 
			-137.8,-205.6 -139.8,-212.6 		"/>
		<polygon fill="#594A42" points="-85.2,-148 -90.5,-188.8 -99,-205.7 -106.6,-213.3 -129,-213 -130.8,-206.4 -128.5,-192.4 
			-119.2,-167.2 -102.9,-152.8 		"/>
		<polygon opacity="0.1" fill="#231F20" points="-85.2,-148 -90.5,-188.8 -99,-205.7 -106.6,-213.3 -129,-213 -130.8,-206.4 
			-128.5,-192.4 -119.2,-167.2 -102.9,-152.8 		"/>
		<polygon fill="#594A42" points="-178,-148 -166.4,-148.6 -167.6,-151.3 		"/>
		<polygon opacity="0.1" fill="#231F20" points="-178,-148 -166.4,-148.6 -167.6,-151.3 		"/>
		<polygon fill="#594A42" points="-85.2,-148 -96.8,-151.1 -97.8,-149 		"/>
		<polygon opacity="0.1" fill="#231F20" points="-85.2,-148 -96.8,-151.1 -97.8,-149 		"/>
	</g>
	<g id="Belt">
		<polygon fill="#3C2415" points="-160,-220.2 -106.6,-221.9 -106.6,-213.3 -161.3,-212.1 		"/>
		<polygon opacity="0.3" fill="#231F20" points="-139.2,-220.9 -106.6,-221.9 -106.6,-213.3 -141.1,-212.6 -144.2,-217.7 		"/>
		<polygon fill="#A7A9AC" points="-130.5,-221.2 -136.5,-221.4 -136.6,-212.6 -130.5,-212.9 -137.8,-211.1 -137.8,-222.8 		"/>
	</g>
	<g id="Left_Greaves">
		<polygon fill="#939598" points="-109.5,-131 -118.8,-126 -118,-99.2 -113.8,-95.2 -108,-98.5 -101.9,-124.9 		"/>
		<polygon opacity="0.1" fill="#231F20" points="-109.5,-131 -113.8,-95.2 -108,-98.5 -101.9,-124.9 		"/>
		<polygon fill="#BCBEC0" points="-109.4,-134 -100.2,-125.9 -100.9,-124 -103.9,-126.4 -110.2,-123.5 -116,-127.5 -119.8,-125.5 
			-120.2,-128 		"/>
		<polygon fill="#BCBEC0" points="-118.5,-99.6 -113.8,-95.2 -107.5,-98.8 -107.5,-97.2 -113.8,-93.8 -118.9,-98.1 		"/>
	</g>
	<g id="Right_Greaves">
		<polygon fill="#BCBEC0" points="-154.4,-133.5 -163.6,-127.5 -163.2,-124.8 -161.4,-126.2 -159.2,-128 -154.4,-125.2 
			-149.2,-128.8 -145.3,-126 -144.8,-128.3 		"/>
		<polygon fill="#BCBEC0" points="-158,-99.2 -151,-97.4 -145.8,-99.8 -145.8,-102.1 -151,-98.8 -158,-100.5 		"/>
		<polygon fill="#939598" points="-162.2,-125.6 -159.2,-128 -154.4,-125.2 -149.2,-128.8 -146.1,-126.5 -146.6,-101.5 -151,-98.8 
			-157.3,-100.3 		"/>
		<polygon opacity="0.1" fill="#231F20" points="-154.4,-125.2 -149.2,-128.8 -146.1,-126.5 -146.6,-101.5 -151,-98.8 		"/>
	</g>
</g>
<g id="Crunch_Headshot">
	<circle opacity="0.1" fill="#231F20" cx="-135" cy="75" r="75"/>
	<g>
		<defs>
			<path id="SVGID_3_" d="M-65.7,46.2l3.6-4.8l-7.1-2.4C-81.9,15.8-106.6,0-135,0c-41.4,0-75,33.6-75,75c0,41.4,33.6,75,75,75
				s75-33.6,75-75C-60,64.8-62,55.1-65.7,46.2z"/>
		</defs>
		<clipPath id="SVGID_4_">
			<use xlink:href="#SVGID_3_"  overflow="visible"/>
		</clipPath>
		<g clip-path="url(#SVGID_4_)">
			<polygon id="Shadow_2_" opacity="0.3" fill="#231F20" points="-94.4,285.8 -181.5,285.9 -224.9,299 -166.5,318 -96.2,314 
				-66.5,305 			"/>
			<g id="Cloak_1_">
				<polygon fill="#594A42" points="-81.4,270 -94.4,275 -123.9,267.9 -139.8,272.8 -171.2,267.9 -187.9,275.3 -187.9,201.4 
					-180.9,155.5 -180.9,83.2 -135.8,96.8 -96.2,78 -93.4,172.7 -81.4,233 				"/>
				<polygon opacity="0.3" fill="#231F20" points="-81.4,270 -94.4,275 -123.9,267.9 -139.8,272.8 -171.2,267.9 -187.9,275.3 
					-187.9,201.4 -180.9,155.5 -180.9,83.2 -135.8,96.8 -96.2,78 -93.4,172.7 -81.4,233 				"/>
			</g>
			<g id="Tail_3_">
				<g id="Tail_5_">
					<path fill="#006838" d="M-123.1,191.3c0,0,15.8,67.5-53.6,67.5c-71,0-35-79.8-35-79.8s-3,56.8,26.5,56.8
						c37.2,0,38.4-44.7,38.4-44.7L-123.1,191.3z"/>
				</g>
				<g id="Tail_4_" opacity="0.5">
					<path fill="#231F20" d="M-123.1,191.3c0,0,15.8,67.5-53.6,67.5c-71,0-35-79.8-35-79.8s-3,56.8,26.5,56.8
						c37.2,0,38.4-44.7,38.4-44.7L-123.1,191.3z"/>
				</g>
				<path opacity="0.5" fill="#231F20" d="M-123.1,191.3l-24.1-1.6c0,0,16.3,59.3-43.2,59.3c-9.5,0-16.2-0.7-21-1.9
					c6.7,7,17.6,11.6,34.6,11.6C-107.3,258.8-123.1,191.3-123.1,191.3z"/>
			</g>
			<g id="Fire_1_">
				<polygon fill="#EF4136" points="-195.1,67.9 -185.8,59.8 -178.5,41.3 -165.1,30.6 -158.9,15 -167.2,5 -174.5,10.3 -167.2,0.7 
					-158.9,4.7 -150.2,13 -147.9,25.3 -152.9,35.5 -135.9,22.7 -134.4,7.3 -131.3,22.3 -133.6,32 -114.4,14.3 -111.2,2 -97.9,-4 
					-93.9,-15 -101.2,-22 -90.2,-18 -89.9,-9.7 -96.2,2.3 -81.4,-4.5 -72.9,-12.5 -76.9,0 -89.9,7.9 -96.2,19 -105.1,30.6 
					-96.2,25.3 -80.9,10.5 -81.3,20.3 -69.7,12 -60.5,-4 -60.5,8 -67.9,20.3 -54.2,13.3 -44.9,-3.3 -47.9,-9 -42.2,-5.7 -42.2,2.7 
					-44.9,17.3 -50.2,28.3 -44.9,24.3 -52.5,39.6 -46.9,36.9 -59.9,56.5 -69.7,57.6 -79.9,64.2 -93.4,64.3 -105.1,71 -126.2,71 
					-136.9,81.8 -165.1,80.6 				"/>
				<polygon fill="#F15A29" points="-189.2,67.5 -178.9,58.8 -170.9,42.5 -161.8,33.2 -156.6,25 -159.9,38 -157.9,43.5 -148.3,36.9 
					-139.2,31 -142,42.5 -133.6,37.9 -118.6,31.5 -114.4,22 -106.4,14.5 -105.9,9.8 -99.4,7.8 -102.6,11.8 -103.1,18.5 -109.5,26 
					-110.6,38 -97.1,33.2 -88.9,26.2 -88.9,33.2 -78.4,23 -73.6,21 -75.9,29.9 -66.7,31.8 -60.9,28.2 -60.8,23.5 -54.6,21.5 
					-57.6,25 -53.6,33.2 -55.6,42.5 -61.4,51.9 -69.6,55.8 -80.9,61.1 -93.4,62 -106.1,66.8 -126.5,68 -136.9,78 -164.9,77.8 				
					"/>
				<polygon fill="#EF4136" points="-116.9,-18 -123.1,-13.7 -126.2,-7 -116.9,-12.5 				"/>
				<polygon fill="#EF4136" points="-66.7,-9 -63.4,-17.8 -52.3,-21 -49.7,-27 -49.7,-16.7 -62,-13.2 				"/>
				<polygon fill="#EF4136" points="-189.2,41.3 -185.8,30.6 -175.4,25 -183.1,32.5 				"/>
			</g>
			<g id="Body_3_">
				<polygon fill="#006838" points="-115.6,86.5 -120.6,72.8 -150.4,72.8 -155.4,86.5 -194.9,88.2 -201.3,136.1 -195.9,163.7 
					-175.4,139 -160.5,161 -160.5,166 -169.5,173.1 -175.4,192.2 -178.4,211.5 -167.6,236.2 -169.6,240.5 -166.1,245.5 
					-158.2,285.8 -164.2,290.4 -157.3,297 -150.5,297 -143.8,292.3 -150.5,285.8 -149.1,247.8 -145.4,241.5 -150.6,236 
					-143.4,216.8 -145.6,204.5 -125.4,204.5 -126.9,215.5 -119.8,234.5 -123.1,240.5 -119.8,248.8 -119.8,286.7 -126.9,292.6 
					-119.8,297 -113,297 -106.1,291.1 -112.2,287 -104.4,247.3 -101.5,242.1 -102.7,236.2 -91.9,213 -94.7,193.8 -101.9,175.3 
					-111.2,166 -111.2,159.1 -96.2,138.3 -87.2,157.7 -89.9,173.1 -73.5,202.7 -77.6,206.9 -71.9,220.4 -62.9,225.3 -60.9,218.2 
					-53.5,219.7 -51.9,213 -44.9,210.7 -48.4,197.4 -57.3,196.8 -62.5,167.7 -69.2,156.4 -66.9,143 -69.7,119.3 -67.5,107.1 
					-74.1,90.2 				"/>
				<polygon opacity="0.1" fill="#231F20" points="-136.4,100.9 -105.2,87.4 -115.6,86.5 -120.6,72.8 -135.1,72.8 				"/>
				<polygon opacity="0.1" fill="#231F20" points="-91.9,213 -148.9,193.3 -152.9,216.8 -158.9,234.3 -152.9,242.3 -157,250 
					-153.9,287.2 -159.2,292 -157.3,297 -150.5,297 -143.8,292.3 -150.5,285.8 -149.1,247.8 -145.4,241.5 -150.6,236 -143.4,216.8 
					-145.6,204.5 -103.1,218.9 -107.9,233 -107.9,241.3 -113.2,247 -116.1,289.8 -122.6,295.2 -119.8,297 -113,297 -106.1,291.1 
					-112.2,287 -104.4,247.3 -101.5,242.1 -102.7,236.2 				"/>
				<polygon opacity="0.1" fill="#231F20" points="-48.4,197.4 -57.3,196.8 -62.5,167.7 -69.2,156.4 -66.9,143 -69.7,119.3 
					-67.5,107.1 -74.1,90.2 -79.9,116.7 -70.5,142.2 -78,158.2 -62.1,200.7 -64.2,213.3 -71.9,220.4 -62.9,225.3 -60.9,218.2 
					-53.5,219.7 -51.9,213 -44.9,210.7 				"/>
				<polygon opacity="0.1" fill="#231F20" points="-135.5,166 -111.2,166 -111.2,159.1 -96.2,138.3 -96.2,123 -96.2,106.8 
					-114.4,123 -135.5,121.5 -135.5,132.3 -150.6,135 -135.5,136.4 -135.5,145.2 -150.6,147.2 -135.5,151 				"/>
				<polygon opacity="0.1" fill="#231F20" points="-173.5,116.7 -181.5,137.3 -197.8,158.2 -215.2,167.7 -195.9,163.7 -175.4,139 
									"/>
			</g>
			<g id="Left_Foot_Claws_3_">
				<polygon fill="#C2B59B" points="-160.5,291.5 -166.4,289.8 -171.2,304 -164.2,297 				"/>
				<polygon fill="#C2B59B" points="-146.1,297.1 -139.5,305 -141.4,291.2 -146,293.4 				"/>
				<polygon opacity="0.1" fill="#231F20" points="-160.5,291.5 -166.4,289.8 -171.2,304 -164.2,297 				"/>
				<polygon opacity="0.1" fill="#231F20" points="-146.1,297.1 -139.5,305 -141.4,291.2 -146,293.4 				"/>
				<polygon fill="#C2B59B" points="-159,290.8 -164.2,293.8 -162.7,302 -159.4,306 -157.3,297 				"/>
				<polygon fill="#C2B59B" points="-148.6,291.2 -150.5,297 -149.4,300.3 -146.1,305.5 -143.8,295.5 				"/>
				<polygon fill="#C2B59B" points="-155.4,291.2 -157.3,297 -156.1,300.3 -152.8,305.5 -150.5,297 				"/>
			</g>
			<g id="Left_Foot_Claws_2_">
				<polygon fill="#C2B59B" points="-109.7,291.5 -103.6,290.8 -99.9,304 -106.1,297 				"/>
				<polygon fill="#C2B59B" points="-124.2,297.1 -131.2,304 -129,292 -124.3,293.4 				"/>
				<polygon opacity="0.1" fill="#231F20" points="-109.7,291.5 -103.6,290.8 -99.9,304 -106.1,297 				"/>
				<polygon opacity="0.1" fill="#231F20" points="-124.2,297.1 -131.2,304 -129,292 -124.3,293.4 				"/>
				<polygon fill="#C2B59B" points="-111,291.2 -106.1,292.5 -107.4,300.7 -110.1,305 -113.5,296.9 				"/>
				<polygon fill="#C2B59B" points="-121.4,292 -119.8,297 -120.4,300.3 -124.2,305.5 -125.5,294.1 				"/>
				<polygon fill="#C2B59B" points="-114.9,291.2 -113.5,296.9 -114.2,300.3 -117.1,305 -119.8,297 				"/>
			</g>
			<g id="Left_Hand_Claws_1_">
				<polygon fill="#C2B59B" points="-63.9,222.2 -70,219.5 -72.9,213.6 -71.4,206.2 -63.9,213 				"/>
				<polygon fill="#C2B59B" points="-49,209.9 -53.4,211.3 -56.8,203.9 -56,198.1 -49.6,204.5 				"/>
				<polygon fill="#C2B59B" points="-54.6,216.8 -63.9,213 -64.6,206.2 -63.1,201.4 -53.4,211.3 				"/>
				<polygon opacity="0.1" fill="#231F20" points="-63.9,222.2 -70,219.5 -72.9,213.6 -71.4,206.2 -63.9,213 				"/>
				<polygon opacity="0.1" fill="#231F20" points="-49,209.9 -53.4,211.3 -56.8,203.9 -56,198.1 -49.6,204.5 				"/>
				<polygon opacity="0.1" fill="#231F20" points="-54.6,216.8 -63.9,213 -64.6,206.2 -63.1,201.4 -53.4,211.3 				"/>
				<polygon fill="#C2B59B" points="-51.9,206.2 -59.7,209.4 -66.5,208.4 -59,200.2 -49.8,199.2 				"/>
			</g>
			<g id="Harness_1_">
				<polygon fill="#3C2415" points="-173.9,116.7 -175.4,139 -135.1,113.1 -122.6,106.8 -96.2,123 -96.2,117.4 -115.8,103.3 
					-103.9,97.3 -96.2,83.2 -116.8,83.2 -135.5,91.5 -163.1,109.6 -170.7,101.9 -175.4,104.4 -170.3,114.3 				"/>
				<polygon opacity="0.3" fill="#231F20" points="-135.1,113.1 -122.6,106.8 -96.2,123 -96.2,117.4 -115.8,103.3 -103.9,97.3 
					-96.2,83.2 -116.8,83.2 -135.5,91.5 -154,103.6 -155.2,114.7 -146.3,120.3 				"/>
				<polygon fill="#A7A9AC" points="-139,93.8 -148.3,98.7 -139,116.5 -131.2,111.1 -139.8,121.8 -152.9,96.8 				"/>
			</g>
			<g id="Left_Pauldron_3_">
				<polygon fill="#939598" points="-65.9,105 -86.1,103.1 -108.9,92.6 -107.7,84.6 -109.5,78 -87.9,75.2 -66.2,78.8 -64.7,85.7 
									"/>
				<polygon fill="#BCBEC0" points="-65.7,109.9 -88.9,108 -113.1,95 -111.4,86.7 -113.1,78 -109.9,76.6 -107.7,84.6 -108.9,92.6 
					-86.1,103.1 -64.7,105 				"/>
			</g>
			<g id="Right_Pauldron_3_">
				<polygon fill="#939598" points="-203.7,104.8 -183.4,103.1 -163.1,92.6 -163.1,86.5 -161.8,78.2 -183,75.2 -204.8,78.8 
					-206.3,85.7 				"/>
				<polygon fill="#BCBEC0" points="-204.8,110 -182.1,108 -157.9,95 -159.5,86.7 -157.9,76.6 -161.5,76.6 -163.1,86.5 -163.1,92.6 
					-183.4,103.1 -205.1,105 				"/>
			</g>
			<g id="Right_Arm_4_">
				<polygon opacity="0.1" fill="#231F20" points="-193.8,124.6 -196.5,149.5 -185.8,126 -191.3,76.6 -204.4,79.6 				"/>
				<polygon id="Right_Arm_5_" fill="#006838" points="-224.9,145.2 -215.2,167.7 -195.9,163.7 -191.5,124.6 -199.9,92.6 -196.9,89 
					-198.1,76.4 -209.7,71 -212.5,75.2 -216.9,72.8 -220.9,77.6 -226.6,76.6 -224.9,90.3 -218.9,92.6 				"/>
			</g>
			<g id="Sword_1_">
				<polygon fill="#D1D3D4" points="-192.9,76.8 -190.4,85.9 -71.4,53.6 -62.1,41.3 				"/>
				<polygon fill="#E6E7E8" points="-195.5,67.1 -192.9,76.8 -62.1,41.4 -79.2,35.7 				"/>
				<path fill="#414042" d="M-203.1,58.2l4.9-1.3l10.4,38.6l-4.9,1.3l-4.3-16.2l-29.1,7.5c-0.5,1-1.4,1.9-2.6,2.2
					c-2.1,0.6-4.3-0.7-4.9-2.8c-0.6-2.1,0.7-4.3,2.8-4.9c1.2-0.3,2.4,0,3.3,0.6l29.1-7.5L-203.1,58.2z"/>
			</g>
			<g id="Right_Hand_Claws_1_">
				<polygon fill="#C2B59B" points="-224.9,78 -223.9,83.8 -222.1,88.4 -215.9,91.2 -217.5,83.2 -219.7,79.6 				"/>
				<polygon opacity="0.1" fill="#231F20" points="-224.9,78 -223.9,83.8 -222.1,88.4 -215.9,91.2 -217.5,83.2 -219.7,79.6 				"/>
				<polygon fill="#C2B59B" points="-209.1,73.6 -211.4,78 -209.7,83.6 -204.4,87.3 -203.7,77 				"/>
				<polygon fill="#C2B59B" points="-216.4,75.2 -217.5,83.2 -215.9,86.3 -211.4,88.4 -211.4,78 				"/>
				<polygon opacity="0.1" fill="#231F20" points="-209.1,73.6 -211.4,78 -209.7,83.6 -204.4,87.3 -203.7,77 				"/>
				<polygon opacity="0.1" fill="#231F20" points="-216.4,75.2 -217.5,83.2 -215.9,86.3 -211.4,88.4 -211.4,78 				"/>
				<polygon fill="#C2B59B" points="-206.5,78.9 -214.4,84.1 -216.3,88.9 -205.6,88.4 -199.2,83.2 				"/>
			</g>
			<g id="Right_Bracer_3_">
				<polygon fill="#BCBEC0" points="-220.1,95.3 -199.3,92.6 -197.8,97.5 -221.7,113.1 				"/>
				<polygon fill="#939598" points="-221.1,112.3 -224,137.3 -192.4,132.4 -191.5,124.6 -198.5,98 				"/>
				<polygon opacity="0.1" fill="#231F20" points="-210.8,105.8 -203.7,123.7 -203.7,134.1 -192.4,132.4 -191.5,124.6 -198.5,98 
									"/>
				<polygon fill="#BCBEC0" points="-225.4,145.2 -192.5,137.9 -191.9,132.3 -224.4,137.3 				"/>
			</g>
			<g id="Left_Bracer_3_">
				<polygon fill="#BCBEC0" points="-88.9,161.5 -66.6,159.1 -63.9,163.3 -89.9,166 				"/>
				<polygon fill="#BCBEC0" points="-56.8,193.7 -74.2,203.3 -76.4,199.2 -59.9,176.1 				"/>
				<polygon fill="#939598" points="-88.6,165.9 -89.9,173.1 -75.9,198.5 -60.8,177.3 -62.5,167.7 -65.1,163.3 				"/>
				<polygon opacity="0.1" fill="#231F20" points="-75.3,164.5 -68.9,173.5 -71.2,192 -60.8,177.3 -62.5,167.7 -65.1,163.3 				"/>
			</g>
			<g id="Head_3_">
				<polygon opacity="0.1" fill="#231F20" points="-118.1,79.6 -126.2,78.3 -135.4,83.2 -144.7,78.3 -152.9,79.6 -150.4,72.8 
					-120.6,72.8 				"/>
				<path fill="#006838" d="M-130.1,39.9l-5.2-3l-5.2,3c0,0-22.5-3-22.5,10.6l12.5,13.2l5,0.6l5.5-7.2l4.7,2.5l4.7-2.5l5.5,7.2
					l5-0.6l12.5-13.2C-107.7,36.9-130.1,39.9-130.1,39.9z"/>
				<path opacity="0.1" fill="#231F20" d="M-130.1,39.9l3.3,8.4l-6.7,5.3l-1.8,5.9l-4.7-2.5l4.7,2.5l4.7-2.5l5.5,7.2l5-0.6
					l12.5-13.2C-107.7,36.9-130.1,39.9-130.1,39.9z"/>
				<polygon fill="#2BB673" points="-93.4,42.5 -107.7,50.5 -120.2,63.6 -125.2,64.2 -130.7,57 -135.4,59.5 -140.1,57 -145.6,64.2 
					-150.5,63.6 -163.1,50.5 -175.4,42.5 -165.2,56.5 -171.4,64.2 -157.3,69.4 -151,77 -144.6,74.8 -135.4,79.6 -126.4,74.5 
					-119.8,77 -113.4,69.4 -99.2,62.1 -105.6,56.5 				"/>
				<polygon opacity="0.1" fill="#231F20" points="-93.4,42.5 -107.7,50.5 -120.2,63.6 -125.2,64.2 -130.7,57 -135.4,59.5 
					-130.5,71 -135.4,79.6 -126.4,74.5 -119.8,77 -113.4,69.4 -99.2,62.1 -105.6,56.5 				"/>
				<polygon opacity="0.3" fill="#231F20" points="-141.5,61.1 -139.5,58.5 -136.9,60.7 -139.4,59.8 				"/>
				<polygon opacity="0.3" fill="#231F20" points="-129,61.1 -131,58.5 -133.6,60.7 -131.1,59.8 				"/>
				<polygon fill="#F9ED32" points="-155.1,49.3 -147.9,52.6 -147.1,61.1 -155.1,56.6 				"/>
				<polygon fill="#3C2415" points="-151.1,51.1 -150.2,55.2 -151.1,58.8 -151.9,55.2 				"/>
				<polygon fill="#F9ED32" points="-116.9,49.3 -124.1,52.6 -124.9,61.1 -116.9,56.6 				"/>
				<polygon fill="#3C2415" points="-120.9,51.1 -121.8,55.2 -120.9,58.8 -120.1,55.2 				"/>
				<polygon fill="#C2B59B" points="-148.3,69 -143.1,69 -145.2,76.8 				"/>
			</g>
			<g id="Pants_1_">
				<polygon opacity="0.1" fill="#231F20" points="-99.7,229.9 -93.4,197.2 -101.9,180.3 -109.5,172.7 -131.9,173 -133.7,179.6 
					-131.4,193.6 -122.1,218.8 -105.7,233.2 -101.8,234.3 				"/>
				<polygon opacity="0.1" fill="#231F20" points="-164.2,173.9 -169.5,178.1 -177.9,197.2 -170.4,229.7 -168.5,234.1 -164.2,232.8 
					-149.7,220.6 -140.6,195.4 -140.6,180.4 -142.6,173.4 				"/>
				<polygon opacity="0.3" fill="#231F20" points="-152.7,173.6 -158.9,221.8 -149.1,223.9 -145.8,223.1 -143.7,217.7 -136.6,198.4 
					-125.9,218.3 -123.8,223.9 -123.1,223.9 -113.1,221.8 -120.4,172.7 				"/>
				<polygon fill="#3C2415" points="-140.3,212.9 -132.4,212.9 -136.9,204.1 				"/>
				<polygon opacity="0.3" fill="#231F20" points="-140.3,212.9 -132.4,212.9 -136.9,204.1 				"/>
				<polygon fill="#3C2415" points="-152.7,168.6 -158.9,216.8 -149.1,218.9 -140.1,216.8 -136.8,208 -132.9,216.8 -123.1,218.9 
					-113.1,216.8 -120.4,167.7 				"/>
				<polygon opacity="0.1" fill="#231F20" points="-136.8,208 -132.9,216.8 -123.1,218.9 -113.1,216.8 -120.4,167.7 -136.4,168.2 
									"/>
				<polygon fill="#594A42" points="-164.2,168.9 -169.5,173.1 -177.9,192.2 -180.9,233 -164.2,227.8 -149.7,215.6 -140.6,190.4 
					-140.6,175.4 -142.6,168.4 				"/>
				<polygon fill="#594A42" points="-88.1,233 -93.4,192.2 -101.9,175.3 -109.5,167.7 -131.9,168 -133.7,174.6 -131.4,188.6 
					-122.1,213.8 -105.7,228.2 				"/>
				<polygon opacity="0.1" fill="#231F20" points="-88.1,233 -93.4,192.2 -101.9,175.3 -109.5,167.7 -131.9,168 -133.7,174.6 
					-131.4,188.6 -122.1,213.8 -105.7,228.2 				"/>
				<polygon fill="#594A42" points="-180.9,233 -169.3,232.4 -170.4,229.7 				"/>
				<polygon opacity="0.1" fill="#231F20" points="-180.9,233 -169.3,232.4 -170.4,229.7 				"/>
				<polygon fill="#594A42" points="-88.1,233 -99.7,229.9 -100.7,232 				"/>
				<polygon opacity="0.1" fill="#231F20" points="-88.1,233 -99.7,229.9 -100.7,232 				"/>
			</g>
			<g id="Belt_3_">
				<polygon fill="#3C2415" points="-162.9,160.8 -109.5,159.1 -109.5,167.7 -164.2,168.9 				"/>
				<polygon opacity="0.3" fill="#231F20" points="-142,160.1 -109.5,159.1 -109.5,167.7 -144,168.4 -147.1,163.3 				"/>
				<polygon fill="#A7A9AC" points="-133.4,159.8 -139.3,159.6 -139.4,168.4 -133.4,168.1 -140.6,169.9 -140.6,158.2 				"/>
			</g>
			<g id="Left_Greaves_1_">
				<polygon fill="#939598" points="-112.4,250 -121.7,255 -120.8,281.8 -116.6,285.8 -110.8,282.5 -104.8,256.1 				"/>
				<polygon opacity="0.1" fill="#231F20" points="-112.4,250 -116.6,285.8 -110.8,282.5 -104.8,256.1 				"/>
				<polygon fill="#BCBEC0" points="-112.2,247 -103.1,255.1 -103.7,257 -106.8,254.6 -113.1,257.5 -118.9,253.5 -122.6,255.5 
					-123.1,253 				"/>
				<polygon fill="#BCBEC0" points="-121.3,281.4 -116.6,285.8 -110.4,282.2 -110.4,283.8 -116.6,287.2 -121.8,282.9 				"/>
			</g>
			<g id="Right_Greaves_1_">
				<polygon fill="#BCBEC0" points="-157.3,247.5 -166.5,253.5 -166.1,256.2 -164.3,254.8 -162.1,253 -157.3,255.8 -152.1,252.2 
					-148.2,255 -147.6,252.7 				"/>
				<polygon fill="#BCBEC0" points="-160.9,281.8 -153.9,283.6 -148.6,281.2 -148.6,278.9 -153.9,282.2 -160.9,280.5 				"/>
				<polygon fill="#939598" points="-165.1,255.4 -162.1,253 -157.3,255.8 -152.1,252.2 -148.9,254.5 -149.5,279.5 -153.9,282.2 
					-160.1,280.7 				"/>
				<polygon opacity="0.1" fill="#231F20" points="-157.3,255.8 -152.1,252.2 -148.9,254.5 -149.5,279.5 -153.9,282.2 				"/>
			</g>
		</g>
	</g>
</g>
<g id="Monk">
	<g id="Cloak_Back">
		<polygon id="XMLID_8_" fill="#3C2415" points="74.4,-198 48.7,-117.2 102.9,-119.5 		"/>
		<polygon id="XMLID_10_" opacity="0.3" fill="#231F20" points="74.4,-198 48.7,-117.2 102.9,-119.5 		"/>
	</g>
	<g id="Body_4_">
		<polygon id="XMLID_250_" fill="#C49A6C" points="49.9,-208.5 44.9,-190.2 41.2,-157.8 32.3,-129.5 33.1,-104 31.2,-99.4 
			30.9,-93.6 21.4,-77.2 29.7,-74.8 41.7,-74.8 45.6,-82.7 44.3,-89.9 46.8,-95.6 46,-102.7 55.5,-126.4 60.4,-144.6 66.5,-157.5 
			66.9,-165.5 74.4,-187.6 75.4,-187.6 83.4,-164.2 83.4,-155.7 88.9,-146.8 93.4,-128.5 104.2,-104 102.2,-97 105.9,-91 103.7,-84 
			108.2,-74.8 121.9,-74.8 128.4,-77.2 118.4,-94.5 119.2,-98.2 116.2,-105.5 117.7,-131.2 108.9,-155.7 104.9,-190.2 98.2,-208.8 
			96.2,-226 100.4,-241.5 112.9,-251.2 114.7,-260.5 105.2,-276.8 90.2,-280.5 85.4,-297.2 66.9,-297.2 63.7,-280.8 50.4,-278.5 
			41.7,-264.5 45.2,-249.8 56,-243.3 57.3,-228.1 		"/>
		<path id="XMLID_75_" opacity="0.1" fill="#231F20" d="M43.5-102.5L41-96.9l1.3,6.6l1.2,7.3l-4.9,8.2h3.1l3.9-7.9l-1.3-7.2l2.5-5.7
			l-0.8-7.2l2.2-5.4c-2.4-0.1-4.8-0.3-7.2-0.5L43.5-102.5z"/>
		<path id="XMLID_76_" opacity="0.1" fill="#231F20" d="M119.2-98.2l-3-7.2l0.2-4.1c-2.2,0.1-4.4,0.2-6.7,0.3l3.7,4.4l2.8,6.5
			l0.4,3.7l8.9,15.6l-3.7,4.5l6.5-2.5l-10-17.2L119.2-98.2z"/>
	</g>
	<g id="Left_Sandal">
		<polygon id="XMLID_40_" fill="#3C2415" points="128.4,-77.2 121.9,-74.8 108.2,-74.8 105.7,-79.9 103.7,-84 104,-85 102.4,-84.1 
			101.3,-82.1 101.3,-79.9 102.9,-78.4 102.9,-73.4 108.7,-70.6 122.7,-70.6 130.3,-73.8 130.3,-76 129.7,-77.1 127.9,-78.2 		"/>
		<polygon id="XMLID_39_" opacity="0.3" fill="#231F20" points="123.1,-72.8 109.7,-72.8 103.9,-75.2 103.9,-79.9 101.3,-82.1 
			101.3,-79.9 102.9,-78.4 102.9,-73.4 108.7,-70.6 122.7,-70.6 130.3,-73.8 130.3,-76 		"/>
		<polygon id="XMLID_43_" fill="#603913" points="103.7,-84 107.9,-83.8 113.9,-80.2 118.9,-84.6 123.7,-85.9 124.9,-85.9 
			124.9,-84 119.8,-82.1 114.2,-76.4 107.2,-81.8 104.1,-82.1 102.9,-83 		"/>
	</g>
	<g id="Right_Sandal">
		<polygon id="XMLID_42_" fill="#3C2415" points="21.6,-77.2 29.7,-74.8 41.7,-74.8 45.6,-82.7 45.3,-84.1 47.6,-84.1 48.7,-82.1 
			48.7,-79.9 47.1,-78.4 47.1,-73.4 41.3,-70.6 27.3,-70.6 19.7,-73.8 19.7,-76 20.6,-77.8 22.4,-78.8 		"/>
		<polygon id="XMLID_41_" opacity="0.3" fill="#231F20" points="26.9,-72.8 40.3,-72.8 46.1,-75.2 46.1,-79.9 48.7,-82.1 
			48.7,-79.9 47.1,-78.4 47.1,-73.4 41.3,-70.6 27.3,-70.6 19.7,-73.8 19.7,-76 		"/>
		<polygon id="XMLID_44_" fill="#603913" points="45.8,-84 41.6,-84.1 35.5,-79.7 31.2,-84.8 25.8,-85.9 24.5,-85.9 24.5,-84 
			29.7,-82.1 35.3,-76.4 42.3,-81.8 45.4,-82.1 46.5,-83 		"/>
	</g>
	<g id="Pants_2_">
		<polygon id="XMLID_9_" fill="#BE1E2D" points="48.3,-202.4 44.9,-190.2 41.2,-157.8 32.3,-129.5 32.8,-112.2 29.9,-109.5 
			33,-107.3 44.2,-106.2 49.4,-107.5 49.4,-111.2 55.5,-126.4 60.4,-144.6 66.5,-157.5 66.9,-165.5 74.4,-187.6 75.4,-187.6 
			83.4,-164.2 83.4,-155.7 88.9,-146.8 93.4,-128.5 102.2,-108.6 100.7,-106.2 103.7,-105.2 112.2,-104.6 117.3,-106.1 116.3,-108 
			117.7,-131.2 108.9,-155.7 104.9,-190.2 100.6,-202.1 87.2,-200 63.9,-200 		"/>
		<polygon id="XMLID_70_" opacity="0.1" fill="#231F20" points="64,-158.8 54.7,-146.5 53.3,-126.8 43.5,-114 46.5,-109.7 
			44.2,-106.2 49.4,-107.5 49.4,-111.2 55.5,-126.4 60.4,-144.6 66.5,-157.5 66.9,-165.5 74.4,-187.6 60.7,-169 		"/>
		<polygon id="XMLID_71_" opacity="0.1" fill="#231F20" points="117.7,-131.2 108.9,-155.7 104.9,-190.2 100.6,-202.1 87.2,-200 
			77,-200 90.2,-193 99.7,-187.6 100.3,-153.5 114.8,-130.7 113.5,-107.5 112.2,-104.6 117.3,-106.1 116.3,-108 		"/>
	</g>
	<g id="Face">
		<path id="XMLID_249_" fill="#C49A6C" d="M76.2-326.5c-12,0-15.2,11.2-15.2,11.2v16l11.2,15h6l12.5-15V-315
			C90.7-315,88.2-326.5,76.2-326.5z"/>
		<path id="XMLID_67_" opacity="0.1" fill="#231F20" d="M76.2-326.5c-8,0-0.4,9.2-0.4,9.2l3,7.7l-2.6,4.6l3.2,3.8l-3.4,4.5l14.7-2.5
			V-315C90.7-315,88.2-326.5,76.2-326.5z"/>
		<polygon id="XMLID_17_" fill="#C2B59B" points="78.5,-305.2 82.4,-306.6 85.2,-306.2 82.4,-304.4 		"/>
		<polygon id="XMLID_68_" fill="#3C2415" points="79.8,-305.6 82.4,-305 83.3,-306.5 82.4,-306.6 		"/>
		<polygon id="XMLID_73_" fill="#C2B59B" points="74.6,-305.2 70.7,-306.6 67.8,-306.2 70.7,-304.4 		"/>
		<polygon id="XMLID_72_" fill="#3C2415" points="73.3,-305.6 70.7,-305 69.8,-306.5 70.7,-306.6 		"/>
		<polygon id="XMLID_12_" opacity="0.3" fill="#231F20" points="67.2,-311 75.9,-317.2 85.6,-311 86.2,-308.1 76.3,-312.3 
			66.4,-308.1 		"/>
	</g>
	<g id="Sash">
		<polygon id="XMLID_2_" fill="#F15A29" points="90.2,-280.5 105.2,-276.8 109.7,-269 94.4,-256.2 90.7,-235 80,-208.2 47.2,-182.5 
			56,-243.3 68.4,-249 79.5,-270 		"/>
		<polygon id="XMLID_66_" opacity="0.1" fill="#231F20" points="90.2,-280.5 105.2,-276.8 109.7,-269 94.4,-256.2 90.7,-235 
			80,-208.2 47.2,-182.5 65.5,-215.8 76.1,-235 77.9,-230.5 81.7,-248 85,-243 87.7,-257.5 		"/>
	</g>
	<g id="Belt_4_">
		<polygon id="XMLID_7_" fill="#FBB040" points="51,-214 49.9,-208.5 47.2,-202.4 63.9,-200 87.2,-200 101.5,-202.4 98.2,-208.8 
			98.4,-214 83.7,-212.2 64.9,-212 		"/>
		<polygon id="XMLID_16_" opacity="0.1" fill="#231F20" points="77,-200 87.2,-200 101.5,-202.4 98.2,-208.8 86.4,-206.2 
			73.8,-206.2 82.8,-202.4 		"/>
		<polygon id="XMLID_4_" fill="#FBB040" points="58,-213 60.5,-214 63.6,-214 73,-200 67.5,-198.4 63.9,-200 		"/>
		<polygon id="XMLID_14_" opacity="0.1" fill="#231F20" points="58,-213 60.5,-214 73,-200 67.5,-198.4 63.9,-200 		"/>
		<polygon id="XMLID_11_" fill="#FBB040" points="65.5,-213 69,-214 71.3,-212.1 61.8,-200.3 58.9,-200 56,-201.1 		"/>
		<polygon id="XMLID_13_" opacity="0.1" fill="#231F20" points="69,-214 71.3,-212.1 61.8,-200.3 58.9,-200 56,-201.1 		"/>
	</g>
	<g id="Cloak_Front">
		<polygon id="XMLID_251_" fill="#603913" points="63.7,-280.8 50.4,-278.5 41.7,-264.5 36.7,-230.5 28.5,-112 45.2,-113 55.5,-111 
			58.9,-170 56.9,-217 68.2,-270.8 75.9,-276.5 83.5,-271.2 92.5,-215.8 89.3,-170.5 90.2,-112 109.7,-112.7 121.2,-111 117.7,-233 
			114.7,-260.5 105.2,-276.8 90.2,-280.5 		"/>
		<polygon id="XMLID_74_" opacity="0.3" fill="#231F20" points="63.7,-280.8 75.9,-276.5 83.5,-271.2 92.5,-215.8 89.3,-170.5 
			90.2,-112 109.7,-112.7 121.2,-111 117.7,-233 114.7,-260.5 105.2,-276.8 90.2,-280.5 		"/>
		<polygon id="XMLID_45_" fill="#3C2415" points="63.7,-280.8 50.4,-278.5 41.7,-264.5 35.3,-230.2 61,-228 68.2,-270.8 
			75.9,-276.5 83.5,-271.2 89.5,-226.8 119.8,-228.5 114.7,-260.5 105.2,-276.8 90.2,-280.5 		"/>
		<polygon id="XMLID_46_" opacity="0.1" fill="#231F20" points="63.7,-280.8 75.9,-276.5 83.5,-271.2 89.5,-226.8 119.8,-228.5 
			114.7,-260.5 105.2,-276.8 90.2,-280.5 		"/>
		<polygon id="XMLID_1_" fill="#BE1E2D" points="61.4,-301.2 75.8,-303.9 92.2,-301.2 94.2,-287.5 75.8,-283.2 57.9,-289.2 		"/>
		<polygon id="XMLID_15_" opacity="0.1" fill="#231F20" points="79,-300.6 75.8,-303.9 92.2,-301.2 94.2,-287.5 74.9,-285.2 
			74.5,-287.6 77.9,-288.9 71.1,-290.6 78.4,-292.6 72.9,-294.2 81.1,-297 70.6,-298.8 		"/>
		<path id="XMLID_6_" fill="#3C2415" d="M97.4-294.8l-3.5-24l-5.8-7.8l-12.3-5.1l-10.9,5.9l-6.8,8L56.4-294l-5.7,12l5.7,2.5
			l20.8,3.3L96-279l9.2-5.2L97.4-294.8z M74.9-285.2l-13.5-5l5.8-20.8l8.7-6.2l9.7,6.3l4.6,21.5L74.9-285.2z"/>
		<polygon id="XMLID_85_" opacity="0.3" fill="#231F20" points="97.4,-294.8 93.9,-318.8 88.2,-326.5 75.9,-331.6 75.9,-317.2 
			85.6,-311 90.2,-289.5 76.1,-280.8 56.4,-279.5 77.3,-276.2 96,-279 105.2,-284.2 		"/>
		<polygon id="XMLID_34_" opacity="0.3" fill="#231F20" points="61,-310.3 59.9,-307.3 60.7,-300.6 62.7,-307.8 		"/>
		<polygon id="XMLID_36_" opacity="0.3" fill="#231F20" points="91,-310.3 89.9,-307.3 92.3,-300.6 92.7,-307.8 		"/>
	</g>
	<g id="Ears">
		<polygon id="XMLID_37_" fill="#C49A6C" points="61,-310.3 53.4,-317.2 55.8,-309.8 59.2,-304.7 61.8,-304.7 62.7,-307.8 		"/>
		<polygon id="XMLID_38_" fill="#C49A6C" points="91,-310.3 99.6,-318.4 97.2,-310.3 93.4,-303.9 91.1,-303.9 89.9,-307.3 		"/>
	</g>
	<g id="Beads">
		<circle id="XMLID_19_" fill="#603913" cx="50.4" cy="-269.7" r="1.9"/>
		<circle id="XMLID_27_" fill="#603913" cx="46.9" cy="-271.8" r="1.9"/>
		<circle id="XMLID_21_" fill="#603913" cx="54.3" cy="-268.2" r="1.9"/>
		<circle id="XMLID_22_" fill="#603913" cx="58.3" cy="-267" r="1.9"/>
		<circle id="XMLID_23_" fill="#603913" cx="62.4" cy="-265.8" r="1.9"/>
		<circle id="XMLID_24_" fill="#603913" cx="66.5" cy="-265.3" r="1.9"/>
		<circle id="XMLID_25_" fill="#603913" cx="75" cy="-264.8" r="1.9"/>
		<circle id="XMLID_26_" fill="#603913" cx="70.6" cy="-264.8" r="1.9"/>
		<circle id="XMLID_35_" fill="#603913" cx="104" cy="-269.7" r="1.9"/>
		<circle id="XMLID_33_" fill="#603913" cx="107.5" cy="-271.8" r="1.9"/>
		<circle id="XMLID_32_" fill="#603913" cx="100.2" cy="-268.2" r="1.9"/>
		<circle id="XMLID_31_" fill="#603913" cx="96.2" cy="-267" r="1.9"/>
		<circle id="XMLID_30_" fill="#603913" cx="92" cy="-265.8" r="1.9"/>
		<circle id="XMLID_29_" fill="#603913" cx="87.9" cy="-265.3" r="1.9"/>
		<circle id="XMLID_28_" fill="#603913" cx="79.4" cy="-264.8" r="1.9"/>
		<circle id="XMLID_20_" fill="#603913" cx="83.8" cy="-264.8" r="1.9"/>
	</g>
</g>
<g id="Monk_Headshot">
	<circle id="XMLID_171_" opacity="0.1" fill="#231F20" cx="75" cy="75" r="75"/>
	<g id="XMLID_170_">
		<defs>
			<circle id="XMLID_169_" cx="75" cy="75" r="75"/>
		</defs>
		<clipPath id="XMLID_173_">
			<use xlink:href="#XMLID_169_"  overflow="visible"/>
		</clipPath>
		<g id="XMLID_142_" clip-path="url(#XMLID_173_)">
			<g id="Cloak_Back_1_">
				<polygon id="XMLID_141_" fill="#3C2415" points="74.4,167 48.7,247.8 102.9,245.5 				"/>
				<polygon id="XMLID_140_" opacity="0.3" fill="#231F20" points="74.4,167 48.7,247.8 102.9,245.5 				"/>
			</g>
			<g id="Body_5_">
				<polygon id="XMLID_139_" fill="#C49A6C" points="49.9,156.5 44.9,174.8 41.2,207.2 32.3,235.5 33.1,261 31.2,265.6 30.9,271.4 
					21.4,287.8 29.7,290.2 41.7,290.2 45.6,282.3 44.3,275.1 46.8,269.4 46,262.3 55.5,238.6 60.4,220.4 66.5,207.5 66.9,199.5 
					74.4,177.4 75.4,177.4 83.4,200.8 83.4,209.3 88.9,218.2 93.4,236.5 104.2,261 102.2,268 105.9,274 103.7,281 108.2,290.2 
					121.9,290.2 128.4,287.8 118.4,270.5 119.2,266.8 116.2,259.5 117.7,233.8 108.9,209.3 104.9,174.8 98.2,156.2 96.2,139 
					100.4,123.5 112.9,113.8 114.7,104.5 105.2,88.2 90.2,84.5 85.4,67.8 66.9,67.8 63.7,84.2 50.4,86.5 41.7,100.5 45.2,115.2 
					56,121.7 57.3,136.9 				"/>
				<path id="XMLID_138_" opacity="0.1" fill="#231F20" d="M43.5,262.5l-2.5,5.6l1.3,6.6l1.2,7.3l-4.9,8.2h3.1l3.9-7.9l-1.3-7.2
					l2.5-5.7l-0.8-7.2l2.2-5.4c-2.4-0.1-4.8-0.3-7.2-0.5L43.5,262.5z"/>
				<path id="XMLID_137_" opacity="0.1" fill="#231F20" d="M119.2,266.8l-3-7.2l0.2-4.1c-2.2,0.1-4.4,0.2-6.7,0.3l3.7,4.4l2.8,6.5
					l0.4,3.7l8.9,15.6l-3.7,4.5l6.5-2.5l-10-17.2L119.2,266.8z"/>
			</g>
			<g id="Left_Sandal_1_">
				<polygon id="XMLID_136_" fill="#3C2415" points="128.4,287.8 121.9,290.2 108.2,290.2 105.7,285.1 103.7,281 104,280 
					102.4,280.9 101.3,282.9 101.3,285.1 102.9,286.6 102.9,291.6 108.7,294.4 122.7,294.4 130.3,291.2 130.3,289 129.7,287.9 
					127.9,286.8 				"/>
				<polygon id="XMLID_135_" opacity="0.3" fill="#231F20" points="123.1,292.2 109.7,292.2 103.9,289.8 103.9,285.1 101.3,282.9 
					101.3,285.1 102.9,286.6 102.9,291.6 108.7,294.4 122.7,294.4 130.3,291.2 130.3,289 				"/>
				<polygon id="XMLID_134_" fill="#603913" points="103.7,281 107.9,281.2 113.9,284.8 118.9,280.4 123.7,279.1 124.9,279.1 
					124.9,281 119.8,282.9 114.2,288.6 107.2,283.2 104.1,282.9 102.9,282 				"/>
			</g>
			<g id="Right_Sandal_1_">
				<polygon id="XMLID_133_" fill="#3C2415" points="21.6,287.8 29.7,290.2 41.7,290.2 45.6,282.3 45.3,280.9 47.6,280.9 
					48.7,282.9 48.7,285.1 47.1,286.6 47.1,291.6 41.3,294.4 27.3,294.4 19.7,291.2 19.7,289 20.6,287.2 22.4,286.2 				"/>
				<polygon id="XMLID_132_" opacity="0.3" fill="#231F20" points="26.9,292.2 40.3,292.2 46.1,289.8 46.1,285.1 48.7,282.9 
					48.7,285.1 47.1,286.6 47.1,291.6 41.3,294.4 27.3,294.4 19.7,291.2 19.7,289 				"/>
				<polygon id="XMLID_131_" fill="#603913" points="45.8,281 41.6,280.9 35.5,285.3 31.2,280.2 25.8,279.1 24.5,279.1 24.5,281 
					29.7,282.9 35.3,288.6 42.3,283.2 45.4,282.9 46.5,282 				"/>
			</g>
			<g id="Pants_3_">
				<polygon id="XMLID_130_" fill="#BE1E2D" points="48.3,162.6 44.9,174.8 41.2,207.2 32.3,235.5 32.8,252.8 29.9,255.5 33,257.7 
					44.2,258.8 49.4,257.5 49.4,253.8 55.5,238.6 60.4,220.4 66.5,207.5 66.9,199.5 74.4,177.4 75.4,177.4 83.4,200.8 83.4,209.3 
					88.9,218.2 93.4,236.5 102.2,256.4 100.7,258.8 103.7,259.8 112.2,260.4 117.3,258.9 116.3,257 117.7,233.8 108.9,209.3 
					104.9,174.8 100.6,162.9 87.2,165 63.9,165 				"/>
				<polygon id="XMLID_129_" opacity="0.1" fill="#231F20" points="64,206.2 54.7,218.5 53.3,238.2 43.5,251 46.5,255.3 44.2,258.8 
					49.4,257.5 49.4,253.8 55.5,238.6 60.4,220.4 66.5,207.5 66.9,199.5 74.4,177.4 60.7,196 				"/>
				<polygon id="XMLID_128_" opacity="0.1" fill="#231F20" points="117.7,233.8 108.9,209.3 104.9,174.8 100.6,162.9 87.2,165 
					77,165 90.2,172 99.7,177.4 100.3,211.5 114.8,234.3 113.5,257.5 112.2,260.4 117.3,258.9 116.3,257 				"/>
			</g>
			<g id="Face_1_">
				<path id="XMLID_127_" fill="#C49A6C" d="M76.2,38.5c-12,0-15.2,11.2-15.2,11.2v16l11.2,15h6l12.5-15V50
					C90.7,50,88.2,38.5,76.2,38.5z"/>
				<path id="XMLID_126_" opacity="0.1" fill="#231F20" d="M76.2,38.5c-8,0-0.4,9.2-0.4,9.2l3,7.7L76.2,60l3.2,3.8l-3.4,4.5
					l14.7-2.5V50C90.7,50,88.2,38.5,76.2,38.5z"/>
				<polygon id="XMLID_125_" fill="#C2B59B" points="78.5,59.8 82.4,58.4 85.2,58.8 82.4,60.6 				"/>
				<polygon id="XMLID_124_" fill="#3C2415" points="79.8,59.4 82.4,60 83.3,58.5 82.4,58.4 				"/>
				<polygon id="XMLID_123_" fill="#C2B59B" points="74.6,59.8 70.7,58.4 67.8,58.8 70.7,60.6 				"/>
				<polygon id="XMLID_122_" fill="#3C2415" points="73.3,59.4 70.7,60 69.8,58.5 70.7,58.4 				"/>
				<polygon id="XMLID_121_" opacity="0.3" fill="#231F20" points="67.2,54 75.9,47.8 85.6,54 86.2,56.9 76.3,52.7 66.4,56.9 				
					"/>
			</g>
			<g id="Sash_1_">
				<polygon id="XMLID_120_" fill="#F15A29" points="90.2,84.5 105.2,88.2 109.7,96 94.4,108.8 90.7,130 80,156.8 47.2,182.5 
					56,121.7 68.4,116 79.5,95 				"/>
				<polygon id="XMLID_119_" opacity="0.1" fill="#231F20" points="90.2,84.5 105.2,88.2 109.7,96 94.4,108.8 90.7,130 80,156.8 
					47.2,182.5 65.5,149.2 76.1,130 77.9,134.5 81.7,117 85,122 87.7,107.5 				"/>
			</g>
			<g id="Belt_5_">
				<polygon id="XMLID_118_" fill="#FBB040" points="51,151 49.9,156.5 47.2,162.6 63.9,165 87.2,165 101.5,162.6 98.2,156.2 
					98.4,151 83.7,152.8 64.9,153 				"/>
				<polygon id="XMLID_117_" opacity="0.1" fill="#231F20" points="77,165 87.2,165 101.5,162.6 98.2,156.2 86.4,158.8 73.8,158.8 
					82.8,162.6 				"/>
				<polygon id="XMLID_116_" fill="#FBB040" points="58,152 60.5,151 63.6,151 73,165 67.5,166.6 63.9,165 				"/>
				<polygon id="XMLID_115_" opacity="0.1" fill="#231F20" points="58,152 60.5,151 73,165 67.5,166.6 63.9,165 				"/>
				<polygon id="XMLID_114_" fill="#FBB040" points="65.5,152 69,151 71.3,152.9 61.8,164.7 58.9,165 56,163.9 				"/>
				<polygon id="XMLID_113_" opacity="0.1" fill="#231F20" points="69,151 71.3,152.9 61.8,164.7 58.9,165 56,163.9 				"/>
			</g>
			<g id="Cloak_Front_1_">
				<polygon id="XMLID_112_" fill="#603913" points="63.7,84.2 50.4,86.5 41.7,100.5 36.7,134.5 28.5,253 45.2,252 55.5,254 
					58.9,195 56.9,148 68.2,94.2 75.9,88.5 83.5,93.8 92.5,149.2 89.3,194.5 90.2,253 109.7,252.3 121.2,254 117.7,132 114.7,104.5 
					105.2,88.2 90.2,84.5 				"/>
				<polygon id="XMLID_111_" opacity="0.3" fill="#231F20" points="63.7,84.2 75.9,88.5 83.5,93.8 92.5,149.2 89.3,194.5 90.2,253 
					109.7,252.3 121.2,254 117.7,132 114.7,104.5 105.2,88.2 90.2,84.5 				"/>
				<polygon id="XMLID_110_" fill="#3C2415" points="63.7,84.2 50.4,86.5 41.7,100.5 35.3,134.8 61,137 68.2,94.2 75.9,88.5 
					83.5,93.8 89.5,138.2 119.8,136.5 114.7,104.5 105.2,88.2 90.2,84.5 				"/>
				<polygon id="XMLID_109_" opacity="0.1" fill="#231F20" points="63.7,84.2 75.9,88.5 83.5,93.8 89.5,138.2 119.8,136.5 
					114.7,104.5 105.2,88.2 90.2,84.5 				"/>
				<polygon id="XMLID_108_" fill="#BE1E2D" points="61.4,63.8 75.8,61.1 92.2,63.8 94.2,77.5 75.8,81.8 57.9,75.8 				"/>
				<polygon id="XMLID_107_" opacity="0.1" fill="#231F20" points="79,64.4 75.8,61.1 92.2,63.8 94.2,77.5 74.9,79.8 74.5,77.4 
					77.9,76.1 71.1,74.4 78.4,72.4 72.9,70.8 81.1,68 70.6,66.2 				"/>
				<path id="XMLID_104_" fill="#3C2415" d="M97.4,70.2l-3.5-24l-5.8-7.8l-12.3-5.1l-10.9,5.9l-6.8,8L56.4,71l-5.7,12l5.7,2.5
					l20.8,3.3L96,86l9.2-5.2L97.4,70.2z M74.9,79.8l-13.5-5L67.2,54l8.7-6.2l9.7,6.3l4.6,21.5L74.9,79.8z"/>
				<polygon id="XMLID_103_" opacity="0.3" fill="#231F20" points="97.4,70.2 93.9,46.2 88.2,38.5 75.9,33.4 75.9,47.8 85.6,54 
					90.2,75.5 76.1,84.2 56.4,85.5 77.3,88.8 96,86 105.2,80.8 				"/>
				<polygon id="XMLID_102_" opacity="0.3" fill="#231F20" points="61,54.7 59.9,57.7 60.7,64.4 62.7,57.2 				"/>
				<polygon id="XMLID_101_" opacity="0.3" fill="#231F20" points="91,54.7 89.9,57.7 92.3,64.4 92.7,57.2 				"/>
			</g>
			<g id="Ears_1_">
				<polygon id="XMLID_100_" fill="#C49A6C" points="61,54.7 53.4,47.8 55.8,55.2 59.2,60.3 61.8,60.3 62.7,57.2 				"/>
				<polygon id="XMLID_99_" fill="#C49A6C" points="91,54.7 99.6,46.6 97.2,54.7 93.4,61.1 91.1,61.1 89.9,57.7 				"/>
			</g>
			<g id="Beads_1_">
				<circle id="XMLID_98_" fill="#603913" cx="50.4" cy="95.3" r="1.9"/>
				<circle id="XMLID_97_" fill="#603913" cx="46.9" cy="93.2" r="1.9"/>
				<circle id="XMLID_96_" fill="#603913" cx="54.3" cy="96.8" r="1.9"/>
				<circle id="XMLID_95_" fill="#603913" cx="58.3" cy="98" r="1.9"/>
				<circle id="XMLID_94_" fill="#603913" cx="62.4" cy="99.2" r="1.9"/>
				<circle id="XMLID_93_" fill="#603913" cx="66.5" cy="99.7" r="1.9"/>
				<circle id="XMLID_92_" fill="#603913" cx="75" cy="100.2" r="1.9"/>
				<circle id="XMLID_91_" fill="#603913" cx="70.6" cy="100.2" r="1.9"/>
				<circle id="XMLID_90_" fill="#603913" cx="104" cy="95.3" r="1.9"/>
				<circle id="XMLID_89_" fill="#603913" cx="107.5" cy="93.2" r="1.9"/>
				<circle id="XMLID_88_" fill="#603913" cx="100.2" cy="96.8" r="1.9"/>
				<circle id="XMLID_87_" fill="#603913" cx="96.2" cy="98" r="1.9"/>
				<circle id="XMLID_86_" fill="#603913" cx="92" cy="99.2" r="1.9"/>
				<circle id="XMLID_84_" fill="#603913" cx="87.9" cy="99.7" r="1.9"/>
				<circle id="XMLID_83_" fill="#603913" cx="79.4" cy="100.2" r="1.9"/>
				<circle id="XMLID_82_" fill="#603913" cx="83.8" cy="100.2" r="1.9"/>
			</g>
		</g>
	</g>
</g>
<g id="DM">
</g>
</svg>
