<?xml version="1.0" encoding="utf-8"?>
<!-- Generator: Adobe Illustrator 19.0.0, SVG Export Plug-In . SVG Version: 6.00 Build 0)  -->
<svg version="1.1" xmlns="http://www.w3.org/2000/svg" xmlns:xlink="http://www.w3.org/1999/xlink" x="0px" y="0px"
	 viewBox="0 0 200 350" enable-background="new 0 0 200 350" xml:space="preserve">
<g id="Kizze">
	<g id="Bustle_Front">
		<polygon fill="#D1D3D4" points="-120.2,167.3 -130.5,175.6 -139.6,189.8 -142.8,209.5 -146.7,192.9 -149.3,191.2 -133.7,171.2 		
			"/>
		<polygon fill="#D7DF23" points="-149.3,191.2 -146.7,192.9 -142.8,209.5 -149.3,193.1 		"/>
		<polygon fill="#D7DF23" points="-66.7,200.7 -69.2,201.4 -76.1,214.3 -67.5,203.5 		"/>
		<polygon fill="#BCBEC0" points="-95.8,165.2 -85.7,176.6 -76.5,197.7 -76.1,214.3 -69.2,201.4 -66.7,200.7 -81.2,174.1 		"/>
	</g>
	<polygon id="Grown_Back" fill="#D7DF23" points="-128.5,254.5 -115.3,250.3 -102.7,255.5 -90.2,254.5 -84.8,217.2 -86.5,194.7 
		-98,165.2 -117.9,165.2 -128.8,191.5 -133.4,217.7 	"/>
	<polygon fill="#C49A6C" points="-115.2,126.2 -115.2,130.2 -128.2,133.7 -145.7,150.1 -176.5,151.2 -177.5,155.6 -144.2,156.2 
		-125.2,145.9 -120.2,167.3 -126,175 -127.2,182.8 -114.5,183.4 -104,188 -103.8,217.2 -104.8,221 -103.2,227.2 -105.5,258.2 
		-112,277.5 -105.2,282.8 -91.5,276.5 -96.5,257.5 -98,228.8 -96,222.3 -97,217 -92,197.7 -90.2,178.9 -95.8,165.2 -91.8,145.8 
		-86.5,140.9 -65.8,136.9 -49.7,112.6 -53.8,112.6 -68.5,131.3 -95.8,133.9 -106.5,130.2 -107.8,124.9 	"/>
	<g>
		<path fill="#E6E7E8" d="M-120.2,167.3c0,0-11,7.7-11,7.7c0,0-9.5,14.1-9.5,14.1l-6,39.8l2.2-1.1l12,4.6l-4.8-15.8l4.9-24.6l7-16.6
			L-120.2,167.3z"/>
		<polygon fill="#D7DF23" points="-146.7,229 -144.5,227.9 -132.5,232.5 -144.6,230.2 		"/>
		<polygon fill="#D7DF23" points="-86.4,234.1 -77.9,228.7 -75.5,229.5 -77.4,231.4 		"/>
		<polygon fill="#D1D3D4" points="-95.8,165.2 -90.2,178 -83.2,197.7 -83,220.2 -86.4,234.1 -77.9,228.7 -75.5,229.5 -75.5,197.1 
			-85,175.9 		"/>
	</g>
	<polygon fill="#594A42" points="-105.5,234 -99.8,236 -96,232.5 -96.5,257.5 -91.5,276.5 -105.2,282.8 -112,277.5 -105.5,258.2 	
		"/>
	<polygon fill="#3C2415" points="-123.5,132.5 -123.5,150.9 -125.2,145.9 -122.9,155.7 -109.3,151.2 -93.7,154.9 -91.8,145.8 
		-93.7,150.8 -97.4,133.4 -101.5,132 -109.8,148.1 -119.1,131.3 	"/>
	<polygon fill="#3C2415" points="-121.1,163.4 -109.1,164.3 -95.3,162.7 -95.8,165.2 -90.2,178.9 -90.7,190.4 -97.3,188.9 
		-104.7,190.4 -104.7,187.7 -114.5,183.4 -116,175 -120.8,175.3 -126,175 -120.2,167.3 	"/>
	<g id="Gown_Front">
		<polygon fill="#E6E7E8" points="-94.5,244.8 -90.2,254.5 -82.2,220.5 -82.2,197.7 -89,177.9 -95.8,165.2 -91.8,145.8 -85.2,131.3 
			-100.3,132.4 -102.7,131.6 -121,139.2 -115.4,142.7 -103.7,162.1 -94.4,179.9 -90.2,194.8 -88.8,219.1 		"/>
		<polygon fill="#F1F2F2" points="-122.1,132.1 -135,133.4 -125.2,145.9 -120.2,167.3 -126,175 -133.3,191.8 -138.8,216.5 
			-128.5,254.5 -124.5,246.2 -130.6,216.9 -126.4,194.8 -118.9,175.2 -115.2,167 -104.8,142.3 -99.8,138 -119.1,131.3 		"/>
	</g>
	<polygon fill="#C49A6C" points="-115.3,175 -110.9,176.2 -110.1,184.7 -114.4,222 -111,234.9 -111.7,242.6 -121.3,249 
		-125.4,236.9 -119.6,222.1 -122.7,182.9 -120.8,175.3 	"/>
	<polygon fill="#594A42" points="-117.4,196.9 -110.3,195.3 -114.4,222 -111,234.9 -111.7,242.6 -121.3,249 -125.4,236.9 
		-119.6,222.1 -123.6,193.1 	"/>
	<polygon opacity="0.1" fill="#231F20" points="-107,128.2 -111.1,131.3 -115.2,128.7 -115.2,126.7 -107.3,127 	"/>
	<path fill="#C49A6C" d="M-111.7,97.2c10,0,11.8,11.4,11.8,11.4l-0.5,12.1l-10.8,8.3l-10.4-7.7l-1.6-12.5
		C-123.1,108.9-121.7,97.2-111.7,97.2z"/>
	<path opacity="0.1" fill="#231F20" d="M-111.7,97.2c10,0,11.8,11.4,11.8,11.4l-0.5,12.1l-10.8,8.3l5.3-12.1l-4.4-5.3l4.3-3.7
		L-111.7,97.2z"/>
	<polygon opacity="0.3" fill="#231F20" points="-82.2,327 -133.4,327 -154,337 -104,343 -59,335 	"/>
	<circle fill="#58595B" cx="-105.8" cy="137.9" r="0.7"/>
	<circle fill="#58595B" cx="-103.4" cy="138.6" r="0.7"/>
</g>
<g id="Squallo">
	<polygon id="Shadow_1_" opacity="0.3" fill="#231F20" points="149,319.8 56,318.8 28,329.2 66.7,343 106.6,347 168.2,335 	"/>
	<g id="Body_1_">
		<polygon fill="#603913" points="138.1,213.8 140.6,214.6 143.3,213.8 145.5,214.5 148.7,213.8 151.7,214.5 155.2,213.8 
			155.7,204.3 151.3,198 149.5,174.4 143.3,169.5 146.4,146 140.9,136.6 141.7,128.7 129.2,116.7 114.3,114.8 108.9,102.2 
			88.1,102.2 82.7,114.8 67.8,116.7 55.3,128.7 51.1,134.5 28.7,141 24.2,156.3 37.4,166.8 47.1,160 63,156.3 68.7,145.3 
			73.6,156.3 75.4,177 74.5,195.5 63.6,213.9 60.9,228.3 61.9,238.8 58.2,248.8 58.8,259.2 50.9,268.5 56.3,298.9 50,309.5 
			52.5,328.2 69.9,334.3 79.9,328.8 76.3,299 77.5,284.5 84.4,274.8 84.2,264.8 90,255 90.7,244.1 96.7,230.8 97.4,216.3 
			98.5,216.1 101,216.3 103.4,234 108.6,246.2 108.4,257 114.6,267.7 113.9,276.3 120.9,284.5 125.5,298.8 121,328.5 131,334 
			148.4,327.8 150.9,309.2 145.6,298.3 147.7,266.7 141,258.5 140.2,248.8 136.4,240.3 137.5,228.3 135.5,215.1 124.9,194 
			121.6,177 124.6,156.3 129.1,175.8 129.2,185.7 137.7,200.3 135.5,204.3 		"/>
		<path opacity="0.1" fill="#231F20" d="M67.8,116.7l-4.4,13.5l0.5,12.9l-6.4,8.9l-10.3,8l15.8-3.7l5.8-11l4.8,11l0.7,7.5l16.5-8.6
			c-1.9-10.5-4.8-20.8-7.5-31.2L67.8,116.7z"/>
		<polygon opacity="0.1" fill="#231F20" points="151.3,198 149.5,174.4 143.3,169.5 146.4,146 140.9,136.6 141.7,128.7 129.2,116.7 
			114.3,114.8 108.9,102.2 98.8,115.4 97.7,131 126.8,136.5 137.9,149.4 136.4,174.1 144,200.3 150.9,205.4 151.7,211.9 
			149.7,210.5 146.2,212.5 143.8,211.5 141,213.2 138.1,213.8 140.6,214.6 143.3,213.8 145.5,214.5 148.7,213.8 151.7,214.5 
			155.2,213.8 155.7,204.3 		"/>
	</g>
	<g id="Head_1_">
		<polygon opacity="0.3" fill="#231F20" points="87,104 90.8,110.5 105.8,110.3 109.5,103.8 110.4,107.1 105.8,115.3 90.8,115.5 
			86.2,107.8 		"/>
		<path fill="#603913" d="M83,84c0,0,0.7-13,15.3-13s14.3,13.7,14.3,13.7l-0.2,3.1l2,1.9l-0.4,5.5l-2.1,1.9l-0.2,2.8l-5.8,10.5
			l-15,0.2l-6.6-11L84,96.6l-2.5-2.1l2-3.8L83,84z"/>
		<path opacity="0.1" fill="#231F20" d="M98.2,71c14.6,0,14.3,13.7,14.3,13.7l-0.8,15.2l-5.8,10.5l-8.1,0.1l3-5.9l-2.3-4.4l6.7-2
			l-6.8-9.5L98.2,71z"/>
		<polygon opacity="0.3" fill="#231F20" points="114.4,89.6 113.9,95.1 111.8,97 112.3,87.7 		"/>
		<polygon opacity="0.1" fill="#231F20" points="83.5,90.7 84,96.6 81.5,94.5 		"/>
		<polygon fill="#FBB040" points="83.2,94.2 82.3,95.2 83.2,97.6 		"/>
		<polygon fill="#FBB040" points="112.5,94.2 113.4,95.2 112.5,97.6 		"/>
		<polygon fill="#3C2415" points="100.6,86.1 101.4,87.7 110.4,86.9 105.9,85.4 		"/>
		<polygon fill="#3C2415" points="96,86.1 95.2,87.7 86.2,86.9 90.7,85.4 		"/>
		<path fill="#3C2415" d="M109.6,99.4l-6.4,3.4l-4.8-2.7l-5.1,2.4l-6.6-3.2L84,94.2l0.2,5.3l5.4,11l8.7,10.2l8.6-10.2l4.8-10.7
			l0.2-5.1L109.6,99.4z M93.8,108.2l4.6-3.8l4.3,3.8l-4.3-0.8L93.8,108.2z"/>
		<polygon fill="#C2B59B" points="95.4,92.4 91.4,89.1 86.5,90.7 91.3,91.9 		"/>
		<polygon fill="#231F20" points="92.7,91.5 93.8,91 91.4,89.1 89,89.9 89.4,91 		"/>
		<polygon fill="#C2B59B" points="101.5,92.4 105.5,89.1 110.4,90.7 105.6,91.9 		"/>
		<polygon fill="#231F20" points="104.2,91.5 103.2,91 105.5,89.1 107.9,89.9 107.5,91 		"/>
	</g>
	<g id="Greaves">
		<polygon fill="#414042" points="74.5,195.5 63.6,213.9 60.9,228.3 61.9,238.8 58.2,248.8 58.8,259.2 50.9,268.5 56.3,298.9 
			50,309.5 52.5,328.2 69.9,334.3 79.9,328.8 76.3,299 77.5,284.5 84.4,274.8 84.2,264.8 90,255 91.2,243.1 96.7,230.8 97.4,216.3 
			101,216.3 103.4,234 108.6,246.2 108.4,257 114.6,267.7 113.9,276.3 120.9,284.5 125.5,298.8 121,328.5 131,334 148.4,327.8 
			150.9,309.2 145.6,298.3 147.7,266.7 141,258.5 140.2,248.8 136.6,237.9 137.5,228.3 135.5,215.1 124.9,194 		"/>
		<polygon opacity="0.1" fill="#231F20" points="86.4,195.8 75.5,230 74,239 72.5,249.2 69.5,267.5 64.8,281.5 65.7,297.2 
			65.7,318.5 69.9,334.3 79.9,328.8 76.3,299 77.5,284.5 84.4,274.8 84.2,264.8 90,255 91.2,243.1 96.7,230.8 97.4,216.3 
			110.7,202.8 115.2,228.5 117.3,237.9 118.5,251.2 125.4,269.9 134.6,282.2 134.6,298 134.6,318.5 131,334 148.4,327.8 
			150.9,309.2 145.6,298.3 147.7,266.7 141,258.5 140.2,248.8 136.6,237.9 137.5,228.3 135.5,215.1 124.9,194 		"/>
		<polygon opacity="0.3" fill="#231F20" points="121.9,322.6 131.5,326.8 145.9,322.6 150.6,311.4 148.4,327.8 131,334 121,328.5 		
			"/>
		<polygon opacity="0.3" fill="#231F20" points="50,309.5 55,321.4 68.2,327 79.2,322.7 79.9,328.8 69.9,334.3 52.5,328.2 		"/>
		<polygon fill="#FBB040" points="62,212.8 64,209.8 76.7,227.5 98.2,224.2 98.2,227.5 75.2,231.2 		"/>
		<polygon fill="#FBB040" points="59.8,239.5 74,237.9 92.2,244.5 92.2,247.8 73.5,240.5 58.8,242.8 		"/>
		<path fill="#FBB040" d="M100,224.8c0,0,0,4,0,3.8s16,1.5,16,1.5l18.7-19l-2.1-2.9l-17.9,18.4L100,224.8z"/>
		<polygon fill="#FBB040" points="105.7,244.5 117.3,235.8 138.1,237.9 138.1,240.1 117.3,239.2 107,247.8 		"/>
		<polygon fill="#FBB040" points="107.7,259.2 119.4,252.5 141.6,249 140.4,247.8 118.4,250 105.7,257.5 		"/>
		<polygon fill="#FBB040" points="111.7,266.2 126.4,267.5 141.6,255 141.6,257.2 126.6,270 112.9,268.8 		"/>
		<polygon fill="#FBB040" points="113.2,276.4 133.4,279 148.5,266.7 148.5,272.8 134.6,288.5 115.7,280.2 		"/>
		<polygon fill="#FBB040" points="56.8,249.8 73,247.8 91.2,255 89.9,258 72.7,250.5 56.8,251.8 		"/>
		<polygon fill="#FBB040" points="56.8,258 70.2,264.5 86.4,264.5 86.4,267.5 69.5,267.5 56.8,260.5 		"/>
		<polygon fill="#FBB040" points="49.8,266.7 65.3,277.8 86.4,274.2 84.7,277.6 64.5,286 49.8,270 		"/>
		<polygon fill="#FBB040" points="123.1,305.6 134,295.8 151.7,305.6 151.7,310.3 134,299.8 123.1,310.3 		"/>
		<polygon fill="#FBB040" points="52.9,303.4 52.9,299.4 65.1,295.2 78.5,303.4 78.5,307.4 65.1,298.4 		"/>
		<polygon fill="#FBB040" points="121.3,315.9 134,316.8 151.7,316.4 151.7,321.1 134,321.1 121.3,318.5 		"/>
		<polygon fill="#FBB040" points="50,314.9 65.7,316.2 78.5,314.9 79.5,318.8 65.7,319.9 50,317.4 		"/>
	</g>
	<g id="Shirt">
		<polygon fill="#262262" points="72.1,119.9 68.5,136.5 68.7,145.3 73.5,156.3 75.4,177 74,187.6 73,195.5 66.6,203.8 85,213.8 
			113.2,213 130.9,203.2 125,194 123.6,186.7 121.7,177 124.7,156.3 126.8,145 126.8,136.5 121.1,120.8 98.4,132.1 		"/>
		<polygon opacity="0.3" fill="#231F20" points="98.8,213.8 113.2,213 130.9,203.2 125,194 123.6,186.7 121.7,177 124.7,156.3 
			112.9,158.2 98.3,156.3 98.4,168.4 89.9,170 98.5,172.5 		"/>
		<polygon fill="#FBB040" points="71.2,123.8 96.8,134.5 122.8,127.5 119.8,115.5 97.7,129 73,115.5 		"/>
		<polygon opacity="0.1" fill="#231F20" points="71.2,123.8 96.8,134.5 122.8,127.5 119.8,115.5 97.7,129 73,115.5 		"/>
	</g>
	<g id="Belt_1_">
		<polygon fill="#262262" points="74.6,183.2 74,187.6 83.2,194.9 87.5,208.8 88.5,271.2 110.2,277.6 110,208.1 117.4,194.9 
			123.6,186.7 122.8,183.5 97.9,188.3 		"/>
		<polygon opacity="0.5" fill="#231F20" points="74.6,183.2 74,187.6 83.2,194.9 87.5,208.8 88.5,271.2 110.2,277.6 110,208.1 
			117.4,194.9 123.6,186.7 122.8,183.5 97.9,188.3 		"/>
		<polygon opacity="0.3" fill="#231F20" points="98.2,274 110.2,277.6 110,208.1 117.4,194.9 123.6,186.7 122.8,183.5 97.9,188.3 		
			"/>
		<polygon fill="#414042" points="122.8,179 111.8,184.5 86.2,183.5 74,179 72.5,187.6 87.5,191 111.8,191 124.3,186.7 		"/>
		<polygon opacity="0.1" fill="#231F20" points="122.8,179 111.8,184.5 95,183.8 89.9,186.9 95.8,191 111.8,191 124.3,186.7 		"/>
		<polygon fill="#414042" points="104.6,209.8 107.1,183.2 100,183 98.4,209.1 101,216.3 		"/>
		<polygon opacity="0.3" fill="#231F20" points="104.6,209.8 107.1,183.2 100,183 98.4,209.1 101.8,206 		"/>
		<polygon fill="#414042" points="109.1,189.9 98,184 92.2,186.7 106.5,195.8 		"/>
		<polygon fill="#FBB040" points="96.8,181.8 87.5,186.7 97.6,194.9 100.6,192.1 92.2,186.7 100,183 		"/>
	</g>
	<g id="Left_Pauldron_1_">
		<polygon fill="#414042" points="122,112.3 129.8,112.3 141.8,120.5 144.5,131 122,129 		"/>
		<polygon fill="#FBB040" points="117.4,109.6 120,130.5 146,135.5 149.2,128 122.8,127.5 124,109 		"/>
	</g>
	<g id="Right_Pauldron_1_">
		<polygon fill="#414042" points="72.8,111.6 65.8,111.6 53.2,118.2 52.1,128.2 69.8,128.2 		"/>
		<polygon fill="#FBB040" points="75.8,109 71.8,129 50,132.1 50,123.8 69,126 69.8,109.6 		"/>
	</g>
	<g id="Left_Bracer_1_">
		<polygon fill="#414042" points="129.2,174.9 129.4,185.7 137.1,199 151.3,195 149.7,174.4 143.5,169.5 136.4,174.1 		"/>
		<polygon opacity="0.1" fill="#231F20" points="139.3,181.2 144,197.6 151.3,195 149.7,174.4 143.5,169.5 136.4,174.1 		"/>
		<polygon fill="#FBB040" points="144.8,166.8 136.1,173.2 127.1,172.3 127.8,175.8 136.7,175.4 145.1,169.5 		"/>
		<polygon fill="#FBB040" points="128.2,179 138.2,179 148.2,171.6 149.7,173.3 140.5,184.5 128,181.8 		"/>
		<polygon fill="#FBB040" points="136.4,199.2 151.7,194.9 151.7,197.6 137.3,200.3 		"/>
	</g>
	<g id="Bident">
		<polygon fill="#414042" points="48.2,328 43.2,328 43.2,80.8 35.5,74.5 36.7,39 40.2,73 45.7,75.2 48.2,80.8 		"/>
		<polygon fill="#FBB040" points="41.8,82.8 45.7,75.2 52.1,73 55.2,39 56,75.8 48.2,80.8 41.8,90.8 		"/>
		<polygon fill="#FBB040" points="48.9,89.1 48.9,95.9 41.8,99 		"/>
	</g>
	<g id="Right_Arm_2_">
		<polygon fill="#603913" points="45.1,115 45.1,107.8 49.2,104.8 51.3,109.9 49,115.7 		"/>
		<polygon opacity="0.3" fill="#231F20" points="45.1,115 45.1,107.8 49.2,104.8 51.3,109.9 49,115.7 		"/>
		<polygon opacity="0.3" fill="#231F20" points="48.3,159.7 50,159.3 55.2,148.3 48.9,135.1 48.2,135.2 48.2,126.5 45.2,128 
			45.2,133.8 44.5,155.5 		"/>
		<polygon fill="#603913" points="37.2,166.8 47,160 53.2,148.2 45.2,133.8 45.2,128 51.3,124 51.3,119.9 52.1,119.2 52.1,115.5 
			52.9,114.4 53.2,112.3 40,106.3 31,111.6 27.4,125 29.9,132.1 24,156.3 		"/>
		<polygon opacity="0.1" fill="#231F20" points="37.2,166.8 47,160 53.2,148.2 45.2,133.8 45.2,128 51.3,124 51.3,119.9 52.1,119.2 
			52.1,115.5 52.9,114.4 53.2,112.3 50,113.2 49.8,116.7 47.1,118.5 47.1,123 41.2,128.2 36.7,129.4 41.4,130.8 43.2,150.5 		"/>
	</g>
	<g id="Right_Bracer_1_">
		<polygon fill="#414042" points="29.9,132.1 24,156.3 38.6,151.6 47.9,158.2 53.2,148.2 45.2,133.8 		"/>
		<polygon opacity="0.1" fill="#231F20" points="39.1,133.1 39.1,141.5 38.6,151.6 47.9,158.2 53.2,148.2 45.2,133.8 		"/>
		<polygon fill="#FBB040" points="26.1,144.1 38.9,139.8 53.2,146.6 53.2,150.5 38.9,142.6 24.9,146.9 		"/>
		<polygon fill="#FBB040" points="24,153.1 38.5,149.2 50,156 47.8,160.9 38.2,153.6 23.4,156.6 		"/>
		<polygon fill="#FBB040" points="28.8,131.5 45.9,132.7 45.9,134.3 27.6,133.9 		"/>
	</g>
</g>
<g id="Squallo_Headshot">
	<circle opacity="0.1" fill="#231F20" cx="104.4" cy="485" r="75"/>
	<g>
		<defs>
			<path id="SVGID_1_" d="M104.4,410c-15.6,0-30.1,4.8-42.1,12.9l-0.2-7.9l-0.8,8.6c-5.8,4.1-11,8.9-15.4,14.4L43.5,415l-0.9,27.4
				c-8.3,12.1-13.2,26.7-13.2,42.6c0,41.4,33.6,75,75,75c41.4,0,75-33.6,75-75C179.4,443.6,145.8,410,104.4,410z"/>
		</defs>
		<clipPath id="SVGID_2_">
			<use xlink:href="#SVGID_1_"  overflow="visible"/>
		</clipPath>
		<g clip-path="url(#SVGID_2_)">
			<g id="Body_2_">
				<polygon fill="#603913" points="145,589.8 147.5,590.6 150.1,589.8 152.4,590.5 155.5,589.8 158.5,590.5 162.1,589.8 
					162.5,580.3 158.2,574 156.4,550.4 150.2,545.5 153.3,522 147.7,512.6 148.5,504.7 136.1,492.7 121.2,490.8 115.8,478.2 
					94.9,478.2 89.6,490.8 74.6,492.7 62.2,504.7 58,510.5 35.5,517 31.1,532.3 44.3,542.8 54,536 69.8,532.3 75.6,521.3 
					80.4,532.3 82.3,553 81.3,571.5 70.5,589.9 67.8,604.3 68.8,614.8 65.1,624.8 65.6,635.2 57.7,644.5 63.2,674.9 56.9,685.5 
					59.3,704.2 76.8,710.3 86.8,704.8 83.1,675 84.4,660.5 91.2,650.8 91.1,640.8 96.8,631 97.6,620.1 103.5,606.8 104.3,592.3 
					105.4,592.1 107.9,592.3 110.2,610 115.5,622.2 115.3,633 121.5,643.7 120.8,652.3 127.8,660.5 132.3,674.8 127.9,704.5 
					137.8,710 155.3,703.8 157.8,685.2 152.5,674.3 154.5,642.7 147.9,634.5 147,624.8 143.2,616.3 144.4,604.3 142.4,591.1 
					131.8,570 128.4,553 131.4,532.3 135.9,551.8 136.1,561.7 144.6,576.3 142.4,580.3 				"/>
				<path opacity="0.1" fill="#231F20" d="M74.6,492.7l-4.4,13.5l0.5,12.9l-6.4,8.9L54,536l15.8-3.7l5.8-11l4.8,11l0.7,7.5l16.5-8.6
					c-1.9-10.5-4.8-20.8-7.5-31.2L74.6,492.7z"/>
				<polygon opacity="0.1" fill="#231F20" points="158.2,574 156.4,550.4 150.2,545.5 153.3,522 147.7,512.6 148.5,504.7 
					136.1,492.7 121.2,490.8 115.8,478.2 105.6,491.4 104.6,507 133.6,512.5 144.7,525.4 143.2,550.1 150.9,576.3 157.8,581.4 
					158.5,587.9 156.5,586.5 153.1,588.5 150.7,587.5 147.8,589.2 145,589.8 147.5,590.6 150.1,589.8 152.4,590.5 155.5,589.8 
					158.5,590.5 162.1,589.8 162.5,580.3 				"/>
			</g>
			<g id="Head_2_">
				<polygon opacity="0.3" fill="#231F20" points="93.8,480 97.7,486.5 112.7,486.3 116.3,479.8 117.3,483.1 112.7,491.3 
					97.7,491.5 93.1,483.8 				"/>
				<path fill="#603913" d="M89.8,460c0,0,0.7-13,15.3-13s14.3,13.7,14.3,13.7l-0.2,3.1l2,1.9l-0.4,5.5l-2.1,1.9l-0.2,2.8l-5.8,10.5
					l-15,0.2l-6.6-11l-0.2-2.8l-2.5-2.1l2-3.8L89.8,460z"/>
				<path opacity="0.1" fill="#231F20" d="M105.1,447c14.6,0,14.3,13.7,14.3,13.7l-0.8,15.2l-5.8,10.5l-8.1,0.1l3-5.9l-2.3-4.4
					l6.7-2l-6.8-9.5L105.1,447z"/>
				<polygon opacity="0.3" fill="#231F20" points="121.2,465.6 120.8,471.1 118.7,473 119.2,463.7 				"/>
				<polygon opacity="0.1" fill="#231F20" points="90.4,466.7 90.9,472.6 88.4,470.5 				"/>
				<polygon fill="#FBB040" points="90,470.2 89.2,471.2 90,473.6 				"/>
				<polygon fill="#FBB040" points="119.4,470.2 120.2,471.2 119.4,473.6 				"/>
				<polygon fill="#3C2415" points="107.4,462.1 108.2,463.7 117.3,462.9 112.7,461.4 				"/>
				<polygon fill="#3C2415" points="102.9,462.1 102.1,463.7 93.1,462.9 97.6,461.4 				"/>
				<path fill="#3C2415" d="M116.5,475.4l-6.4,3.4l-4.8-2.7l-5.1,2.4l-6.6-3.2l-2.7-5.2l0.2,5.3l5.4,11l8.7,10.2l8.6-10.2l4.8-10.7
					l0.2-5.1L116.5,475.4z M100.6,484.2l4.6-3.8l4.3,3.8l-4.3-0.8L100.6,484.2z"/>
				<polygon fill="#C2B59B" points="102.3,468.4 98.3,465.1 93.4,466.7 98.1,467.9 				"/>
				<polygon fill="#231F20" points="99.6,467.5 100.6,467 98.3,465.1 95.9,465.9 96.2,467 				"/>
				<polygon fill="#C2B59B" points="108.4,468.4 112.3,465.1 117.3,466.7 112.5,467.9 				"/>
				<polygon fill="#231F20" points="111,467.5 110,467 112.3,465.1 114.7,465.9 114.4,467 				"/>
			</g>
			<g id="Greaves_1_">
				<polygon fill="#414042" points="81.3,571.5 70.5,589.9 67.8,604.3 68.8,614.8 65.1,624.8 65.6,635.2 57.7,644.5 63.2,674.9 
					56.9,685.5 59.3,704.2 76.8,710.3 86.8,704.8 83.1,675 84.4,660.5 91.2,650.8 91.1,640.8 96.8,631 98,619.1 103.5,606.8 
					104.3,592.3 107.9,592.3 110.2,610 115.5,622.2 115.3,633 121.5,643.7 120.8,652.3 127.8,660.5 132.3,674.8 127.9,704.5 
					137.8,710 155.3,703.8 157.8,685.2 152.5,674.3 154.5,642.7 147.9,634.5 147,624.8 143.5,613.9 144.4,604.3 142.4,591.1 
					131.8,570 				"/>
				<polygon opacity="0.1" fill="#231F20" points="93.3,571.8 82.3,606 80.8,615 79.4,625.2 76.3,643.5 71.6,657.5 72.5,673.2 
					72.5,694.5 76.8,710.3 86.8,704.8 83.1,675 84.4,660.5 91.2,650.8 91.1,640.8 96.8,631 98,619.1 103.5,606.8 104.3,592.3 
					117.6,578.8 122.1,604.5 124.2,613.9 125.4,627.2 132.3,645.9 141.5,658.2 141.5,674 141.5,694.5 137.8,710 155.3,703.8 
					157.8,685.2 152.5,674.3 154.5,642.7 147.9,634.5 147,624.8 143.5,613.9 144.4,604.3 142.4,591.1 131.8,570 				"/>
				<polygon opacity="0.3" fill="#231F20" points="128.7,698.6 138.3,702.8 152.8,698.6 157.5,687.4 155.3,703.8 137.8,710 
					127.9,704.5 				"/>
				<polygon opacity="0.3" fill="#231F20" points="56.9,685.5 61.8,697.4 75.1,703 86,698.7 86.8,704.8 76.8,710.3 59.3,704.2 				
					"/>
				<polygon fill="#FBB040" points="68.9,588.8 70.9,585.8 83.6,603.5 105,600.2 105,603.5 82.1,607.2 				"/>
				<polygon fill="#FBB040" points="66.6,615.5 80.8,613.9 99,620.5 99,623.8 80.3,616.5 65.6,618.8 				"/>
				<path fill="#FBB040" d="M106.8,600.8c0,0,0,4,0,3.8s16,1.5,16,1.5l18.7-19l-2.1-2.9l-17.9,18.4L106.8,600.8z"/>
				<polygon fill="#FBB040" points="112.6,620.5 124.2,611.8 145,613.9 145,616.1 124.2,615.2 113.8,623.8 				"/>
				<polygon fill="#FBB040" points="114.6,635.2 126.3,628.5 148.5,625 147.2,623.8 125.3,626 112.6,633.5 				"/>
				<polygon fill="#FBB040" points="118.5,642.2 133.3,643.5 148.5,631 148.5,633.2 133.5,646 119.8,644.8 				"/>
				<polygon fill="#FBB040" points="120,652.4 140.2,655 155.3,642.7 155.3,648.8 141.5,664.5 122.5,656.2 				"/>
				<polygon fill="#FBB040" points="63.6,625.8 79.8,623.8 98,631 96.8,634 79.6,626.5 63.6,627.8 				"/>
				<polygon fill="#FBB040" points="63.6,634 77.1,640.5 93.3,640.5 93.3,643.5 76.3,643.5 63.6,636.5 				"/>
				<polygon fill="#FBB040" points="56.7,642.7 72.1,653.8 93.3,650.2 91.6,653.6 71.4,662 56.7,646 				"/>
				<polygon fill="#FBB040" points="129.9,681.6 140.9,671.8 158.6,681.6 158.6,686.3 140.9,675.8 129.9,686.3 				"/>
				<polygon fill="#FBB040" points="59.7,679.4 59.7,675.4 71.9,671.2 85.4,679.4 85.4,683.4 71.9,674.4 				"/>
				<polygon fill="#FBB040" points="128.2,691.9 140.9,692.8 158.6,692.4 158.6,697.1 140.9,697.1 128.2,694.5 				"/>
				<polygon fill="#FBB040" points="56.9,690.9 72.5,692.2 85.4,690.9 86.4,694.8 72.5,695.9 56.9,693.4 				"/>
			</g>
			<g id="Shirt_1_">
				<polygon fill="#262262" points="78.9,495.9 75.4,512.5 75.5,521.3 80.4,532.3 82.2,553 80.9,563.6 79.9,571.5 73.5,579.8 
					91.9,589.8 120.1,589 137.8,579.2 131.9,570 130.4,562.7 128.5,553 131.5,532.3 133.6,521 133.6,512.5 128,496.8 105.2,508.1 
									"/>
				<polygon opacity="0.3" fill="#231F20" points="105.6,589.8 120.1,589 137.8,579.2 131.9,570 130.4,562.7 128.5,553 131.5,532.3 
					119.8,534.2 105.2,532.3 105.3,544.4 96.7,546 105.3,548.5 				"/>
				<polygon fill="#FBB040" points="78.1,499.8 103.6,510.5 129.6,503.5 126.7,491.5 104.6,505 79.9,491.5 				"/>
				<polygon opacity="0.1" fill="#231F20" points="78.1,499.8 103.6,510.5 129.6,503.5 126.7,491.5 104.6,505 79.9,491.5 				"/>
			</g>
			<g id="Belt_2_">
				<polygon fill="#262262" points="81.4,559.2 80.9,563.6 90.1,570.9 94.4,584.8 95.4,647.2 117.1,653.6 116.9,584.1 124.2,570.9 
					130.4,562.7 129.6,559.5 104.8,564.3 				"/>
				<polygon opacity="0.5" fill="#231F20" points="81.4,559.2 80.9,563.6 90.1,570.9 94.4,584.8 95.4,647.2 117.1,653.6 
					116.9,584.1 124.2,570.9 130.4,562.7 129.6,559.5 104.8,564.3 				"/>
				<polygon opacity="0.3" fill="#231F20" points="105,650 117.1,653.6 116.9,584.1 124.2,570.9 130.4,562.7 129.6,559.5 
					104.8,564.3 				"/>
				<polygon fill="#414042" points="129.6,555 118.6,560.5 93.1,559.5 80.9,555 79.4,563.6 94.4,567 118.7,567 131.2,562.7 				"/>
				<polygon opacity="0.1" fill="#231F20" points="129.6,555 118.6,560.5 101.9,559.8 96.7,562.9 102.6,567 118.7,567 131.2,562.7 
									"/>
				<polygon fill="#414042" points="111.5,585.8 114,559.2 106.9,559 105.3,585.1 107.9,592.3 				"/>
				<polygon opacity="0.3" fill="#231F20" points="111.5,585.8 114,559.2 106.9,559 105.3,585.1 108.6,582 				"/>
				<polygon fill="#414042" points="116,565.9 104.8,560 99.1,562.7 113.4,571.8 				"/>
				<polygon fill="#FBB040" points="103.6,557.8 94.4,562.7 104.5,570.9 107.5,568.1 99.1,562.7 106.9,559 				"/>
			</g>
			<g id="Left_Pauldron_2_">
				<polygon fill="#414042" points="128.9,488.3 136.6,488.3 148.6,496.5 151.4,507 128.9,505 				"/>
				<polygon fill="#FBB040" points="124.2,485.6 126.9,506.5 152.9,511.5 156.1,504 129.6,503.5 130.9,485 				"/>
			</g>
			<g id="Right_Pauldron_2_">
				<polygon fill="#414042" points="79.6,487.6 72.6,487.6 60.1,494.2 59,504.2 76.6,504.2 				"/>
				<polygon fill="#FBB040" points="82.6,485 78.6,505 56.9,508.1 56.9,499.8 75.9,502 76.6,485.6 				"/>
			</g>
			<g id="Left_Bracer_2_">
				<polygon fill="#414042" points="136,550.9 136.2,561.7 143.9,575 158.1,571 156.6,550.4 150.4,545.5 143.2,550.1 				"/>
				<polygon opacity="0.1" fill="#231F20" points="146.2,557.2 150.9,573.6 158.1,571 156.6,550.4 150.4,545.5 143.2,550.1 				"/>
				<polygon fill="#FBB040" points="151.7,542.8 143,549.2 133.9,548.3 134.6,551.8 143.6,551.4 152,545.5 				"/>
				<polygon fill="#FBB040" points="135.1,555 145.1,555 155,547.6 156.5,549.3 147.4,560.5 134.9,557.8 				"/>
				<polygon fill="#FBB040" points="143.2,575.2 158.5,570.9 158.5,573.6 144.2,576.3 				"/>
			</g>
			<g id="Bident_1_">
				<polygon fill="#414042" points="55.1,704 50.1,704 50.1,456.8 42.4,450.5 43.5,415 47,449 52.6,451.2 55.1,456.8 				"/>
				<polygon fill="#FBB040" points="48.7,458.8 52.6,451.2 59,449 62.1,415 62.9,451.8 55.1,456.8 48.7,466.8 				"/>
				<polygon fill="#FBB040" points="55.8,465.1 55.8,471.9 48.7,475 				"/>
			</g>
			<g id="Right_Arm_3_">
				<polygon fill="#603913" points="51.9,491 51.9,483.8 56.1,480.8 58.2,485.9 55.9,491.7 				"/>
				<polygon opacity="0.3" fill="#231F20" points="51.9,491 51.9,483.8 56.1,480.8 58.2,485.9 55.9,491.7 				"/>
				<polygon opacity="0.3" fill="#231F20" points="55.1,535.7 56.9,535.3 62,524.3 55.8,511.1 55,511.2 55.1,502.5 52.1,504 
					52.1,509.8 51.4,531.5 				"/>
				<polygon fill="#603913" points="44.1,542.8 53.9,536 60.1,524.2 52.1,509.8 52.1,504 58.2,500 58.2,495.9 59,495.2 59,491.5 
					59.8,490.4 60.1,488.3 46.9,482.3 37.9,487.6 34.2,501 36.7,508.1 30.9,532.3 				"/>
				<polygon opacity="0.1" fill="#231F20" points="44.1,542.8 53.9,536 60.1,524.2 52.1,509.8 52.1,504 58.2,500 58.2,495.9 
					59,495.2 59,491.5 59.8,490.4 60.1,488.3 56.9,489.2 56.7,492.7 54,494.5 54,499 48,504.2 43.5,505.4 48.3,506.8 50.1,526.5 
									"/>
			</g>
			<g id="Right_Bracer_2_">
				<polygon fill="#414042" points="36.7,508.1 30.9,532.3 45.5,527.6 54.7,534.2 60.1,524.2 52.1,509.8 				"/>
				<polygon opacity="0.1" fill="#231F20" points="45.9,509.1 45.9,517.5 45.5,527.6 54.7,534.2 60.1,524.2 52.1,509.8 				"/>
				<polygon fill="#FBB040" points="33,520.1 45.7,515.8 60.1,522.6 60.1,526.5 45.8,518.6 31.7,522.9 				"/>
				<polygon fill="#FBB040" points="30.9,529.1 45.3,525.2 56.9,532 54.6,536.9 45.1,529.6 30.2,532.6 				"/>
				<polygon fill="#FBB040" points="35.6,507.5 52.7,508.7 52.7,510.3 34.5,509.9 				"/>
			</g>
		</g>
	</g>
</g>
<g id="Crunch">
	<polygon id="Shadow" opacity="0.3" fill="#231F20" points="353.5,314.8 266.4,314.9 223,328 281.4,347 351.7,343 381.4,334 	"/>
	<g id="Cloak">
		<polygon fill="#594A42" points="366.5,299 353.5,304 324,296.9 308.1,301.8 276.7,296.9 260,304.3 260,230.4 267,184.5 267,112.2 
			312.1,125.8 351.7,107 354.5,201.7 366.5,262 		"/>
		<polygon opacity="0.3" fill="#231F20" points="366.5,299 353.5,304 324,296.9 308.1,301.8 276.7,296.9 260,304.3 260,230.4 
			267,184.5 267,112.2 312.1,125.8 351.7,107 354.5,201.7 366.5,262 		"/>
	</g>
	<g id="Tail_2_">
		<g id="Tail">
			<path fill="#006838" d="M324.8,220.3c0,0,15.8,67.5-53.6,67.5c-71,0-35-79.8-35-79.8s-3,56.8,26.5,56.8
				c37.2,0,38.4-44.7,38.4-44.7L324.8,220.3z"/>
		</g>
		<g id="Tail_1_" opacity="0.5">
			<path fill="#231F20" d="M324.8,220.3c0,0,15.8,67.5-53.6,67.5c-71,0-35-79.8-35-79.8s-3,56.8,26.5,56.8
				c37.2,0,38.4-44.7,38.4-44.7L324.8,220.3z"/>
		</g>
		<path opacity="0.5" fill="#231F20" d="M324.8,220.3l-24.1-1.6c0,0,16.3,59.3-43.2,59.3c-9.5,0-16.2-0.7-21-1.9
			c6.7,7,17.6,11.6,34.6,11.6C340.6,287.8,324.8,220.3,324.8,220.3z"/>
	</g>
	<g id="Fire">
		<polygon fill="#EF4136" points="252.8,96.9 262.1,88.8 269.3,70.3 282.8,59.6 289,44 280.7,34 273.4,39.3 280.7,29.7 289,33.7 
			297.7,42 300,54.3 295,64.5 312,51.7 313.5,36.3 316.6,51.3 314.3,61 333.5,43.3 336.7,31 350,25 354,14 346.7,7 357.7,11 
			358,19.3 351.7,31.3 366.5,24.5 375,16.5 371,29 358,36.9 351.7,48 342.8,59.6 351.7,54.3 367,39.5 366.6,49.3 378.2,41 387.3,25 
			387.3,37 380,49.3 393.7,42.3 403,25.7 400,20 405.7,23.3 405.7,31.7 403,46.3 397.7,57.3 403,53.3 395.3,68.6 401,65.9 388,85.5 
			378.2,86.6 368,93.2 354.5,93.3 342.8,100 321.7,100 310.9,110.8 282.8,109.6 		"/>
		<polygon fill="#F15A29" points="258.7,96.5 269,87.8 277,71.5 286.1,62.2 291.2,54 288,67 290,72.5 299.6,65.9 308.6,60 
			305.8,71.5 314.3,66.9 329.2,60.5 333.5,51 341.5,43.5 342,38.8 348.5,36.8 345.2,40.8 344.8,47.5 338.4,55 337.2,67 350.8,62.2 
			359,55.2 359,62.2 369.5,52 374.2,50 372,58.9 381.2,60.8 387,57.2 387.1,52.5 393.2,50.5 390.2,54 394.2,62.2 392.2,71.5 
			386.5,80.9 378.2,84.8 367,90.1 354.5,91 341.8,95.8 321.3,97 310.9,107 283,106.8 		"/>
		<polygon fill="#EF4136" points="331,11 324.8,15.3 321.7,22 331,16.5 		"/>
		<polygon fill="#EF4136" points="381.2,20 384.5,11.2 395.5,8 398.2,2 398.2,12.3 385.9,15.8 		"/>
		<polygon fill="#EF4136" points="258.7,70.3 262.1,59.6 272.5,54 264.7,61.5 		"/>
	</g>
	<g id="Body">
		<polygon fill="#006838" points="332.2,115.5 327.2,101.8 297.5,101.8 292.5,115.5 253,117.2 246.6,165.1 252,192.7 272.5,168 
			287.3,190 287.3,195 278.3,202.1 272.5,221.2 269.5,240.5 280.2,265.2 278.2,269.5 281.8,274.5 289.7,314.8 283.7,319.4 
			290.6,326 297.3,326 304.1,321.3 297.3,314.8 298.8,276.8 302.5,270.5 297.2,265 304.5,245.8 302.2,233.5 322.5,233.5 321,244.5 
			328.1,263.5 324.7,269.5 328.1,277.8 328.1,315.7 321,321.6 328.1,326 334.8,326 341.8,320.1 335.7,316 343.5,276.3 346.4,271.1 
			345.2,265.2 356,242 353.2,222.8 346,204.3 336.7,195 336.7,188.1 351.7,167.3 360.7,186.7 358,202.1 374.3,231.7 370.2,235.9 
			376,249.4 385,254.3 387,247.2 394.3,248.7 396,242 403,239.7 399.5,226.4 390.6,225.8 385.3,196.7 378.7,185.4 381,172 
			378.2,148.3 380.3,136.1 373.8,119.2 		"/>
		<polygon opacity="0.1" fill="#231F20" points="311.5,129.9 342.6,116.4 332.2,115.5 327.2,101.8 312.7,101.8 		"/>
		<polygon opacity="0.1" fill="#231F20" points="356,242 298.9,222.3 295,245.8 289,263.3 295,271.3 290.9,279 294,316.2 288.6,321 
			290.6,326 297.3,326 304.1,321.3 297.3,314.8 298.8,276.8 302.5,270.5 297.2,265 304.5,245.8 302.2,233.5 344.8,247.9 340,262 
			340,270.3 334.6,276 331.8,318.8 325.2,324.2 328.1,326 334.8,326 341.8,320.1 335.7,316 343.5,276.3 346.4,271.1 345.2,265.2 		
			"/>
		<polygon opacity="0.1" fill="#231F20" points="399.5,226.4 390.6,225.8 385.3,196.7 378.7,185.4 381,172 378.2,148.3 380.3,136.1 
			373.8,119.2 368,145.7 377.3,171.2 369.8,187.2 385.8,229.7 383.7,242.3 376,249.4 385,254.3 387,247.2 394.3,248.7 396,242 
			403,239.7 		"/>
		<polygon opacity="0.1" fill="#231F20" points="312.3,195 336.7,195 336.7,188.1 351.7,167.3 351.7,152 351.7,135.8 333.5,152 
			312.4,150.5 312.4,161.3 297.2,164 312.4,165.4 312.4,174.2 297.2,176.2 312.3,180 		"/>
		<polygon opacity="0.1" fill="#231F20" points="274.3,145.7 266.4,166.3 250.1,187.2 232.7,196.7 252,192.7 272.5,168 		"/>
	</g>
	<g id="Left_Foot_Claws_1_">
		<polygon fill="#C2B59B" points="287.3,320.5 281.5,318.8 276.7,333 283.7,326 		"/>
		<polygon fill="#C2B59B" points="301.8,326.1 308.3,334 306.5,320.2 301.9,322.4 		"/>
		<polygon opacity="0.1" fill="#231F20" points="287.3,320.5 281.5,318.8 276.7,333 283.7,326 		"/>
		<polygon opacity="0.1" fill="#231F20" points="301.8,326.1 308.3,334 306.5,320.2 301.9,322.4 		"/>
		<polygon fill="#C2B59B" points="288.9,319.8 283.7,322.8 285.2,331 288.5,335 290.6,326 		"/>
		<polygon fill="#C2B59B" points="299.2,320.2 297.3,326 298.5,329.3 301.8,334.5 304.1,324.5 		"/>
		<polygon fill="#C2B59B" points="292.5,320.2 290.6,326 291.8,329.3 295.1,334.5 297.3,326 		"/>
	</g>
	<g id="Left_Foot_Claws">
		<polygon fill="#C2B59B" points="338.1,320.5 344.3,319.8 348,333 341.8,326 		"/>
		<polygon fill="#C2B59B" points="323.7,326.1 316.7,333 318.9,321 323.6,322.4 		"/>
		<polygon opacity="0.1" fill="#231F20" points="338.1,320.5 344.3,319.8 348,333 341.8,326 		"/>
		<polygon opacity="0.1" fill="#231F20" points="323.7,326.1 316.7,333 318.9,321 323.6,322.4 		"/>
		<polygon fill="#C2B59B" points="336.8,320.2 341.8,321.5 340.5,329.7 337.8,334 334.3,325.9 		"/>
		<polygon fill="#C2B59B" points="326.4,321 328.1,326 327.5,329.3 323.7,334.5 322.3,323.1 		"/>
		<polygon fill="#C2B59B" points="332.9,320.2 334.3,325.9 333.7,329.3 330.7,334 328.1,326 		"/>
	</g>
	<g id="Left_Hand_Claws">
		<polygon fill="#C2B59B" points="383.9,251.2 377.9,248.5 375,242.6 376.5,235.2 383.9,242 		"/>
		<polygon fill="#C2B59B" points="398.9,238.9 394.5,240.3 391.1,232.9 391.8,227.1 398.2,233.5 		"/>
		<polygon fill="#C2B59B" points="393.2,245.8 383.9,242 383.2,235.2 384.8,230.4 394.5,240.3 		"/>
		<polygon opacity="0.1" fill="#231F20" points="383.9,251.2 377.9,248.5 375,242.6 376.5,235.2 383.9,242 		"/>
		<polygon opacity="0.1" fill="#231F20" points="398.9,238.9 394.5,240.3 391.1,232.9 391.8,227.1 398.2,233.5 		"/>
		<polygon opacity="0.1" fill="#231F20" points="393.2,245.8 383.9,242 383.2,235.2 384.8,230.4 394.5,240.3 		"/>
		<polygon fill="#C2B59B" points="396,235.2 388.2,238.4 381.4,237.4 388.9,229.2 398,228.2 		"/>
	</g>
	<g id="Harness">
		<polygon fill="#3C2415" points="274,145.7 272.5,168 312.7,142.1 325.2,135.8 351.7,152 351.7,146.4 332,132.3 344,126.3 
			351.7,112.2 331,112.2 312.4,120.5 284.8,138.6 277.2,130.9 272.5,133.4 277.6,143.3 		"/>
		<polygon opacity="0.3" fill="#231F20" points="312.7,142.1 325.2,135.8 351.7,152 351.7,146.4 332,132.3 344,126.3 351.7,112.2 
			331,112.2 312.4,120.5 293.9,132.6 292.7,143.7 301.5,149.3 		"/>
		<polygon fill="#A7A9AC" points="308.9,122.8 299.6,127.7 308.9,145.5 316.6,140.1 308.1,150.8 295,125.8 		"/>
	</g>
	<g id="Left_Pauldron">
		<polygon fill="#939598" points="382,134 361.8,132.1 339,121.6 340.2,113.6 338.4,107 360,104.2 381.7,107.8 383.2,114.7 		"/>
		<polygon fill="#BCBEC0" points="382.1,138.9 359,137 334.8,124 336.5,115.7 334.8,107 338,105.6 340.2,113.6 339,121.6 
			361.8,132.1 383.2,134 		"/>
	</g>
	<g id="Right_Pauldron">
		<polygon fill="#939598" points="244.2,133.8 264.5,132.1 284.8,121.6 284.8,115.5 286.1,107.2 264.8,104.2 243.1,107.8 
			241.6,114.7 		"/>
		<polygon fill="#BCBEC0" points="243.1,139 265.8,137 290,124 288.3,115.7 290,105.6 286.3,105.6 284.8,115.5 284.8,121.6 
			264.5,132.1 242.8,134 		"/>
	</g>
	<g id="Right_Arm_1_">
		<polygon opacity="0.1" fill="#231F20" points="254.1,153.6 251.3,178.5 262.1,155 256.5,105.6 243.5,108.6 		"/>
		<polygon id="Right_Arm" fill="#006838" points="223,174.2 232.7,196.7 252,192.7 256.3,153.6 248,121.6 251,118 249.8,105.4 
			238.2,100 235.3,104.2 231,101.8 227,106.6 221.2,105.6 223,119.3 229,121.6 		"/>
	</g>
	<g id="Sword">
		<polygon fill="#D1D3D4" points="255,105.8 257.4,114.9 376.4,82.6 385.8,70.3 		"/>
		<polygon fill="#E6E7E8" points="252.4,96.1 255,105.8 385.8,70.4 368.7,64.7 		"/>
		<path fill="#414042" d="M244.7,87.2l4.9-1.3l10.4,38.6l-4.9,1.3l-4.3-16.2l-29.1,7.5c-0.5,1-1.4,1.9-2.6,2.2
			c-2.1,0.6-4.3-0.7-4.9-2.8c-0.6-2.1,0.7-4.3,2.8-4.9c1.2-0.3,2.4,0,3.3,0.6l29.1-7.5L244.7,87.2z"/>
	</g>
	<g id="Right_Hand_Claws">
		<polygon fill="#C2B59B" points="223,107 224,112.8 225.8,117.4 232,120.2 230.4,112.2 228.2,108.6 		"/>
		<polygon opacity="0.1" fill="#231F20" points="223,107 224,112.8 225.8,117.4 232,120.2 230.4,112.2 228.2,108.6 		"/>
		<polygon fill="#C2B59B" points="238.7,102.6 236.5,107 238.2,112.6 243.5,116.3 244.2,106 		"/>
		<polygon fill="#C2B59B" points="231.5,104.2 230.4,112.2 232,115.3 236.5,117.4 236.5,107 		"/>
		<polygon opacity="0.1" fill="#231F20" points="238.7,102.6 236.5,107 238.2,112.6 243.5,116.3 244.2,106 		"/>
		<polygon opacity="0.1" fill="#231F20" points="231.5,104.2 230.4,112.2 232,115.3 236.5,117.4 236.5,107 		"/>
		<polygon fill="#C2B59B" points="241.4,107.9 233.4,113.1 231.5,117.9 242.2,117.4 248.6,112.2 		"/>
	</g>
	<g id="Right_Bracer">
		<polygon fill="#BCBEC0" points="227.8,124.3 248.6,121.6 250.1,126.5 226.1,142.1 		"/>
		<polygon fill="#939598" points="226.7,141.3 223.9,166.3 255.5,161.4 256.3,153.6 249.4,127 		"/>
		<polygon opacity="0.1" fill="#231F20" points="237,134.8 244.2,152.7 244.2,163.1 255.5,161.4 256.3,153.6 249.4,127 		"/>
		<polygon fill="#BCBEC0" points="222.4,174.2 255.3,166.9 256,161.3 223.4,166.3 		"/>
	</g>
	<g id="Left_Bracer">
		<polygon fill="#BCBEC0" points="359,190.5 381.3,188.1 383.9,192.3 358,195 		"/>
		<polygon fill="#BCBEC0" points="391.1,222.7 373.7,232.3 371.5,228.2 388,205.1 		"/>
		<polygon fill="#939598" points="359.3,194.9 358,202.1 372,227.5 387.1,206.3 385.3,196.7 382.7,192.3 		"/>
		<polygon opacity="0.1" fill="#231F20" points="372.5,193.5 379,202.5 376.7,221 387.1,206.3 385.3,196.7 382.7,192.3 		"/>
	</g>
	<g id="Head">
		<polygon opacity="0.1" fill="#231F20" points="329.8,108.6 321.7,107.3 312.5,112.2 303.2,107.3 295,108.6 297.5,101.8 
			327.2,101.8 		"/>
		<path fill="#006838" d="M317.7,68.9l-5.2-3l-5.2,3c0,0-22.5-3-22.5,10.6l12.5,13.2l5,0.6l5.5-7.2l4.7,2.5l4.7-2.5l5.5,7.2l5-0.6
			l12.5-13.2C340.2,65.9,317.7,68.9,317.7,68.9z"/>
		<path opacity="0.1" fill="#231F20" d="M317.7,68.9l3.3,8.4l-6.7,5.3l-1.8,5.9l-4.7-2.5l4.7,2.5l4.7-2.5l5.5,7.2l5-0.6l12.5-13.2
			C340.2,65.9,317.7,68.9,317.7,68.9z"/>
		<polygon fill="#2BB673" points="354.5,71.5 340.2,79.5 327.7,92.6 322.7,93.2 317.2,86 312.5,88.5 307.8,86 302.3,93.2 
			297.3,92.6 284.8,79.5 272.5,71.5 282.7,85.5 276.5,93.2 290.6,98.4 296.9,106 303.2,103.8 312.5,108.6 321.5,103.5 328.1,106 
			334.4,98.4 348.6,91.1 342.3,85.5 		"/>
		<polygon opacity="0.1" fill="#231F20" points="354.5,71.5 340.2,79.5 327.7,92.6 322.7,93.2 317.2,86 312.5,88.5 317.3,100 
			312.5,108.6 321.5,103.5 328.1,106 334.4,98.4 348.6,91.1 342.3,85.5 		"/>
		<polygon opacity="0.3" fill="#231F20" points="306.3,90.1 308.3,87.5 310.9,89.7 308.5,88.8 		"/>
		<polygon opacity="0.3" fill="#231F20" points="318.8,90.1 316.8,87.5 314.3,89.7 316.7,88.8 		"/>
		<polygon fill="#F9ED32" points="292.8,78.3 300,81.6 300.8,90.1 292.8,85.6 		"/>
		<polygon fill="#3C2415" points="296.8,80.1 297.7,84.2 296.8,87.8 296,84.2 		"/>
		<polygon fill="#F9ED32" points="331,78.3 323.7,81.6 323,90.1 331,85.6 		"/>
		<polygon fill="#3C2415" points="327,80.1 326.1,84.2 327,87.8 327.7,84.2 		"/>
		<polygon fill="#C2B59B" points="299.6,98 304.8,98 302.6,105.8 		"/>
	</g>
	<g id="Pants">
		<polygon opacity="0.1" fill="#231F20" points="348.2,258.9 354.5,226.2 346,209.3 338.4,201.7 316,202 314.2,208.6 316.5,222.6 
			325.8,247.8 342.1,262.2 346.1,263.3 		"/>
		<polygon opacity="0.1" fill="#231F20" points="283.7,202.9 278.3,207.1 270,226.2 277.4,258.7 279.3,263.1 283.7,261.8 
			298.1,249.6 307.2,224.4 307.2,209.4 305.2,202.4 		"/>
		<polygon opacity="0.3" fill="#231F20" points="295.1,202.6 289,250.8 298.8,252.9 302.1,252.1 304.2,246.7 311.2,227.4 322,247.3 
			324.1,252.9 324.8,252.9 334.8,250.8 327.5,201.7 		"/>
		<polygon fill="#3C2415" points="307.6,241.9 315.4,241.9 310.9,233.1 		"/>
		<polygon opacity="0.3" fill="#231F20" points="307.6,241.9 315.4,241.9 310.9,233.1 		"/>
		<polygon fill="#3C2415" points="295.1,197.6 289,245.8 298.8,247.9 307.8,245.8 311,237 315,245.8 324.8,247.9 334.8,245.8 
			327.5,196.7 		"/>
		<polygon opacity="0.1" fill="#231F20" points="311,237 315,245.8 324.8,247.9 334.8,245.8 327.5,196.7 311.5,197.2 		"/>
		<polygon fill="#594A42" points="283.7,197.9 278.3,202.1 270,221.2 267,262 283.7,256.8 298.1,244.6 307.2,219.4 307.2,204.4 
			305.2,197.4 		"/>
		<polygon fill="#594A42" points="359.8,262 354.5,221.2 346,204.3 338.4,196.7 316,197 314.2,203.6 316.5,217.6 325.8,242.8 
			342.1,257.2 		"/>
		<polygon opacity="0.1" fill="#231F20" points="359.8,262 354.5,221.2 346,204.3 338.4,196.7 316,197 314.2,203.6 316.5,217.6 
			325.8,242.8 342.1,257.2 		"/>
		<polygon fill="#594A42" points="267,262 278.6,261.4 277.4,258.7 		"/>
		<polygon opacity="0.1" fill="#231F20" points="267,262 278.6,261.4 277.4,258.7 		"/>
		<polygon fill="#594A42" points="359.8,262 348.2,258.9 347.2,261 		"/>
		<polygon opacity="0.1" fill="#231F20" points="359.8,262 348.2,258.9 347.2,261 		"/>
	</g>
	<g id="Belt">
		<polygon fill="#3C2415" points="285,189.8 338.4,188.1 338.4,196.7 283.7,197.9 		"/>
		<polygon opacity="0.3" fill="#231F20" points="305.8,189.1 338.4,188.1 338.4,196.7 303.9,197.4 300.8,192.3 		"/>
		<polygon fill="#A7A9AC" points="314.5,188.8 308.5,188.6 308.4,197.4 314.5,197.1 307.2,198.9 307.2,187.2 		"/>
	</g>
	<g id="Left_Greaves">
		<polygon fill="#939598" points="335.5,279 326.2,284 327,310.8 331.2,314.8 337,311.5 343.1,285.1 		"/>
		<polygon opacity="0.1" fill="#231F20" points="335.5,279 331.2,314.8 337,311.5 343.1,285.1 		"/>
		<polygon fill="#BCBEC0" points="335.6,276 344.8,284.1 344.1,286 341.1,283.6 334.8,286.5 329,282.5 325.2,284.5 324.8,282 		"/>
		<polygon fill="#BCBEC0" points="326.5,310.4 331.2,314.8 337.5,311.2 337.5,312.8 331.2,316.2 326.1,311.9 		"/>
	</g>
	<g id="Right_Greaves">
		<polygon fill="#BCBEC0" points="290.6,276.5 281.4,282.5 281.8,285.2 283.6,283.8 285.8,282 290.6,284.8 295.8,281.2 299.7,284 
			300.2,281.7 		"/>
		<polygon fill="#BCBEC0" points="287,310.8 294,312.6 299.2,310.2 299.2,307.9 294,311.2 287,309.5 		"/>
		<polygon fill="#939598" points="282.8,284.4 285.8,282 290.6,284.8 295.8,281.2 298.9,283.5 298.4,308.5 294,311.2 287.7,309.7 		
			"/>
		<polygon opacity="0.1" fill="#231F20" points="290.6,284.8 295.8,281.2 298.9,283.5 298.4,308.5 294,311.2 		"/>
	</g>
</g>
<g id="Crunch_Headshot">
	<circle opacity="0.1" fill="#231F20" cx="310" cy="485" r="75"/>
	<g>
		<defs>
			<path id="SVGID_3_" d="M379.3,456.2l3.6-4.8l-7.1-2.4c-12.7-23.3-37.4-39-65.8-39c-41.4,0-75,33.6-75,75c0,41.4,33.6,75,75,75
				s75-33.6,75-75C385,474.8,383,465.1,379.3,456.2z"/>
		</defs>
		<clipPath id="SVGID_4_">
			<use xlink:href="#SVGID_3_"  overflow="visible"/>
		</clipPath>
		<g clip-path="url(#SVGID_4_)">
			<polygon id="Shadow_2_" opacity="0.3" fill="#231F20" points="350.6,695.8 263.5,695.9 220.1,709 278.5,728 348.8,724 378.5,715 
							"/>
			<g id="Cloak_1_">
				<polygon fill="#594A42" points="363.6,680 350.6,685 321.1,677.9 305.2,682.8 273.8,677.9 257.1,685.3 257.1,611.4 264.1,565.5 
					264.1,493.2 309.2,506.8 348.8,488 351.6,582.7 363.6,643 				"/>
				<polygon opacity="0.3" fill="#231F20" points="363.6,680 350.6,685 321.1,677.9 305.2,682.8 273.8,677.9 257.1,685.3 
					257.1,611.4 264.1,565.5 264.1,493.2 309.2,506.8 348.8,488 351.6,582.7 363.6,643 				"/>
			</g>
			<g id="Tail_3_">
				<g id="Tail_5_">
					<path fill="#006838" d="M321.9,601.3c0,0,15.8,67.5-53.6,67.5c-71,0-35-79.8-35-79.8s-3,56.8,26.5,56.8
						c37.2,0,38.4-44.7,38.4-44.7L321.9,601.3z"/>
				</g>
				<g id="Tail_4_" opacity="0.5">
					<path fill="#231F20" d="M321.9,601.3c0,0,15.8,67.5-53.6,67.5c-71,0-35-79.8-35-79.8s-3,56.8,26.5,56.8
						c37.2,0,38.4-44.7,38.4-44.7L321.9,601.3z"/>
				</g>
				<path opacity="0.5" fill="#231F20" d="M321.9,601.3l-24.1-1.6c0,0,16.3,59.3-43.2,59.3c-9.5,0-16.2-0.7-21-1.9
					c6.7,7,17.6,11.6,34.6,11.6C337.7,668.8,321.9,601.3,321.9,601.3z"/>
			</g>
			<g id="Fire_1_">
				<polygon fill="#EF4136" points="249.9,477.9 259.2,469.8 266.5,451.3 279.9,440.6 286.1,425 277.8,415 270.5,420.3 277.8,410.7 
					286.1,414.7 294.8,423 297.1,435.3 292.1,445.5 309.1,432.7 310.6,417.3 313.7,432.3 311.4,442 330.6,424.3 333.8,412 
					347.1,406 351.1,395 343.8,388 354.8,392 355.1,400.3 348.8,412.3 363.6,405.5 372.1,397.5 368.1,410 355.1,417.9 348.8,429 
					339.9,440.6 348.8,435.3 364.1,420.5 363.7,430.3 375.3,422 384.5,406 384.5,418 377.1,430.3 390.8,423.3 400.1,406.7 
					397.1,401 402.8,404.3 402.8,412.7 400.1,427.3 394.8,438.3 400.1,434.3 392.5,449.6 398.1,446.9 385.1,466.5 375.3,467.6 
					365.1,474.2 351.6,474.3 339.9,481 318.8,481 308.1,491.8 279.9,490.6 				"/>
				<polygon fill="#F15A29" points="255.8,477.5 266.1,468.8 274.1,452.5 283.2,443.2 288.4,435 285.1,448 287.1,453.5 296.7,446.9 
					305.8,441 303,452.5 311.4,447.9 326.4,441.5 330.6,432 338.6,424.5 339.1,419.8 345.6,417.8 342.4,421.8 341.9,428.5 
					335.5,436 334.4,448 347.9,443.2 356.1,436.2 356.1,443.2 366.6,433 371.4,431 369.1,439.9 378.3,441.8 384.1,438.2 
					384.2,433.5 390.4,431.5 387.4,435 391.4,443.2 389.4,452.5 383.6,461.9 375.4,465.8 364.1,471.1 351.6,472 338.9,476.8 
					318.5,478 308.1,488 280.1,487.8 				"/>
				<polygon fill="#EF4136" points="328.1,392 321.9,396.3 318.8,403 328.1,397.5 				"/>
				<polygon fill="#EF4136" points="378.3,401 381.6,392.2 392.7,389 395.3,383 395.3,393.3 383,396.8 				"/>
				<polygon fill="#EF4136" points="255.8,451.3 259.2,440.6 269.6,435 261.9,442.5 				"/>
			</g>
			<g id="Body_3_">
				<polygon fill="#006838" points="329.4,496.5 324.4,482.8 294.6,482.8 289.6,496.5 250.1,498.2 243.7,546.1 249.1,573.7 
					269.6,549 284.5,571 284.5,576 275.5,583.1 269.6,602.2 266.6,621.5 277.4,646.2 275.4,650.5 278.9,655.5 286.8,695.8 
					280.8,700.4 287.7,707 294.5,707 301.2,702.3 294.5,695.8 295.9,657.8 299.6,651.5 294.4,646 301.6,626.8 299.4,614.5 
					319.6,614.5 318.1,625.5 325.2,644.5 321.9,650.5 325.2,658.8 325.2,696.7 318.1,702.6 325.2,707 332,707 338.9,701.1 
					332.8,697 340.6,657.3 343.5,652.1 342.3,646.2 353.1,623 350.3,603.8 343.1,585.3 333.8,576 333.8,569.1 348.8,548.3 
					357.8,567.7 355.1,583.1 371.5,612.7 367.4,616.9 373.1,630.4 382.1,635.3 384.1,628.2 391.5,629.7 393.1,623 400.1,620.7 
					396.6,607.4 387.7,606.8 382.5,577.7 375.8,566.4 378.1,553 375.3,529.3 377.5,517.1 370.9,500.2 				"/>
				<polygon opacity="0.1" fill="#231F20" points="308.6,510.9 339.8,497.4 329.4,496.5 324.4,482.8 309.9,482.8 				"/>
				<polygon opacity="0.1" fill="#231F20" points="353.1,623 296.1,603.3 292.1,626.8 286.1,644.3 292.1,652.3 288,660 291.1,697.2 
					285.8,702 287.7,707 294.5,707 301.2,702.3 294.5,695.8 295.9,657.8 299.6,651.5 294.4,646 301.6,626.8 299.4,614.5 
					341.9,628.9 337.1,643 337.1,651.3 331.8,657 328.9,699.8 322.4,705.2 325.2,707 332,707 338.9,701.1 332.8,697 340.6,657.3 
					343.5,652.1 342.3,646.2 				"/>
				<polygon opacity="0.1" fill="#231F20" points="396.6,607.4 387.7,606.8 382.5,577.7 375.8,566.4 378.1,553 375.3,529.3 
					377.5,517.1 370.9,500.2 365.1,526.7 374.5,552.2 367,568.2 382.9,610.7 380.8,623.3 373.1,630.4 382.1,635.3 384.1,628.2 
					391.5,629.7 393.1,623 400.1,620.7 				"/>
				<polygon opacity="0.1" fill="#231F20" points="309.5,576 333.8,576 333.8,569.1 348.8,548.3 348.8,533 348.8,516.8 330.6,533 
					309.5,531.5 309.5,542.3 294.4,545 309.5,546.4 309.5,555.2 294.4,557.2 309.5,561 				"/>
				<polygon opacity="0.1" fill="#231F20" points="271.5,526.7 263.5,547.3 247.2,568.2 229.8,577.7 249.1,573.7 269.6,549 				"/>
			</g>
			<g id="Left_Foot_Claws_3_">
				<polygon fill="#C2B59B" points="284.5,701.5 278.6,699.8 273.8,714 280.8,707 				"/>
				<polygon fill="#C2B59B" points="298.9,707.1 305.5,715 303.6,701.2 299,703.4 				"/>
				<polygon opacity="0.1" fill="#231F20" points="284.5,701.5 278.6,699.8 273.8,714 280.8,707 				"/>
				<polygon opacity="0.1" fill="#231F20" points="298.9,707.1 305.5,715 303.6,701.2 299,703.4 				"/>
				<polygon fill="#C2B59B" points="286,700.8 280.8,703.8 282.3,712 285.6,716 287.7,707 				"/>
				<polygon fill="#C2B59B" points="296.4,701.2 294.5,707 295.6,710.3 298.9,715.5 301.2,705.5 				"/>
				<polygon fill="#C2B59B" points="289.6,701.2 287.7,707 288.9,710.3 292.2,715.5 294.5,707 				"/>
			</g>
			<g id="Left_Foot_Claws_2_">
				<polygon fill="#C2B59B" points="335.3,701.5 341.4,700.8 345.1,714 338.9,707 				"/>
				<polygon fill="#C2B59B" points="320.8,707.1 313.8,714 316,702 320.7,703.4 				"/>
				<polygon opacity="0.1" fill="#231F20" points="335.3,701.5 341.4,700.8 345.1,714 338.9,707 				"/>
				<polygon opacity="0.1" fill="#231F20" points="320.8,707.1 313.8,714 316,702 320.7,703.4 				"/>
				<polygon fill="#C2B59B" points="334,701.2 338.9,702.5 337.6,710.7 334.9,715 331.5,706.9 				"/>
				<polygon fill="#C2B59B" points="323.6,702 325.2,707 324.6,710.3 320.8,715.5 319.5,704.1 				"/>
				<polygon fill="#C2B59B" points="330.1,701.2 331.5,706.9 330.8,710.3 327.9,715 325.2,707 				"/>
			</g>
			<g id="Left_Hand_Claws_1_">
				<polygon fill="#C2B59B" points="381.1,632.2 375,629.5 372.1,623.6 373.6,616.2 381.1,623 				"/>
				<polygon fill="#C2B59B" points="396,619.9 391.6,621.3 388.2,613.9 389,608.1 395.4,614.5 				"/>
				<polygon fill="#C2B59B" points="390.4,626.8 381.1,623 380.4,616.2 381.9,611.4 391.6,621.3 				"/>
				<polygon opacity="0.1" fill="#231F20" points="381.1,632.2 375,629.5 372.1,623.6 373.6,616.2 381.1,623 				"/>
				<polygon opacity="0.1" fill="#231F20" points="396,619.9 391.6,621.3 388.2,613.9 389,608.1 395.4,614.5 				"/>
				<polygon opacity="0.1" fill="#231F20" points="390.4,626.8 381.1,623 380.4,616.2 381.9,611.4 391.6,621.3 				"/>
				<polygon fill="#C2B59B" points="393.1,616.2 385.3,619.4 378.5,618.4 386,610.2 395.2,609.2 				"/>
			</g>
			<g id="Harness_1_">
				<polygon fill="#3C2415" points="271.1,526.7 269.6,549 309.9,523.1 322.4,516.8 348.8,533 348.8,527.4 329.2,513.3 341.1,507.3 
					348.8,493.2 328.2,493.2 309.5,501.5 281.9,519.6 274.3,511.9 269.6,514.4 274.7,524.3 				"/>
				<polygon opacity="0.3" fill="#231F20" points="309.9,523.1 322.4,516.8 348.8,533 348.8,527.4 329.2,513.3 341.1,507.3 
					348.8,493.2 328.2,493.2 309.5,501.5 291,513.6 289.8,524.7 298.7,530.3 				"/>
				<polygon fill="#A7A9AC" points="306,503.8 296.7,508.7 306,526.5 313.8,521.1 305.2,531.8 292.1,506.8 				"/>
			</g>
			<g id="Left_Pauldron_3_">
				<polygon fill="#939598" points="379.1,515 358.9,513.1 336.1,502.6 337.3,494.6 335.5,488 357.1,485.2 378.8,488.8 380.3,495.7 
									"/>
				<polygon fill="#BCBEC0" points="379.3,519.9 356.1,518 331.9,505 333.6,496.7 331.9,488 335.1,486.6 337.3,494.6 336.1,502.6 
					358.9,513.1 380.3,515 				"/>
			</g>
			<g id="Right_Pauldron_3_">
				<polygon fill="#939598" points="241.3,514.8 261.6,513.1 281.9,502.6 281.9,496.5 283.2,488.2 262,485.2 240.2,488.8 
					238.7,495.7 				"/>
				<polygon fill="#BCBEC0" points="240.2,520 262.9,518 287.1,505 285.5,496.7 287.1,486.6 283.5,486.6 281.9,496.5 281.9,502.6 
					261.6,513.1 239.9,515 				"/>
			</g>
			<g id="Right_Arm_4_">
				<polygon opacity="0.1" fill="#231F20" points="251.2,534.6 248.5,559.5 259.2,536 253.7,486.6 240.6,489.6 				"/>
				<polygon id="Right_Arm_5_" fill="#006838" points="220.1,555.2 229.8,577.7 249.1,573.7 253.5,534.6 245.1,502.6 248.1,499 
					246.9,486.4 235.3,481 232.5,485.2 228.1,482.8 224.1,487.6 218.4,486.6 220.1,500.3 226.1,502.6 				"/>
			</g>
			<g id="Sword_1_">
				<polygon fill="#D1D3D4" points="252.1,486.8 254.6,495.9 373.6,463.6 382.9,451.3 				"/>
				<polygon fill="#E6E7E8" points="249.5,477.1 252.1,486.8 382.9,451.4 365.8,445.7 				"/>
				<path fill="#414042" d="M241.9,468.2l4.9-1.3l10.4,38.6l-4.9,1.3l-4.3-16.2l-29.1,7.5c-0.5,1-1.4,1.9-2.6,2.2
					c-2.1,0.6-4.3-0.7-4.9-2.8c-0.6-2.1,0.7-4.3,2.8-4.9c1.2-0.3,2.4,0,3.3,0.6l29.1-7.5L241.9,468.2z"/>
			</g>
			<g id="Right_Hand_Claws_1_">
				<polygon fill="#C2B59B" points="220.1,488 221.1,493.8 222.9,498.4 229.1,501.2 227.5,493.2 225.3,489.6 				"/>
				<polygon opacity="0.1" fill="#231F20" points="220.1,488 221.1,493.8 222.9,498.4 229.1,501.2 227.5,493.2 225.3,489.6 				"/>
				<polygon fill="#C2B59B" points="235.9,483.6 233.6,488 235.3,493.6 240.6,497.3 241.3,487 				"/>
				<polygon fill="#C2B59B" points="228.6,485.2 227.5,493.2 229.1,496.3 233.6,498.4 233.6,488 				"/>
				<polygon opacity="0.1" fill="#231F20" points="235.9,483.6 233.6,488 235.3,493.6 240.6,497.3 241.3,487 				"/>
				<polygon opacity="0.1" fill="#231F20" points="228.6,485.2 227.5,493.2 229.1,496.3 233.6,498.4 233.6,488 				"/>
				<polygon fill="#C2B59B" points="238.5,488.9 230.6,494.1 228.7,498.9 239.4,498.4 245.8,493.2 				"/>
			</g>
			<g id="Right_Bracer_3_">
				<polygon fill="#BCBEC0" points="224.9,505.3 245.7,502.6 247.2,507.5 223.3,523.1 				"/>
				<polygon fill="#939598" points="223.9,522.3 221,547.3 252.6,542.4 253.5,534.6 246.5,508 				"/>
				<polygon opacity="0.1" fill="#231F20" points="234.2,515.8 241.3,533.7 241.3,544.1 252.6,542.4 253.5,534.6 246.5,508 				"/>
				<polygon fill="#BCBEC0" points="219.6,555.2 252.5,547.9 253.1,542.3 220.6,547.3 				"/>
			</g>
			<g id="Left_Bracer_3_">
				<polygon fill="#BCBEC0" points="356.1,571.5 378.4,569.1 381.1,573.3 355.1,576 				"/>
				<polygon fill="#BCBEC0" points="388.2,603.7 370.8,613.3 368.6,609.2 385.1,586.1 				"/>
				<polygon fill="#939598" points="356.4,575.9 355.1,583.1 369.1,608.5 384.2,587.3 382.5,577.7 379.9,573.3 				"/>
				<polygon opacity="0.1" fill="#231F20" points="369.7,574.5 376.1,583.5 373.8,602 384.2,587.3 382.5,577.7 379.9,573.3 				"/>
			</g>
			<g id="Head_3_">
				<polygon opacity="0.1" fill="#231F20" points="326.9,489.6 318.8,488.3 309.6,493.2 300.3,488.3 292.1,489.6 294.6,482.8 
					324.4,482.8 				"/>
				<path fill="#006838" d="M314.9,449.9l-5.2-3l-5.2,3c0,0-22.5-3-22.5,10.6l12.5,13.2l5,0.6l5.5-7.2l4.7,2.5l4.7-2.5l5.5,7.2
					l5-0.6l12.5-13.2C337.3,446.9,314.9,449.9,314.9,449.9z"/>
				<path opacity="0.1" fill="#231F20" d="M314.9,449.9l3.3,8.4l-6.7,5.3l-1.8,5.9l-4.7-2.5l4.7,2.5l4.7-2.5l5.5,7.2l5-0.6
					l12.5-13.2C337.3,446.9,314.9,449.9,314.9,449.9z"/>
				<polygon fill="#2BB673" points="351.6,452.5 337.3,460.5 324.8,473.6 319.8,474.2 314.3,467 309.6,469.5 304.9,467 299.4,474.2 
					294.5,473.6 281.9,460.5 269.6,452.5 279.8,466.5 273.6,474.2 287.7,479.4 294,487 300.4,484.8 309.6,489.6 318.6,484.5 
					325.2,487 331.6,479.4 345.8,472.1 339.4,466.5 				"/>
				<polygon opacity="0.1" fill="#231F20" points="351.6,452.5 337.3,460.5 324.8,473.6 319.8,474.2 314.3,467 309.6,469.5 
					314.5,481 309.6,489.6 318.6,484.5 325.2,487 331.6,479.4 345.8,472.1 339.4,466.5 				"/>
				<polygon opacity="0.3" fill="#231F20" points="303.5,471.1 305.5,468.5 308.1,470.7 305.6,469.8 				"/>
				<polygon opacity="0.3" fill="#231F20" points="316,471.1 314,468.5 311.4,470.7 313.9,469.8 				"/>
				<polygon fill="#F9ED32" points="289.9,459.3 297.1,462.6 297.9,471.1 289.9,466.6 				"/>
				<polygon fill="#3C2415" points="293.9,461.1 294.8,465.2 293.9,468.8 293.1,465.2 				"/>
				<polygon fill="#F9ED32" points="328.1,459.3 320.9,462.6 320.1,471.1 328.1,466.6 				"/>
				<polygon fill="#3C2415" points="324.1,461.1 323.2,465.2 324.1,468.8 324.9,465.2 				"/>
				<polygon fill="#C2B59B" points="296.7,479 301.9,479 299.8,486.8 				"/>
			</g>
			<g id="Pants_1_">
				<polygon opacity="0.1" fill="#231F20" points="345.3,639.9 351.6,607.2 343.1,590.3 335.5,582.7 313.1,583 311.3,589.6 
					313.6,603.6 322.9,628.8 339.3,643.2 343.2,644.3 				"/>
				<polygon opacity="0.1" fill="#231F20" points="280.8,583.9 275.5,588.1 267.1,607.2 274.6,639.7 276.5,644.1 280.8,642.8 
					295.3,630.6 304.4,605.4 304.4,590.4 302.4,583.4 				"/>
				<polygon opacity="0.3" fill="#231F20" points="292.3,583.6 286.1,631.8 295.9,633.9 299.2,633.1 301.3,627.7 308.4,608.4 
					319.1,628.3 321.2,633.9 321.9,633.9 331.9,631.8 324.6,582.7 				"/>
				<polygon fill="#3C2415" points="304.7,622.9 312.6,622.9 308.1,614.1 				"/>
				<polygon opacity="0.3" fill="#231F20" points="304.7,622.9 312.6,622.9 308.1,614.1 				"/>
				<polygon fill="#3C2415" points="292.3,578.6 286.1,626.8 295.9,628.9 304.9,626.8 308.2,618 312.1,626.8 321.9,628.9 
					331.9,626.8 324.6,577.7 				"/>
				<polygon opacity="0.1" fill="#231F20" points="308.2,618 312.1,626.8 321.9,628.9 331.9,626.8 324.6,577.7 308.6,578.2 				"/>
				<polygon fill="#594A42" points="280.8,578.9 275.5,583.1 267.1,602.2 264.1,643 280.8,637.8 295.3,625.6 304.4,600.4 
					304.4,585.4 302.4,578.4 				"/>
				<polygon fill="#594A42" points="356.9,643 351.6,602.2 343.1,585.3 335.5,577.7 313.1,578 311.3,584.6 313.6,598.6 322.9,623.8 
					339.3,638.2 				"/>
				<polygon opacity="0.1" fill="#231F20" points="356.9,643 351.6,602.2 343.1,585.3 335.5,577.7 313.1,578 311.3,584.6 
					313.6,598.6 322.9,623.8 339.3,638.2 				"/>
				<polygon fill="#594A42" points="264.1,643 275.7,642.4 274.6,639.7 				"/>
				<polygon opacity="0.1" fill="#231F20" points="264.1,643 275.7,642.4 274.6,639.7 				"/>
				<polygon fill="#594A42" points="356.9,643 345.3,639.9 344.3,642 				"/>
				<polygon opacity="0.1" fill="#231F20" points="356.9,643 345.3,639.9 344.3,642 				"/>
			</g>
			<g id="Belt_3_">
				<polygon fill="#3C2415" points="282.1,570.8 335.5,569.1 335.5,577.7 280.8,578.9 				"/>
				<polygon opacity="0.3" fill="#231F20" points="303,570.1 335.5,569.1 335.5,577.7 301,578.4 297.9,573.3 				"/>
				<polygon fill="#A7A9AC" points="311.6,569.8 305.7,569.6 305.6,578.4 311.6,578.1 304.4,579.9 304.4,568.2 				"/>
			</g>
			<g id="Left_Greaves_1_">
				<polygon fill="#939598" points="332.6,660 323.3,665 324.2,691.8 328.4,695.8 334.2,692.5 340.2,666.1 				"/>
				<polygon opacity="0.1" fill="#231F20" points="332.6,660 328.4,695.8 334.2,692.5 340.2,666.1 				"/>
				<polygon fill="#BCBEC0" points="332.8,657 341.9,665.1 341.3,667 338.2,664.6 331.9,667.5 326.1,663.5 322.4,665.5 321.9,663 
									"/>
				<polygon fill="#BCBEC0" points="323.7,691.4 328.4,695.8 334.6,692.2 334.6,693.8 328.4,697.2 323.2,692.9 				"/>
			</g>
			<g id="Right_Greaves_1_">
				<polygon fill="#BCBEC0" points="287.7,657.5 278.5,663.5 278.9,666.2 280.7,664.8 282.9,663 287.7,665.8 292.9,662.2 296.8,665 
					297.4,662.7 				"/>
				<polygon fill="#BCBEC0" points="284.1,691.8 291.1,693.6 296.4,691.2 296.4,688.9 291.1,692.2 284.1,690.5 				"/>
				<polygon fill="#939598" points="279.9,665.4 282.9,663 287.7,665.8 292.9,662.2 296.1,664.5 295.5,689.5 291.1,692.2 
					284.9,690.7 				"/>
				<polygon opacity="0.1" fill="#231F20" points="287.7,665.8 292.9,662.2 296.1,664.5 295.5,689.5 291.1,692.2 				"/>
			</g>
		</g>
	</g>
</g>
<g id="Monk">
</g>
<g id="DM">
</g>
</svg>
