<?xml version="1.0" encoding="utf-8"?>
<!-- Generator: Adobe Illustrator 19.0.0, SVG Export Plug-In . SVG Version: 6.00 Build 0)  -->
<svg version="1.1" xmlns="http://www.w3.org/2000/svg" xmlns:xlink="http://www.w3.org/1999/xlink" x="0px" y="0px"
	 viewBox="0 0 200 350" enable-background="new 0 0 200 350" xml:space="preserve">
<g id="Kizze">
	<polygon id="XMLID_2_" fill="#D1D3D4" points="91.4,167.3 81.1,175.6 72,189.8 68.8,209.5 64.9,192.9 62.2,191.2 77.9,171.2 	"/>
	<polygon id="XMLID_3_" fill="#58595B" points="62.2,191.2 64.9,192.9 68.8,209.5 62.2,193.1 	"/>
	<polygon id="XMLID_4_" fill="#58595B" points="144.9,200.7 142.3,201.4 135.5,214.3 144.1,203.5 	"/>
	<polygon id="XMLID_5_" fill="#BCBEC0" points="115.8,165.2 125.9,176.6 135.1,197.7 135.5,214.3 142.3,201.4 144.9,200.7 
		130.3,174.1 	"/>
	<polygon id="Grown_Back" fill="#58595B" points="83.1,254.5 96.2,250.3 108.9,255.5 121.4,254.5 126.8,217.2 125.1,194.7 
		113.6,165.2 93.7,165.2 82.8,191.5 78.2,217.7 	"/>
	<polygon id="XMLID_267_" fill="#C49A6C" points="88.9,110.8 79.4,103.7 83.6,112.4 87.5,116.7 89.5,116.7 90.2,113.4 	"/>
	<polygon id="XMLID_266_" fill="#C49A6C" points="110.7,111 120.6,102.9 116.3,112.8 112.5,117 110.7,117 109.8,113.6 	"/>
	<polygon id="XMLID_225_" opacity="0.1" fill="#231F20" points="110.7,111 120.6,102.9 116.3,112.8 112.5,117 110.7,117 
		109.8,113.6 	"/>
	<polygon id="XMLID_1_" fill="#C49A6C" points="96.4,126.2 96.4,130.2 83.4,133.7 65.9,150.1 35.1,151.2 34.1,155.6 67.3,156.2 
		86.4,145.9 91.4,167.3 85.6,175 84.3,182.8 97.1,183.4 107.6,188 107.8,217.2 106.8,221 108.3,227.2 106.1,258.2 99.6,277.5 
		106.3,282.8 120.1,276.5 115.1,257.5 113.6,228.8 115.6,222.3 114.6,217 119.6,197.7 121.4,178.9 115.8,165.2 119.8,145.8 
		125.1,140.9 145.8,136.9 161.9,112.6 157.8,112.6 143.1,131.3 115.8,133.9 105.1,130.2 103.8,124.9 	"/>
	<path id="XMLID_7_" fill="#E6E7E8" d="M91.4,167.3c0,0-11,7.7-11,7.7c0,0-9.5,14.1-9.5,14.1l-6,39.8l2.2-1.1l12,4.6l-4.8-15.8
		l4.9-24.6l7-16.6L91.4,167.3z"/>
	<polygon id="XMLID_8_" fill="#58595B" points="64.9,229 67.1,227.9 79.1,232.5 67,230.2 	"/>
	<polygon id="XMLID_9_" fill="#58595B" points="125.2,234.1 133.7,228.7 136.1,229.5 134.2,231.4 	"/>
	<polygon id="XMLID_10_" fill="#D1D3D4" points="115.8,165.2 121.4,178 128.3,197.7 128.6,220.2 125.2,234.1 133.7,228.7 
		136.1,229.5 136.1,197.1 126.6,175.9 	"/>
	<polygon id="XMLID_11_" fill="#594A42" points="106.1,234 111.8,236 115.6,232.5 115.1,257.5 120.1,276.5 106.3,282.8 99.6,277.5 
		106.1,258.2 	"/>
	<polygon id="XMLID_12_" fill="#3C2415" points="88.1,132.5 88.1,150.9 86.4,145.9 88.7,155.7 102.2,151.2 117.9,154.9 119.8,145.8 
		117.9,150.8 114.2,133.4 110.1,132 101.8,148.1 92.5,131.3 	"/>
	<polygon id="XMLID_13_" fill="#3C2415" points="90.5,163.4 102.5,164.3 116.3,162.7 115.8,165.2 121.4,178.9 120.9,190.4 
		114.2,188.9 106.9,190.4 106.9,187.7 97.1,183.4 95.6,175 90.8,175.3 85.6,175 91.4,167.3 	"/>
	<polygon id="XMLID_15_" fill="#E6E7E8" points="117.1,244.8 121.4,254.5 129.3,220.5 129.3,197.7 122.6,177.9 115.8,165.2 
		119.8,145.8 126.3,131.3 111.3,132.4 108.9,131.6 90.6,139.2 96.1,142.7 107.9,162.1 117.2,179.9 121.4,194.8 122.8,219.1 	"/>
	<polygon id="XMLID_16_" fill="#F1F2F2" points="89.5,132.1 76.6,133.4 86.4,145.9 91.4,167.3 85.6,175 78.3,191.8 72.8,216.5 
		83.1,254.5 87.1,246.2 81,216.9 85.2,194.8 92.7,175.2 96.4,167 106.8,142.3 111.8,138 92.5,131.3 	"/>
	<polygon id="XMLID_269_" fill="#C49A6C" points="96.3,175 100.7,176.2 101.5,184.7 97.2,222 100.6,234.9 99.9,242.6 90.3,249 
		86.2,236.9 91.9,222.1 88.8,182.9 90.8,175.3 	"/>
	<polygon id="XMLID_268_" fill="#594A42" points="94.1,196.9 101.3,195.3 97.2,222 100.6,234.9 99.9,242.6 90.3,249 86.2,236.9 
		91.9,222.1 87.9,193.1 	"/>
	<polygon id="XMLID_14_" opacity="0.1" fill="#231F20" points="104.6,128.2 100.5,131.3 96.4,128.7 96.4,126.7 104.3,127 	"/>
	<path id="XMLID_17_" fill="#C49A6C" d="M100,98c10,0,11.8,11.4,11.8,11.4l-0.5,12.1l-10.8,8.3l-10.4-7.7l-1.6-12.5
		C88.6,109.6,90,98,100,98z"/>
	<path id="XMLID_18_" opacity="0.1" fill="#231F20" d="M100,98c10,0,11.8,11.4,11.8,11.4l-0.5,12.1l-10.8,8.3l5.3-12.1l-4.3-3.4
		l4.2-5.6L100,98z"/>
	<polygon id="XMLID_19_" opacity="0.3" fill="#231F20" points="129.3,327 78.2,327 57.6,337 107.6,343 152.6,335 	"/>
	<circle id="XMLID_20_" fill="#58595B" cx="105.8" cy="137.9" r="0.7"/>
	<circle id="XMLID_21_" fill="#58595B" cx="108.2" cy="138.6" r="0.7"/>
	<polygon id="XMLID_270_" fill="#662D91" points="102.6,114.5 107,110.8 110.6,112.4 107.8,115.6 	"/>
	<polygon id="XMLID_273_" fill="#662D91" points="98.2,114.5 93.7,110.8 90.2,112.4 93,115.6 	"/>
	<linearGradient id="XMLID_23_" gradientUnits="userSpaceOnUse" x1="100.3939" y1="98" x2="100.3939" y2="150.6666">
		<stop  offset="0" style="stop-color:#FFFFFF"/>
		<stop  offset="2.924198e-02" style="stop-color:#FFFEF3"/>
		<stop  offset="0.164" style="stop-color:#FDF9C0"/>
		<stop  offset="0.3015" style="stop-color:#FCF695"/>
		<stop  offset="0.4393" style="stop-color:#FBF371"/>
		<stop  offset="0.5776" style="stop-color:#FAF055"/>
		<stop  offset="0.7166" style="stop-color:#F9EE42"/>
		<stop  offset="0.8568" style="stop-color:#F9ED36"/>
		<stop  offset="1" style="stop-color:#F9ED32"/>
	</linearGradient>
	<polygon id="XMLID_227_" fill="url(#XMLID_23_)" points="111.1,134.4 113.3,126.7 111.6,122 112.2,119.5 112.2,108.5 111.4,105.6 
		109.6,102.5 106.8,99.7 103.5,98 96.8,98 93.1,99.8 90.3,102.9 89.2,105.8 88.6,108.5 88.6,119.5 89.1,122 87.5,126.7 89.7,134.4 
		87,144.2 90.2,150.7 92.3,145.3 90.2,141.9 91.4,134.5 88.6,126.7 90.2,121.9 89.6,119.3 89.6,108.5 111.2,108.5 111.2,119.3 
		110.6,121.9 112.2,126.7 109.4,134.5 110.6,141.9 108.5,145.3 110.6,150.7 113.8,144.2 	"/>
	<polygon id="XMLID_6_" fill="#3C2415" points="88.2,109.8 100.5,110.8 112.7,109.4 111.6,105.7 100.5,103.7 88.8,105.8 	"/>
	<polygon id="XMLID_311_" fill="#414042" points="76.9,43.8 83.6,42.8 88.9,46.1 99,42.8 106.6,34.6 106.6,37.8 114.4,32.6 
		113.1,37.5 119.2,35.2 116.1,41.8 119.2,41.8 111.8,46.8 114.4,48.4 107.8,50.1 110.9,53.1 103.4,53.1 106.1,55.9 97.5,55.9 
		98.1,58.6 91.2,56.5 92.5,59.5 84.6,56.5 83.9,61.2 80.8,57.9 79.4,62.4 76,57.9 73.2,61 72.4,53.8 	"/>
	<polygon id="XMLID_378_" fill="#231F20" points="76.6,47.5 83.1,49.4 86.4,54.7 97,55.9 107.4,51.8 106.1,54.6 115.3,53.3 
		112.1,57.2 118.6,57.6 113,62.3 115.8,63.6 106.9,65 108.6,67.5 101.9,66.3 103.4,70.4 96.6,67.2 97.9,70.9 90.1,67.2 89.5,69.9 
		84.2,65.1 84.1,68.4 78.2,62.3 75.5,66.3 74.1,61.9 71,65.4 69.8,59.9 66,61.6 68.3,54.7 	"/>
	<path id="XMLID_373_" fill="#58595B" d="M77.6,32.6c3.9,0,6.6,2.6,6.6,2.6L82.8,41L80,41.8l-3.2,4.3v7.2l-5.1,9.1l6.3,7.4l-1.4,4.4
		l-1.8-1.8l-2.4,5.4h-4.2l-1.6,3.5L63,80.1l-2.4,2.4l-1.2-4.2h-4.8l3.6-10.9l-1.1-7.2V48.4l13.4-12.6C70.5,35.8,73.8,32.6,77.6,32.6
		z"/>
	<polygon id="XMLID_371_" fill="#6D6E71" points="67.1,38.9 60.2,34.8 58,25.1 43,23.8 30.5,12.5 31.1,17.8 20.6,17 24.4,21 
		20,22.6 25,26.2 20,27.4 26.1,30.8 22.4,33.4 31.4,35.8 28.6,38.9 34.8,38.9 34.1,42.5 41,42.5 40.8,44.8 47.1,42.9 47.4,46.1 
		52,44.2 50.2,48.8 52.8,48.8 52.8,54.6 55.8,52.2 63.6,48 67.1,43.6 	"/>
	<polygon id="XMLID_377_" fill="#58595B" points="63.6,42.5 55.6,42.4 48.8,35.2 35.2,41.5 18.7,38 21.9,42.2 12.4,46.8 17.7,48.4 
		14.7,52 20.8,52.7 17.1,56.1 24.1,56 22.1,60.1 31.1,57.7 30.3,61.8 35.6,58.7 36.9,62.2 42.8,58.7 43.7,60.8 48.3,56 50.1,58.7 
		53.2,54.8 53.9,59.5 56.1,58.3 59,63.4 60.5,59.8 65.2,52.2 66,46.6 	"/>
	<polygon id="XMLID_372_" fill="#F1F2F2" points="81.4,36.2 80.7,36.8 81.4,37.5 82,36.8 	"/>
	<polygon id="XMLID_375_" fill="#C49A6C" points="84.2,35.2 87.8,35.2 91.6,38.1 88.7,37.5 83.2,39.1 	"/>
	<polygon id="XMLID_376_" fill="#C49A6C" points="82.8,41 84.6,40.6 87.9,41 85.3,39.4 83.2,39.4 	"/>
	<polygon id="XMLID_379_" fill="#C49A6C" points="65.5,56.6 64.1,52.8 65.1,54.7 65.5,52.3 67.2,52.3 68.3,53.9 66.3,53 66.2,55.5 
		67.1,56.6 67.9,56.1 67.7,58.1 66.2,56.8 66.2,60.4 65.1,61.2 64.8,59.7 	"/>
	<polygon id="XMLID_380_" fill="#C49A6C" points="72.3,57.5 72.3,53.5 72.6,55.6 73.8,53.5 75.4,54.1 75.9,55.9 74.3,54.4 
		73.4,56.7 73.9,58.1 74.8,57.8 73.9,59.7 72.9,58 71.7,61.3 70.4,61.6 70.6,60.2 	"/>
	<polygon id="XMLID_374_" fill="#662D91" points="156.8,119 148.7,109.4 153,97.5 165.4,95.3 173.5,105 169.2,116.8 	"/>
	<polygon id="XMLID_382_" opacity="0.6" fill="#231F20" points="156.8,119 148.7,109.4 153,97.5 165.4,95.3 173.5,105 169.2,116.8 	
		"/>
	<polygon id="XMLID_383_" opacity="0.5" fill="none" stroke="#BE1E2D" stroke-miterlimit="10" points="159.6,116.4 151.5,106.7 
		155.8,94.9 168.2,92.7 176.3,102.4 172,114.2 	"/>
	<polygon id="XMLID_384_" opacity="0.5" fill="none" stroke="#231F20" stroke-miterlimit="10" points="154.4,119 146.3,109.4 
		150.6,97.5 163,95.3 171.1,105 166.8,116.8 	"/>
	<polygon id="XMLID_385_" opacity="0.5" fill="none" stroke="#662D91" stroke-miterlimit="10" points="158.8,120.3 150.7,110.6 
		155,98.8 167.4,96.6 175.5,106.3 171.2,118.1 	"/>
	<polygon id="XMLID_389_" fill="#662D91" points="25.1,163.2 17,153.5 21.3,141.7 33.7,139.5 41.8,149.2 37.5,161 	"/>
	<polygon id="XMLID_388_" opacity="0.6" fill="#231F20" points="25.1,163.2 17,153.5 21.3,141.7 33.7,139.5 41.8,149.2 37.5,161 	
		"/>
	<polygon id="XMLID_387_" opacity="0.5" fill="none" stroke="#662D91" stroke-miterlimit="10" points="27.9,160.6 19.8,150.9 
		24.1,139.1 36.5,136.9 44.6,146.5 40.3,158.4 	"/>
	<polygon id="XMLID_386_" opacity="0.5" fill="none" stroke="#ED1C24" stroke-miterlimit="10" points="22.7,163.2 14.6,153.5 
		18.9,141.7 31.3,139.5 39.4,149.2 35.1,161 	"/>
	<polygon id="XMLID_381_" opacity="0.5" fill="none" stroke="#231F20" stroke-miterlimit="10" points="27.1,164.5 19,154.8 
		23.3,143 35.7,140.8 43.9,150.4 39.5,162.3 	"/>
</g>
<g id="Squallo">
</g>
<g id="Squallo_Headshot">
</g>
<g id="Crunch">
</g>
<g id="Crunch_Headshot">
</g>
<g id="Monk">
</g>
<g id="DM">
</g>
</svg>
