<?xml version="1.0" encoding="utf-8"?>
<!-- Generator: Adobe Illustrator 19.0.0, SVG Export Plug-In . SVG Version: 6.00 Build 0)  -->
<svg version="1.1" id="Layer_1" xmlns="http://www.w3.org/2000/svg" xmlns:xlink="http://www.w3.org/1999/xlink" x="0px" y="0px"
	 viewBox="-299 126 200 350" style="enable-background:new -299 126 200 350;" xml:space="preserve">
<style type="text/css">
	.st0{fill:#D1D3D4;}
	.st1{fill:#58595B;}
	.st2{fill:#BCBEC0;}
	.st3{fill:#C49A6C;}
	.st4{opacity:0.1;fill:#231F20;enable-background:new    ;}
	.st5{fill:#E6E7E8;}
	.st6{fill:#594A42;}
	.st7{fill:#3C2415;}
	.st8{fill:#F1F2F2;}
	.st9{opacity:0.3;fill:#231F20;enable-background:new    ;}
	.st10{fill:#662D91;}
	.st11{fill:url(#XMLID_23_);}
	.st12{fill:#414042;}
	.st13{fill:#231F20;}
	.st14{fill:#6D6E71;}
	.st15{opacity:0.6;fill:#231F20;enable-background:new    ;}
	.st16{opacity:0.5;fill:none;stroke:#BE1E2D;stroke-miterlimit:10;enable-background:new    ;}
	.st17{opacity:0.5;fill:none;stroke:#231F20;stroke-miterlimit:10;enable-background:new    ;}
	.st18{opacity:0.5;fill:none;stroke:#662D91;stroke-miterlimit:10;enable-background:new    ;}
	.st19{opacity:0.5;fill:none;stroke:#ED1C24;stroke-miterlimit:10;enable-background:new    ;}
</style>
<polygon id="XMLID_2_" class="st0" points="-207.6,293.3 -217.9,301.6 -227,315.8 -230.2,335.5 -234.1,318.9 -236.8,317.2 
	-221.1,297.2 "/>
<polygon id="XMLID_3_" class="st1" points="-236.8,317.2 -234.1,318.9 -230.2,335.5 -236.8,319.1 "/>
<polygon id="XMLID_4_" class="st1" points="-154.1,326.7 -156.7,327.4 -163.5,340.3 -154.9,329.5 "/>
<polygon id="XMLID_5_" class="st2" points="-183.2,291.2 -173.1,302.6 -163.9,323.7 -163.5,340.3 -156.7,327.4 -154.1,326.7 
	-168.7,300.1 "/>
<polygon id="Grown_Back" class="st1" points="-215.9,380.5 -202.8,376.3 -190.1,381.5 -177.6,380.5 -172.2,343.2 -173.9,320.7 
	-185.4,291.2 -205.3,291.2 -216.2,317.5 -220.8,343.7 "/>
<polygon id="XMLID_267_" class="st3" points="-210.1,236.8 -219.6,229.7 -215.4,238.4 -211.5,242.7 -209.5,242.7 -208.8,239.4 "/>
<polygon id="XMLID_266_" class="st3" points="-188.3,237 -178.4,228.9 -182.7,238.8 -186.5,243 -188.3,243 -189.2,239.6 "/>
<polygon id="XMLID_225_" class="st4" points="-188.3,237 -178.4,228.9 -182.7,238.8 -186.5,243 -188.3,243 -189.2,239.6 "/>
<polygon id="XMLID_1_" class="st3" points="-202.6,252.2 -202.6,256.2 -215.6,259.7 -233.1,276.1 -263.9,277.2 -264.9,281.6 
	-231.7,282.2 -212.6,271.9 -207.6,293.3 -213.4,301 -214.7,308.8 -201.9,309.4 -191.4,314 -191.2,343.2 -192.2,347 -190.7,353.2 
	-192.9,384.2 -199.4,403.5 -192.7,408.8 -178.9,402.5 -183.9,383.5 -185.4,354.8 -183.4,348.3 -184.4,343 -179.4,323.7 
	-177.6,304.9 -183.2,291.2 -179.2,271.8 -173.9,266.9 -153.2,262.9 -137.1,238.6 -141.2,238.6 -155.9,257.3 -183.2,259.9 
	-193.9,256.2 -195.2,250.9 "/>
<path id="XMLID_7_" class="st5" d="M-207.6,293.3l-11,7.7l-9.5,14.1l-6,39.8l2.2-1.1l12,4.6l-4.8-15.8l4.9-24.6l7-16.6L-207.6,293.3
	z"/>
<polygon id="XMLID_8_" class="st1" points="-234.1,355 -231.9,353.9 -219.9,358.5 -232,356.2 "/>
<polygon id="XMLID_9_" class="st1" points="-173.8,360.1 -165.3,354.7 -162.9,355.5 -164.8,357.4 "/>
<polygon id="XMLID_10_" class="st0" points="-183.2,291.2 -177.6,304 -170.7,323.7 -170.4,346.2 -173.8,360.1 -165.3,354.7 
	-162.9,355.5 -162.9,323.1 -172.4,301.9 "/>
<polygon id="XMLID_11_" class="st6" points="-192.9,360 -187.2,362 -183.4,358.5 -183.9,383.5 -178.9,402.5 -192.7,408.8 
	-199.4,403.5 -192.9,384.2 "/>
<polygon id="XMLID_12_" class="st7" points="-210.9,258.5 -210.9,276.9 -212.6,271.9 -210.3,281.7 -196.8,277.2 -181.1,280.9 
	-179.2,271.8 -181.1,276.8 -184.8,259.4 -188.9,258 -197.2,274.1 -206.5,257.3 "/>
<polygon id="XMLID_13_" class="st7" points="-208.5,289.4 -196.5,290.3 -182.7,288.7 -183.2,291.2 -177.6,304.9 -178.1,316.4 
	-184.8,314.9 -192.1,316.4 -192.1,313.7 -201.9,309.4 -203.4,301 -208.2,301.3 -213.4,301 -207.6,293.3 "/>
<polygon id="XMLID_15_" class="st5" points="-181.9,370.8 -177.6,380.5 -169.7,346.5 -169.7,323.7 -176.4,303.9 -183.2,291.2 
	-179.2,271.8 -172.7,257.3 -187.7,258.4 -190.1,257.6 -208.4,265.2 -202.9,268.7 -191.1,288.1 -181.8,305.9 -177.6,320.8 
	-176.2,345.1 "/>
<polygon id="XMLID_16_" class="st8" points="-209.5,258.1 -222.4,259.4 -212.6,271.9 -207.6,293.3 -213.4,301 -220.7,317.8 
	-226.2,342.5 -215.9,380.5 -211.9,372.2 -218,342.9 -213.8,320.8 -206.3,301.2 -202.6,293 -192.2,268.3 -187.2,264 -206.5,257.3 "/>
<polygon id="XMLID_269_" class="st3" points="-202.7,301 -198.3,302.2 -197.5,310.7 -201.8,348 -198.4,360.9 -199.1,368.6 
	-208.7,375 -212.8,362.9 -207.1,348.1 -210.2,308.9 -208.2,301.3 "/>
<polygon id="XMLID_268_" class="st6" points="-204.9,322.9 -197.7,321.3 -201.8,348 -198.4,360.9 -199.1,368.6 -208.7,375 
	-212.8,362.9 -207.1,348.1 -211.1,319.1 "/>
<polygon id="XMLID_14_" class="st4" points="-194.4,254.2 -198.5,257.3 -202.6,254.7 -202.6,252.7 -194.7,253 "/>
<path id="XMLID_17_" class="st3" d="M-199,224c10,0,11.8,11.4,11.8,11.4l-0.5,12.1l-10.8,8.3l-10.4-7.7l-1.6-12.5
	C-210.4,235.6-209,224-199,224z"/>
<path id="XMLID_18_" class="st4" d="M-199,224c10,0,11.8,11.4,11.8,11.4l-0.5,12.1l-10.8,8.3l5.3-12.1l-4.3-3.4l4.2-5.6L-199,224z"
	/>
<polygon id="XMLID_19_" class="st9" points="-169.7,453 -220.8,453 -241.4,463 -191.4,469 -146.4,461 "/>
<circle id="XMLID_20_" class="st1" cx="-193.2" cy="263.9" r="0.7"/>
<circle id="XMLID_21_" class="st1" cx="-190.8" cy="264.6" r="0.7"/>
<polygon id="XMLID_270_" class="st10" points="-196.4,240.5 -192,236.8 -188.4,238.4 -191.2,241.6 "/>
<polygon id="XMLID_273_" class="st10" points="-200.8,240.5 -205.3,236.8 -208.8,238.4 -206,241.6 "/>
<linearGradient id="XMLID_23_" gradientUnits="userSpaceOnUse" x1="-198.6" y1="380" x2="-198.6" y2="327.3" gradientTransform="matrix(1 0 0 -1 0 604)">
	<stop  offset="0.5776" style="stop-color:#FAF055"/>
	<stop  offset="0.7166" style="stop-color:#F9EE42"/>
	<stop  offset="0.8568" style="stop-color:#F9ED36"/>
	<stop  offset="1" style="stop-color:#F9ED32"/>
</linearGradient>
<polygon id="XMLID_227_" class="st11" points="-187.9,260.4 -185.7,252.7 -187.4,248 -186.8,245.5 -186.8,234.5 -187.6,231.6 
	-189.4,228.5 -192.2,225.7 -195.5,224 -202.2,224 -205.9,225.8 -208.7,228.9 -209.8,231.8 -210.4,234.5 -210.4,245.5 -209.9,248 
	-211.5,252.7 -209.3,260.4 -212,270.2 -208.8,276.7 -206.7,271.3 -208.8,267.9 -207.6,260.5 -210.4,252.7 -208.8,247.9 
	-209.4,245.3 -209.4,234.5 -187.8,234.5 -187.8,245.3 -188.4,247.9 -186.8,252.7 -189.6,260.5 -188.4,267.9 -190.5,271.3 
	-188.4,276.7 -185.2,270.2 "/>
<polygon id="XMLID_6_" class="st7" points="-210.8,235.8 -198.5,236.8 -186.3,235.4 -187.4,231.7 -198.5,229.7 -210.2,231.8 "/>
<polygon id="XMLID_311_" class="st12" points="-222.1,169.8 -215.4,168.8 -210.1,172.1 -200,168.8 -192.4,160.6 -192.4,163.8 
	-184.6,158.6 -185.9,163.5 -179.8,161.2 -182.9,167.8 -179.8,167.8 -187.2,172.8 -184.6,174.4 -191.2,176.1 -188.1,179.1 
	-195.6,179.1 -192.9,181.9 -201.5,181.9 -200.9,184.6 -207.8,182.5 -206.5,185.5 -214.4,182.5 -215.1,187.2 -218.2,183.9 
	-219.6,188.4 -223,183.9 -225.8,187 -226.6,179.8 "/>
<polygon id="XMLID_378_" class="st13" points="-222.4,173.5 -215.9,175.4 -212.6,180.7 -202,181.9 -191.6,177.8 -192.9,180.6 
	-183.7,179.3 -186.9,183.2 -180.4,183.6 -186,188.3 -183.2,189.6 -192.1,191 -190.4,193.5 -197.1,192.3 -195.6,196.4 -202.4,193.2 
	-201.1,196.9 -208.9,193.2 -209.5,195.9 -214.8,191.1 -214.9,194.4 -220.8,188.3 -223.5,192.3 -224.9,187.9 -228,191.4 
	-229.2,185.9 -233,187.6 -230.7,180.7 "/>
<path id="XMLID_373_" class="st1" d="M-221.4,158.6c3.9,0,6.6,2.6,6.6,2.6l-1.4,5.8l-2.8,0.8l-3.2,4.3v7.2l-5.1,9.1l6.3,7.4
	l-1.4,4.4l-1.8-1.8l-2.4,5.4h-4.2l-1.6,3.5l-3.6-1.2l-2.4,2.4l-1.2-4.2h-4.8l3.6-10.9l-1.1-7.2v-11.8l13.4-12.6
	C-228.5,161.8-225.2,158.6-221.4,158.6z"/>
<polygon id="XMLID_371_" class="st14" points="-231.9,164.9 -238.8,160.8 -241,151.1 -256,149.8 -268.5,138.5 -267.9,143.8 
	-278.4,143 -274.6,147 -279,148.6 -274,152.2 -279,153.4 -272.9,156.8 -276.6,159.4 -267.6,161.8 -270.4,164.9 -264.2,164.9 
	-264.9,168.5 -258,168.5 -258.2,170.8 -251.9,168.9 -251.6,172.1 -247,170.2 -248.8,174.8 -246.2,174.8 -246.2,180.6 -243.2,178.2 
	-235.4,174 -231.9,169.6 "/>
<polygon id="XMLID_377_" class="st1" points="-235.4,168.5 -243.4,168.4 -250.2,161.2 -263.8,167.5 -280.3,164 -277.1,168.2 
	-286.6,172.8 -281.3,174.4 -284.3,178 -278.2,178.7 -281.9,182.1 -274.9,182 -276.9,186.1 -267.9,183.7 -268.7,187.8 -263.4,184.7 
	-262.1,188.2 -256.2,184.7 -255.3,186.8 -250.7,182 -248.9,184.7 -245.8,180.8 -245.1,185.5 -242.9,184.3 -240,189.4 -238.5,185.8 
	-233.8,178.2 -233,172.6 "/>
<polygon id="XMLID_372_" class="st8" points="-217.6,162.2 -218.3,162.8 -217.6,163.5 -217,162.8 "/>
<polygon id="XMLID_375_" class="st3" points="-214.8,161.2 -211.2,161.2 -207.4,164.1 -210.3,163.5 -215.8,165.1 "/>
<polygon id="XMLID_376_" class="st3" points="-216.2,167 -214.4,166.6 -211.1,167 -213.7,165.4 -215.8,165.4 "/>
<polygon id="XMLID_379_" class="st3" points="-233.5,182.6 -234.9,178.8 -233.9,180.7 -233.5,178.3 -231.8,178.3 -230.7,179.9 
	-232.7,179 -232.8,181.5 -231.9,182.6 -231.1,182.1 -231.3,184.1 -232.8,182.8 -232.8,186.4 -233.9,187.2 -234.2,185.7 "/>
<polygon id="XMLID_380_" class="st3" points="-226.7,183.5 -226.7,179.5 -226.4,181.6 -225.2,179.5 -223.6,180.1 -223.1,181.9 
	-224.7,180.4 -225.6,182.7 -225.1,184.1 -224.2,183.8 -225.1,185.7 -226.1,184 -227.3,187.3 -228.6,187.6 -228.4,186.2 "/>
<polygon id="XMLID_374_" class="st10" points="-142.2,245 -150.3,235.4 -146,223.5 -133.6,221.3 -125.5,231 -129.8,242.8 "/>
<polygon id="XMLID_382_" class="st15" points="-142.2,245 -150.3,235.4 -146,223.5 -133.6,221.3 -125.5,231 -129.8,242.8 "/>
<polygon id="XMLID_383_" class="st16" points="-139.4,242.4 -147.5,232.7 -143.2,220.9 -130.8,218.7 -122.7,228.4 -127,240.2 "/>
<polygon id="XMLID_384_" class="st17" points="-144.6,245 -152.7,235.4 -148.4,223.5 -136,221.3 -127.9,231 -132.2,242.8 "/>
<polygon id="XMLID_385_" class="st18" points="-140.2,246.3 -148.3,236.6 -144,224.8 -131.6,222.6 -123.5,232.3 -127.8,244.1 "/>
<polygon id="XMLID_389_" class="st10" points="-273.9,289.2 -282,279.5 -277.7,267.7 -265.3,265.5 -257.2,275.2 -261.5,287 "/>
<polygon id="XMLID_388_" class="st15" points="-273.9,289.2 -282,279.5 -277.7,267.7 -265.3,265.5 -257.2,275.2 -261.5,287 "/>
<polygon id="XMLID_387_" class="st18" points="-271.1,286.6 -279.2,276.9 -274.9,265.1 -262.5,262.9 -254.4,272.5 -258.7,284.4 "/>
<polygon id="XMLID_386_" class="st19" points="-276.3,289.2 -284.4,279.5 -280.1,267.7 -267.7,265.5 -259.6,275.2 -263.9,287 "/>
<polygon id="XMLID_381_" class="st17" points="-271.9,290.5 -280,280.8 -275.7,269 -263.3,266.8 -255.1,276.4 -259.5,288.3 "/>
<g id="Squallo">
</g>
<g id="Squallo_Headshot">
</g>
<g id="Crunch">
</g>
<g id="Crunch_Headshot">
</g>
<g id="Monk">
</g>
<g id="DM">
</g>
</svg>
