<?xml version="1.0" encoding="utf-8"?>
<!-- Generator: Adobe Illustrator 19.0.0, SVG Export Plug-In . SVG Version: 6.00 Build 0)  -->
<svg version="1.1" xmlns="http://www.w3.org/2000/svg" xmlns:xlink="http://www.w3.org/1999/xlink" x="0px" y="0px"
	 viewBox="0 0 200 350" enable-background="new 0 0 200 350" xml:space="preserve">
<g id="Kizze">
	<path id="XMLID_416_" fill="#F1F2F2" d="M170.7,253.7l-9.7-11.2l4.6-4.2l-23.4-71.4L129.7,148l-12.3-1.3l-1.7-12.8l-26,0.5
		l-6.4,10.7l-17.2,3.2L59.5,175l-6.6,38.1l-5.4,26.8l6.5,2l-9.3,13.3l-0.6,2.8l12.9-14.5l9-12.5L81,236l13.2-8.8l13.5,7.1l13.5-7.3
		l12.4,10l14.6-6.2l9.2,12.9l13.8,12.8L170.7,253.7z M80.7,233.8l-13.2-5.1l12.3-9.2l13.3,6.8L80.7,233.8z M107.8,232.1l-11.3-5.9
		c0,0,11.2-7.6,11.4-7.6s11.3,7,11.3,7L107.8,232.1z M134,235.1c0,0.1-10.5-9.2-10.5-9.2l11.6-4.8l11.2,8.6
		C146.2,229.7,134,235,134,235.1z"/>
	<polygon id="XMLID_426_" fill="#D1D3D4" points="85.9,216.8 94.7,221.2 103.9,215.8 94.9,210.1 	"/>
	<polygon id="XMLID_430_" fill="#A7A9AC" points="72,207.6 78.7,210.9 85,206.3 77.8,202.7 	"/>
	<polygon id="XMLID_432_" fill="#808285" points="91.6,194.7 95.8,196.7 99.6,193.9 95.2,191.7 	"/>
	<polygon id="XMLID_433_" fill="#808285" points="60.7,196.4 64.8,198.4 68.7,195.6 64.3,193.4 	"/>
	<polygon id="XMLID_434_" fill="#808285" points="121.6,194.7 125.8,196.7 129.6,193.9 126.8,191.7 	"/>
	<polygon id="XMLID_431_" fill="#A7A9AC" points="106.6,205.1 111.7,209 117.6,205.7 111.7,200.9 	"/>
	<polygon id="XMLID_436_" fill="#58595B" points="75.5,187.2 78.6,188.7 81.5,186.6 78.1,184.9 	"/>
	<polygon id="XMLID_435_" fill="#58595B" points="109.1,185 111.9,187.1 115.1,185.3 111.9,182.7 	"/>
	<polygon id="XMLID_428_" fill="#D1D3D4" points="114.4,216.1 122.5,221.6 132.4,217.1 124.4,211.7 	"/>
	<polygon id="XMLID_429_" fill="#D1D3D4" points="56.2,223.3 64.9,224.8 73.2,218.4 63.5,216.2 	"/>
	<polygon id="XMLID_7_" fill="#414042" points="72.5,142.8 66.2,148.3 59.5,175 53,211.8 47.6,239.9 57.6,254.7 44.8,255.1 
		44.2,257.9 59.2,257.5 67.5,218.2 67.5,170.5 	"/>
	<polygon id="XMLID_1_" fill="#E8C797" points="96.4,126.2 96.2,130.3 83.4,133.7 65.9,150.1 35.1,151.2 34.1,155.6 67.3,156.2 
		86.4,145.9 89.2,151.5 91.1,166.9 86,178.6 87.9,184 96.1,184.5 103.6,186.3 103.8,215.6 102.9,219.3 104.4,225.6 102.1,256.6 
		95.6,275.8 102.4,281.1 116.1,274.8 111.1,255.8 109.6,227.1 111.6,220.7 110.6,215.3 115.6,196 117.4,177.2 111.9,166.8 
		113.6,150.1 116,145.3 127.9,158.6 120.9,185.9 123.8,188.7 135.6,158.5 120.1,135.4 115.8,133.9 105.1,130.2 103.8,124.9 	"/>
	<polygon id="XMLID_11_" fill="#231F20" points="102.1,232.3 107.8,234.3 111.6,230.8 111.1,255.8 116.1,274.8 102.4,281.1 
		95.6,275.8 102.1,256.6 	"/>
	<polygon id="XMLID_13_" fill="#58595B" points="102.1,168.2 112.4,166.8 117.4,177.2 116.9,188.7 110.3,187.2 102.9,188.7 
		102.8,186.1 96.1,184.5 96.1,184.5 87.9,184 86,178.6 90.7,167.2 	"/>
	<polygon id="XMLID_269_" fill="#E8C797" points="95.3,176.1 99.7,177.2 100.5,185.7 96.2,223.1 99.6,236 98.9,243.7 89.3,250.1 
		85.2,238 91,223.2 87.9,184 89.8,176.4 	"/>
	<polygon id="XMLID_2_" fill="#BCBEC0" points="86.6,146.9 90.2,143.1 95.1,139.7 101.5,143.2 108.6,139.7 112.6,142.7 115.8,147.1 
		114.2,150.2 113.8,154.3 101.7,153.8 89.2,154.4 88.9,151.4 	"/>
	<polygon id="XMLID_8_" fill="#FFFFFF" points="87,145.6 90.2,143.1 95.1,139.7 101.5,143.2 108.6,139.7 112.6,142.7 115.2,145.4 
		112.7,150.1 112.3,155 101.7,153.8 90.3,155.3 90.2,151.2 	"/>
	<polygon id="XMLID_15_" opacity="0.1" fill="#231F20" points="112.6,142.7 115.2,145.4 112.7,150.1 112.3,155 108.9,154.6 
		109.7,148.3 	"/>
	<polygon id="XMLID_268_" fill="#231F20" points="93.2,198 100.3,196.4 96.2,223.1 99.6,236 98.9,243.7 89.3,250.1 85.2,238 
		91,223.2 87,194.2 	"/>
	<polygon id="XMLID_3_" fill="#414042" points="87.6,133 79.4,142.1 72.5,142.8 66.2,148.3 80.2,146.6 88.6,141.2 91.4,133.3 	"/>
	<path id="XMLID_423_" fill="#414042" d="M170.7,253.7l-11.9-1.2l6.9-14.2l-23.4-71.4L129.7,148l-9.1-2.8l-3.2-11.2l-5.8-1.4
		l3.6,12.9l10.3,24.1l0.2,36.7l8.1,22.8l-0.5,34.5l15.2,6L157,256l14.3,0.6L170.7,253.7z M147.4,266.4l-11.8-4.5l7.3-11.8l11.5,3.9
		L147.4,266.4z"/>
	<polygon id="XMLID_404_" fill="#231F20" points="65.6,132.9 69.2,134.1 67.8,135.2 72.6,135.5 71.3,136.8 76.8,136.4 76.2,137.4 
		81.3,136.3 80.8,137.7 87.9,135.2 87.6,136.8 93.1,134 93.2,135.3 99.1,131.4 98.1,129.7 99.2,127.6 96.4,125.7 96.2,129.6 
		82.3,132.3 69,132.8 	"/>
	<polygon id="XMLID_4_" fill="#231F20" points="135.6,132.9 132,134.1 133.4,135.2 128.7,135.5 129.9,136.8 124.4,136.4 125,137.4 
		119.9,136.3 120.4,137.7 113.3,135.2 113.6,136.8 108.1,134 108,135.3 102.1,131.4 103.1,129.7 102,127.6 104.8,125.7 105,129.6 
		118.9,132.3 132.2,132.8 	"/>
	<polygon id="XMLID_5_" fill="#231F20" points="107.7,152.2 107,152.8 107.7,153.5 108.3,152.8 	"/>
	<polygon id="XMLID_408_" fill="#231F20" points="110.3,142.2 109.6,142.8 110.3,143.5 111,142.9 	"/>
	<polygon id="XMLID_410_" fill="#231F20" points="108.1,148.8 107.4,149.4 108.1,150 108.7,149.4 	"/>
	<polygon id="XMLID_411_" fill="#231F20" points="108.9,145.5 108.3,146.1 108.9,146.8 109.6,146.2 	"/>
	<polygon id="XMLID_19_" opacity="0.3" fill="#231F20" points="129.3,327 78.2,327 57.6,337 107.6,343 152.6,335 	"/>
	<g id="XMLID_12_">
		<polygon id="XMLID_267_" fill="#E8C797" points="88.9,110.8 79.4,103.7 83.6,112.4 87.5,116.7 89.5,116.7 90.2,113.4 		"/>
		<polygon id="XMLID_266_" fill="#C49A6C" points="110.7,111 120.6,102.9 116.3,112.8 112.5,117 110.7,117 109.8,113.6 		"/>
		<polygon id="XMLID_225_" fill="#E8C797" points="110.7,111 120.6,102.9 116.3,112.8 112.5,117 110.7,117 109.8,113.6 		"/>
		<polygon id="XMLID_14_" opacity="0.1" fill="#231F20" points="104.6,128.2 100.5,131.3 96.4,128.7 96.4,126.7 104.3,127 		"/>
		<path id="XMLID_17_" fill="#E8C797" d="M100,98c10,0,11.8,11.4,11.8,11.4l-0.5,12.1l-10.8,8.3l-10.4-7.7l-1.6-12.5
			C88.6,109.6,90,98,100,98z"/>
		<path id="XMLID_18_" opacity="0.1" fill="#231F20" d="M100,98c10,0,11.8,11.4,11.8,11.4l-0.5,12.1l-10.8,8.3l5.3-9.7l-4.4-4.6
			l4.3-6.8L100,98z"/>
		<polygon id="XMLID_270_" fill="#662D91" points="102.6,115.6 107,111.8 110.6,113.5 107.7,116.7 		"/>
		<polygon id="XMLID_273_" fill="#662D91" points="98.2,115.6 93.7,111.8 90.2,113.5 93,116.7 		"/>
		<polygon id="XMLID_406_" opacity="0.1" fill="#231F20" points="102.6,115.6 107.4,115.6 110.6,113.5 107.7,116.7 		"/>
		<polygon id="XMLID_405_" opacity="0.1" fill="#231F20" points="98.2,115.6 93.4,115.3 90.2,113.5 93,116.7 		"/>
		<linearGradient id="XMLID_10_" gradientUnits="userSpaceOnUse" x1="100.3939" y1="150.6666" x2="100.3939" y2="96.375">
			<stop  offset="0" style="stop-color:#FFFFFF"/>
			<stop  offset="1" style="stop-color:#FFF200"/>
		</linearGradient>
		<polygon id="XMLID_227_" fill="url(#XMLID_10_)" points="111.1,134.4 113.3,126.7 111.6,122 112.2,119.5 112.2,108.5 112.8,106.8 
			112.4,102.9 109.6,98.6 104.2,96.4 100,97.1 96.4,96.4 91.2,98.2 88.6,102.9 88.2,106.2 88.6,108.5 88.6,119.5 89.1,122 
			87.5,126.7 89.7,134.4 87,144.2 90.2,150.7 92.3,145.3 90.2,141.9 91.4,134.5 88.6,126.7 90.2,121.9 89.6,119.3 89.6,108.5 
			111.2,108.5 111.2,119.3 110.6,121.9 112.2,126.7 109.4,134.5 110.6,141.9 108.5,145.3 110.6,150.7 113.8,144.2 		"/>
		<polygon id="XMLID_9_" fill="#414042" points="88.2,109.8 100.5,110.8 112.7,109.4 113.4,106.9 100.4,104.6 87.4,107.2 		"/>
	</g>
	<polygon id="XMLID_311_" fill="#414042" points="76.9,43.8 83.6,42.8 88.9,46.1 99,42.8 106.6,34.6 106.6,37.8 114.4,32.6 
		113.1,37.5 119.2,35.2 116.1,41.8 119.2,41.8 111.8,46.8 114.4,48.4 107.8,50.1 110.9,53.1 103.4,53.1 106.1,55.9 97.5,55.9 
		98.1,58.6 91.2,56.5 92.5,59.5 84.6,56.5 83.9,61.2 80.8,57.9 79.4,62.4 76,57.9 73.2,61 72.4,53.8 	"/>
	<polygon id="XMLID_378_" fill="#231F20" points="76.6,46.9 83.1,48.8 86.4,54.1 97,55.3 107.4,51.2 106.1,54 115.3,52.6 
		112.1,56.5 118.6,57 113,61.7 115.8,63 106.9,64.3 108.6,66.9 101.9,65.7 103.4,69.7 96.6,66.6 97.9,70.2 90.1,66.6 89.5,69.3 
		84.2,64.5 84.1,67.8 78.2,61.7 75.5,65.7 74.1,61.3 71,64.8 69.8,59.3 66,61 68.3,54 	"/>
	<path id="XMLID_373_" fill="#58595B" d="M77.6,32.6c3.9,0,6.6,2.6,6.6,2.6L82.8,41L80,41.8l-3.2,4.3v7.2l-5.1,9.1l6.3,7.4l-1.4,4.4
		l-1.8-1.8l-2.4,5.4h-4.2l-1.6,3.5L63,80.1l-2.4,2.4l-1.2-4.2h-4.8l3.6-10.9l-1.1-7.2V48.4l13.4-12.6C70.5,35.8,73.8,32.6,77.6,32.6
		z"/>
	<polygon id="XMLID_371_" fill="#6D6E71" points="67.1,38.9 60.2,34.8 58,25.1 43,23.8 30.5,12.5 31.1,17.8 20.6,17 24.4,21 
		20,22.6 25,26.2 20,27.4 26.1,30.8 22.4,33.4 31.4,35.8 28.6,38.9 34.8,38.9 34.1,42.5 41,42.5 40.8,44.8 47.1,42.9 47.4,46.1 
		52,44.2 50.2,48.8 52.8,48.8 52.8,54.6 55.8,52.2 63.6,48 67.1,43.6 	"/>
	<polygon id="XMLID_377_" fill="#58595B" points="63.6,42.5 55.6,42.4 48.8,35.2 35.2,41.5 18.7,38 21.9,42.2 12.4,46.8 17.7,48.4 
		14.7,52 20.8,52.7 17.1,56.1 24.1,56 22.1,60.1 31.1,57.7 30.3,61.8 35.6,58.7 36.9,62.2 42.8,58.7 43.7,60.8 48.3,56 50.1,58.7 
		53.2,54.8 53.9,59.5 56.1,58.3 59,63.4 60.5,59.8 65.2,52.2 66,46.6 	"/>
	<polygon id="XMLID_372_" fill="#231F20" points="81.4,36.2 80.7,36.8 81.4,37.5 82,36.8 	"/>
	<polygon id="XMLID_375_" fill="#C49A6C" points="84.2,35.2 87.8,35.2 91.6,38.1 88.7,37.5 83.2,39.1 	"/>
	<polygon id="XMLID_376_" fill="#C49A6C" points="82.8,41 84.6,40.6 87.9,41 85.3,39.4 83.2,39.4 	"/>
	<polygon id="XMLID_379_" fill="#C49A6C" points="65.5,56.6 64.1,52.8 65.1,54.7 65.5,52.3 67.2,52.3 68.3,53.9 66.3,53 66.2,55.5 
		67.1,56.6 67.9,56.1 67.7,58.1 66.2,56.8 66.2,60.4 65.1,61.2 64.8,59.7 	"/>
	<polygon id="XMLID_380_" fill="#C49A6C" points="72.3,57.5 72.3,53.5 72.6,55.6 73.8,53.5 75.4,54.1 75.9,55.9 74.3,54.4 
		73.4,56.7 73.9,58.1 74.8,57.8 73.9,59.7 72.9,58 71.7,61.3 70.4,61.6 70.6,60.2 	"/>
	<polygon id="XMLID_16_" fill="#F1F2F2" points="146.4,246.5 155.6,249.4 160.9,238.6 151.2,236.9 	"/>
	<polygon id="XMLID_407_" fill="#F1F2F2" points="134.8,241.4 141.1,243.6 144.8,236.4 137.8,235 	"/>
	<polygon id="XMLID_409_" fill="#F1F2F2" points="157.6,231.7 164.2,233.8 161.3,225.1 	"/>
	<polygon id="XMLID_413_" fill="#F1F2F2" points="145.2,228.1 149.6,228.9 151.8,224.5 147.6,223.6 	"/>
	<polygon id="XMLID_419_" fill="#F1F2F2" points="155.7,213.5 157.6,213.8 156.8,211.2 	"/>
	<polygon id="XMLID_420_" fill="#F1F2F2" points="133.4,220.1 135.3,220.7 136.1,218.4 134,218.1 	"/>
	<polygon id="XMLID_424_" fill="#F1F2F2" points="143.9,207.2 142.5,206.8 141.9,208.5 143.4,208.7 	"/>
	<polygon id="XMLID_425_" fill="#F1F2F2" points="55.2,232.8 48.5,235 50.2,226.2 	"/>
	<polygon id="XMLID_20_" fill="#F1F2F2" points="54.4,214.1 52.5,214.4 53,211.8 	"/>
</g>
<g id="Squallo">
</g>
<g id="Squallo_Headshot">
</g>
<g id="Crunch">
</g>
<g id="Crunch_Headshot">
</g>
<g id="Monk">
</g>
<g id="DM">
</g>
</svg>
