<?xml version="1.0" encoding="utf-8"?>
<!-- Generator: Adobe Illustrator 18.1.1, SVG Export Plug-In . SVG Version: 6.00 Build 0)  -->
<svg version="1.1" xmlns="http://www.w3.org/2000/svg" xmlns:xlink="http://www.w3.org/1999/xlink" x="0px" y="0px"
	 viewBox="0 0 200 350" enable-background="new 0 0 200 350" xml:space="preserve">
<g id="Kizze">
	<g id="Bustle_Front">
		<polygon fill="#D1D3D4" points="89.8,167.3 79.5,175.6 70.4,189.8 67.2,209.5 63.3,192.9 60.7,191.2 76.3,171.2 		"/>
		<polygon fill="#D7DF23" points="60.7,191.2 63.3,192.9 67.2,209.5 60.7,193.1 		"/>
		<polygon fill="#D7DF23" points="143.3,200.7 140.8,201.4 133.9,214.3 142.5,203.5 		"/>
		<polygon fill="#BCBEC0" points="114.2,165.2 124.3,176.6 133.5,197.7 133.9,214.3 140.8,201.4 143.3,200.7 128.8,174.1 		"/>
	</g>
	<polygon id="Grown_Back" fill="#D7DF23" points="81.5,254.5 94.7,250.3 107.3,255.5 119.8,254.5 125.2,217.2 123.5,194.7 
		112,165.2 92.1,165.2 81.2,191.5 76.6,217.7 	"/>
	<polygon fill="#C49A6C" points="94.8,126.2 94.8,130.2 81.8,133.7 64.3,150.1 33.5,151.2 32.5,155.6 65.8,156.2 84.8,145.9 
		89.8,167.3 84,175 82.8,182.8 95.5,183.4 106,188 106.2,217.2 105.2,221 106.8,227.2 104.5,258.2 98,277.5 104.8,282.8 
		118.5,276.5 113.5,257.5 112,228.8 114,222.3 113,217 118,197.7 119.8,178.9 114.2,165.2 118.2,145.8 123.5,140.9 144.2,136.9 
		160.3,112.6 156.2,112.6 141.5,131.3 114.2,133.9 103.5,130.2 102.2,124.9 	"/>
	<g>
		<path fill="#E6E7E8" d="M89.8,167.3c0,0-11,7.7-11,7.7c0,0-9.5,14.1-9.5,14.1l-6,39.8l2.2-1.1l12,4.6l-4.8-15.8l4.9-24.6l7-16.6
			L89.8,167.3z"/>
		<polygon fill="#D7DF23" points="63.3,229 65.5,227.9 77.5,232.5 65.4,230.2 		"/>
		<polygon fill="#D7DF23" points="123.6,234.1 132.1,228.7 134.5,229.5 132.6,231.4 		"/>
		<polygon fill="#D1D3D4" points="114.2,165.2 119.8,178 126.8,197.7 127,220.2 123.6,234.1 132.1,228.7 134.5,229.5 134.5,197.1 
			125,175.9 		"/>
	</g>
	<polygon fill="#594A42" points="104.5,234 110.2,236 114,232.5 113.5,257.5 118.5,276.5 104.8,282.8 98,277.5 104.5,258.2 	"/>
	<polygon fill="#3C2415" points="86.5,132.5 86.5,150.9 84.8,145.9 87.1,155.7 100.7,151.2 116.3,154.9 118.2,145.8 116.3,150.8 
		112.6,133.4 108.5,132 100.2,148.1 90.9,131.3 	"/>
	<polygon fill="#3C2415" points="88.9,163.4 100.9,164.3 114.7,162.7 114.2,165.2 119.8,178.9 119.3,190.4 112.7,188.9 105.3,190.4 
		105.3,187.7 95.5,183.4 94,175 89.2,175.3 84,175 89.8,167.3 	"/>
	<g id="Gown_Front">
		<polygon fill="#E6E7E8" points="115.5,244.8 119.8,254.5 127.8,220.5 127.8,197.7 121,177.9 114.2,165.2 118.2,145.8 124.8,131.3 
			109.7,132.4 107.3,131.6 89,139.2 94.6,142.7 106.3,162.1 115.6,179.9 119.8,194.8 121.2,219.1 		"/>
		<polygon fill="#F1F2F2" points="87.9,132.1 75,133.4 84.8,145.9 89.8,167.3 84,175 76.7,191.8 71.2,216.5 81.5,254.5 85.5,246.2 
			79.4,216.9 83.6,194.8 91.1,175.2 94.8,167 105.2,142.3 110.2,138 90.9,131.3 		"/>
	</g>
	<polygon fill="#C49A6C" points="94.7,175 99.1,176.2 99.9,184.7 95.6,222 99,234.9 98.3,242.6 88.7,249 84.6,236.9 90.4,222.1 
		87.3,182.9 89.2,175.3 	"/>
	<polygon fill="#594A42" points="92.6,196.9 99.7,195.3 95.6,222 99,234.9 98.3,242.6 88.7,249 84.6,236.9 90.4,222.1 86.4,193.1 	
		"/>
	<path opacity="0.1" fill="#231F20" d="M103,128.2c0,0-2,3.1-4.1,3.1c-2.1,0-4.1-2.6-4.1-2.6v-1.9l7.8,0.2L103,128.2z"/>
	<path fill="#C49A6C" d="M98.3,97.2c10,0,11.8,11.4,11.8,11.4l-0.5,12.1c0,0-8.5,8.3-10.8,8.3s-10.4-7.7-10.4-7.7l-1.6-12.5
		C86.9,108.9,88.3,97.2,98.3,97.2z"/>
	<path opacity="0.1" fill="#231F20" d="M98.3,97.2c10,0,11.8,11.4,11.8,11.4l-0.5,12.1c0,0-8.5,8.3-10.8,8.3c0,0,4.6-7.9,5.3-12.1
		c0.2-0.9-4.4-5.3-4.4-5.3l4.3-3.7L98.3,97.2z"/>
	<polygon opacity="0.3" fill="#231F20" points="127.8,327 76.6,327 56,337 106,343 151,335 	"/>
	<circle fill="#58595B" cx="104.2" cy="137.9" r="0.7"/>
	<circle fill="#58595B" cx="106.6" cy="138.6" r="0.7"/>
</g>
<g id="Squallo">
</g>
<g id="Crunch">
</g>
<g id="Monk">
</g>
<g id="DM">
</g>
</svg>
