<?xml version="1.0" encoding="utf-8"?>
<!-- Generator: Adobe Illustrator 19.0.0, SVG Export Plug-In . SVG Version: 6.00 Build 0)  -->
<svg version="1.1" xmlns="http://www.w3.org/2000/svg" xmlns:xlink="http://www.w3.org/1999/xlink" x="0px" y="0px"
	 viewBox="0 0 150 150" enable-background="new 0 0 150 150" xml:space="preserve">
<g id="Kizze">
	<g id="Bustle_Front">
		<polygon fill="#D1D3D4" points="-149.5,-242.7 -159.9,-234.4 -169,-220.2 -172.1,-200.5 -176,-217.1 -178.7,-218.8 -163,-238.8 		
			"/>
		<polygon fill="#D7DF23" points="-178.7,-218.8 -176,-217.1 -172.1,-200.5 -178.7,-216.9 		"/>
		<polygon fill="#D7DF23" points="-96,-209.3 -98.6,-208.6 -105.5,-195.7 -96.9,-206.5 		"/>
		<polygon fill="#BCBEC0" points="-125.2,-244.8 -115,-233.4 -105.9,-212.3 -105.5,-195.7 -98.6,-208.6 -96,-209.3 -110.6,-235.9 		
			"/>
	</g>
	<polygon id="Grown_Back" fill="#D7DF23" points="-157.9,-155.5 -144.7,-159.7 -132,-154.5 -119.5,-155.5 -114.2,-192.8 
		-115.9,-215.3 -127.4,-244.8 -147.2,-244.8 -158.2,-218.5 -162.8,-192.3 	"/>
	<polygon fill="#C49A6C" points="-144.5,-283.8 -144.5,-279.8 -157.5,-276.3 -175,-259.9 -205.9,-258.8 -206.9,-254.4 
		-173.6,-253.8 -154.5,-264.1 -149.5,-242.7 -155.4,-235 -156.6,-227.2 -143.9,-226.6 -133.4,-222 -133.2,-192.8 -134.1,-189 
		-132.6,-182.8 -134.9,-151.8 -141.4,-132.5 -134.6,-127.2 -120.9,-133.5 -125.9,-152.5 -127.4,-181.2 -125.4,-187.7 -126.4,-193 
		-121.4,-212.3 -119.5,-231.1 -125.2,-244.8 -121.2,-264.2 -115.9,-269.1 -95.2,-273.1 -79,-297.4 -83.2,-297.4 -97.9,-278.7 
		-125.2,-276.1 -135.9,-279.8 -137.2,-285.1 	"/>
	<g>
		<path fill="#E6E7E8" d="M-149.5-242.7c0,0-11,7.7-11,7.7c0,0-9.5,14.1-9.5,14.1l-6,39.8l2.2-1.1l12,4.6l-4.8-15.8l4.9-24.6l7-16.6
			L-149.5-242.7z"/>
		<polygon fill="#D7DF23" points="-176,-181 -173.9,-182.1 -161.9,-177.5 -174,-179.8 		"/>
		<polygon fill="#D7DF23" points="-115.8,-175.9 -107.3,-181.3 -104.9,-180.5 -106.8,-178.6 		"/>
		<polygon fill="#D1D3D4" points="-125.2,-244.8 -119.5,-232 -112.6,-212.3 -112.4,-189.8 -115.8,-175.9 -107.3,-181.3 
			-104.9,-180.5 -104.9,-212.9 -114.4,-234.1 		"/>
	</g>
	<polygon fill="#594A42" points="-134.9,-176 -129.2,-174 -125.4,-177.5 -125.9,-152.5 -120.9,-133.5 -134.6,-127.2 -141.4,-132.5 
		-134.9,-151.8 	"/>
	<polygon fill="#3C2415" points="-152.9,-277.5 -152.9,-259.1 -154.5,-264.1 -152.3,-254.3 -138.7,-258.8 -123.1,-255.1 
		-121.2,-264.2 -123,-259.2 -126.8,-276.6 -130.9,-278 -139.2,-261.9 -148.5,-278.7 	"/>
	<polygon fill="#3C2415" points="-150.5,-246.6 -138.5,-245.7 -124.7,-247.3 -125.2,-244.8 -119.5,-231.1 -120,-219.6 
		-126.7,-221.1 -134,-219.6 -134.1,-222.3 -143.9,-226.6 -145.4,-235 -150.2,-234.7 -155.4,-235 -149.5,-242.7 	"/>
	<g id="Gown_Front">
		<polygon fill="#E6E7E8" points="-123.9,-165.2 -119.5,-155.5 -111.6,-189.5 -111.6,-212.3 -118.4,-232.1 -125.2,-244.8 
			-121.2,-264.2 -114.6,-278.7 -129.7,-277.6 -132,-278.4 -150.4,-270.8 -144.8,-267.3 -133,-247.9 -123.8,-230.1 -119.5,-215.2 
			-118.1,-190.9 		"/>
		<polygon fill="#F1F2F2" points="-151.5,-277.9 -164.4,-276.6 -154.5,-264.1 -149.5,-242.7 -155.4,-235 -162.6,-218.2 
			-168.1,-193.5 -157.9,-155.5 -153.9,-163.8 -159.9,-193.1 -155.8,-215.2 -148.3,-234.8 -144.5,-243 -134.2,-267.7 -129.2,-272 
			-148.5,-278.7 		"/>
	</g>
	<polygon fill="#C49A6C" points="-144.7,-235 -140.2,-233.8 -139.5,-225.3 -143.8,-188 -140.4,-175.1 -141,-167.4 -150.6,-161 
		-154.8,-173.1 -149,-187.9 -152.1,-227.1 -150.2,-234.7 	"/>
	<polygon fill="#594A42" points="-146.8,-213.1 -139.7,-214.7 -143.8,-188 -140.4,-175.1 -141,-167.4 -150.6,-161 -154.8,-173.1 
		-149,-187.9 -153,-216.9 	"/>
	<polygon opacity="0.1" fill="#231F20" points="-136.4,-281.8 -140.5,-278.7 -144.5,-281.3 -144.5,-283.3 -136.7,-283 	"/>
	<path fill="#C49A6C" d="M-141-312.8c10,0,11.8,11.4,11.8,11.4l-0.5,12.1l-10.8,8.3l-10.4-7.7l-1.6-12.5
		C-152.4-301.1-151.1-312.8-141-312.8z"/>
	<path opacity="0.1" fill="#231F20" d="M-141-312.8c10,0,11.8,11.4,11.8,11.4l-0.5,12.1l-10.8,8.3l5.3-12.1l-4.4-5.3l4.3-3.7
		L-141-312.8z"/>
	<polygon opacity="0.3" fill="#231F20" points="-111.6,-83 -162.8,-83 -183.4,-73 -133.4,-67 -88.4,-75 	"/>
	<circle fill="#58595B" cx="-135.1" cy="-272.1" r="0.7"/>
	<circle fill="#58595B" cx="-132.8" cy="-271.4" r="0.7"/>
</g>
<g id="Squallo">
	<polygon id="Shadow_1_" opacity="0.3" fill="#231F20" points="119.6,-90.2 26.6,-91.2 -1.4,-80.8 37.3,-67 77.2,-63 138.8,-75 	"/>
	<g id="Body_1_">
		<polygon fill="#603913" points="108.7,-196.2 111.3,-195.4 113.9,-196.2 116.2,-195.5 119.3,-196.2 122.3,-195.5 125.9,-196.2 
			126.3,-205.7 121.9,-212 120.1,-235.6 114,-240.5 117.1,-264 111.5,-273.4 112.3,-281.3 99.8,-293.3 84.9,-295.2 79.6,-307.8 
			58.7,-307.8 53.3,-295.2 38.4,-293.3 26,-281.3 21.7,-275.5 -0.7,-269 -5.2,-253.7 8,-243.2 17.8,-250 33.6,-253.7 39.4,-264.7 
			44.2,-253.7 46.1,-233 45.1,-214.5 34.2,-196.1 31.5,-181.7 32.5,-171.2 28.9,-161.2 29.4,-150.8 21.5,-141.5 27,-111.1 
			20.6,-100.5 23.1,-81.8 40.6,-75.7 50.5,-81.2 46.9,-111 48.2,-125.5 55,-135.2 54.8,-145.2 60.6,-155 61.3,-165.9 67.3,-179.2 
			68,-193.7 69.1,-193.9 71.7,-193.7 74,-176 79.2,-163.8 79.1,-153 85.2,-142.3 84.6,-133.7 91.5,-125.5 96.1,-111.2 91.6,-81.5 
			101.6,-76 119,-82.2 121.5,-100.8 116.2,-111.7 118.3,-143.3 111.6,-151.5 110.8,-161.2 107,-169.7 108.2,-181.7 106.2,-194.9 
			95.5,-216 92.2,-233 95.2,-253.7 99.7,-234.2 99.9,-224.3 108.3,-209.7 106.2,-205.7 		"/>
		<path opacity="0.1" fill="#231F20" d="M38.4-293.3L34-279.8l0.5,12.9l-6.4,8.9l-10.3,8l15.8-3.7l5.8-11l4.8,11l0.7,7.5l16.5-8.6
			c-1.9-10.5-4.8-20.8-7.5-31.2L38.4-293.3z"/>
		<polygon opacity="0.1" fill="#231F20" points="121.9,-212 120.1,-235.6 114,-240.5 117.1,-264 111.5,-273.4 112.3,-281.3 
			99.8,-293.3 84.9,-295.2 79.6,-307.8 69.4,-294.6 68.4,-279 97.4,-273.5 108.5,-260.6 107,-235.9 114.6,-209.7 121.5,-204.6 
			122.3,-198.1 120.3,-199.5 116.9,-197.5 114.4,-198.5 111.6,-196.8 108.7,-196.2 111.3,-195.4 113.9,-196.2 116.2,-195.5 
			119.3,-196.2 122.3,-195.5 125.9,-196.2 126.3,-205.7 		"/>
	</g>
	<g id="Head_1_">
		<polygon opacity="0.3" fill="#231F20" points="57.6,-306 61.5,-299.5 76.5,-299.7 80.1,-306.2 81,-302.9 76.5,-294.7 61.5,-294.5 
			56.8,-302.2 		"/>
		<path fill="#603913" d="M53.6-326c0,0,0.7-13,15.3-13s14.3,13.7,14.3,13.7l-0.2,3.1l2,1.9l-0.4,5.5l-2.1,1.9l-0.2,2.8l-5.8,10.5
			l-15,0.2l-6.6-11l-0.2-2.8l-2.5-2.1l2-3.8L53.6-326z"/>
		<path opacity="0.1" fill="#231F20" d="M68.9-339c14.6,0,14.3,13.7,14.3,13.7l-0.8,15.2l-5.8,10.5l-8.1,0.1l3-5.9l-2.3-4.4l6.7-2
			l-6.8-9.5L68.9-339z"/>
		<polygon opacity="0.3" fill="#231F20" points="85,-320.4 84.6,-314.9 82.4,-313 83,-322.3 		"/>
		<polygon opacity="0.1" fill="#231F20" points="54.1,-319.3 54.6,-313.4 52.1,-315.5 		"/>
		<polygon fill="#FBB040" points="53.8,-315.8 52.9,-314.8 53.8,-312.4 		"/>
		<polygon fill="#FBB040" points="83.1,-315.8 84,-314.8 83.1,-312.4 		"/>
		<polygon fill="#3C2415" points="71.2,-323.9 72,-322.3 81,-323.1 76.5,-324.6 		"/>
		<polygon fill="#3C2415" points="66.7,-323.9 65.9,-322.3 56.8,-323.1 61.4,-324.6 		"/>
		<path fill="#3C2415" d="M80.2-310.6l-6.4,3.4l-4.8-2.7l-5.1,2.4l-6.6-3.2l-2.7-5.2l0.2,5.3l5.4,11l8.7,10.2l8.6-10.2l4.8-10.7
			l0.2-5.1L80.2-310.6z M64.4-301.8l4.6-3.8l4.3,3.8l-4.3-0.8L64.4-301.8z"/>
		<polygon fill="#C2B59B" points="66,-317.6 62,-320.9 57.1,-319.3 61.9,-318.1 		"/>
		<polygon fill="#231F20" points="63.3,-318.5 64.4,-319 62,-320.9 59.6,-320.1 60,-319 		"/>
		<polygon fill="#C2B59B" points="72.1,-317.6 76.1,-320.9 81,-319.3 76.3,-318.1 		"/>
		<polygon fill="#231F20" points="74.8,-318.5 73.8,-319 76.1,-320.9 78.5,-320.1 78.2,-319 		"/>
	</g>
	<g id="Greaves">
		<polygon fill="#414042" points="45.1,-214.5 34.2,-196.1 31.5,-181.7 32.5,-171.2 28.9,-161.2 29.4,-150.8 21.5,-141.5 27,-111.1 
			20.6,-100.5 23.1,-81.8 40.6,-75.7 50.5,-81.2 46.9,-111 48.2,-125.5 55,-135.2 54.8,-145.2 60.6,-155 61.8,-166.9 67.3,-179.2 
			68,-193.7 71.7,-193.7 74,-176 79.2,-163.8 79.1,-153 85.2,-142.3 84.6,-133.7 91.5,-125.5 96.1,-111.2 91.6,-81.5 101.6,-76 
			119,-82.2 121.5,-100.8 116.2,-111.7 118.3,-143.3 111.6,-151.5 110.8,-161.2 107.2,-172.1 108.2,-181.7 106.2,-194.9 95.5,-216 
					"/>
		<polygon opacity="0.1" fill="#231F20" points="57.1,-214.2 46.1,-180 44.6,-171 43.1,-160.8 40.1,-142.5 35.4,-128.5 36.3,-112.8 
			36.3,-91.5 40.6,-75.7 50.5,-81.2 46.9,-111 48.2,-125.5 55,-135.2 54.8,-145.2 60.6,-155 61.8,-166.9 67.3,-179.2 68,-193.7 
			81.4,-207.2 85.9,-181.5 87.9,-172.1 89.1,-158.8 96,-140.1 105.2,-127.8 105.2,-112 105.2,-91.5 101.6,-76 119,-82.2 
			121.5,-100.8 116.2,-111.7 118.3,-143.3 111.6,-151.5 110.8,-161.2 107.2,-172.1 108.2,-181.7 106.2,-194.9 95.5,-216 		"/>
		<polygon opacity="0.3" fill="#231F20" points="92.5,-87.4 102.1,-83.2 116.6,-87.4 121.2,-98.6 119,-82.2 101.6,-76 91.6,-81.5 		
			"/>
		<polygon opacity="0.3" fill="#231F20" points="20.6,-100.5 25.6,-88.6 38.8,-83 49.8,-87.3 50.5,-81.2 40.6,-75.7 23.1,-81.8 		
			"/>
		<polygon fill="#FBB040" points="32.6,-197.2 34.6,-200.2 47.3,-182.5 68.8,-185.8 68.8,-182.5 45.8,-178.8 		"/>
		<polygon fill="#FBB040" points="30.4,-170.5 44.6,-172.1 62.8,-165.5 62.8,-162.2 44.1,-169.5 29.4,-167.2 		"/>
		<path fill="#FBB040" d="M70.6-185.2c0,0,0,4,0,3.8s16,1.5,16,1.5l18.7-19l-2.1-2.9l-17.9,18.4L70.6-185.2z"/>
		<polygon fill="#FBB040" points="76.3,-165.5 87.9,-174.2 108.7,-172.1 108.7,-169.9 87.9,-170.8 77.6,-162.2 		"/>
		<polygon fill="#FBB040" points="78.3,-150.8 90,-157.5 112.2,-161 111,-162.2 89,-160 76.3,-152.5 		"/>
		<polygon fill="#FBB040" points="82.3,-143.8 97,-142.5 112.2,-155 112.2,-152.8 97.3,-140 83.6,-141.2 		"/>
		<polygon fill="#FBB040" points="83.8,-133.6 104,-131 119.1,-143.3 119.1,-137.2 105.2,-121.5 86.3,-129.8 		"/>
		<polygon fill="#FBB040" points="27.4,-160.2 43.6,-162.2 61.8,-155 60.6,-152 43.4,-159.5 27.4,-158.2 		"/>
		<polygon fill="#FBB040" points="27.4,-152 40.9,-145.5 57.1,-145.5 57.1,-142.5 40.1,-142.5 27.4,-149.5 		"/>
		<polygon fill="#FBB040" points="20.4,-143.3 35.9,-132.2 57.1,-135.8 55.3,-132.4 35.1,-124 20.4,-140 		"/>
		<polygon fill="#FBB040" points="93.7,-104.4 104.7,-114.2 122.4,-104.4 122.4,-99.7 104.7,-110.2 93.7,-99.7 		"/>
		<polygon fill="#FBB040" points="23.5,-106.6 23.5,-110.6 35.7,-114.8 49.1,-106.6 49.1,-102.6 35.7,-111.6 		"/>
		<polygon fill="#FBB040" points="92,-94.1 104.7,-93.2 122.4,-93.6 122.4,-88.9 104.7,-88.9 92,-91.5 		"/>
		<polygon fill="#FBB040" points="20.6,-95.1 36.3,-93.8 49.1,-95.1 50.1,-91.2 36.3,-90.1 20.6,-92.6 		"/>
	</g>
	<g id="Shirt">
		<polygon fill="#262262" points="42.7,-290.1 39.1,-273.5 39.3,-264.7 44.1,-253.7 46,-233 44.6,-222.4 43.6,-214.5 37.2,-206.2 
			55.6,-196.2 83.9,-197 101.6,-206.8 95.6,-216 94.2,-223.3 92.3,-233 95.3,-253.7 97.4,-265 97.4,-273.5 91.7,-289.2 69,-277.9 		
			"/>
		<polygon opacity="0.3" fill="#231F20" points="69.4,-196.2 83.9,-197 101.6,-206.8 95.6,-216 94.2,-223.3 92.3,-233 95.3,-253.7 
			83.6,-251.8 68.9,-253.7 69.1,-241.6 60.5,-240 69.1,-237.5 		"/>
		<polygon fill="#FBB040" points="41.9,-286.2 67.4,-275.5 93.4,-282.5 90.4,-294.5 68.4,-281 43.6,-294.5 		"/>
		<polygon opacity="0.1" fill="#231F20" points="41.9,-286.2 67.4,-275.5 93.4,-282.5 90.4,-294.5 68.4,-281 43.6,-294.5 		"/>
	</g>
	<g id="Belt_1_">
		<polygon fill="#262262" points="45.2,-226.8 44.6,-222.4 53.8,-215.1 58.1,-201.2 59.1,-138.8 80.9,-132.4 80.6,-201.9 88,-215.1 
			94.2,-223.3 93.4,-226.5 68.6,-221.7 		"/>
		<polygon opacity="0.5" fill="#231F20" points="45.2,-226.8 44.6,-222.4 53.8,-215.1 58.1,-201.2 59.1,-138.8 80.9,-132.4 
			80.6,-201.9 88,-215.1 94.2,-223.3 93.4,-226.5 68.6,-221.7 		"/>
		<polygon opacity="0.3" fill="#231F20" points="68.8,-136 80.9,-132.4 80.6,-201.9 88,-215.1 94.2,-223.3 93.4,-226.5 68.6,-221.7 
					"/>
		<polygon fill="#414042" points="93.4,-231 82.4,-225.5 56.8,-226.5 44.6,-231 43.1,-222.4 58.1,-219 82.4,-219 95,-223.3 		"/>
		<polygon opacity="0.1" fill="#231F20" points="93.4,-231 82.4,-225.5 65.6,-226.2 60.5,-223.1 66.4,-219 82.4,-219 95,-223.3 		
			"/>
		<polygon fill="#414042" points="75.2,-200.2 77.7,-226.8 70.6,-227 69,-200.9 71.7,-193.7 		"/>
		<polygon opacity="0.3" fill="#231F20" points="75.2,-200.2 77.7,-226.8 70.6,-227 69,-200.9 72.4,-204 		"/>
		<polygon fill="#414042" points="79.7,-220.1 68.6,-226 62.9,-223.3 77.1,-214.2 		"/>
		<polygon fill="#FBB040" points="67.4,-228.2 58.1,-223.3 68.2,-215.1 71.2,-217.9 62.9,-223.3 70.6,-227 		"/>
	</g>
	<g id="Left_Pauldron_1_">
		<polygon fill="#414042" points="92.6,-297.7 100.4,-297.7 112.4,-289.5 115.1,-279 92.6,-281 		"/>
		<polygon fill="#FBB040" points="88,-300.4 90.6,-279.5 116.6,-274.5 119.9,-282 93.4,-282.5 94.6,-301 		"/>
	</g>
	<g id="Right_Pauldron_1_">
		<polygon fill="#414042" points="43.4,-298.4 36.4,-298.4 23.9,-291.8 22.7,-281.8 40.4,-281.8 		"/>
		<polygon fill="#FBB040" points="46.4,-301 42.4,-281 20.6,-277.9 20.6,-286.2 39.6,-284 40.4,-300.4 		"/>
	</g>
	<g id="Left_Bracer_1_">
		<polygon fill="#414042" points="99.8,-235.1 100,-224.3 107.7,-211 121.9,-215 120.3,-235.6 114.1,-240.5 107,-235.9 		"/>
		<polygon opacity="0.1" fill="#231F20" points="110,-228.8 114.6,-212.4 121.9,-215 120.3,-235.6 114.1,-240.5 107,-235.9 		"/>
		<polygon fill="#FBB040" points="115.4,-243.2 106.7,-236.8 97.7,-237.7 98.4,-234.2 107.3,-234.6 115.7,-240.5 		"/>
		<polygon fill="#FBB040" points="98.9,-231 108.9,-231 118.8,-238.4 120.3,-236.7 111.1,-225.5 98.6,-228.2 		"/>
		<polygon fill="#FBB040" points="107,-210.8 122.3,-215.1 122.3,-212.4 108,-209.7 		"/>
	</g>
	<g id="Bident">
		<polygon fill="#414042" points="18.8,-82 13.8,-82 13.8,-329.2 6.1,-335.5 7.3,-371 10.8,-337 16.3,-334.8 18.8,-329.2 		"/>
		<polygon fill="#FBB040" points="12.5,-327.2 16.3,-334.8 22.7,-337 25.9,-371 26.6,-334.2 18.8,-329.2 12.5,-319.2 		"/>
		<polygon fill="#FBB040" points="19.5,-320.9 19.5,-314.1 12.5,-311 		"/>
	</g>
	<g id="Right_Arm_2_">
		<polygon fill="#603913" points="15.7,-295 15.7,-302.2 19.8,-305.2 21.9,-300.1 19.7,-294.3 		"/>
		<polygon opacity="0.3" fill="#231F20" points="15.7,-295 15.7,-302.2 19.8,-305.2 21.9,-300.1 19.7,-294.3 		"/>
		<polygon opacity="0.3" fill="#231F20" points="18.9,-250.3 20.6,-250.7 25.8,-261.7 19.5,-274.9 18.8,-274.8 18.8,-283.5 
			15.9,-282 15.9,-276.2 15.1,-254.5 		"/>
		<polygon fill="#603913" points="7.9,-243.2 17.6,-250 23.9,-261.8 15.9,-276.2 15.9,-282 21.9,-286 21.9,-290.1 22.7,-290.8 
			22.7,-294.5 23.5,-295.6 23.9,-297.7 10.6,-303.7 1.6,-298.4 -2,-285 0.5,-277.9 -5.4,-253.7 		"/>
		<polygon opacity="0.1" fill="#231F20" points="7.9,-243.2 17.6,-250 23.9,-261.8 15.9,-276.2 15.9,-282 21.9,-286 21.9,-290.1 
			22.7,-290.8 22.7,-294.5 23.5,-295.6 23.9,-297.7 20.6,-296.8 20.5,-293.3 17.8,-291.5 17.8,-287 11.8,-281.8 7.3,-280.6 
			12,-279.2 13.8,-259.5 		"/>
	</g>
	<g id="Right_Bracer_1_">
		<polygon fill="#414042" points="0.5,-277.9 -5.4,-253.7 9.2,-258.4 18.5,-251.8 23.9,-261.8 15.9,-276.2 		"/>
		<polygon opacity="0.1" fill="#231F20" points="9.7,-276.9 9.7,-268.5 9.2,-258.4 18.5,-251.8 23.9,-261.8 15.9,-276.2 		"/>
		<polygon fill="#FBB040" points="-3.2,-265.9 9.5,-270.2 23.9,-263.4 23.9,-259.5 9.6,-267.4 -4.5,-263.1 		"/>
		<polygon fill="#FBB040" points="-5.4,-256.9 9.1,-260.8 20.6,-254 18.4,-249.1 8.9,-256.4 -6,-253.4 		"/>
		<polygon fill="#FBB040" points="-0.6,-278.5 16.5,-277.3 16.5,-275.7 -1.8,-276.1 		"/>
	</g>
</g>
<g id="Squallo_Headshot">
	<circle opacity="0.1" fill="#231F20" cx="75" cy="75" r="75"/>
	<g>
		<defs>
			<path id="SVGID_1_" d="M75,0C59.4,0,44.9,4.8,32.9,12.9L32.7,5l-0.8,8.6c-5.8,4.1-11,8.9-15.4,14.4L14.2,5l-0.9,27.4
				C4.9,44.5,0,59.2,0,75c0,41.4,33.6,75,75,75c41.4,0,75-33.6,75-75C150,33.6,116.4,0,75,0z"/>
		</defs>
		<clipPath id="SVGID_2_">
			<use xlink:href="#SVGID_1_"  overflow="visible"/>
		</clipPath>
		<g clip-path="url(#SVGID_2_)">
			<g id="Body_2_">
				<polygon fill="#603913" points="115.6,179.8 118.1,180.6 120.8,179.8 123,180.5 126.1,179.8 129.2,180.5 132.7,179.8 
					133.1,170.3 128.8,164 127,140.4 120.8,135.5 123.9,112 118.3,102.6 119.2,94.7 106.7,82.7 91.8,80.8 86.4,68.2 65.5,68.2 
					60.2,80.8 45.3,82.7 32.8,94.7 28.6,100.5 6.2,107 1.7,122.3 14.9,132.8 24.6,126 40.4,122.3 46.2,111.3 51,122.3 52.9,143 
					52,161.5 41.1,179.9 38.4,194.3 39.4,204.8 35.7,214.8 36.3,225.2 28.3,234.5 33.8,264.9 27.5,275.5 30,294.2 47.4,300.3 
					57.4,294.8 53.7,265 55,250.5 61.9,240.8 61.7,230.8 67.4,221 68.2,210.1 74.1,196.8 74.9,182.3 76,182.1 78.5,182.3 80.9,200 
					86.1,212.2 85.9,223 92.1,233.7 91.4,242.3 98.4,250.5 103,264.8 98.5,294.5 108.5,300 125.9,293.8 128.4,275.2 123.1,264.3 
					125.1,232.7 118.5,224.5 117.7,214.8 113.8,206.3 115,194.3 113,181.1 102.4,160 99.1,143 102,122.3 106.5,141.8 106.7,151.7 
					115.2,166.3 113,170.3 				"/>
				<path opacity="0.1" fill="#231F20" d="M45.3,82.7l-4.4,13.5l0.5,12.9l-6.4,8.9l-10.3,8l15.8-3.7l5.8-11l4.8,11l0.7,7.5l16.5-8.6
					c-1.9-10.5-4.8-20.8-7.5-31.2L45.3,82.7z"/>
				<polygon opacity="0.1" fill="#231F20" points="128.8,164 127,140.4 120.8,135.5 123.9,112 118.3,102.6 119.2,94.7 106.7,82.7 
					91.8,80.8 86.4,68.2 76.3,81.4 75.2,97 104.2,102.5 115.4,115.4 113.9,140.1 121.5,166.3 128.4,171.4 129.1,177.9 127.1,176.5 
					123.7,178.5 121.3,177.5 118.4,179.2 115.6,179.8 118.1,180.6 120.8,179.8 123,180.5 126.1,179.8 129.2,180.5 132.7,179.8 
					133.1,170.3 				"/>
			</g>
			<g id="Head_2_">
				<polygon opacity="0.3" fill="#231F20" points="64.4,70 68.3,76.5 83.3,76.3 86.9,69.8 87.9,73.1 83.3,81.3 68.3,81.5 63.7,73.8 
									"/>
				<path fill="#603913" d="M60.4,50c0,0,0.7-13,15.3-13S90,50.7,90,50.7l-0.2,3.1l2,1.9l-0.4,5.5L89.3,63l-0.2,2.8l-5.8,10.5
					l-15,0.2l-6.6-11l-0.2-2.8L59,60.5l2-3.8L60.4,50z"/>
				<path opacity="0.1" fill="#231F20" d="M75.7,37C90.3,37,90,50.7,90,50.7l-0.8,15.2l-5.8,10.5l-8.1,0.1l3-5.9l-2.3-4.4l6.7-2
					l-6.8-9.5L75.7,37z"/>
				<polygon opacity="0.3" fill="#231F20" points="91.9,55.6 91.4,61.1 89.3,63 89.8,53.7 				"/>
				<polygon opacity="0.1" fill="#231F20" points="61,56.7 61.5,62.6 59,60.5 				"/>
				<polygon fill="#FBB040" points="60.7,60.2 59.8,61.2 60.7,63.6 				"/>
				<polygon fill="#FBB040" points="90,60.2 90.9,61.2 90,63.6 				"/>
				<polygon fill="#3C2415" points="78.1,52.1 78.9,53.7 87.9,52.9 83.4,51.4 				"/>
				<polygon fill="#3C2415" points="73.5,52.1 72.7,53.7 63.7,52.9 68.2,51.4 				"/>
				<path fill="#3C2415" d="M87.1,65.4l-6.4,3.4l-4.8-2.7l-5.1,2.4l-6.6-3.2l-2.7-5.2l0.2,5.3l5.4,11l8.7,10.2l8.6-10.2l4.8-10.7
					l0.2-5.1L87.1,65.4z M71.2,74.2l4.6-3.8l4.3,3.8l-4.3-0.8L71.2,74.2z"/>
				<polygon fill="#C2B59B" points="72.9,58.4 68.9,55.1 64,56.7 68.7,57.9 				"/>
				<polygon fill="#231F20" points="70.2,57.5 71.2,57 68.9,55.1 66.5,55.9 66.9,57 				"/>
				<polygon fill="#C2B59B" points="79,58.4 83,55.1 87.9,56.7 83.1,57.9 				"/>
				<polygon fill="#231F20" points="81.7,57.5 80.6,57 83,55.1 85.4,55.9 85,57 				"/>
			</g>
			<g id="Greaves_1_">
				<polygon fill="#414042" points="52,161.5 41.1,179.9 38.4,194.3 39.4,204.8 35.7,214.8 36.3,225.2 28.3,234.5 33.8,264.9 
					27.5,275.5 30,294.2 47.4,300.3 57.4,294.8 53.7,265 55,250.5 61.9,240.8 61.7,230.8 67.4,221 68.7,209.1 74.1,196.8 
					74.9,182.3 78.5,182.3 80.9,200 86.1,212.2 85.9,223 92.1,233.7 91.4,242.3 98.4,250.5 103,264.8 98.5,294.5 108.5,300 
					125.9,293.8 128.4,275.2 123.1,264.3 125.1,232.7 118.5,224.5 117.7,214.8 114.1,203.9 115,194.3 113,181.1 102.4,160 				"/>
				<polygon opacity="0.1" fill="#231F20" points="63.9,161.8 53,196 51.5,205 50,215.2 47,233.5 42.2,247.5 43.2,263.2 43.2,284.5 
					47.4,300.3 57.4,294.8 53.7,265 55,250.5 61.9,240.8 61.7,230.8 67.4,221 68.7,209.1 74.1,196.8 74.9,182.3 88.2,168.8 
					92.7,194.5 94.8,203.9 96,217.2 102.9,235.9 112.1,248.2 112.1,264 112.1,284.5 108.5,300 125.9,293.8 128.4,275.2 123.1,264.3 
					125.1,232.7 118.5,224.5 117.7,214.8 114.1,203.9 115,194.3 113,181.1 102.4,160 				"/>
				<polygon opacity="0.3" fill="#231F20" points="99.4,288.6 109,292.8 123.4,288.6 128.1,277.4 125.9,293.8 108.5,300 98.5,294.5 
									"/>
				<polygon opacity="0.3" fill="#231F20" points="27.5,275.5 32.4,287.4 45.7,293 56.6,288.7 57.4,294.8 47.4,300.3 30,294.2 				
					"/>
				<polygon fill="#FBB040" points="39.5,178.8 41.5,175.8 54.2,193.5 75.6,190.2 75.6,193.5 52.7,197.2 				"/>
				<polygon fill="#FBB040" points="37.3,205.5 51.5,203.9 69.7,210.5 69.7,213.8 51,206.5 36.3,208.8 				"/>
				<path fill="#FBB040" d="M77.5,190.8c0,0,0,4,0,3.8s16,1.5,16,1.5l18.7-19l-2.1-2.9l-17.9,18.4L77.5,190.8z"/>
				<polygon fill="#FBB040" points="83.2,210.5 94.8,201.8 115.6,203.9 115.6,206.1 94.8,205.2 84.4,213.8 				"/>
				<polygon fill="#FBB040" points="85.2,225.2 96.9,218.5 119.1,215 117.8,213.8 95.9,216 83.2,223.5 				"/>
				<polygon fill="#FBB040" points="89.2,232.2 103.9,233.5 119.1,221 119.1,223.2 104.1,236 90.4,234.8 				"/>
				<polygon fill="#FBB040" points="90.7,242.4 110.9,245 125.9,232.7 125.9,238.8 112.1,254.5 93.2,246.2 				"/>
				<polygon fill="#FBB040" points="34.3,215.8 50.5,213.8 68.7,221 67.4,224 50.2,216.5 34.3,217.8 				"/>
				<polygon fill="#FBB040" points="34.3,224 47.7,230.5 63.9,230.5 63.9,233.5 47,233.5 34.3,226.5 				"/>
				<polygon fill="#FBB040" points="27.3,232.7 42.7,243.8 63.9,240.2 62.2,243.6 42,252 27.3,236 				"/>
				<polygon fill="#FBB040" points="100.6,271.6 111.5,261.8 129.2,271.6 129.2,276.3 111.5,265.8 100.6,276.3 				"/>
				<polygon fill="#FBB040" points="30.3,269.4 30.3,265.4 42.5,261.2 56,269.4 56,273.4 42.5,264.4 				"/>
				<polygon fill="#FBB040" points="98.8,281.9 111.5,282.8 129.2,282.4 129.2,287.1 111.5,287.1 98.8,284.5 				"/>
				<polygon fill="#FBB040" points="27.5,280.9 43.2,282.2 56,280.9 57,284.8 43.2,285.9 27.5,283.4 				"/>
			</g>
			<g id="Shirt_1_">
				<polygon fill="#262262" points="49.6,85.9 46,102.5 46.1,111.3 51,122.3 52.9,143 51.5,153.6 50.5,161.5 44.1,169.8 62.5,179.8 
					90.7,179 108.4,169.2 102.5,160 101,152.7 99.1,143 102.1,122.3 104.2,111 104.2,102.5 98.6,86.8 75.9,98.1 				"/>
				<polygon opacity="0.3" fill="#231F20" points="76.3,179.8 90.7,179 108.4,169.2 102.5,160 101,152.7 99.1,143 102.1,122.3 
					90.4,124.2 75.8,122.3 75.9,134.4 67.4,136 75.9,138.5 				"/>
				<polygon fill="#FBB040" points="48.7,89.8 74.2,100.5 100.2,93.5 97.3,81.5 75.2,95 50.5,81.5 				"/>
				<polygon opacity="0.1" fill="#231F20" points="48.7,89.8 74.2,100.5 100.2,93.5 97.3,81.5 75.2,95 50.5,81.5 				"/>
			</g>
			<g id="Belt_2_">
				<polygon fill="#262262" points="52.1,149.2 51.5,153.6 60.7,160.9 65,174.8 66,237.2 87.7,243.6 87.5,174.1 94.9,160.9 
					101,152.7 100.2,149.5 75.4,154.3 				"/>
				<polygon opacity="0.5" fill="#231F20" points="52.1,149.2 51.5,153.6 60.7,160.9 65,174.8 66,237.2 87.7,243.6 87.5,174.1 
					94.9,160.9 101,152.7 100.2,149.5 75.4,154.3 				"/>
				<polygon opacity="0.3" fill="#231F20" points="75.6,240 87.7,243.6 87.5,174.1 94.9,160.9 101,152.7 100.2,149.5 75.4,154.3 
									"/>
				<polygon fill="#414042" points="100.2,145 89.2,150.5 63.7,149.5 51.5,145 50,153.6 65,157 89.3,157 101.8,152.7 				"/>
				<polygon opacity="0.1" fill="#231F20" points="100.2,145 89.2,150.5 72.5,149.8 67.4,152.9 73.2,157 89.3,157 101.8,152.7 				
					"/>
				<polygon fill="#414042" points="82.1,175.8 84.6,149.2 77.5,149 75.9,175.1 78.5,182.3 				"/>
				<polygon opacity="0.3" fill="#231F20" points="82.1,175.8 84.6,149.2 77.5,149 75.9,175.1 79.2,172 				"/>
				<polygon fill="#414042" points="86.6,155.9 75.4,150 69.7,152.7 84,161.8 				"/>
				<polygon fill="#FBB040" points="74.2,147.8 65,152.7 75.1,160.9 78.1,158.1 69.7,152.7 77.5,149 				"/>
			</g>
			<g id="Left_Pauldron_2_">
				<polygon fill="#414042" points="99.5,78.3 107.2,78.3 119.2,86.5 122,97 99.5,95 				"/>
				<polygon fill="#FBB040" points="94.9,75.6 97.5,96.5 123.5,101.5 126.7,94 100.2,93.5 101.5,75 				"/>
			</g>
			<g id="Right_Pauldron_2_">
				<polygon fill="#414042" points="50.2,77.6 43.2,77.6 30.7,84.2 29.6,94.2 47.2,94.2 				"/>
				<polygon fill="#FBB040" points="53.2,75 49.2,95 27.5,98.1 27.5,89.8 46.5,92 47.2,75.6 				"/>
			</g>
			<g id="Left_Bracer_2_">
				<polygon fill="#414042" points="106.6,140.9 106.8,151.7 114.6,165 128.8,161 127.2,140.4 121,135.5 113.9,140.1 				"/>
				<polygon opacity="0.1" fill="#231F20" points="116.8,147.2 121.5,163.6 128.8,161 127.2,140.4 121,135.5 113.9,140.1 				"/>
				<polygon fill="#FBB040" points="122.3,132.8 113.6,139.2 104.6,138.3 105.2,141.8 114.2,141.4 122.6,135.5 				"/>
				<polygon fill="#FBB040" points="105.7,145 115.7,145 125.6,137.6 127.1,139.3 118,150.5 105.5,147.8 				"/>
				<polygon fill="#FBB040" points="113.9,165.2 129.1,160.9 129.1,163.6 114.8,166.3 				"/>
			</g>
			<g id="Bident_1_">
				<polygon fill="#414042" points="25.7,294 20.7,294 20.7,46.8 13,40.5 14.2,5 17.7,39 23.2,41.2 25.7,46.8 				"/>
				<polygon fill="#FBB040" points="19.3,48.8 23.2,41.2 29.6,39 32.7,5 33.5,41.8 25.7,46.8 19.3,56.8 				"/>
				<polygon fill="#FBB040" points="26.4,55.1 26.4,61.9 19.3,65 				"/>
			</g>
			<g id="Right_Arm_3_">
				<polygon fill="#603913" points="22.6,81 22.6,73.8 26.7,70.8 28.8,75.9 26.5,81.7 				"/>
				<polygon opacity="0.3" fill="#231F20" points="22.6,81 22.6,73.8 26.7,70.8 28.8,75.9 26.5,81.7 				"/>
				<polygon opacity="0.3" fill="#231F20" points="25.8,125.7 27.5,125.3 32.6,114.3 26.4,101.1 25.6,101.2 25.7,92.5 22.7,94 
					22.7,99.8 22,121.5 				"/>
				<polygon fill="#603913" points="14.7,132.8 24.5,126 30.7,114.2 22.7,99.8 22.7,94 28.8,90 28.8,85.9 29.6,85.2 29.6,81.5 
					30.4,80.4 30.7,78.3 17.5,72.3 8.5,77.6 4.9,91 7.4,98.1 1.5,122.3 				"/>
				<polygon opacity="0.1" fill="#231F20" points="14.7,132.8 24.5,126 30.7,114.2 22.7,99.8 22.7,94 28.8,90 28.8,85.9 29.6,85.2 
					29.6,81.5 30.4,80.4 30.7,78.3 27.5,79.2 27.3,82.7 24.6,84.5 24.6,89 18.6,94.2 14.2,95.4 18.9,96.8 20.7,116.5 				"/>
			</g>
			<g id="Right_Bracer_2_">
				<polygon fill="#414042" points="7.4,98.1 1.5,122.3 16.1,117.6 25.4,124.2 30.7,114.2 22.7,99.8 				"/>
				<polygon opacity="0.1" fill="#231F20" points="16.5,99.1 16.5,107.5 16.1,117.6 25.4,124.2 30.7,114.2 22.7,99.8 				"/>
				<polygon fill="#FBB040" points="3.6,110.1 16.4,105.8 30.7,112.6 30.7,116.5 16.4,108.6 2.4,112.9 				"/>
				<polygon fill="#FBB040" points="1.5,119.1 16,115.2 27.5,122 25.2,126.9 15.7,119.6 0.9,122.6 				"/>
				<polygon fill="#FBB040" points="6.2,97.5 23.4,98.7 23.4,100.3 5.1,99.9 				"/>
			</g>
		</g>
	</g>
</g>
<g id="Crunch">
	<polygon id="Shadow" opacity="0.3" fill="#231F20" points="324.1,-95.2 237,-95.1 193.6,-82 252,-63 322.3,-67 352,-76 	"/>
	<g id="Cloak">
		<polygon fill="#594A42" points="337.1,-111 324.1,-106 294.6,-113.1 278.7,-108.2 247.3,-113.1 230.6,-105.7 230.6,-179.6 
			237.6,-225.5 237.6,-297.8 282.7,-284.2 322.3,-303 325.1,-208.3 337.1,-148 		"/>
		<polygon opacity="0.3" fill="#231F20" points="337.1,-111 324.1,-106 294.6,-113.1 278.7,-108.2 247.3,-113.1 230.6,-105.7 
			230.6,-179.6 237.6,-225.5 237.6,-297.8 282.7,-284.2 322.3,-303 325.1,-208.3 337.1,-148 		"/>
	</g>
	<g id="Tail_2_">
		<g id="Tail">
			<path fill="#006838" d="M295.4-189.7c0,0,15.8,67.5-53.6,67.5c-71,0-35-79.8-35-79.8s-3,56.8,26.5,56.8
				c37.2,0,38.4-44.7,38.4-44.7L295.4-189.7z"/>
		</g>
		<g id="Tail_1_" opacity="0.5">
			<path fill="#231F20" d="M295.4-189.7c0,0,15.8,67.5-53.6,67.5c-71,0-35-79.8-35-79.8s-3,56.8,26.5,56.8
				c37.2,0,38.4-44.7,38.4-44.7L295.4-189.7z"/>
		</g>
		<path opacity="0.5" fill="#231F20" d="M295.4-189.7l-24.1-1.6c0,0,16.3,59.3-43.2,59.3c-9.5,0-16.2-0.7-21-1.9
			c6.7,7,17.6,11.6,34.6,11.6C311.2-122.2,295.4-189.7,295.4-189.7z"/>
	</g>
	<g id="Fire">
		<polygon fill="#EF4136" points="223.4,-313.1 232.7,-321.2 240,-339.7 253.4,-350.4 259.6,-366 251.3,-376 244,-370.7 
			251.3,-380.3 259.6,-376.3 268.3,-368 270.6,-355.7 265.6,-345.5 282.6,-358.3 284.1,-373.7 287.2,-358.7 284.9,-349 
			304.1,-366.7 307.3,-379 320.6,-385 324.6,-396 317.3,-403 328.3,-399 328.6,-390.7 322.3,-378.7 337.1,-385.5 345.6,-393.5 
			341.6,-381 328.6,-373.1 322.3,-362 313.4,-350.4 322.3,-355.7 337.6,-370.5 337.2,-360.7 348.8,-369 358,-385 358,-373 
			350.6,-360.7 364.3,-367.7 373.6,-384.3 370.6,-390 376.3,-386.7 376.3,-378.3 373.6,-363.7 368.3,-352.7 373.6,-356.7 
			366,-341.4 371.6,-344.1 358.6,-324.5 348.8,-323.4 338.6,-316.8 325.1,-316.7 313.4,-310 292.3,-310 281.5,-299.2 253.4,-300.4 
					"/>
		<polygon fill="#F15A29" points="229.3,-313.5 239.6,-322.2 247.6,-338.5 256.7,-347.8 261.9,-356 258.6,-343 260.6,-337.5 
			270.2,-344.1 279.2,-350 276.4,-338.5 284.9,-343.1 299.9,-349.5 304.1,-359 312.1,-366.5 312.6,-371.2 319.1,-373.2 
			315.9,-369.2 315.4,-362.5 309,-355 307.9,-343 321.4,-347.8 329.6,-354.8 329.6,-347.8 340.1,-358 344.9,-360 342.6,-351.1 
			351.8,-349.2 357.6,-352.8 357.7,-357.5 363.9,-359.5 360.9,-356 364.9,-347.8 362.9,-338.5 357.1,-329.1 348.9,-325.2 
			337.6,-319.9 325.1,-319 312.4,-314.2 291.9,-313 281.5,-303 253.6,-303.2 		"/>
		<polygon fill="#EF4136" points="301.6,-399 295.4,-394.7 292.3,-388 301.6,-393.5 		"/>
		<polygon fill="#EF4136" points="351.8,-390 355.1,-398.8 366.2,-402 368.8,-408 368.8,-397.7 356.5,-394.2 		"/>
		<polygon fill="#EF4136" points="229.3,-339.7 232.7,-350.4 243.1,-356 235.4,-348.5 		"/>
	</g>
	<g id="Body">
		<polygon fill="#006838" points="302.9,-294.5 297.9,-308.2 268.1,-308.2 263.1,-294.5 223.6,-292.8 217.2,-244.9 222.6,-217.3 
			243.1,-242 258,-220 258,-215 249,-207.9 243.1,-188.8 240.1,-169.5 250.9,-144.8 248.9,-140.5 252.4,-135.5 260.3,-95.2 
			254.3,-90.6 261.2,-84 268,-84 274.7,-88.7 268,-95.2 269.4,-133.2 273.1,-139.5 267.9,-145 275.1,-164.2 272.9,-176.5 
			293.1,-176.5 291.6,-165.5 298.7,-146.5 295.4,-140.5 298.7,-132.2 298.7,-94.3 291.6,-88.4 298.7,-84 305.5,-84 312.4,-89.9 
			306.3,-94 314.1,-133.7 317,-138.9 315.8,-144.8 326.6,-168 323.8,-187.2 316.6,-205.7 307.3,-215 307.3,-221.9 322.3,-242.7 
			331.3,-223.3 328.6,-207.9 345,-178.3 340.9,-174.1 346.6,-160.6 355.6,-155.7 357.6,-162.8 365,-161.3 366.6,-168 373.6,-170.3 
			370.1,-183.6 361.2,-184.2 356,-213.3 349.3,-224.6 351.6,-238 348.8,-261.7 351,-273.9 344.4,-290.8 		"/>
		<polygon opacity="0.1" fill="#231F20" points="282.1,-280.1 313.2,-293.6 302.9,-294.5 297.9,-308.2 283.4,-308.2 		"/>
		<polygon opacity="0.1" fill="#231F20" points="326.6,-168 269.5,-187.7 265.6,-164.2 259.6,-146.7 265.6,-138.7 261.5,-131 
			264.6,-93.8 259.2,-89 261.2,-84 268,-84 274.7,-88.7 268,-95.2 269.4,-133.2 273.1,-139.5 267.9,-145 275.1,-164.2 272.9,-176.5 
			315.4,-162.1 310.6,-148 310.6,-139.7 305.3,-134 302.4,-91.2 295.8,-85.8 298.7,-84 305.5,-84 312.4,-89.9 306.3,-94 
			314.1,-133.7 317,-138.9 315.8,-144.8 		"/>
		<polygon opacity="0.1" fill="#231F20" points="370.1,-183.6 361.2,-184.2 356,-213.3 349.3,-224.6 351.6,-238 348.8,-261.7 
			351,-273.9 344.4,-290.8 338.6,-264.3 348,-238.8 340.5,-222.8 356.4,-180.3 354.3,-167.7 346.6,-160.6 355.6,-155.7 
			357.6,-162.8 365,-161.3 366.6,-168 373.6,-170.3 		"/>
		<polygon opacity="0.1" fill="#231F20" points="283,-215 307.3,-215 307.3,-221.9 322.3,-242.7 322.3,-258 322.3,-274.2 
			304.1,-258 283,-259.5 283,-248.7 267.9,-246 283,-244.6 283,-235.8 267.9,-233.8 283,-230 		"/>
		<polygon opacity="0.1" fill="#231F20" points="245,-264.3 237,-243.7 220.7,-222.8 203.3,-213.3 222.6,-217.3 243.1,-242 		"/>
	</g>
	<g id="Left_Foot_Claws_1_">
		<polygon fill="#C2B59B" points="258,-89.5 252.1,-91.2 247.3,-77 254.3,-84 		"/>
		<polygon fill="#C2B59B" points="272.4,-83.9 279,-76 277.1,-89.8 272.5,-87.6 		"/>
		<polygon opacity="0.1" fill="#231F20" points="258,-89.5 252.1,-91.2 247.3,-77 254.3,-84 		"/>
		<polygon opacity="0.1" fill="#231F20" points="272.4,-83.9 279,-76 277.1,-89.8 272.5,-87.6 		"/>
		<polygon fill="#C2B59B" points="259.5,-90.2 254.3,-87.2 255.8,-79 259.1,-75 261.2,-84 		"/>
		<polygon fill="#C2B59B" points="269.9,-89.8 268,-84 269.1,-80.7 272.4,-75.5 274.7,-85.5 		"/>
		<polygon fill="#C2B59B" points="263.1,-89.8 261.2,-84 262.4,-80.7 265.7,-75.5 268,-84 		"/>
	</g>
	<g id="Left_Foot_Claws">
		<polygon fill="#C2B59B" points="308.7,-89.5 314.9,-90.2 318.6,-77 312.4,-84 		"/>
		<polygon fill="#C2B59B" points="294.3,-83.9 287.3,-77 289.5,-89 294.2,-87.6 		"/>
		<polygon opacity="0.1" fill="#231F20" points="308.7,-89.5 314.9,-90.2 318.6,-77 312.4,-84 		"/>
		<polygon opacity="0.1" fill="#231F20" points="294.3,-83.9 287.3,-77 289.5,-89 294.2,-87.6 		"/>
		<polygon fill="#C2B59B" points="307.5,-89.8 312.4,-88.5 311.1,-80.3 308.4,-76 305,-84.1 		"/>
		<polygon fill="#C2B59B" points="297.1,-89 298.7,-84 298.1,-80.7 294.3,-75.5 293,-86.9 		"/>
		<polygon fill="#C2B59B" points="303.6,-89.8 305,-84.1 304.3,-80.7 301.4,-76 298.7,-84 		"/>
	</g>
	<g id="Left_Hand_Claws">
		<polygon fill="#C2B59B" points="354.6,-158.8 348.5,-161.5 345.6,-167.4 347.1,-174.8 354.6,-168 		"/>
		<polygon fill="#C2B59B" points="369.5,-171.1 365.1,-169.7 361.7,-177.1 362.5,-182.9 368.9,-176.5 		"/>
		<polygon fill="#C2B59B" points="363.9,-164.2 354.6,-168 353.9,-174.8 355.4,-179.6 365.1,-169.7 		"/>
		<polygon opacity="0.1" fill="#231F20" points="354.6,-158.8 348.5,-161.5 345.6,-167.4 347.1,-174.8 354.6,-168 		"/>
		<polygon opacity="0.1" fill="#231F20" points="369.5,-171.1 365.1,-169.7 361.7,-177.1 362.5,-182.9 368.9,-176.5 		"/>
		<polygon opacity="0.1" fill="#231F20" points="363.9,-164.2 354.6,-168 353.9,-174.8 355.4,-179.6 365.1,-169.7 		"/>
		<polygon fill="#C2B59B" points="366.6,-174.8 358.8,-171.6 352,-172.6 359.5,-180.8 368.6,-181.8 		"/>
	</g>
	<g id="Harness">
		<polygon fill="#3C2415" points="244.6,-264.3 243.1,-242 283.4,-267.9 295.9,-274.2 322.3,-258 322.3,-263.6 302.6,-277.7 
			314.6,-283.7 322.3,-297.8 301.7,-297.8 283,-289.5 255.4,-271.4 247.8,-279.1 243.1,-276.6 248.2,-266.7 		"/>
		<polygon opacity="0.3" fill="#231F20" points="283.4,-267.9 295.9,-274.2 322.3,-258 322.3,-263.6 302.6,-277.7 314.6,-283.7 
			322.3,-297.8 301.7,-297.8 283,-289.5 264.5,-277.4 263.3,-266.3 272.1,-260.7 		"/>
		<polygon fill="#A7A9AC" points="279.5,-287.2 270.2,-282.3 279.5,-264.5 287.3,-269.9 278.7,-259.2 265.6,-284.2 		"/>
	</g>
	<g id="Left_Pauldron">
		<polygon fill="#939598" points="352.6,-276 332.4,-277.9 309.6,-288.4 310.8,-296.4 309,-303 330.6,-305.8 352.3,-302.2 
			353.8,-295.3 		"/>
		<polygon fill="#BCBEC0" points="352.8,-271.1 329.6,-273 305.4,-286 307.1,-294.3 305.4,-303 308.6,-304.4 310.8,-296.4 
			309.6,-288.4 332.4,-277.9 353.8,-276 		"/>
	</g>
	<g id="Right_Pauldron">
		<polygon fill="#939598" points="214.8,-276.2 235.1,-277.9 255.4,-288.4 255.4,-294.5 256.7,-302.8 235.5,-305.8 213.7,-302.2 
			212.2,-295.3 		"/>
		<polygon fill="#BCBEC0" points="213.7,-271 236.4,-273 260.6,-286 259,-294.3 260.6,-304.4 257,-304.4 255.4,-294.5 255.4,-288.4 
			235.1,-277.9 213.4,-276 		"/>
	</g>
	<g id="Right_Arm_1_">
		<polygon opacity="0.1" fill="#231F20" points="224.7,-256.4 221.9,-231.5 232.7,-255 227.2,-304.4 214.1,-301.4 		"/>
		<polygon id="Right_Arm" fill="#006838" points="193.6,-235.8 203.3,-213.3 222.6,-217.3 227,-256.4 218.6,-288.4 221.6,-292 
			220.4,-304.6 208.8,-310 206,-305.8 201.6,-308.2 197.6,-303.4 191.9,-304.4 193.6,-290.7 199.6,-288.4 		"/>
	</g>
	<g id="Sword">
		<polygon fill="#D1D3D4" points="225.6,-304.2 228.1,-295.1 347.1,-327.4 356.4,-339.7 		"/>
		<polygon fill="#E6E7E8" points="223,-313.9 225.6,-304.2 356.4,-339.6 339.3,-345.3 		"/>
		<path fill="#414042" d="M215.4-322.8l4.9-1.3l10.4,38.6l-4.9,1.3l-4.3-16.2l-29.1,7.5c-0.5,1-1.4,1.9-2.6,2.2
			c-2.1,0.6-4.3-0.7-4.9-2.8c-0.6-2.1,0.7-4.3,2.8-4.9c1.2-0.3,2.4,0,3.3,0.6l29.1-7.5L215.4-322.8z"/>
	</g>
	<g id="Right_Hand_Claws">
		<polygon fill="#C2B59B" points="193.6,-303 194.6,-297.2 196.4,-292.6 202.6,-289.8 201,-297.8 198.8,-301.4 		"/>
		<polygon opacity="0.1" fill="#231F20" points="193.6,-303 194.6,-297.2 196.4,-292.6 202.6,-289.8 201,-297.8 198.8,-301.4 		"/>
		<polygon fill="#C2B59B" points="209.3,-307.4 207.1,-303 208.8,-297.4 214.1,-293.7 214.8,-304 		"/>
		<polygon fill="#C2B59B" points="202.1,-305.8 201,-297.8 202.6,-294.7 207.1,-292.6 207.1,-303 		"/>
		<polygon opacity="0.1" fill="#231F20" points="209.3,-307.4 207.1,-303 208.8,-297.4 214.1,-293.7 214.8,-304 		"/>
		<polygon opacity="0.1" fill="#231F20" points="202.1,-305.8 201,-297.8 202.6,-294.7 207.1,-292.6 207.1,-303 		"/>
		<polygon fill="#C2B59B" points="212,-302.1 204.1,-296.9 202.2,-292.1 212.9,-292.6 219.2,-297.8 		"/>
	</g>
	<g id="Right_Bracer">
		<polygon fill="#BCBEC0" points="198.4,-285.7 219.2,-288.4 220.7,-283.5 196.7,-267.9 		"/>
		<polygon fill="#939598" points="197.4,-268.7 194.5,-243.7 226.1,-248.6 227,-256.4 220,-283 		"/>
		<polygon opacity="0.1" fill="#231F20" points="207.7,-275.2 214.8,-257.3 214.8,-246.9 226.1,-248.6 227,-256.4 220,-283 		"/>
		<polygon fill="#BCBEC0" points="193,-235.8 226,-243.1 226.6,-248.7 194,-243.7 		"/>
	</g>
	<g id="Left_Bracer">
		<polygon fill="#BCBEC0" points="329.6,-219.5 351.9,-221.9 354.6,-217.7 328.6,-215 		"/>
		<polygon fill="#BCBEC0" points="361.7,-187.3 344.3,-177.7 342.1,-181.8 358.6,-204.9 		"/>
		<polygon fill="#939598" points="329.9,-215.1 328.6,-207.9 342.6,-182.5 357.7,-203.7 356,-213.3 353.4,-217.7 		"/>
		<polygon opacity="0.1" fill="#231F20" points="343.2,-216.5 349.6,-207.5 347.3,-189 357.7,-203.7 356,-213.3 353.4,-217.7 		"/>
	</g>
	<g id="Head">
		<polygon opacity="0.1" fill="#231F20" points="300.4,-301.4 292.3,-302.7 283.1,-297.8 273.8,-302.7 265.6,-301.4 268.1,-308.2 
			297.9,-308.2 		"/>
		<path fill="#006838" d="M288.4-341.1l-5.2-3l-5.2,3c0,0-22.5-3-22.5,10.6l12.5,13.2l5,0.6l5.5-7.2l4.7,2.5l4.7-2.5l5.5,7.2l5-0.6
			l12.5-13.2C310.8-344.1,288.4-341.1,288.4-341.1z"/>
		<path opacity="0.1" fill="#231F20" d="M288.4-341.1l3.3,8.4l-6.7,5.3l-1.8,5.9l-4.7-2.5l4.7,2.5l4.7-2.5l5.5,7.2l5-0.6l12.5-13.2
			C310.8-344.1,288.4-341.1,288.4-341.1z"/>
		<polygon fill="#2BB673" points="325.1,-338.5 310.8,-330.5 298.3,-317.4 293.3,-316.8 287.8,-324 283.1,-321.5 278.4,-324 
			272.9,-316.8 268,-317.4 255.4,-330.5 243.1,-338.5 253.3,-324.5 247.1,-316.8 261.2,-311.6 267.5,-304 273.9,-306.2 
			283.1,-301.4 292.1,-306.5 298.7,-304 305.1,-311.6 319.3,-318.9 312.9,-324.5 		"/>
		<polygon opacity="0.1" fill="#231F20" points="325.1,-338.5 310.8,-330.5 298.3,-317.4 293.3,-316.8 287.8,-324 283.1,-321.5 
			288,-310 283.1,-301.4 292.1,-306.5 298.7,-304 305.1,-311.6 319.3,-318.9 312.9,-324.5 		"/>
		<polygon opacity="0.3" fill="#231F20" points="277,-319.9 279,-322.5 281.5,-320.3 279.1,-321.2 		"/>
		<polygon opacity="0.3" fill="#231F20" points="289.5,-319.9 287.5,-322.5 284.9,-320.3 287.3,-321.2 		"/>
		<polygon fill="#F9ED32" points="263.4,-331.7 270.6,-328.4 271.4,-319.9 263.4,-324.4 		"/>
		<polygon fill="#3C2415" points="267.4,-329.9 268.3,-325.8 267.4,-322.2 266.6,-325.8 		"/>
		<polygon fill="#F9ED32" points="301.6,-331.7 294.4,-328.4 293.6,-319.9 301.6,-324.4 		"/>
		<polygon fill="#3C2415" points="297.6,-329.9 296.7,-325.8 297.6,-322.2 298.4,-325.8 		"/>
		<polygon fill="#C2B59B" points="270.2,-312 275.4,-312 273.2,-304.2 		"/>
	</g>
	<g id="Pants">
		<polygon opacity="0.1" fill="#231F20" points="318.8,-151.1 325.1,-183.8 316.6,-200.7 309,-208.3 286.6,-208 284.8,-201.4 
			287.1,-187.4 296.4,-162.2 312.7,-147.8 316.7,-146.7 		"/>
		<polygon opacity="0.1" fill="#231F20" points="254.3,-207.1 249,-202.9 240.6,-183.8 248,-151.3 249.9,-146.9 254.3,-148.2 
			268.7,-160.4 277.9,-185.6 277.9,-200.6 275.9,-207.6 		"/>
		<polygon opacity="0.3" fill="#231F20" points="265.8,-207.4 259.6,-159.2 269.4,-157.1 272.7,-157.9 274.8,-163.3 281.9,-182.6 
			292.6,-162.7 294.7,-157.1 295.4,-157.1 305.4,-159.2 298.1,-208.3 		"/>
		<polygon fill="#3C2415" points="278.2,-168.1 286.1,-168.1 281.6,-176.9 		"/>
		<polygon opacity="0.3" fill="#231F20" points="278.2,-168.1 286.1,-168.1 281.6,-176.9 		"/>
		<polygon fill="#3C2415" points="265.8,-212.4 259.6,-164.2 269.4,-162.1 278.4,-164.2 281.7,-173 285.6,-164.2 295.4,-162.1 
			305.4,-164.2 298.1,-213.3 		"/>
		<polygon opacity="0.1" fill="#231F20" points="281.7,-173 285.6,-164.2 295.4,-162.1 305.4,-164.2 298.1,-213.3 282.1,-212.8 		
			"/>
		<polygon fill="#594A42" points="254.3,-212.1 249,-207.9 240.6,-188.8 237.6,-148 254.3,-153.2 268.7,-165.4 277.9,-190.6 
			277.9,-205.6 275.9,-212.6 		"/>
		<polygon fill="#594A42" points="330.4,-148 325.1,-188.8 316.6,-205.7 309,-213.3 286.6,-213 284.8,-206.4 287.1,-192.4 
			296.4,-167.2 312.7,-152.8 		"/>
		<polygon opacity="0.1" fill="#231F20" points="330.4,-148 325.1,-188.8 316.6,-205.7 309,-213.3 286.6,-213 284.8,-206.4 
			287.1,-192.4 296.4,-167.2 312.7,-152.8 		"/>
		<polygon fill="#594A42" points="237.6,-148 249.2,-148.6 248,-151.3 		"/>
		<polygon opacity="0.1" fill="#231F20" points="237.6,-148 249.2,-148.6 248,-151.3 		"/>
		<polygon fill="#594A42" points="330.4,-148 318.8,-151.1 317.8,-149 		"/>
		<polygon opacity="0.1" fill="#231F20" points="330.4,-148 318.8,-151.1 317.8,-149 		"/>
	</g>
	<g id="Belt">
		<polygon fill="#3C2415" points="255.6,-220.2 309,-221.9 309,-213.3 254.3,-212.1 		"/>
		<polygon opacity="0.3" fill="#231F20" points="276.4,-220.9 309,-221.9 309,-213.3 274.5,-212.6 271.4,-217.7 		"/>
		<polygon fill="#A7A9AC" points="285.1,-221.2 279.2,-221.4 279.1,-212.6 285.1,-212.9 277.9,-211.1 277.9,-222.8 		"/>
	</g>
	<g id="Left_Greaves">
		<polygon fill="#939598" points="306.1,-131 296.8,-126 297.7,-99.2 301.8,-95.2 307.6,-98.5 313.7,-124.9 		"/>
		<polygon opacity="0.1" fill="#231F20" points="306.1,-131 301.8,-95.2 307.6,-98.5 313.7,-124.9 		"/>
		<polygon fill="#BCBEC0" points="306.2,-134 315.4,-125.9 314.7,-124 311.7,-126.4 305.4,-123.5 299.6,-127.5 295.8,-125.5 
			295.4,-128 		"/>
		<polygon fill="#BCBEC0" points="297.2,-99.6 301.8,-95.2 308.1,-98.8 308.1,-97.2 301.8,-93.8 296.7,-98.1 		"/>
	</g>
	<g id="Right_Greaves">
		<polygon fill="#BCBEC0" points="261.2,-133.5 252,-127.5 252.4,-124.8 254.2,-126.2 256.4,-128 261.2,-125.2 266.4,-128.8 
			270.3,-126 270.8,-128.3 		"/>
		<polygon fill="#BCBEC0" points="257.6,-99.2 264.6,-97.4 269.8,-99.8 269.8,-102.1 264.6,-98.8 257.6,-100.5 		"/>
		<polygon fill="#939598" points="253.4,-125.6 256.4,-128 261.2,-125.2 266.4,-128.8 269.5,-126.5 269,-101.5 264.6,-98.8 
			258.4,-100.3 		"/>
		<polygon opacity="0.1" fill="#231F20" points="261.2,-125.2 266.4,-128.8 269.5,-126.5 269,-101.5 264.6,-98.8 		"/>
	</g>
</g>
<g id="Crunch_Headshot">
	<circle opacity="0.1" fill="#231F20" cx="280.6" cy="75" r="75"/>
	<g>
		<defs>
			<path id="SVGID_3_" d="M349.9,46.2l3.6-4.8l-7.1-2.4C333.7,15.8,309,0,280.6,0c-41.4,0-75,33.6-75,75c0,41.4,33.6,75,75,75
				s75-33.6,75-75C355.6,64.8,353.6,55.1,349.9,46.2z"/>
		</defs>
		<clipPath id="SVGID_4_">
			<use xlink:href="#SVGID_3_"  overflow="visible"/>
		</clipPath>
		<g clip-path="url(#SVGID_4_)">
			<polygon id="Shadow_2_" opacity="0.3" fill="#231F20" points="321.2,285.8 234.1,285.9 190.8,299 249.2,318 319.4,314 349.1,305 
							"/>
			<g id="Cloak_1_">
				<polygon fill="#594A42" points="334.3,270 321.2,275 291.8,267.9 275.9,272.8 244.4,267.9 227.8,275.3 227.8,201.4 234.7,155.5 
					234.7,83.2 279.8,96.8 319.4,78 322.3,172.7 334.3,233 				"/>
				<polygon opacity="0.3" fill="#231F20" points="334.3,270 321.2,275 291.8,267.9 275.9,272.8 244.4,267.9 227.8,275.3 
					227.8,201.4 234.7,155.5 234.7,83.2 279.8,96.8 319.4,78 322.3,172.7 334.3,233 				"/>
			</g>
			<g id="Tail_3_">
				<g id="Tail_5_">
					<path fill="#006838" d="M292.5,191.3c0,0,15.8,67.5-53.6,67.5c-71,0-35-79.8-35-79.8s-3,56.8,26.5,56.8
						c37.2,0,38.4-44.7,38.4-44.7L292.5,191.3z"/>
				</g>
				<g id="Tail_4_" opacity="0.5">
					<path fill="#231F20" d="M292.5,191.3c0,0,15.8,67.5-53.6,67.5c-71,0-35-79.8-35-79.8s-3,56.8,26.5,56.8
						c37.2,0,38.4-44.7,38.4-44.7L292.5,191.3z"/>
				</g>
				<path opacity="0.5" fill="#231F20" d="M292.5,191.3l-24.1-1.6c0,0,16.3,59.3-43.2,59.3c-9.5,0-16.2-0.7-21-1.9
					c6.7,7,17.6,11.6,34.6,11.6C308.3,258.8,292.5,191.3,292.5,191.3z"/>
			</g>
			<g id="Fire_1_">
				<polygon fill="#EF4136" points="220.5,67.9 229.8,59.8 237.1,41.3 250.5,30.6 256.8,15 248.4,5 241.1,10.3 248.4,0.7 256.8,4.7 
					265.4,13 267.8,25.3 262.8,35.5 279.8,22.7 281.3,7.3 284.3,22.3 282,32 301.3,14.3 304.4,2 317.8,-4 321.8,-15 314.4,-22 
					325.4,-18 325.8,-9.7 319.4,2.3 334.3,-4.5 342.8,-12.5 338.7,0 325.8,7.9 319.4,19 310.5,30.6 319.4,25.3 334.8,10.5 
					334.4,20.3 346,12 355.1,-4 355.1,8 347.8,20.3 361.4,13.3 370.8,-3.3 367.8,-9 373.4,-5.7 373.4,2.7 370.8,17.3 365.4,28.3 
					370.8,24.3 363.1,39.6 368.8,36.9 355.8,56.5 346,57.6 335.8,64.2 322.3,64.3 310.5,71 289.5,71 278.7,81.8 250.5,80.6 				"/>
				<polygon fill="#F15A29" points="226.4,67.5 236.8,58.8 244.8,42.5 253.8,33.2 259,25 255.8,38 257.8,43.5 267.3,36.9 276.4,31 
					273.6,42.5 282,37.9 297,31.5 301.3,22 309.3,14.5 309.8,9.8 316.3,7.8 313,11.8 312.5,18.5 306.1,26 305,38 318.5,33.2 
					326.8,26.2 326.8,33.2 337.3,23 342,21 339.8,29.9 349,31.8 354.8,28.2 354.8,23.5 361,21.5 358,25 362,33.2 360,42.5 
					354.3,51.9 346,55.8 334.8,61.1 322.3,62 309.5,66.8 289.1,68 278.7,78 250.8,77.8 				"/>
				<polygon fill="#EF4136" points="298.8,-18 292.6,-13.7 289.5,-7 298.8,-12.5 				"/>
				<polygon fill="#EF4136" points="349,-9 352.2,-17.8 363.3,-21 366,-27 366,-16.7 353.6,-13.2 				"/>
				<polygon fill="#EF4136" points="226.4,41.3 229.8,30.6 240.3,25 232.5,32.5 				"/>
			</g>
			<g id="Body_3_">
				<polygon fill="#006838" points="300,86.5 295,72.8 265.3,72.8 260.3,86.5 220.8,88.2 214.3,136.1 219.8,163.7 240.3,139 
					255.1,161 255.1,166 246.1,173.1 240.3,192.2 237.3,211.5 248,236.2 246,240.5 249.5,245.5 257.4,285.8 251.5,290.4 258.4,297 
					265.1,297 271.8,292.3 265.1,285.8 266.5,247.8 270.3,241.5 265,236 272.3,216.8 270,204.5 290.3,204.5 288.7,215.5 
					295.9,234.5 292.5,240.5 295.9,248.8 295.9,286.7 288.7,292.6 295.9,297 302.6,297 309.5,291.1 303.4,287 311.2,247.3 
					314.1,242.1 313,236.2 323.7,213 320.9,193.8 313.8,175.3 304.4,166 304.4,159.1 319.4,138.3 328.4,157.7 325.8,173.1 
					342.1,202.7 338,206.9 343.8,220.4 352.8,225.3 354.8,218.2 362.1,219.7 363.8,213 370.8,210.7 367.3,197.4 358.4,196.8 
					353.1,167.7 346.4,156.4 348.8,143 346,119.3 348.1,107.1 341.5,90.2 				"/>
				<polygon opacity="0.1" fill="#231F20" points="279.3,100.9 310.4,87.4 300,86.5 295,72.8 280.5,72.8 				"/>
				<polygon opacity="0.1" fill="#231F20" points="323.7,213 266.7,193.3 262.8,216.8 256.8,234.3 262.8,242.3 258.6,250 
					261.7,287.2 256.4,292 258.4,297 265.1,297 271.8,292.3 265.1,285.8 266.5,247.8 270.3,241.5 265,236 272.3,216.8 270,204.5 
					312.5,218.9 307.8,233 307.8,241.3 302.4,247 299.5,289.8 293,295.2 295.9,297 302.6,297 309.5,291.1 303.4,287 311.2,247.3 
					314.1,242.1 313,236.2 				"/>
				<polygon opacity="0.1" fill="#231F20" points="367.3,197.4 358.4,196.8 353.1,167.7 346.4,156.4 348.8,143 346,119.3 
					348.1,107.1 341.5,90.2 335.8,116.7 345.1,142.2 337.6,158.2 353.6,200.7 351.4,213.3 343.8,220.4 352.8,225.3 354.8,218.2 
					362.1,219.7 363.8,213 370.8,210.7 				"/>
				<polygon opacity="0.1" fill="#231F20" points="280.1,166 304.4,166 304.4,159.1 319.4,138.3 319.4,123 319.4,106.8 301.3,123 
					280.1,121.5 280.1,132.3 265,135 280.1,136.4 280.1,145.2 265,147.2 280.1,151 				"/>
				<polygon opacity="0.1" fill="#231F20" points="242.1,116.7 234.1,137.3 217.8,158.2 200.4,167.7 219.8,163.7 240.3,139 				"/>
			</g>
			<g id="Left_Foot_Claws_3_">
				<polygon fill="#C2B59B" points="255.1,291.5 249.3,289.8 244.4,304 251.5,297 				"/>
				<polygon fill="#C2B59B" points="269.5,297.1 276.1,305 274.3,291.2 269.6,293.4 				"/>
				<polygon opacity="0.1" fill="#231F20" points="255.1,291.5 249.3,289.8 244.4,304 251.5,297 				"/>
				<polygon opacity="0.1" fill="#231F20" points="269.5,297.1 276.1,305 274.3,291.2 269.6,293.4 				"/>
				<polygon fill="#C2B59B" points="256.6,290.8 251.5,293.8 253,302 256.2,306 258.4,297 				"/>
				<polygon fill="#C2B59B" points="267,291.2 265.1,297 266.3,300.3 269.6,305.5 271.8,295.5 				"/>
				<polygon fill="#C2B59B" points="260.3,291.2 258.4,297 259.5,300.3 262.8,305.5 265.1,297 				"/>
			</g>
			<g id="Left_Foot_Claws_2_">
				<polygon fill="#C2B59B" points="305.9,291.5 312.1,290.8 315.8,304 309.5,297 				"/>
				<polygon fill="#C2B59B" points="291.5,297.1 284.4,304 286.6,292 291.4,293.4 				"/>
				<polygon opacity="0.1" fill="#231F20" points="305.9,291.5 312.1,290.8 315.8,304 309.5,297 				"/>
				<polygon opacity="0.1" fill="#231F20" points="291.5,297.1 284.4,304 286.6,292 291.4,293.4 				"/>
				<polygon fill="#C2B59B" points="304.6,291.2 309.5,292.5 308.2,300.7 305.6,305 302.1,296.9 				"/>
				<polygon fill="#C2B59B" points="294.2,292 295.9,297 295.3,300.3 291.4,305.5 290.1,294.1 				"/>
				<polygon fill="#C2B59B" points="300.7,291.2 302.1,296.9 301.5,300.3 298.5,305 295.9,297 				"/>
			</g>
			<g id="Left_Hand_Claws_1_">
				<polygon fill="#C2B59B" points="351.7,222.2 345.6,219.5 342.8,213.6 344.3,206.2 351.7,213 				"/>
				<polygon fill="#C2B59B" points="366.6,209.9 362.3,211.3 358.8,203.9 359.6,198.1 366,204.5 				"/>
				<polygon fill="#C2B59B" points="361,216.8 351.7,213 351,206.2 352.5,201.4 362.3,211.3 				"/>
				<polygon opacity="0.1" fill="#231F20" points="351.7,222.2 345.6,219.5 342.8,213.6 344.3,206.2 351.7,213 				"/>
				<polygon opacity="0.1" fill="#231F20" points="366.6,209.9 362.3,211.3 358.8,203.9 359.6,198.1 366,204.5 				"/>
				<polygon opacity="0.1" fill="#231F20" points="361,216.8 351.7,213 351,206.2 352.5,201.4 362.3,211.3 				"/>
				<polygon fill="#C2B59B" points="363.8,206.2 356,209.4 349.1,208.4 356.6,200.2 365.8,199.2 				"/>
			</g>
			<g id="Harness_1_">
				<polygon fill="#3C2415" points="241.8,116.7 240.3,139 280.5,113.1 293,106.8 319.4,123 319.4,117.4 299.8,103.3 311.8,97.3 
					319.4,83.2 298.8,83.2 280.1,91.5 252.6,109.6 245,101.9 240.3,104.4 245.3,114.3 				"/>
				<polygon opacity="0.3" fill="#231F20" points="280.5,113.1 293,106.8 319.4,123 319.4,117.4 299.8,103.3 311.8,97.3 319.4,83.2 
					298.8,83.2 280.1,91.5 261.6,103.6 260.4,114.7 269.3,120.3 				"/>
				<polygon fill="#A7A9AC" points="276.6,93.8 267.3,98.7 276.6,116.5 284.4,111.1 275.9,121.8 262.8,96.8 				"/>
			</g>
			<g id="Left_Pauldron_3_">
				<polygon fill="#939598" points="349.8,105 329.5,103.1 306.8,92.6 308,84.6 306.1,78 327.7,75.2 349.5,78.8 351,85.7 				"/>
				<polygon fill="#BCBEC0" points="349.9,109.9 326.8,108 302.6,95 304.2,86.7 302.6,78 305.8,76.6 308,84.6 306.8,92.6 
					329.5,103.1 351,105 				"/>
			</g>
			<g id="Right_Pauldron_3_">
				<polygon fill="#939598" points="211.9,104.8 232.3,103.1 252.6,92.6 252.6,86.5 253.8,78.2 232.6,75.2 210.8,78.8 209.3,85.7 
									"/>
				<polygon fill="#BCBEC0" points="210.8,110 233.6,108 257.8,95 256.1,86.7 257.8,76.6 254.1,76.6 252.6,86.5 252.6,92.6 
					232.3,103.1 210.5,105 				"/>
			</g>
			<g id="Right_Arm_4_">
				<polygon opacity="0.1" fill="#231F20" points="221.8,124.6 219.1,149.5 229.8,126 224.3,76.6 211.3,79.6 				"/>
				<polygon id="Right_Arm_5_" fill="#006838" points="190.8,145.2 200.4,167.7 219.8,163.7 224.1,124.6 215.8,92.6 218.8,89 
					217.6,76.4 205.9,71 203.1,75.2 198.8,72.8 194.7,77.6 189,76.6 190.8,90.3 196.8,92.6 				"/>
			</g>
			<g id="Sword_1_">
				<polygon fill="#D1D3D4" points="222.8,76.8 225.2,85.9 344.2,53.6 353.6,41.3 				"/>
				<polygon fill="#E6E7E8" points="220.2,67.1 222.8,76.8 353.5,41.4 336.4,35.7 				"/>
				<path fill="#414042" d="M212.5,58.2l4.9-1.3l10.4,38.6l-4.9,1.3l-4.3-16.2l-29.1,7.5c-0.5,1-1.4,1.9-2.6,2.2
					c-2.1,0.6-4.3-0.7-4.9-2.8c-0.6-2.1,0.7-4.3,2.8-4.9c1.2-0.3,2.4,0,3.3,0.6l29.1-7.5L212.5,58.2z"/>
			</g>
			<g id="Right_Hand_Claws_1_">
				<polygon fill="#C2B59B" points="190.8,78 191.8,83.8 193.5,88.4 199.8,91.2 198.1,83.2 195.9,79.6 				"/>
				<polygon opacity="0.1" fill="#231F20" points="190.8,78 191.8,83.8 193.5,88.4 199.8,91.2 198.1,83.2 195.9,79.6 				"/>
				<polygon fill="#C2B59B" points="206.5,73.6 204.3,78 205.9,83.6 211.2,87.3 211.9,77 				"/>
				<polygon fill="#C2B59B" points="199.3,75.2 198.1,83.2 199.8,86.3 204.3,88.4 204.3,78 				"/>
				<polygon opacity="0.1" fill="#231F20" points="206.5,73.6 204.3,78 205.9,83.6 211.2,87.3 211.9,77 				"/>
				<polygon opacity="0.1" fill="#231F20" points="199.3,75.2 198.1,83.2 199.8,86.3 204.3,88.4 204.3,78 				"/>
				<polygon fill="#C2B59B" points="209.1,78.9 201.2,84.1 199.3,88.9 210,88.4 216.4,83.2 				"/>
			</g>
			<g id="Right_Bracer_3_">
				<polygon fill="#BCBEC0" points="195.5,95.3 216.3,92.6 217.8,97.5 193.9,113.1 				"/>
				<polygon fill="#939598" points="194.5,112.3 191.7,137.3 223.2,132.4 224.1,124.6 217.2,98 				"/>
				<polygon opacity="0.1" fill="#231F20" points="204.8,105.8 211.9,123.7 211.9,134.1 223.2,132.4 224.1,124.6 217.2,98 				"/>
				<polygon fill="#BCBEC0" points="190.2,145.2 223.1,137.9 223.8,132.3 191.2,137.3 				"/>
			</g>
			<g id="Left_Bracer_3_">
				<polygon fill="#BCBEC0" points="326.8,161.5 349,159.1 351.7,163.3 325.8,166 				"/>
				<polygon fill="#BCBEC0" points="358.8,193.7 341.4,203.3 339.3,199.2 355.8,176.1 				"/>
				<polygon fill="#939598" points="327,165.9 325.8,173.1 339.8,198.5 354.8,177.3 353.1,167.7 350.5,163.3 				"/>
				<polygon opacity="0.1" fill="#231F20" points="340.3,164.5 346.7,173.5 344.4,192 354.8,177.3 353.1,167.7 350.5,163.3 				"/>
			</g>
			<g id="Head_3_">
				<polygon opacity="0.1" fill="#231F20" points="297.5,79.6 289.4,78.3 280.3,83.2 270.9,78.3 262.8,79.6 265.3,72.8 295,72.8 
									"/>
				<path fill="#006838" d="M285.5,39.9l-5.2-3l-5.2,3c0,0-22.5-3-22.5,10.6l12.5,13.2l5,0.6l5.5-7.2l4.7,2.5l4.7-2.5l5.5,7.2l5-0.6
					L308,50.5C308,36.9,285.5,39.9,285.5,39.9z"/>
				<path opacity="0.1" fill="#231F20" d="M285.5,39.9l3.3,8.4l-6.7,5.3l-1.8,5.9l-4.7-2.5l4.7,2.5l4.7-2.5l5.5,7.2l5-0.6L308,50.5
					C308,36.9,285.5,39.9,285.5,39.9z"/>
				<polygon fill="#2BB673" points="322.3,42.5 308,50.5 295.4,63.6 290.5,64.2 284.9,57 280.3,59.5 275.6,57 270.1,64.2 
					265.1,63.6 252.6,50.5 240.3,42.5 250.5,56.5 244.3,64.2 258.3,69.4 264.7,77 271,74.8 280.3,79.6 289.3,74.5 295.8,77 
					302.2,69.4 316.4,62.1 310.1,56.5 				"/>
				<polygon opacity="0.1" fill="#231F20" points="322.3,42.5 308,50.5 295.4,63.6 290.5,64.2 284.9,57 280.3,59.5 285.1,71 
					280.3,79.6 289.3,74.5 295.8,77 302.2,69.4 316.4,62.1 310.1,56.5 				"/>
				<polygon opacity="0.3" fill="#231F20" points="274.1,61.1 276.1,58.5 278.7,60.7 276.2,59.8 				"/>
				<polygon opacity="0.3" fill="#231F20" points="286.6,61.1 284.6,58.5 282,60.7 284.5,59.8 				"/>
				<polygon fill="#F9ED32" points="260.5,49.3 267.8,52.6 268.5,61.1 260.5,56.6 				"/>
				<polygon fill="#3C2415" points="264.5,51.1 265.4,55.2 264.5,58.8 263.8,55.2 				"/>
				<polygon fill="#F9ED32" points="298.8,49.3 291.5,52.6 290.8,61.1 298.8,56.6 				"/>
				<polygon fill="#3C2415" points="294.8,51.1 293.8,55.2 294.8,58.8 295.5,55.2 				"/>
				<polygon fill="#C2B59B" points="267.3,69 272.5,69 270.4,76.8 				"/>
			</g>
			<g id="Pants_1_">
				<polygon opacity="0.1" fill="#231F20" points="315.9,229.9 322.3,197.2 313.8,180.3 306.1,172.7 283.8,173 281.9,179.6 
					284.3,193.6 293.5,218.8 309.9,233.2 313.9,234.3 				"/>
				<polygon opacity="0.1" fill="#231F20" points="251.5,173.9 246.1,178.1 237.8,197.2 245.2,229.7 247.1,234.1 251.5,232.8 
					265.9,220.6 275,195.4 275,180.4 273,173.4 				"/>
				<polygon opacity="0.3" fill="#231F20" points="262.9,173.6 256.8,221.8 266.5,223.9 269.9,223.1 271.9,217.7 279,198.4 
					289.8,218.3 291.9,223.9 292.6,223.9 302.5,221.8 295.3,172.7 				"/>
				<polygon fill="#3C2415" points="275.3,212.9 283.2,212.9 278.7,204.1 				"/>
				<polygon opacity="0.3" fill="#231F20" points="275.3,212.9 283.2,212.9 278.7,204.1 				"/>
				<polygon fill="#3C2415" points="262.9,168.6 256.8,216.8 266.5,218.9 275.5,216.8 278.8,208 282.8,216.8 292.6,218.9 
					302.5,216.8 295.3,167.7 				"/>
				<polygon opacity="0.1" fill="#231F20" points="278.8,208 282.8,216.8 292.6,218.9 302.5,216.8 295.3,167.7 279.3,168.2 				"/>
				<polygon fill="#594A42" points="251.5,168.9 246.1,173.1 237.8,192.2 234.7,233 251.5,227.8 265.9,215.6 275,190.4 275,175.4 
					273,168.4 				"/>
				<polygon fill="#594A42" points="327.5,233 322.3,192.2 313.8,175.3 306.1,167.7 283.8,168 281.9,174.6 284.3,188.6 293.5,213.8 
					309.9,228.2 				"/>
				<polygon opacity="0.1" fill="#231F20" points="327.5,233 322.3,192.2 313.8,175.3 306.1,167.7 283.8,168 281.9,174.6 
					284.3,188.6 293.5,213.8 309.9,228.2 				"/>
				<polygon fill="#594A42" points="234.7,233 246.3,232.4 245.2,229.7 				"/>
				<polygon opacity="0.1" fill="#231F20" points="234.7,233 246.3,232.4 245.2,229.7 				"/>
				<polygon fill="#594A42" points="327.5,233 315.9,229.9 314.9,232 				"/>
				<polygon opacity="0.1" fill="#231F20" points="327.5,233 315.9,229.9 314.9,232 				"/>
			</g>
			<g id="Belt_3_">
				<polygon fill="#3C2415" points="252.8,160.8 306.1,159.1 306.1,167.7 251.5,168.9 				"/>
				<polygon opacity="0.3" fill="#231F20" points="273.6,160.1 306.1,159.1 306.1,167.7 271.6,168.4 268.5,163.3 				"/>
				<polygon fill="#A7A9AC" points="282.3,159.8 276.3,159.6 276.2,168.4 282.3,168.1 275,169.9 275,158.2 				"/>
			</g>
			<g id="Left_Greaves_1_">
				<polygon fill="#939598" points="303.3,250 294,255 294.8,281.8 299,285.8 304.8,282.5 310.8,256.1 				"/>
				<polygon opacity="0.1" fill="#231F20" points="303.3,250 299,285.8 304.8,282.5 310.8,256.1 				"/>
				<polygon fill="#BCBEC0" points="303.4,247 312.5,255.1 311.9,257 308.9,254.6 302.5,257.5 296.7,253.5 293,255.5 292.6,253 				
					"/>
				<polygon fill="#BCBEC0" points="294.3,281.4 299,285.8 305.3,282.2 305.3,283.8 299,287.2 293.8,282.9 				"/>
			</g>
			<g id="Right_Greaves_1_">
				<polygon fill="#BCBEC0" points="258.4,247.5 249.2,253.5 249.5,256.2 251.3,254.8 253.5,253 258.4,255.8 263.5,252.2 267.4,255 
					268,252.7 				"/>
				<polygon fill="#BCBEC0" points="254.8,281.8 261.7,283.6 267,281.2 267,278.9 261.7,282.2 254.8,280.5 				"/>
				<polygon fill="#939598" points="250.6,255.4 253.5,253 258.4,255.8 263.5,252.2 266.7,254.5 266.1,279.5 261.7,282.2 
					255.5,280.7 				"/>
				<polygon opacity="0.1" fill="#231F20" points="258.4,255.8 263.5,252.2 266.7,254.5 266.1,279.5 261.7,282.2 				"/>
			</g>
		</g>
	</g>
</g>
<g id="Monk">
</g>
<g id="DM">
</g>
</svg>
